<svg width="252" height="283" viewBox="0 0 252 283" fill="none" xmlns="http://www.w3.org/2000/svg">
<mask id="mask0_217_1529" style="mask-type:luminance" maskUnits="userSpaceOnUse" x="180" y="73" width="61" height="74">
<path d="M180.899 73.429H240.521V146.554H180.899V73.429Z" fill="white"/>
</mask>
<g mask="url(#mask0_217_1529)">
<path d="M240.431 140.845C239.958 141.063 239.726 141.356 239.535 141.687C239.333 142.011 239.118 142.323 238.885 142.608C238.427 143.181 237.885 143.641 237.33 143.918C236.771 144.195 236.184 144.222 235.618 144.066C235.049 143.906 234.608 143.551 234.219 142.994C233.837 142.432 233.521 141.711 233.094 140.95C232.691 140.202 232.01 139.328 231.063 138.946C230.601 138.759 230.125 138.693 229.667 138.685C229.181 138.72 228.622 138.841 228.142 139.223C227.684 139.605 227.41 140.073 227.191 140.479C226.986 140.888 226.826 141.262 226.663 141.609C226.351 142.307 226.004 142.884 225.549 143.376C225.104 143.855 224.535 144.327 224.073 144.429C223.622 144.542 223.16 144.374 222.629 143.902C222.108 143.446 221.594 142.834 220.997 142.268C220.413 141.691 219.708 141.134 218.865 140.876C218.021 140.588 216.993 140.751 216.288 141.297C215.563 141.816 215.035 142.518 214.611 143.255C214.399 143.621 214.222 144.011 214.052 144.397C213.892 144.787 213.792 145.224 213.941 145.743C214.368 145.497 214.597 145.189 214.785 144.846C214.979 144.514 215.181 144.187 215.403 143.883C215.837 143.278 216.319 142.721 216.861 142.374C217.403 142.023 217.969 141.945 218.538 142.144C219.125 142.342 219.653 142.775 220.16 143.309C220.663 143.851 221.129 144.487 221.74 145.099C222.056 145.4 222.403 145.708 222.865 145.914C223.302 146.148 223.854 146.183 224.347 146.113C224.587 146.066 224.809 145.977 225.042 145.899C225.243 145.793 225.444 145.68 225.642 145.567C226.007 145.314 226.351 145.052 226.67 144.733C227.306 144.097 227.813 143.29 228.184 142.522C228.372 142.14 228.531 141.765 228.694 141.457C228.854 141.153 229.01 140.931 229.149 140.818C229.281 140.709 229.472 140.67 229.715 140.642C229.851 140.658 229.997 140.642 230.125 140.666C230.247 140.701 230.389 140.693 230.5 140.755C230.962 140.919 231.365 141.317 231.747 141.956C232.135 142.576 232.5 143.341 233.042 144.074C233.576 144.811 234.417 145.446 235.302 145.626C236.174 145.844 237.132 145.669 237.896 145.205C238.67 144.752 239.243 144.058 239.698 143.333C239.927 142.974 240.129 142.596 240.309 142.21C240.493 141.828 240.611 141.387 240.431 140.845ZM187.604 91.6273C187.674 92.181 187.653 92.801 187.448 93.2963C187.274 93.8149 187.004 94.2126 186.743 94.5713C186.205 95.2654 185.646 95.7996 185.17 96.3729C184.705 96.9461 184.326 97.5466 184.156 98.2056C183.99 98.8489 184.066 99.4806 184.389 100.085C184.705 100.689 185.208 101.22 185.757 101.699C186.028 101.941 186.323 102.163 186.625 102.374C186.931 102.585 187.208 102.834 187.438 103.31C186.976 103.489 186.583 103.38 186.236 103.205C185.889 103.021 185.538 102.83 185.208 102.596C184.545 102.136 183.913 101.551 183.438 100.744C182.941 99.9603 182.778 98.8139 183.024 97.8624C183.24 96.911 183.726 96.1116 184.229 95.4487C184.726 94.7702 185.264 94.1814 185.66 93.5926C186.069 92.9882 186.215 92.4657 186.108 91.9627C186.01 91.4441 185.58 90.8124 185.146 90.321C184.701 89.8219 184.184 89.4398 183.556 89.1005C183.24 88.9251 182.906 88.7457 182.542 88.5234C182.174 88.2856 181.754 87.9853 181.406 87.4745C181.056 86.9481 180.941 86.3203 180.903 85.7744C180.903 85.2597 180.951 84.7255 181.115 84.2029C181.441 83.1345 182.208 82.3585 182.868 81.8984C183.542 81.4071 184.177 81.0406 184.674 80.5999C185.16 80.1593 185.472 79.6563 185.608 79.0129C185.736 78.3773 185.701 77.7183 185.448 77.0944C185.191 76.4744 184.771 75.8739 184.254 75.3709C183.997 75.1135 183.719 74.8757 183.427 74.6573C183.129 74.4467 182.865 74.1933 182.66 73.6669C183.142 73.4524 183.538 73.5811 183.879 73.78C184.226 73.9749 184.563 74.1972 184.892 74.4467C185.542 74.9459 186.17 75.5776 186.583 76.4432C187.01 77.2894 187.181 78.3656 187 79.3482C186.851 80.3387 186.302 81.2901 185.653 81.9062C185.007 82.5262 184.333 82.9474 183.785 83.3919C183.222 83.8325 182.875 84.2848 182.733 84.8073C182.681 84.9321 182.691 85.092 182.66 85.2285C182.642 85.3767 182.66 85.5365 182.646 85.6886C182.674 85.9616 182.708 86.1721 182.809 86.3203C182.913 86.4763 183.115 86.6517 183.385 86.8272C183.667 87.0027 184 87.1782 184.344 87.3809C185.035 87.7826 185.764 88.3402 186.337 89.0421C186.629 89.393 186.868 89.779 187.097 90.1807C187.201 90.4029 187.306 90.6252 187.403 90.8514C187.476 91.1087 187.559 91.3622 187.604 91.6273Z" fill="#F1E510"/>
</g>
<mask id="mask1_217_1529" style="mask-type:luminance" maskUnits="userSpaceOnUse" x="25" y="18" width="179" height="232">
<path d="M25.7778 18.9666H203.556V249.313H25.7778V18.9666Z" fill="white"/>
</mask>
<g mask="url(#mask1_217_1529)">
<path d="M193.347 170.414L193.948 169.127C194.601 170.383 195.038 171.537 195.038 171.537C195.038 171.537 194.406 171.073 193.347 170.414ZM202.819 177.156C201.826 174.929 203.479 174.185 203.111 170.001C203.111 170.001 201.229 164.233 197.646 161.208L187.871 152.153L180.465 159.944L166.892 164.592L161.503 179.983L181.444 187.208C181.49 187.271 181.524 187.329 181.542 187.376C181.67 187.735 180.965 188.624 180.052 189.579C179.736 189.38 179.437 189.193 179.163 189.026C177.944 188.281 176.476 188.304 175.278 189.092C170.691 192.129 158.934 199.527 155.93 197.776C150.74 194.75 154.566 147.38 151.996 139.051C150.809 135.199 149.278 131.549 147.531 128.121L135.08 98.9152L141.507 70.719V37.9721L140.257 36.8608C140.271 36.5411 140.278 36.3266 140.281 36.2564L140.302 35.7768L139.972 35.4726C139.684 35.2075 139.128 34.5173 138.486 33.7179C135.08 29.4871 127.104 19.571 116.601 19.571C114.413 19.571 112.208 20.0039 110.049 20.8539C106.062 22.4254 103.146 25.4318 100.993 29.1401L99.9305 29.1791L76.4131 63.8522L41.1874 104.16L28.8333 124.004L29.9131 131.611C29.9097 131.631 29.9097 131.662 29.9062 131.685C27.4444 140.159 26.1319 150.328 26.7117 161.363C27.3541 173.689 28.7812 205.867 37.3749 227.095C36.9826 234.629 36.2187 242.014 34.9513 248.994L135.097 249.314C135.097 249.314 136.01 242.985 137.312 233.623C141.285 236.535 147.5 239.975 153.642 238.844C178.875 234.192 192.719 213.018 192.552 204.471C192.514 202.541 191.705 200.634 190.479 198.84C193.042 195.998 195.295 193.389 195.865 192.395C197.354 189.794 201.33 185.797 200.583 183.941C199.837 182.081 203.812 179.386 202.819 177.156Z" fill="white"/>
</g>
<path d="M217.003 119.765L197.646 161.207C197.212 160.845 196.76 160.517 196.278 160.248C191.809 157.741 184.108 157.324 184.354 160.108C184.604 162.896 189.819 165.263 191.559 166.101C192.427 166.518 193.295 167.875 193.948 169.127L193.347 170.414C189.528 168.039 180.111 163.126 174.337 168.144C172.34 169.883 169.941 180.603 172.757 181.714C175.427 182.771 180.632 186.077 181.444 187.208L135.385 189.493C134.045 189.56 132.84 188.596 132.455 187.158C132.236 186.343 132.309 185.469 132.653 184.713L164.41 115.491C164.913 114.396 165.923 113.709 167.024 113.713L213.455 113.978C214.177 113.982 214.871 114.282 215.406 114.824L216.371 115.807C217.361 116.809 217.621 118.439 217.003 119.765Z" fill="#7ED957"/>
<path d="M136.997 172.933C137.073 173.022 137.191 173.054 137.573 172.972C137.813 172.656 137.788 172.465 137.719 172.32C137.656 172.161 137.583 172.051 137.514 171.915C137.368 171.654 137.215 171.408 137.049 171.186C136.722 170.722 136.351 170.336 135.99 169.93C135.257 169.131 134.521 168.351 133.695 167.704C132.879 167.041 132.004 166.475 131.146 165.886C130.719 165.594 130.316 165.263 129.892 164.958C129.684 164.806 129.465 164.666 129.24 164.537L128.892 164.358C128.778 164.296 128.629 164.288 128.347 164.498C128.271 164.869 128.326 165.021 128.413 165.122L128.677 165.426C128.858 165.621 129.045 165.809 129.24 165.98C129.629 166.327 130.031 166.655 130.406 167.021C131.156 167.758 131.882 168.526 132.639 169.236C133.382 169.961 134.215 170.566 134.997 171.229L136.149 172.219C136.347 172.383 136.538 172.539 136.722 172.699C136.813 172.777 136.927 172.855 136.997 172.933ZM119.455 207.278L118.681 208.101L117.858 208.865L116.229 210.413L114.604 211.965C114.052 212.464 113.479 212.944 112.92 213.439C111.792 214.41 110.691 215.42 109.542 216.364L106.059 219.144C104.91 220.088 103.695 220.922 102.514 221.819C100.149 223.601 97.7223 225.285 95.3091 226.986L91.6564 229.485C90.4376 230.316 89.1876 231.096 87.9584 231.903C86.7293 232.722 85.4827 233.498 84.2327 234.277C82.9897 235.061 81.7362 235.837 80.4723 236.582C77.9515 238.091 75.3959 239.526 72.8265 240.926L68.9758 243.039L67.0452 244.084C66.3994 244.431 65.7814 244.833 65.2432 245.469C66.0244 245.48 66.7189 245.242 67.382 244.938L69.3682 244.014C70.6945 243.394 72.007 242.739 73.3057 242.057C74.6112 241.394 75.8994 240.676 77.1876 239.974C78.4862 239.28 79.764 238.555 81.0487 237.834C86.1911 234.975 91.2605 231.934 96.205 228.635C101.122 225.293 105.896 221.671 110.458 217.725C111.601 216.746 112.698 215.693 113.82 214.679C114.375 214.164 114.945 213.669 115.479 213.131L117.07 211.49L118.656 209.84L119.441 209.006L120.181 208.117L121.656 206.346C122.153 205.761 122.604 205.126 122.847 204.283C122.083 204.58 121.524 205.083 121.011 205.637L119.455 207.278ZM156.528 199.218C155.653 199.148 154.868 199.226 154.045 199.343C153.236 199.472 152.427 199.659 151.639 199.951C150.847 200.244 150.087 200.653 149.389 201.191C149.056 201.495 148.719 201.78 148.451 202.154C148.309 202.334 148.163 202.501 148.052 202.708C147.945 202.915 147.879 203.168 148.011 203.539C148.389 203.578 148.573 203.5 148.715 203.367C148.837 203.223 148.993 203.114 149.136 203.001C149.413 202.751 149.74 202.576 150.042 202.373C150.681 202.018 151.354 201.753 152.052 201.542C152.754 201.343 153.483 201.238 154.212 201.18C154.389 201.164 154.566 201.156 154.747 201.148C154.507 201.562 154.254 201.963 154.042 202.392C153.521 203.379 153.059 204.4 152.653 205.446C152.257 206.498 151.875 207.555 151.573 208.647C151.431 209.197 151.302 209.75 151.236 210.324C151.191 210.608 151.177 210.897 151.156 211.185C151.129 211.47 151.153 211.782 151.486 212.086C151.851 211.84 151.945 211.603 151.997 211.337L152.205 210.569C152.351 210.058 152.5 209.552 152.66 209.045C152.969 208.027 153.361 207.04 153.833 206.101C154.306 205.161 154.833 204.26 155.392 203.383C155.67 202.942 155.962 202.517 156.247 202.084L157.139 200.813L157.153 200.794C157.257 200.645 157.323 200.458 157.337 200.255C157.368 199.717 157.007 199.253 156.528 199.218ZM141.233 161.636C141.785 161.367 142.267 160.946 142.767 160.56C143.014 160.361 143.267 160.178 143.504 159.952C143.622 159.842 143.733 159.718 143.844 159.593L144.004 159.394C144.063 159.343 144.09 159.219 143.983 158.829C143.747 158.525 143.642 158.482 143.57 158.509L143.333 158.556C143.181 158.595 143.028 158.634 142.882 158.688C142.587 158.79 142.313 158.934 142.031 159.063C141.472 159.328 140.903 159.566 140.399 159.944C139.886 160.299 139.42 160.751 138.931 161.157C138.684 161.363 138.42 161.523 138.167 161.71C138.042 161.804 137.924 161.913 137.809 162.03L137.771 162.077C137.636 162.011 137.5 161.944 137.361 161.897C136.601 161.585 135.809 161.383 135.031 161.164C134.639 161.055 134.267 160.899 133.879 160.778C133.688 160.716 133.49 160.673 133.288 160.642L132.986 160.607C132.882 160.595 132.761 160.642 132.57 160.946C132.566 161.316 132.636 161.433 132.719 161.496L132.979 161.671C133.153 161.78 133.33 161.882 133.511 161.968C133.875 162.139 134.243 162.287 134.597 162.482C135.309 162.876 135.993 163.317 136.705 163.683C137.399 164.073 138.146 164.327 138.861 164.646C139.219 164.806 139.559 164.986 139.917 165.138C140.09 165.216 140.264 165.294 140.445 165.364C140.542 165.395 140.615 165.438 140.705 165.477C140.785 165.528 140.903 165.516 141.215 165.286C141.379 164.919 141.337 164.771 141.264 164.682C141.191 164.588 141.122 164.475 141.049 164.393C140.896 164.225 140.743 164.046 140.576 163.898C140.247 163.601 139.892 163.36 139.542 163.122C139.33 162.981 139.118 162.841 138.91 162.709C139.115 162.595 139.316 162.478 139.535 162.385C140.101 162.139 140.691 161.936 141.233 161.636ZM131.479 186.003C131.142 185.992 130.802 185.992 130.469 185.992C130.139 185.988 129.754 186.027 129.566 185.984C129.344 185.937 129.174 185.847 129.021 185.703C128.715 185.414 128.493 184.83 128.379 184.198C128.264 183.57 128.222 182.837 128.254 182.209C128.271 181.889 128.136 181.585 127.913 181.398C127.896 181.344 127.879 181.308 127.858 181.293L127.708 181.176C127.611 181.094 127.507 181.024 127.403 180.969C127.191 180.841 126.972 180.739 126.771 180.568C126.372 180.24 126.014 179.827 125.615 179.487C125.226 179.125 124.761 178.883 124.32 178.587C124.097 178.446 123.882 178.286 123.642 178.162C123.524 178.095 123.399 178.041 123.271 177.986L123.076 177.912C123.017 177.877 122.917 177.904 122.636 178.154C122.455 178.501 122.448 178.622 122.493 178.684L122.597 178.895C122.67 179.027 122.747 179.16 122.833 179.285C123.004 179.526 123.201 179.729 123.392 179.944C123.781 180.369 124.17 180.809 124.656 181.102C125.024 181.347 125.431 181.519 125.847 181.683C125.629 181.839 125.441 182.022 125.274 182.209C125.017 182.498 124.823 182.802 124.642 183.114C124.552 183.27 124.479 183.426 124.399 183.586C124.337 183.703 124.295 183.788 124.222 183.905C123.66 184.81 122.861 185.754 122.087 186.635C121.302 187.532 120.469 188.39 119.608 189.209C119.181 189.618 118.754 190.031 118.34 190.468C118.247 190.562 118.156 190.663 118.066 190.761C117.629 190.371 117.198 189.977 116.774 189.575C114.101 187.029 111.59 184.252 109.576 181.055C108.813 179.838 108.129 178.556 107.535 177.226C107.767 177.136 107.986 177.023 108.195 176.894C108.656 176.602 109.118 176.309 109.573 176.001C110.493 175.409 111.372 174.746 112.243 174.067C113.979 172.699 115.642 171.217 117.247 169.645C118.854 168.086 120.389 166.413 121.809 164.607L123.816 161.858C124.476 160.973 125.16 160.112 125.886 159.312C126.594 158.489 127.354 157.741 128.139 157.035C128.948 156.376 129.764 155.717 130.646 155.206C132.396 154.126 134.347 153.541 136.392 153.058L142.545 151.572C143.573 151.342 144.597 151.073 145.622 150.827L147.167 150.461C147.681 150.34 148.181 150.149 148.646 149.673C148.073 149.388 147.538 149.392 147.017 149.466L145.451 149.689C144.406 149.845 143.358 149.985 142.32 150.176C141.278 150.359 140.236 150.539 139.198 150.749L136.094 151.393C135.056 151.607 133.997 151.845 132.945 152.176C131.889 152.504 130.854 152.96 129.865 153.51C127.865 154.606 126.156 156.224 124.653 157.959C123.903 158.836 123.212 159.764 122.549 160.712L120.636 163.508C119.34 165.305 117.917 167.002 116.41 168.6C114.889 170.191 113.267 171.661 111.59 173.05C110.754 173.744 109.906 174.426 109.056 175.105C108.629 175.444 108.198 175.767 107.764 176.095C107.583 176.228 107.41 176.376 107.247 176.54C107.167 176.352 107.083 176.169 107.007 175.982L106.514 174.629L106.08 173.248L105.729 171.833C105.695 171.642 105.653 171.455 105.59 171.275L105.66 171.256C105.931 171.182 106.212 171.116 106.493 171.061C107.059 170.952 107.629 170.858 108.201 170.819C108.771 170.772 109.344 170.78 109.906 170.85C110.472 170.924 111.011 170.975 111.681 170.924C111.264 170.328 110.639 170.047 110.028 169.922C109.41 169.798 108.792 169.747 108.17 169.747C107.556 169.747 106.938 169.786 106.33 169.883C106.021 169.934 105.722 169.989 105.41 170.063L104.535 170.277C102.195 170.878 99.8994 171.626 97.6077 172.406C96.4654 172.796 95.3161 173.186 94.1876 173.623L92.4827 174.266L90.7987 174.96L89.1147 175.666L87.4515 176.43L85.7848 177.195L84.1459 178.025C79.7883 180.279 75.5626 182.884 71.632 185.995L70.882 186.557L70.1633 187.165L68.7223 188.382C68.2432 188.787 67.7605 189.189 67.2883 189.61L65.9341 190.944C65.4827 191.392 65.0279 191.829 64.5834 192.285L63.9202 192.968L63.2952 193.701L62.0522 195.163C61.6355 195.643 61.2605 196.177 61.0904 196.918C61.7744 196.73 62.2536 196.333 62.6911 195.884L64.007 194.555L64.6633 193.892L65.3612 193.279C65.83 192.878 66.2883 192.461 66.7501 192.047L68.1286 190.811L69.573 189.665L71.0105 188.518L71.7327 187.941L72.4793 187.411L75.4723 185.305L78.5591 183.363C80.6494 182.135 82.7223 180.872 84.8716 179.776L86.4654 178.914L88.0869 178.107L89.7084 177.304L91.3508 176.555L92.9932 175.799L94.6494 175.097C95.7536 174.613 96.8716 174.18 97.9897 173.744C100.233 172.901 102.507 172.141 104.795 171.494L104.82 171.49C104.813 171.665 104.823 171.845 104.844 172.016L105.073 173.537L105.396 175.042C105.531 175.534 105.667 176.029 105.823 176.512C106.448 178.454 107.32 180.287 108.32 182.01C110.326 185.461 112.854 188.483 115.67 191.069C117.087 192.348 118.559 193.541 120.097 194.629C120.861 195.171 121.639 195.693 122.434 196.188C122.826 196.438 123.229 196.68 123.636 196.914C123.823 197.027 124.09 197.167 124.302 197.257C124.528 197.354 124.75 197.444 124.976 197.522C125.438 197.682 125.903 197.822 126.42 197.877C126.677 197.904 126.951 197.908 127.243 197.857C127.531 197.807 127.865 197.678 128.146 197.405C128.431 197.128 128.594 196.73 128.649 196.387C128.708 196.04 128.695 195.724 128.663 195.432C128.594 194.847 128.441 194.332 128.264 193.837C127.906 192.854 127.458 191.958 126.972 191.096C126.726 190.667 126.469 190.246 126.205 189.836C125.948 189.419 125.632 189.045 125.118 188.826C125.101 189.446 125.278 189.907 125.497 190.335C125.719 190.768 125.92 191.209 126.129 191.646C126.528 192.523 126.931 193.396 127.215 194.286C127.354 194.73 127.476 195.175 127.517 195.588C127.566 196.005 127.49 196.329 127.375 196.403C127.267 196.52 126.92 196.578 126.549 196.52C126.174 196.465 125.774 196.344 125.386 196.181C125.191 196.099 125 196.009 124.809 195.912C124.608 195.814 124.476 195.732 124.271 195.596C123.896 195.35 123.517 195.097 123.146 194.835C122.399 194.309 121.667 193.759 120.948 193.19C120.236 192.628 119.535 192.047 118.844 191.451C118.889 191.42 118.934 191.388 118.976 191.353C119.448 190.991 119.899 190.601 120.344 190.199L123.007 187.77C123.892 186.924 124.771 186.128 125.576 185.001C125.674 184.861 125.781 184.674 125.868 184.522C125.934 184.408 126 184.288 126.07 184.178C126.212 183.968 126.351 183.757 126.504 183.597C126.545 183.554 126.587 183.519 126.629 183.48C126.677 183.863 126.747 184.241 126.844 184.631C127.063 185.438 127.382 186.339 128.156 186.986C128.531 187.302 129.024 187.469 129.472 187.473C129.955 187.469 130.24 187.384 130.576 187.325C130.91 187.255 131.243 187.185 131.573 187.103C131.899 186.994 132.247 187.099 132.528 186.448C132.142 185.867 131.82 186.042 131.479 186.003ZM134.809 178.286C134.663 178.068 134.511 177.865 134.347 177.674C134.024 177.28 133.67 176.945 133.323 176.598C132.629 175.908 131.941 175.21 131.163 174.652C130.403 174.075 129.583 173.588 128.785 173.073C128.389 172.816 128.014 172.515 127.622 172.242C127.427 172.11 127.226 171.985 127.014 171.876L126.695 171.716C126.587 171.665 126.448 171.665 126.174 171.884C126.09 172.246 126.139 172.395 126.219 172.488L126.462 172.769C126.629 172.948 126.802 173.124 126.979 173.276C127.34 173.596 127.719 173.884 128.066 174.219C128.761 174.886 129.438 175.588 130.153 176.22C130.854 176.867 131.642 177.39 132.396 177.951C132.778 178.228 133.146 178.524 133.528 178.786L134.108 179.168C134.201 179.23 134.313 179.289 134.396 179.351C134.479 179.421 134.601 179.433 134.951 179.265C135.142 178.91 135.104 178.739 135.028 178.626C134.955 178.497 134.882 178.403 134.809 178.286ZM190.195 207.957C189.948 207.89 189.705 207.844 189.465 207.77C188.986 207.61 188.504 207.489 188.038 207.325C187.57 207.157 187.101 206.997 186.653 206.791C186.195 206.615 185.757 206.381 185.326 206.147C185.226 206.093 185.136 206.034 185.038 205.976C185.295 205.738 185.538 205.488 185.788 205.243C186.403 204.619 187.045 204.022 187.576 203.309C188.125 202.615 188.611 201.854 189.122 201.113C189.379 200.747 189.663 200.415 189.934 200.06C190.07 199.885 190.191 199.694 190.309 199.499L190.472 199.195C190.528 199.093 190.542 198.949 190.386 198.618C190.09 198.462 189.958 198.481 189.872 198.548L189.608 198.746C189.438 198.883 189.274 199.031 189.122 199.191C188.82 199.507 188.535 199.842 188.219 200.142C187.583 200.751 186.927 201.328 186.333 201.971C185.719 202.599 185.215 203.344 184.688 204.061C184.427 204.424 184.156 204.775 183.913 205.157C183.906 205.169 183.903 205.184 183.892 205.196C182.788 204.342 181.826 203.285 181.007 202.108C179.875 200.419 179.052 198.427 178.597 196.282C178.379 195.21 178.267 194.106 178.215 193.003C178.198 192.445 178.167 191.891 178.156 191.334L178.142 190.499C178.142 190.219 178.087 189.938 177.816 189.606C177.465 189.836 177.358 190.125 177.309 190.413C177.264 190.702 177.222 190.991 177.188 191.279C177.122 191.864 177.097 192.449 177.094 193.034C177.108 194.208 177.201 195.381 177.368 196.547C177.681 198.875 178.354 201.238 179.615 203.25C180.868 205.27 182.715 206.775 184.688 207.699C185.184 207.929 185.684 208.148 186.195 208.308C186.701 208.503 187.226 208.596 187.74 208.721C188.257 208.846 188.785 208.873 189.302 208.939C189.563 208.959 189.826 208.955 190.087 208.963C190.344 208.978 190.615 208.924 190.896 208.557C190.674 208.124 190.438 208.007 190.195 207.957ZM195.153 177.659C194.771 177.288 194.372 176.945 193.962 176.61C193.146 175.947 192.285 175.362 191.41 174.804C189.656 173.697 187.82 172.703 185.879 172.063C183.948 171.385 181.951 170.967 179.951 170.753C178.955 170.601 177.951 170.535 176.948 170.476C176.448 170.429 175.945 170.472 175.445 170.511L174.695 170.581C174.445 170.609 174.195 170.698 173.958 171.049C174.215 171.404 174.458 171.494 174.701 171.521L175.434 171.599C175.92 171.642 176.403 171.665 176.882 171.736L178.333 171.888C178.813 171.934 179.288 172.063 179.767 172.145C180.722 172.32 181.653 172.632 182.587 172.898C183.052 173.042 183.507 173.225 183.969 173.385L184.66 173.619L185.34 173.9C187.153 174.621 188.965 175.366 190.701 176.317C191.573 176.785 192.424 177.304 193.278 177.822L194.545 178.622C194.757 178.754 194.965 178.891 195.174 179.035C195.382 179.183 195.611 179.273 196.031 179.14C196.066 178.657 195.91 178.403 195.719 178.224C195.531 178.033 195.344 177.842 195.153 177.659ZM189.604 137.842C191.052 136.427 191.243 134.278 190.021 133.05C188.802 131.818 186.639 131.97 185.191 133.385C183.743 134.805 183.552 136.953 184.774 138.185C185.99 139.414 188.156 139.262 189.604 137.842ZM194.087 183.605C193.875 183.477 193.663 183.332 193.448 183.211C193.017 182.977 192.587 182.74 192.146 182.541L189.497 181.347C187.743 180.529 185.997 179.686 184.222 178.949C182.448 178.189 180.629 177.592 178.816 176.961C177.91 176.649 177.007 176.333 176.087 176.056C175.636 175.908 175.17 175.783 174.708 175.662L174.011 175.483C173.781 175.417 173.531 175.413 173.195 175.709C173.302 176.173 173.504 176.341 173.722 176.446L174.368 176.781C174.802 176.996 175.236 177.214 175.677 177.413C176.549 177.826 177.438 178.193 178.32 178.579C180.09 179.328 181.847 180.127 183.649 180.774C185.445 181.445 187.264 182.03 189.066 182.669C189.965 182.997 190.854 183.352 191.74 183.714C192.184 183.89 192.625 184.061 193.076 184.217L193.736 184.455C193.986 184.545 194.125 184.541 194.542 184.401C194.545 184.003 194.285 183.714 194.087 183.605ZM181.754 188.869C181.972 189.302 182.188 189.762 182.538 190.094C182.875 190.441 183.292 190.694 183.705 190.944C183.913 191.061 184.094 191.221 184.313 191.33C184.424 191.384 184.531 191.431 184.66 191.451L184.847 191.466C184.91 191.474 185 191.416 185.163 191.115C185.233 190.768 185.226 190.659 185.191 190.612L185.101 190.48C185.031 190.406 184.969 190.316 184.896 190.254C184.75 190.133 184.601 190 184.476 189.836C184.226 189.509 184.042 189.099 183.799 188.768C183.576 188.417 183.257 188.144 182.965 187.832C182.816 187.68 182.684 187.512 182.517 187.368C182.434 187.294 182.347 187.228 182.254 187.161L182.108 187.068C182.07 187.029 181.972 187.037 181.642 187.193C181.372 187.45 181.33 187.555 181.347 187.614L181.372 187.816C181.396 187.945 181.424 188.074 181.462 188.191C181.535 188.436 181.646 188.651 181.754 188.869ZM211.434 116.86L207.788 116.758L200.497 116.579L185.913 116.349L171.33 116.15C169.917 116.084 168.399 116.739 167.413 117.948C167.16 118.248 166.945 118.583 166.754 118.934L166.618 119.207L166.511 119.433L166.302 119.89L165.472 121.711L162.146 128.995L149.031 158.24L142.427 172.835C141.333 175.272 140.236 177.705 139.17 180.158L137.559 183.827C137.024 185.056 136.538 186.307 136.264 187.684C137.101 186.631 137.722 185.457 138.299 184.256L140.021 180.649C141.174 178.247 142.299 175.826 143.42 173.408L150.142 158.883L163.677 129.884L167.017 122.607L167.851 120.79L168.056 120.334L168.163 120.108L168.25 119.936C168.375 119.706 168.517 119.484 168.684 119.289C169.351 118.486 170.288 118.034 171.309 118.065L185.899 118.057L200.486 118.01L207.781 117.924L211.427 117.87C212.646 117.854 213.858 117.784 215.076 117.39C213.865 116.977 212.649 116.891 211.434 116.86ZM124.872 76.8017C124.611 76.8095 124.354 76.8056 124.097 76.8056C123.583 76.8134 123.076 76.8056 122.576 76.7627C121.57 76.6652 120.618 76.3572 119.701 76.0179C119.465 75.936 119.233 75.8541 119.017 75.7255C118.799 75.6085 118.563 75.5227 118.347 75.3901C117.92 75.1094 117.476 74.8442 117.097 74.4699C116.677 74.1462 116.382 73.6744 116.031 73.2533C115.851 73.0544 115.715 72.8009 115.542 72.5826L115.274 72.255C115.188 72.142 115.049 72.064 114.701 72.1069C114.497 72.4032 114.504 72.5826 114.556 72.7308L114.722 73.1714C114.851 73.456 114.951 73.7641 115.136 74.0098C115.483 74.5206 115.823 75.0392 116.24 75.4954C117 76.4781 117.976 77.3086 119.076 77.8233C120.17 78.3692 121.382 78.5135 122.538 78.4706C123.118 78.4394 123.695 78.3926 124.257 78.2406C124.535 78.1704 124.813 78.0729 125.08 77.9598C125.215 77.9052 125.347 77.8389 125.483 77.7765C125.615 77.7219 125.74 77.5894 125.764 77.1643C125.531 76.8251 125.396 76.7744 125.264 76.79C125.132 76.7939 125.007 76.8056 124.872 76.8017ZM67.2084 92.7033C69.3195 86.0159 79.0105 79.4611 79.0105 79.4611C82.1807 78.3926 85.198 77.8818 88.0661 77.8077C91.455 71.8183 94.3091 66.211 95.1633 63.0564C96.1737 63.1032 97.3612 62.9278 98.7397 62.4988C96.4064 59.5002 96.2015 52.3215 99.1737 49.5413C100.945 47.8879 102.649 48.9252 103.983 50.5473C105.879 52.8596 106.608 56.0805 105.896 58.9738C106.146 58.8178 106.396 58.6658 106.653 58.4942C109.743 56.486 109.868 49.5686 109.528 44.6632C119.483 47.8879 131.549 44.2927 139.306 38.8648C139.011 44.5111 138.219 57.7065 136.924 63.8792C135.254 71.8534 132.33 82.4051 120.094 87.1467C116.646 88.4803 114.983 87.7979 114.983 87.7979C114.983 87.7979 114.865 88.57 114.708 89.8217C119.486 94.0642 123.531 98.4509 126.983 101.161C128.097 102.038 129.205 103.255 130.292 104.741C135.719 110.215 142.511 118.236 147.531 128.121C149.271 126.168 150.684 124.062 151.705 121.804C156.858 110.418 151.125 97.6087 148.208 91.0695C145.295 84.5302 155.493 78.3185 152.58 68.8353C149.667 59.356 143.767 53.3392 144.42 52.1616C145.879 49.5452 151.413 43.9886 145.879 33.8502C145.719 33.5617 145.556 33.277 145.392 32.9963C145.681 32.5712 145.945 32.1501 146.17 31.729C157.469 10.4034 132.108 8.25483 114.955 11.6278C106.698 10.3059 96.8716 12.0567 90.3716 24.2071C77.264 48.7263 90.5175 50.2003 69.6876 56.4119C56.1425 60.4517 54.0973 79.4806 50.6008 84.0389C45.3091 90.9447 16.1251 109.517 29.9966 131.245C35.4098 106.016 60.6945 96.3024 67.2084 92.7033ZM125.892 71.8846C126.024 71.8417 126.156 71.791 126.288 71.7403C126.549 71.6233 126.809 71.4947 127.056 71.327C127.549 70.9916 128.004 70.5315 128.368 69.9232C128.538 69.6191 128.698 69.2408 128.774 68.8938C128.865 68.5273 128.906 68.2387 128.948 67.9229C129.028 67.3184 129.042 66.7218 129.042 66.1369C129.038 64.9593 128.913 63.7973 128.813 62.6392C128.764 62.0582 128.757 61.4811 128.719 60.904C128.698 60.6154 128.663 60.3269 128.618 60.0383L128.535 59.6055C128.511 59.4612 128.424 59.3209 128.104 59.1922C127.795 59.3482 127.722 59.4963 127.701 59.6406L127.649 60.0734C127.618 60.362 127.601 60.6505 127.594 60.9352C127.583 61.5123 127.597 62.0855 127.563 62.6587C127.49 63.809 127.375 64.9515 127.316 66.0785C127.292 66.6439 127.254 67.2015 127.243 67.7435C127.226 68.0008 127.226 68.2855 127.198 68.4844C127.177 68.7027 127.125 68.8626 127.052 69.0615C126.889 69.4436 126.604 69.814 126.278 70.1728C126.115 70.3561 125.941 70.5354 125.761 70.7148C125.67 70.8084 125.576 70.8942 125.483 70.9799C125.382 71.0579 125.316 71.1944 125.337 71.6155C125.597 71.9275 125.761 71.9392 125.892 71.8846ZM116.142 116.774C116.181 116.723 116.215 116.669 116.254 116.622L118.247 114.091C118.906 113.241 119.576 112.395 120.281 111.568C120.639 111.159 121 110.753 121.399 110.36C121.597 110.161 121.806 109.97 122.045 109.779C122.163 109.681 122.292 109.588 122.451 109.494C122.618 109.408 122.764 109.276 123.184 109.252C123.33 109.248 123.458 109.276 123.583 109.322C122.816 108.266 122.32 107.061 121.74 105.899L119.625 101.594L117.493 97.3045C117.125 96.5715 116.754 95.8423 116.379 95.1092C116.33 95.8267 116.299 96.5481 116.274 97.2655C116.229 98.7746 116.236 100.295 116.274 101.812C116.309 103.333 116.375 104.854 116.462 106.371L116.611 108.648L116.698 109.786C116.729 110.149 116.764 110.562 116.767 110.98C116.826 112.945 116.597 114.898 116.142 116.774ZM99.9654 103.571C100.122 103.61 100.271 103.668 100.417 103.75C100.243 103.602 100.066 103.481 99.889 103.407C99.3959 103.196 98.823 102.92 98.3508 102.627C96.389 101.457 94.5904 100.1 92.7987 98.72C91.0105 97.3396 89.257 95.9164 87.5244 94.4658C85.7883 93.0113 84.0661 91.5413 82.3786 90.0244L79.8473 87.7472C79.0105 86.9829 78.205 86.168 77.5557 85.1346C78.5973 85.6104 79.4932 86.2888 80.3612 87.0063L82.9584 89.1705L88.1841 93.4559C89.9341 94.8635 91.6841 96.2751 93.4689 97.6204C95.2466 98.9618 97.0557 100.295 98.9202 101.375C99.1529 101.508 99.3855 101.629 99.6216 101.742C99.8682 101.875 100.052 101.925 100.344 102.058C100.997 102.327 101.479 102.791 101.899 103.255C102.733 104.21 103.333 105.283 103.889 106.367C104.972 108.546 105.809 110.82 106.576 113.113C107.896 117.156 108.983 121.254 109.927 125.415C110.451 124.744 110.958 124.031 111.42 123.305C112.177 122.101 112.851 120.825 113.399 119.492C114.504 116.836 115.174 113.935 115.111 111.038C115.111 110.863 115.111 110.679 115.101 110.508L115.063 109.938L114.986 108.784L114.868 106.476C114.799 104.932 114.754 103.391 114.736 101.847C114.719 100.299 114.733 98.7551 114.799 97.1992C114.872 95.6473 114.976 94.0915 115.233 92.52V92.5083C115.306 92.0794 115.67 91.7947 116.056 91.8766C116.267 91.9195 116.438 92.0677 116.538 92.2588C117.274 93.7015 117.951 95.1482 118.639 96.6026C119.32 98.0571 120.004 99.5116 120.653 100.986L122.594 105.404C123.177 106.788 123.858 108.117 124.108 109.689C124.122 109.704 124.136 109.716 124.149 109.732C124.222 109.829 124.295 109.931 124.358 110.032L124.497 110.301C124.646 110.64 124.75 110.952 124.823 111.253C124.976 111.857 125.073 112.426 125.146 112.999C125.299 114.142 125.399 115.257 125.504 116.372L125.83 119.683C125.892 120.229 125.948 120.771 126.021 121.305C126.056 121.574 126.097 121.839 126.146 122.101C126.205 122.362 126.208 122.615 125.986 123.04C125.563 122.955 125.382 122.689 125.288 122.416C125.181 122.143 125.087 121.871 125 121.598C124.83 121.048 124.684 120.494 124.573 119.936C124.33 118.825 124.167 117.714 123.997 116.606C123.826 115.503 123.663 114.403 123.469 113.339C123.365 112.808 123.264 112.282 123.139 111.81C123.097 111.635 123.045 111.479 122.997 111.342C122.993 111.342 122.99 111.342 122.99 111.346C122.816 111.471 122.629 111.623 122.445 111.783C122.073 112.103 121.701 112.454 121.333 112.812C120.594 113.53 119.872 114.29 119.156 115.058C118.448 115.842 117.767 116.653 117.087 117.464C116.747 117.87 116.392 118.264 116.035 118.654L115.493 119.231C115.451 119.277 115.403 119.32 115.354 119.359C115.236 119.683 115.111 120.003 114.979 120.319C114.379 121.765 113.653 123.138 112.833 124.432C112 125.731 111.129 126.932 110.049 128.078C109.708 128.441 109.17 128.421 108.844 128.039C108.74 127.911 108.667 127.759 108.636 127.599L108.632 127.575C107.681 122.9 106.549 118.221 105.139 113.697C104.431 111.436 103.653 109.198 102.67 107.119C102.174 106.09 101.622 105.088 100.955 104.292C100.813 104.125 100.66 103.969 100.507 103.828C100.358 103.996 100.219 104.105 100.08 104.202C99.9411 104.316 99.8057 104.413 99.6633 104.479C99.5279 104.573 99.3855 104.643 99.2466 104.713L98.8473 104.982C98.3265 105.372 97.8577 105.864 97.4272 106.406C96.5661 107.482 95.8473 108.734 95.205 110.028C94.5557 111.327 93.9932 112.688 93.4827 114.072C92.9793 115.456 92.5209 116.891 92.1459 118.295L92.139 118.326C92.007 118.81 91.5522 119.086 91.1182 118.942C91.0626 118.923 91.007 118.895 90.9584 118.864L89.2987 117.839C88.764 117.464 88.2605 117.055 87.7432 116.665C87.2189 116.279 86.7536 115.823 86.257 115.405C86.014 115.191 85.764 114.984 85.5279 114.762L84.8334 114.076C82.9689 112.262 81.2223 110.325 79.5626 108.309C77.8925 106.3 76.2814 104.245 74.6911 102.171C73.8925 101.134 73.1216 100.073 72.3682 98.9969C71.9932 98.4587 71.6286 97.9089 71.2709 97.3552C70.9064 96.8093 70.5279 96.2673 70.4758 95.4484C71.1668 95.7058 71.5522 96.2283 71.948 96.7391L73.1598 98.2638L75.5591 101.317C77.1564 103.36 78.83 105.326 80.5661 107.205C82.2987 109.088 84.0591 110.937 85.9237 112.625C87.514 114.083 89.1529 115.483 90.8786 116.638C91.2362 115.53 91.6286 114.458 92.0591 113.385C92.6286 111.966 93.2605 110.57 93.9862 109.229C94.7258 107.895 95.5487 106.593 96.6008 105.489C97.1286 104.943 97.7084 104.44 98.3612 104.05L98.8647 103.785C99.0418 103.715 99.2154 103.641 99.3959 103.59C99.5834 103.559 99.7779 103.555 99.9654 103.571ZM53.4689 245.761L52.8126 245.644L52.1737 245.449L51.5522 245.199C50.7362 244.81 49.9584 244.295 49.2327 243.683C47.7675 242.458 46.5383 240.863 45.2987 239.292C44.08 237.689 42.8925 236.02 41.8057 234.262C41.2675 233.377 40.7709 232.464 40.2883 231.54C40.0452 231.08 39.7883 230.624 39.5348 230.171L39.1425 229.493C39.014 229.267 38.8369 229.068 38.4515 228.978C38.2709 229.376 38.3091 229.664 38.3994 229.918L38.6772 230.678C38.8716 231.181 39.08 231.673 39.3091 232.156C39.7675 233.119 40.2536 234.067 40.7432 235.01C41.7084 236.909 42.7362 238.793 43.9723 240.524C45.2015 242.263 46.6598 243.831 48.3612 245.083C49.2119 245.702 50.1355 246.252 51.1494 246.56C51.4029 246.623 51.6564 246.705 51.9168 246.744C52.1807 246.771 52.4411 246.806 52.7015 246.822L53.4897 246.775C53.7466 246.732 54.0105 246.615 54.198 246.198C53.9064 245.823 53.6911 245.757 53.4689 245.761ZM135.549 54.4701C135.601 54.509 135.701 54.4857 136.011 54.279C136.229 53.9631 136.24 53.8345 136.201 53.7682L136.104 53.5381C136.035 53.3899 135.958 53.2496 135.872 53.1209C135.698 52.8557 135.486 52.6374 135.274 52.419C134.847 51.9862 134.382 51.5572 133.816 51.3428C133.267 51.0932 132.649 51.0425 132.07 51.0152C131.774 51.0035 131.486 50.9684 131.198 50.9918C131.052 50.9879 130.906 51.023 130.764 51.0776L130.559 51.1673C130.486 51.1946 130.424 51.296 130.389 51.6469C130.49 51.9862 130.556 52.0797 130.618 52.0992L130.802 52.1655L131.16 52.2474C131.278 52.2747 131.396 52.2825 131.514 52.2981C131.629 52.3254 131.743 52.3644 131.854 52.4034C132.306 52.5828 132.712 52.8635 133.115 53.1092C133.511 53.3743 133.958 53.542 134.386 53.8033C134.597 53.928 134.799 54.0762 135.021 54.2049C135.132 54.2673 135.25 54.3258 135.368 54.3843L135.549 54.4701ZM133.479 57.6519C132.441 57.4648 131.462 58.2602 131.299 59.4222C131.132 60.5921 131.84 61.6839 132.879 61.871C133.917 62.0543 134.892 61.2627 135.056 60.0968C135.222 58.9309 134.517 57.8352 133.479 57.6519ZM121.323 48.6015L121.031 48.4104C120.833 48.2896 120.632 48.1765 120.424 48.0907C120.014 47.8996 119.583 47.7827 119.146 47.6657C118.281 47.4512 117.372 47.2952 116.465 47.42C115.556 47.5058 114.674 47.8606 113.851 48.274C113.646 48.3832 113.441 48.4884 113.236 48.5859C113.035 48.7029 112.837 48.8238 112.642 48.9525C112.545 49.0149 112.451 49.085 112.358 49.1552C112.271 49.2332 112.188 49.3229 112.104 49.4087L111.865 49.6777C111.788 49.7674 111.74 49.9117 111.84 50.2587C112.118 50.4771 112.247 50.4888 112.344 50.4459L112.629 50.325C112.809 50.2276 112.99 50.1418 113.174 50.0638C113.354 49.978 113.528 49.8766 113.705 49.7908C113.892 49.7206 114.076 49.6582 114.267 49.5998C115.031 49.4126 115.806 49.3541 116.58 49.3502C117.347 49.3619 118.129 49.2956 118.92 49.358C119.316 49.3853 119.712 49.4477 120.115 49.4906L120.722 49.5413L121.031 49.5647C121.132 49.5842 121.247 49.5335 121.472 49.2059C121.504 48.7887 121.42 48.66 121.323 48.6015ZM121.379 55.9713C121.542 54.8054 120.837 53.7097 119.799 53.5225C118.761 53.3392 117.785 54.1308 117.618 55.2967C117.451 56.4626 118.16 57.5583 119.198 57.7416C120.236 57.9288 121.212 57.1333 121.379 55.9713ZM111.66 86.4175C111.882 86.5345 112.083 86.71 112.226 87.1467C111.889 87.3846 111.611 87.3651 111.358 87.291C111.101 87.2247 110.854 87.1116 110.604 87.0141C110.104 86.8231 109.636 86.5462 109.167 86.2654C108.25 85.6727 107.406 84.9553 106.601 84.1949C104.986 82.678 103.573 80.8882 102.427 78.9268C101.254 76.9772 100.406 74.8247 99.6598 72.6606C99.2883 71.5766 98.9445 70.4808 98.6772 69.3617C98.5314 68.8041 98.4202 68.2387 98.3126 67.6694L98.1737 66.8115C98.1216 66.5308 98.1286 66.2227 98.4168 65.8484C98.823 66.0317 98.9619 66.2773 99.0452 66.5425L99.323 67.334L99.889 68.9016C100.271 69.9427 100.646 70.9838 101.063 72.0016C101.892 74.0409 102.865 75.9945 103.882 77.8896C104.91 79.7769 106.049 81.5979 107.441 83.1538C108.153 83.9141 108.92 84.6043 109.747 85.1892C110.167 85.4661 110.573 85.7741 111.007 86.0237C111.226 86.1563 111.434 86.3083 111.66 86.4175Z" fill="black"/>
<path d="M227.885 110.683C227.684 110.777 227.482 110.878 227.285 110.983C226.889 111.19 226.496 111.412 226.121 111.662C225.743 111.9 225.368 112.153 224.993 112.403C224.809 112.531 224.614 112.645 224.448 112.808C224.364 112.89 224.292 112.992 224.222 113.097C224.191 113.155 224.146 113.194 224.125 113.272C224.107 113.358 224.111 113.491 224.163 113.709C224.309 113.865 224.41 113.935 224.486 113.959C224.555 113.974 224.607 113.951 224.67 113.947C224.788 113.927 224.903 113.904 225.003 113.861C225.212 113.775 225.392 113.639 225.583 113.518C225.958 113.268 226.337 113.023 226.705 112.765C227.08 112.516 227.441 112.235 227.795 111.947C227.972 111.802 228.142 111.65 228.316 111.498C228.493 111.354 228.673 111.213 228.663 110.718C228.278 110.465 228.083 110.578 227.885 110.683ZM221.694 105.154C221.937 104.752 222.184 104.358 222.417 103.949C222.66 103.551 222.875 103.13 223.083 102.705C223.187 102.495 223.285 102.276 223.382 102.058C223.486 101.843 223.594 101.637 223.396 101.192C222.955 101.145 222.823 101.336 222.684 101.524C222.538 101.703 222.396 101.89 222.257 102.077C221.979 102.452 221.715 102.83 221.472 103.231C221.219 103.625 220.983 104.027 220.739 104.429C220.625 104.631 220.489 104.822 220.406 105.049C220.358 105.158 220.333 105.283 220.309 105.411C220.305 105.481 220.281 105.536 220.288 105.618C220.305 105.7 220.361 105.817 220.493 105.988C220.68 106.059 220.798 106.078 220.878 106.062C220.948 106.043 220.982 106 221.038 105.969C221.135 105.895 221.229 105.821 221.305 105.735C221.462 105.559 221.569 105.353 221.694 105.154ZM231.09 100.178L229.566 101.617C228.562 102.592 227.555 103.559 226.58 104.565L223.635 107.568C223.146 108.071 222.653 108.57 222.187 109.096C221.955 109.361 221.736 109.65 221.524 109.938C221.316 110.239 221.048 110.457 221.083 111.054C221.607 111.147 221.83 110.866 222.111 110.664C222.389 110.453 222.663 110.239 222.92 110.001C223.434 109.529 223.92 109.026 224.41 108.523L227.347 105.509C228.33 104.514 229.281 103.477 230.236 102.444L231.656 100.876C232.132 100.362 232.611 99.8469 232.84 99.0241C232.094 99.2074 231.59 99.6948 231.09 100.178ZM150.073 102.183C149.646 101.063 149.17 99.9716 148.653 98.9032C147.611 96.7781 146.462 94.7114 145.076 92.8124L144.548 92.1105L144.34 91.8064C144.278 91.7011 144.226 91.588 144.163 91.4827C143.948 91.0382 143.819 90.5352 143.771 90.0088C143.673 88.9559 143.864 87.829 144.191 86.7489C144.514 85.6649 144.969 84.616 145.451 83.5748C145.687 83.0523 145.937 82.5376 146.184 82.0151C146.427 81.4848 146.753 81.0363 146.753 80.2799C146.094 80.4709 145.802 81.0012 145.458 81.4731C145.111 81.9488 144.798 82.4557 144.507 82.9743C143.934 84.0232 143.455 85.1463 143.101 86.3395C142.746 87.5288 142.51 88.8117 142.632 90.1491C142.698 90.8159 142.864 91.4905 143.167 92.0988C143.246 92.247 143.323 92.3991 143.41 92.5395L143.694 92.9489L144.201 93.6196C145.514 95.4484 146.712 97.4137 147.788 99.4569C148.337 100.471 148.847 101.512 149.309 102.576L149.979 104.171C150.201 104.705 150.469 105.205 150.687 105.782C150.864 105.154 150.753 104.507 150.635 103.906C150.5 103.306 150.288 102.74 150.073 102.183ZM143.837 29.2021C143.792 29.1826 143.771 29.1904 143.736 29.1826C143.677 29.1787 143.621 29.1748 143.58 29.1904C143.496 29.2177 143.451 29.2918 143.396 29.3503C143.285 29.4712 143.173 29.5882 143.069 29.7208C142.962 29.8455 142.871 29.9898 142.792 30.1458C142.753 30.2238 142.719 30.3057 142.684 30.3914C142.646 30.4694 142.601 30.5435 142.819 30.9101C143.146 31.1557 143.212 31.105 143.281 31.0621C143.358 31.0231 143.43 30.9841 143.5 30.9413C143.639 30.8516 143.771 30.7502 143.878 30.6293C143.996 30.5123 144.101 30.3875 144.212 30.2628C144.26 30.2004 144.326 30.1497 144.351 30.0561C144.364 30.0093 144.364 29.9469 144.361 29.8806C144.351 29.8416 144.361 29.8182 144.34 29.7675C144.312 29.7091 144.253 29.6077 144.132 29.44C143.979 29.3035 143.892 29.2294 143.837 29.2021ZM143.687 17.6561C144.403 18.5179 144.979 19.5044 145.333 20.5729C145.403 20.8458 145.517 21.1071 145.552 21.3878L145.691 22.2262C145.698 22.7916 145.736 23.3648 145.628 23.938C145.601 24.519 145.403 25.0688 145.25 25.6381C145.194 25.9306 145.017 26.1723 144.955 26.4726C144.878 26.7689 144.823 27.0809 144.858 27.4786C145.444 27.155 145.788 26.6013 146.024 26.0086C146.246 25.4042 146.51 24.8076 146.611 24.1408C146.788 23.4935 146.76 22.8072 146.781 22.1287L146.66 21.1188C146.618 20.7795 146.493 20.4676 146.413 20.14C146.01 18.861 145.33 17.7302 144.528 16.771C144.128 16.2914 143.701 15.8429 143.222 15.4686C142.986 15.2775 142.722 15.1293 142.462 14.9773C142.191 14.8603 141.958 14.638 141.507 14.8876C141.542 15.4452 141.774 15.57 141.965 15.7961L142.542 16.4239C142.743 16.6228 142.937 16.8256 143.128 17.0322C143.33 17.2233 143.503 17.4417 143.687 17.6561ZM37.677 100.178L36.3679 101.095C35.9513 101.438 35.5172 101.754 35.111 102.108C33.486 103.54 31.979 105.22 30.8888 107.248C29.7881 109.256 29.0624 111.557 28.8853 113.927C28.7916 115.109 28.8263 116.306 29.0103 117.468C29.1145 118.049 29.2464 118.626 29.4339 119.176C29.6249 119.722 29.7603 120.318 30.3506 120.658C30.5311 119.96 30.3506 119.476 30.2742 118.923C30.2013 118.381 30.1318 117.835 30.0832 117.293C29.986 116.209 29.9513 115.121 30.0311 114.041C30.1874 111.872 30.8436 109.771 31.861 107.915C32.8749 106.051 34.2221 104.413 35.736 102.982C36.1075 102.615 36.5103 102.288 36.8957 101.937L38.1214 100.978C38.545 100.681 38.9721 100.389 39.3749 100.054C39.7915 99.7299 40.1909 99.3789 40.5485 98.9149C40.0138 98.9812 39.5172 99.1606 39.0381 99.3711C38.5659 99.6012 38.1249 99.8975 37.677 100.178ZM69.0485 60.9819C69.0971 61.017 69.1318 61.0092 69.177 61.0248C69.2568 61.0404 69.3367 61.0521 69.4096 61.0404C69.552 61.0209 69.677 60.9468 69.802 60.8883C70.0589 60.7675 70.3159 60.6505 70.5659 60.514C70.8228 60.3931 71.0659 60.241 71.3054 60.0773C71.4235 59.9915 71.5415 59.9018 71.6561 59.8121C71.7742 59.7263 71.8957 59.6522 71.8714 59.1921C71.5936 58.8529 71.4582 58.8997 71.3228 58.9387C71.1839 58.9699 71.045 59.005 70.9096 59.0439C70.6388 59.1219 70.3714 59.2155 70.1145 59.3364C69.8575 59.4495 69.604 59.5782 69.3506 59.699C69.2256 59.7653 69.0902 59.8121 68.979 59.9174C68.9235 59.9681 68.8784 60.0383 68.8297 60.1163C68.8089 60.1631 68.7811 60.1865 68.7672 60.2527C68.7568 60.3229 68.7672 60.4477 68.8124 60.6622C68.92 60.8455 68.9929 60.9429 69.0485 60.9819ZM56.4929 78.3263C56.6735 77.9207 56.8471 77.5152 57.0103 77.1058C57.3332 76.2791 57.6422 75.4525 57.979 74.6375C58.6492 73.0115 59.3957 71.4205 60.2534 69.9115C61.1284 68.4219 62.0554 66.9752 63.1249 65.6612C63.6839 65.0412 64.2152 64.3705 64.8471 63.8402C65.4443 63.2436 66.1179 62.8302 66.6284 61.9685C65.7534 62.0659 64.9825 62.5027 64.3367 63.0915C63.6353 63.6101 63.0415 64.2613 62.4096 64.8774C61.236 66.2032 60.1943 67.6654 59.295 69.2252C58.4027 70.7849 57.6249 72.4226 56.9339 74.0994C56.5832 74.9377 56.2603 75.7878 55.9964 76.6652C55.861 77.098 55.7638 77.5503 55.6665 78.0026C55.5867 78.4589 55.42 78.8878 55.7013 79.461C56.2152 79.1646 56.3054 78.7318 56.4929 78.3263ZM110.621 16.1978C109.469 15.609 108.187 15.5817 106.958 15.726C105.722 15.8936 104.507 16.229 103.337 16.6969C102.16 17.1609 101.062 17.8238 100.003 18.5374C98.9409 19.251 97.9478 20.0893 97.0172 20.9901C95.1388 22.7799 93.4825 24.8271 91.979 26.9873C91.229 28.0713 90.5138 29.1865 89.8784 30.3564C89.5589 30.9452 89.2638 31.5418 88.9964 32.1579C88.729 32.7779 88.3922 33.3589 88.479 34.1816C89.1249 33.7995 89.3888 33.2068 89.7429 32.6609L90.7846 31.0231C91.4721 29.9274 92.1561 28.8317 92.8888 27.7789C94.3506 25.6693 95.9547 23.6806 97.7533 21.9571C99.5485 20.2336 101.524 18.7363 103.694 17.7419C104.781 17.2467 105.91 16.8724 107.066 16.6618C108.236 16.4863 109.378 16.4707 110.621 16.1978ZM68.6561 155.413C66.8922 126.074 56.6422 120.49 56.2047 120.268C55.7742 120.046 55.2638 120.256 55.0659 120.74C54.8645 121.223 55.052 121.8 55.4825 122.03C55.5797 122.077 65.2464 127.532 66.9304 155.545C68.3888 179.827 71.3054 185.52 71.427 185.754C71.5902 186.054 71.8714 186.218 72.1665 186.218C72.3159 186.218 72.4652 186.175 72.604 186.085C73.0138 185.816 73.1492 185.223 72.9131 184.759C72.8853 184.705 70.0728 178.98 68.6561 155.413ZM109.639 130.098C109.215 130.348 109.052 130.933 109.274 131.408C109.364 131.595 118.094 150.507 115.934 167.668C115.868 168.199 116.198 168.69 116.67 168.768C116.712 168.772 116.75 168.776 116.792 168.776C117.215 168.776 117.587 168.425 117.646 167.941C119.882 150.164 111.177 131.299 110.805 130.508C110.583 130.032 110.059 129.849 109.639 130.098ZM113.163 213.084C112.701 212.956 112.233 213.271 112.118 213.79C111.889 214.808 106.555 238.816 106.555 246.369C106.555 246.907 106.941 247.34 107.417 247.34C107.896 247.34 108.285 246.907 108.285 246.369C108.285 239.054 113.739 214.508 113.795 214.262C113.91 213.739 113.628 213.213 113.163 213.084ZM87.2568 78.646C87.229 78.6811 84.3159 82.2724 81.4443 85.6571C81.1145 86.047 81.1284 86.6592 81.4721 87.0297C81.6388 87.209 81.854 87.2987 82.0693 87.2987C82.295 87.2987 82.5242 87.1973 82.6943 86.9985C85.5832 83.5943 88.5068 79.9874 88.5346 79.9523C88.8575 79.5546 88.8332 78.9424 88.479 78.5797C88.1249 78.221 87.5797 78.2483 87.2568 78.646ZM136.274 232.581C136.246 233.115 136.611 233.575 137.087 233.607C137.104 233.607 137.121 233.607 137.139 233.607C137.59 233.607 137.972 233.209 138 232.694C138.993 213.369 140.267 188.253 140.267 188.253L138.542 188.14C138.542 188.14 137.267 213.256 136.274 232.581ZM126.319 117.25C125.986 116.864 125.993 116.251 126.337 115.877C126.677 115.503 127.226 115.511 127.559 115.893C128.135 116.556 141.649 132.356 139.656 151.155C139.604 151.65 139.233 152.009 138.798 152.009C138.764 152.009 138.733 152.009 138.698 152.001C138.222 151.942 137.885 151.459 137.941 150.925C139.837 133.038 126.455 117.406 126.319 117.25Z" fill="#05ABBB"/>
</svg>
