<svg width="267" height="267" viewBox="0 0 267 267" fill="none" xmlns="http://www.w3.org/2000/svg">
<path d="M218.269 138.89C217.419 140.343 216.08 142.039 214.256 142.524C212.434 143.01 208.182 142.646 208.182 142.646C208.182 142.646 210.003 145.92 208.546 147.98C207.085 150.04 204.536 153.918 204.536 153.918L203.079 155.573C204.517 159.852 213.082 185.836 214.623 201.905C216.823 224.821 213.645 231.403 205.143 237.381C201.122 240.203 186.999 239.78 180.892 231.855L181.017 265.286L49.9373 263.417L55.9671 247.815L60.4038 200.228C58.1376 199.606 55.8641 198.182 53.4654 195.607C47.7999 189.526 45.7802 172.713 45.0738 160.161C42.929 159.046 41.1153 157.707 40.0153 156.099C35.1518 148.988 47.432 103.101 62.5376 93.8856C67.4747 89.9234 80.2956 86.6528 120.315 82.5104C121.808 78.9603 123.512 75.7707 123.986 73.8098C124.516 71.6135 123.924 66.1025 123.25 59.2855C118.218 57.2511 116.584 45.3388 120.506 42.1161C121.036 41.6819 121.532 41.3987 121.996 41.2331C121.908 36.3917 122.121 31.6753 122.908 27.5991C125.925 11.9086 162.582 3.30364 170.988 26.5138C170.988 26.5138 173.067 54.3962 169.399 67.4674C165.977 81.484 159.333 83.6987 159.333 83.6987L158.984 86.5498C171.61 96.229 187.528 115.352 197.112 133.437C200.084 135.446 205.143 139.497 205.143 139.497C205.143 139.497 207.085 137.072 204.411 135.619C202.726 134.699 199.385 132.477 198.502 129.74C197.642 127.062 200.276 124.564 202.958 125.436C206.055 126.44 210.9 128.107 212.192 129.074C214.138 130.527 219.119 137.436 218.269 138.89Z" fill="white"/>
<path d="M244.055 128.445L243.595 128.313C243.289 128.236 242.98 128.169 242.668 128.125C242.05 128.033 241.424 127.974 240.806 127.86C239.57 127.629 238.338 127.356 237.094 127.191C235.854 126.996 234.592 126.988 233.338 126.941C232.713 126.922 232.083 126.882 231.454 126.9C231.138 126.904 230.822 126.922 230.505 126.948L230.023 126.996C229.869 126.999 229.703 127.084 229.501 127.507C229.611 127.967 229.758 128.081 229.913 128.118L230.373 128.258C230.678 128.346 230.983 128.427 231.293 128.493C231.907 128.637 232.529 128.721 233.147 128.828C234.386 129.03 235.623 129.269 236.877 129.328C238.128 129.413 239.393 129.391 240.652 129.409C241.281 129.42 241.902 129.486 242.528 129.516C242.841 129.534 243.157 129.531 243.473 129.516L243.948 129.479C244.11 129.468 244.275 129.383 244.47 129.008C244.353 128.603 244.209 128.489 244.055 128.445ZM232.462 124.406C233.669 124.362 234.861 124.13 236.053 123.939C236.649 123.836 237.249 123.755 237.841 123.619C238.139 123.556 238.433 123.475 238.728 123.39L239.169 123.254C239.316 123.218 239.46 123.107 239.566 122.647C239.375 122.221 239.213 122.136 239.062 122.132L238.602 122.081C238.297 122.055 237.992 122.033 237.686 122.022C237.079 122.004 236.476 122.037 235.873 122.048C234.662 122.084 233.448 122.084 232.256 122.268C231.057 122.423 229.869 122.684 228.68 122.905C228.085 123.015 227.481 123.07 226.885 123.159C226.587 123.203 226.289 123.265 225.991 123.339L225.55 123.468C225.403 123.508 225.263 123.622 225.152 124.027C225.336 124.402 225.498 124.487 225.649 124.501L226.109 124.542C226.414 124.56 226.716 124.564 227.021 124.549C227.621 124.524 228.224 124.465 228.831 124.461C230.042 124.45 231.256 124.483 232.462 124.406ZM221.805 79.8065L221.385 80.0346C221.106 80.1928 220.833 80.351 220.569 80.5239C220.035 80.8624 219.538 81.2413 219.027 81.6092C218.012 82.3486 216.974 83.0587 216.054 83.9085C215.116 84.7399 214.244 85.6523 213.351 86.5315C212.902 86.973 212.416 87.3703 211.953 87.7934C211.724 88.0031 211.504 88.2312 211.294 88.4666L210.985 88.8309C210.882 88.9523 210.827 89.1288 210.959 89.5299C211.331 89.7285 211.515 89.7064 211.651 89.6292L212.067 89.3937C212.339 89.2319 212.6 89.059 212.85 88.8676C213.354 88.4924 213.832 88.0914 214.351 87.7309C215.381 87.0135 216.441 86.3292 217.43 85.564C218.438 84.8172 219.329 83.9269 220.241 83.066C220.697 82.6356 221.164 82.2162 221.595 81.7563C221.812 81.5282 222.022 81.2891 222.224 81.0463L222.526 80.6747C222.636 80.557 222.691 80.3841 222.526 79.9426C222.125 79.6998 221.941 79.7219 221.805 79.8065ZM213.001 82.367C212.298 83.3493 211.629 84.3573 210.816 85.2476C210.025 86.16 209.149 87.0024 208.303 87.867C207.884 88.3011 207.505 88.772 207.1 89.2171C206.901 89.4416 206.684 89.6549 206.456 89.861L206.107 90.1553C205.989 90.2546 205.816 90.3098 205.415 90.181C205.205 89.8168 205.224 89.6365 205.294 89.5004L205.514 89.0957C205.669 88.8345 205.835 88.5807 206.011 88.3379C206.368 87.8523 206.751 87.385 207.089 86.8847C207.77 85.8841 208.413 84.854 209.142 83.8938C209.852 82.9189 210.702 82.058 211.522 81.1714C211.938 80.7336 212.335 80.2811 212.777 79.8617C212.994 79.652 213.225 79.4533 213.461 79.251L213.818 78.9604C213.928 78.8574 214.101 78.8022 214.542 78.9677C214.793 79.3614 214.774 79.5416 214.697 79.6741L214.484 80.0824C214.336 80.351 214.189 80.6159 214.027 80.8734C213.707 81.3884 213.347 81.8704 213.001 82.367Z" fill="#65CBC3"/>
<mask id="mask0_217_1491" style="mask-type:luminance" maskUnits="userSpaceOnUse" x="44" y="7" width="206" height="131">
<path d="M44.6472 7.86182H249.875V137.352H44.6472V7.86182Z" fill="white"/>
</mask>
<g mask="url(#mask0_217_1491)">
<path d="M150.379 8.63445C150.143 8.58295 149.904 8.53512 149.669 8.49466C149.194 8.41372 148.716 8.34382 148.238 8.31439C147.759 8.27024 147.281 8.24449 146.799 8.21506C146.56 8.2077 146.325 8.17459 146.082 8.21138C145.96 8.2261 145.839 8.27024 145.714 8.31439C145.651 8.35118 145.593 8.35486 145.526 8.41372C145.464 8.47626 145.394 8.60502 145.32 8.84047C145.364 9.08328 145.416 9.2194 145.471 9.29298C145.526 9.35552 145.585 9.37024 145.644 9.4107C145.762 9.47692 145.876 9.53211 145.994 9.56522C146.233 9.63144 146.472 9.62776 146.711 9.64983C147.189 9.68294 147.667 9.71973 148.146 9.73445C148.624 9.76756 149.106 9.7602 149.588 9.73445C149.827 9.72709 150.073 9.70869 150.313 9.68662C150.555 9.67558 150.794 9.6719 151.063 9.20836C150.853 8.71171 150.618 8.6786 150.379 8.63445ZM55.7464 105.051C55.2828 105.732 54.7604 106.379 54.3447 107.089L53.0534 109.194C52.6193 109.896 52.2735 110.643 51.8835 111.368L51.3133 112.46L50.8019 113.582C50.4671 114.333 50.1066 115.072 49.7939 115.834L48.8999 118.13C47.7705 121.216 46.8103 124.358 46.0341 127.544C45.6478 129.141 45.2909 130.741 45.0408 132.363C44.9194 133.173 44.8163 133.986 44.7575 134.806C44.7023 135.623 44.5404 136.44 44.9672 137.308C45.5742 136.557 45.6404 135.763 45.8354 134.972L46.3762 132.606C46.7147 131.028 47.0568 129.45 47.432 127.882C48.1899 124.744 49.128 121.65 50.2317 118.623C51.3427 115.595 52.6561 112.648 54.146 109.793L55.3196 107.685C55.7022 106.975 56.1842 106.328 56.6109 105.647C57.4534 104.264 58.5092 103.072 59.1457 101.472C57.7808 102.443 56.644 103.675 55.7464 105.051ZM137.223 8.92509C136.255 9.17525 135.27 9.37759 134.335 9.77491C133.872 9.96622 133.382 10.106 132.933 10.3378L131.591 11.0478C129.847 12.0853 128.258 13.4133 126.996 15.0247C126.841 15.227 126.676 15.422 126.528 15.628L126.116 16.2719C125.826 16.6949 125.62 17.1658 125.392 17.622C125.197 18.0966 125.024 18.5785 124.921 19.0789C124.807 19.5682 124.619 20.0795 125.031 20.6645C125.329 20.4732 125.495 20.2819 125.631 20.0795C125.749 19.8698 125.829 19.6528 125.943 19.4467C126.15 19.0274 126.4 18.63 126.613 18.2217C126.852 17.8244 127.062 17.4123 127.33 17.0334L127.706 16.4521L128.132 15.904C129.269 14.4434 130.708 13.2294 132.308 12.2692C133.927 11.3274 135.689 10.6431 137.517 10.1318C138.43 9.87057 139.375 9.72341 140.31 9.51003C141.266 9.40702 142.208 9.31873 143.161 8.75954C141.163 8.04583 139.188 8.64917 137.223 8.92509ZM243.22 104.772C242.399 105.588 241.638 106.42 240.769 106.585C239.897 106.777 238.823 106.46 237.797 106.078C237.241 105.875 236.656 105.658 236.027 105.533C235.406 105.401 234.721 105.32 233.989 105.496C233.25 105.658 232.58 106.177 232.187 106.751C231.782 107.325 231.55 107.924 231.351 108.509C231.256 108.8 231.175 109.087 231.09 109.378C231.013 109.58 230.961 109.767 230.847 109.893C230.649 110.161 230.318 110.316 229.847 110.367C229.387 110.422 228.853 110.371 228.32 110.29C227.772 110.205 227.286 109.977 226.547 110.194C226.848 110.919 227.455 111.103 228.026 111.335C228.603 111.563 229.229 111.717 229.924 111.717C230.601 111.721 231.462 111.449 231.973 110.779C232.242 110.455 232.363 110.091 232.485 109.749C232.562 109.481 232.632 109.212 232.72 108.954C232.889 108.443 233.088 107.957 233.353 107.582C233.621 107.211 233.927 106.979 234.328 106.88C234.732 106.777 235.233 106.813 235.737 106.924C236.248 107.019 236.756 107.203 237.289 107.398C238.408 107.803 239.666 108.244 241.093 107.91C241.792 107.737 242.399 107.339 242.866 106.92C243.345 106.501 243.738 106.059 244.125 105.625L244.702 104.985C244.893 104.797 245.055 104.602 245.269 104.451C245.662 104.12 246.126 103.867 246.623 103.686C247.627 103.333 248.683 103.23 249.886 102.962C247.693 101.633 244.695 102.965 243.22 104.772ZM192.337 62.5708C192.234 63.0859 192.204 63.612 192.281 64.1233C192.296 64.3809 192.381 64.62 192.436 64.8812L192.682 65.7089C192.848 66.2608 193.021 66.8273 193.128 67.4564C193.238 68.0745 193.26 68.7955 193.043 69.4798C192.583 70.8668 191.546 71.7056 190.615 72.445C190.166 72.7908 189.743 73.1256 189.394 73.5082C189.033 73.8835 188.739 74.2881 188.614 74.6818C188.492 75.0791 188.529 75.458 188.706 75.8811C188.886 76.3005 189.195 76.7273 189.544 77.1393C189.717 77.3453 189.909 77.5477 190.096 77.7537C190.328 78.0369 190.578 78.3313 190.711 78.7286C191.016 79.5122 190.795 80.3878 190.438 80.958C190.074 81.5503 189.611 82.0028 189.114 82.3744C188.617 82.7349 188.143 83.1506 187.366 83.0255C187.569 82.2861 188.018 81.9954 188.374 81.576C188.724 81.1603 189.051 80.7373 189.246 80.3179C189.449 79.8911 189.489 79.5269 189.364 79.2216C189.316 79.056 189.184 78.9125 189.051 78.7396C188.845 78.5226 188.643 78.3018 188.444 78.0627C188.051 77.5918 187.661 77.0804 187.385 76.4329C187.102 75.7965 187.01 74.9577 187.256 74.2477C187.492 73.534 187.918 72.9932 188.356 72.5333C188.79 72.0661 189.283 71.6835 189.75 71.3193C190.619 70.646 191.446 69.8992 191.744 69.0604C192.057 68.2363 191.744 67.1511 191.483 66.029C190.711 63.829 191.148 60.5842 193.429 59.418C193.028 60.5842 192.565 61.5297 192.337 62.5708Z" fill="#05ABBB"/>
</g>
<path d="M153.005 51.8614C153.005 50.8534 152.822 50.0072 152.516 49.2898C152.428 49.242 152.347 49.1758 152.284 49.0912C152.167 48.9403 152.123 48.7527 152.141 48.5761C150.338 45.7066 146.218 45.427 144.717 45.427C142.226 45.427 136.428 46.0561 136.428 51.8614C136.428 56.4159 140.148 60.1242 144.717 60.1242C149.286 60.1242 153.005 56.4159 153.005 51.8614ZM159.204 52.4426C159.204 57.0008 162.457 60.7055 166.448 60.7055C170.44 60.7055 173.688 57.0008 173.688 52.4426C173.688 46.6373 168.626 46.0119 166.448 46.0119C164.892 46.0119 161.861 46.332 160.257 48.635C160.238 48.8557 160.117 49.0617 159.922 49.1831C159.477 50.0293 159.204 51.0962 159.204 52.4426ZM144.717 61.559C139.353 61.559 134.99 57.2068 134.99 51.8614C134.99 50.8791 135.141 49.9741 135.431 49.1537C135.314 49.1611 135.192 49.1427 135.078 49.0912L127.599 45.6551C127.375 45.2798 127.128 44.9119 126.863 44.5551C126.863 44.5551 126.69 44.0915 126.348 43.5066C126.378 43.5176 126.403 43.5213 126.429 43.536L135.682 47.7852C135.796 47.8367 135.891 47.9176 135.961 48.0132C137.436 45.4674 140.519 43.9922 144.717 43.9922C148.65 43.9922 151.607 45.2872 153.178 47.5497C154.97 46.3651 156.563 45.9531 157.913 46.3246C158.631 46.5196 159.153 46.9059 159.513 47.2848C161.007 45.5521 163.398 44.5735 166.448 44.5735C171.805 44.5735 175.13 47.5902 175.13 52.4426C175.13 57.7918 171.234 62.1439 166.448 62.1439C161.658 62.1439 157.762 57.7918 157.762 52.4426C157.762 50.949 158.079 49.6283 158.675 48.5136C158.472 48.2377 158.101 47.8587 157.512 47.7042C156.57 47.4541 155.319 47.8367 153.87 48.8152C154.249 49.7239 154.444 50.743 154.444 51.8614C154.444 57.2068 150.081 61.559 144.717 61.559ZM217.221 104.072L165.996 87.0685C164.756 86.6564 163.395 87.2267 162.927 88.3451L153.337 111.364C156.144 112.151 161.224 113.825 160.779 115.499C160.698 115.815 160.525 116.11 160.286 116.393L195.688 128.82C195.644 128.872 195.603 128.923 195.574 128.986L194.857 130.557C194.71 130.888 194.879 131.27 195.221 131.385L201.114 133.32C199.974 132.315 198.94 131.09 198.502 129.74C197.642 127.062 200.276 124.564 202.958 125.436C205.051 126.113 207.935 127.095 209.988 127.956L218.674 106.953C219.152 105.794 218.497 104.495 217.221 104.072ZM203.362 138.091L205.172 136.903L199.113 134.857C200.596 135.943 202.185 137.168 203.362 138.091ZM187.289 129.913C187.595 130.016 187.929 129.861 188.051 129.563L188.389 128.725C188.522 128.401 188.352 128.037 188.021 127.923L173.453 122.964C173.151 122.861 172.824 123.004 172.699 123.291L172.316 124.144C172.173 124.472 172.342 124.851 172.68 124.969L187.289 129.913ZM166.051 121.606C166.353 121.705 166.68 121.554 166.801 121.264L167.456 119.682C167.589 119.355 167.419 118.983 167.085 118.873L160.547 116.717C160.253 116.621 159.929 116.761 159.804 117.04L159.087 118.615C158.936 118.942 159.105 119.325 159.451 119.439L166.051 121.606ZM152.336 119.079L191.137 132.168C186.598 132.084 179.685 132.131 177.676 132.466C174.902 132.926 173.339 133.066 172.879 136.414L159.469 132.359C159.734 131.708 159.929 131.046 159.929 130.527C159.929 128.953 158.472 124.954 156.162 123.861C154.422 123.041 148.186 122.559 145.228 122.375L149.051 119.108C149.378 119.119 149.72 119.126 150.084 119.134C150.839 119.152 151.593 119.13 152.336 119.079Z" fill="#7ED957"/>
<path d="M182.452 100.956C182.602 100.5 183.022 100.195 183.5 100.195C183.618 100.195 183.732 100.213 183.846 100.25L198.631 105.051C199.213 105.239 199.533 105.864 199.341 106.442C199.191 106.898 198.771 107.203 198.293 107.203C198.175 107.203 198.061 107.185 197.947 107.148L183.158 102.343C182.878 102.255 182.65 102.056 182.518 101.795C182.385 101.534 182.36 101.236 182.452 100.956ZM181.962 103.263L198.374 108.59C199.54 108.973 200.798 108.333 201.177 107.17L201.254 106.931C201.633 105.765 200.997 104.514 199.831 104.135L183.419 98.8042C182.249 98.4253 180.995 99.0617 180.616 100.228L180.539 100.463C180.156 101.63 180.796 102.88 181.962 103.263ZM41.4576 151.655C41.2479 151.887 40.9536 152.005 40.663 152.005C40.4018 152.005 40.1406 151.913 39.9309 151.722C39.4931 151.321 39.4637 150.64 39.8684 150.198C40.0854 149.963 61.699 126.871 83.3898 138.838L83.1911 137.977C82.963 137.035 82.7644 136.09 82.5915 135.137C82.2677 133.496 82.0102 131.841 81.7527 130.189L81.543 129.784L80.9764 128.636C80.6232 127.86 80.237 127.099 79.8065 126.363C78.9162 124.91 77.8788 123.563 76.8266 122.265C75.7671 120.97 74.6745 119.711 73.4531 118.575L72.5113 117.747C72.1838 117.493 71.8454 117.25 71.5143 116.985L71.025 116.584L70.5063 116.224L69.9875 115.849C69.8073 115.735 69.6675 115.551 69.6601 115.043C70.039 114.741 70.2818 114.76 70.4915 114.841L71.1354 115.072L71.7755 115.315C71.9815 115.414 72.1765 115.525 72.3788 115.635C72.7761 115.849 73.1808 116.069 73.5634 116.316L74.6708 117.118C76.1055 118.229 77.4925 119.458 78.5299 120.951C79.5564 122.342 80.3694 123.861 81.0831 125.41C81.0132 124.818 80.947 124.229 80.8918 123.64C80.7336 121.646 80.66 119.855 80.2811 118.041C79.538 114.425 78.0149 110.934 75.8995 107.806C74.8474 106.239 73.6223 104.786 72.3457 103.388C71.6982 102.693 71.0397 102.009 70.3665 101.339C69.73 100.614 68.8839 100.184 68.5344 99.058C69.741 99.0764 70.3701 99.8932 71.1648 100.46C71.9263 101.081 72.6511 101.744 73.339 102.439C74.7333 103.822 75.9841 105.345 77.154 106.927C79.4865 110.091 81.3885 113.671 82.3266 117.589C82.54 118.571 82.7423 119.561 82.8269 120.565L83.0587 123.457C83.2095 125.355 83.3677 127.264 83.57 129.17L84.2175 134.894C84.3279 135.847 84.4309 136.804 84.5118 137.764L84.6516 139.202C84.7105 139.655 84.7252 140.115 84.3794 140.637C84.3794 140.641 84.3794 140.641 84.3757 140.644C84.372 140.648 84.3684 140.655 84.3647 140.663C84.35 140.681 84.3389 140.7 84.3279 140.722L84.3242 140.718C84.0042 141.17 83.3861 141.314 82.9005 141.031C62.4973 129.166 41.6673 151.431 41.4576 151.655ZM161.335 131.031C161.147 134.339 159.175 135.777 157.575 136.255C157.663 138.768 156.622 140.582 155.872 141.553C156.571 142.473 157.376 144.091 156.548 146.019C155.665 148.076 151.365 149.448 144.243 151.118C143.647 151.258 143.117 151.379 142.694 151.49C141.233 151.854 138.404 154.153 133.265 158.336C128.368 162.32 120.966 168.339 110.018 176.514C83.857 196.049 62.3869 201.872 61.0809 202.214C60.8087 202.31 59.8963 202.593 58.616 202.593C57.3799 202.593 55.798 202.329 54.1131 201.368C49.4151 198.69 46.2181 192.05 44.6178 181.631C41.7924 163.273 44.0697 155.614 44.169 155.297C44.3419 154.727 44.9489 154.411 45.5192 154.584C46.0894 154.76 46.4094 155.36 46.2329 155.93C46.2108 156.004 44.0218 163.534 46.7553 181.304C48.6205 193.433 52.3693 197.892 55.1873 199.499C57.9906 201.096 60.3304 200.191 60.3562 200.184C60.4003 200.165 60.4481 200.151 60.496 200.136C60.7093 200.084 82.2346 194.566 108.723 174.788C119.634 166.639 127.014 160.639 131.9 156.666C133.92 155.021 135.546 153.697 136.899 152.645C136.491 152.608 136.083 152.553 135.671 152.509C134.14 152.262 132.613 151.924 131.201 151.309C129.784 150.706 128.464 149.923 127.18 149.109C126.54 148.705 125.885 148.33 125.256 147.906C124.939 147.697 124.641 147.465 124.351 147.219L123.928 146.832C123.788 146.704 123.685 146.509 123.766 146.085C124.148 145.876 124.351 145.894 124.52 145.975L125.017 146.211C125.348 146.372 125.671 146.538 125.995 146.715C126.628 147.075 127.261 147.439 127.927 147.737C129.262 148.337 130.634 148.815 131.984 149.304C133.346 149.753 134.67 150.276 136.046 150.651C136.738 150.805 137.433 150.971 138.132 151.085C138.356 151.126 138.581 151.173 138.801 151.218C140.232 150.202 141.277 149.621 142.168 149.396C142.602 149.29 143.143 149.165 143.746 149.021C146.266 148.429 153.936 146.63 154.562 145.173C155.202 143.683 153.778 142.425 153.719 142.373C153.631 142.3 153.565 142.208 153.506 142.109L153.237 142.134C152.667 142.167 152.09 142.167 151.512 142.189C150.353 142.223 149.191 142.326 148.032 142.241C146.869 142.189 145.707 142.042 144.54 141.939C143.956 141.888 143.374 141.895 142.793 141.869C142.499 141.858 142.208 141.825 141.914 141.785L141.476 141.704C141.332 141.678 141.185 141.579 141.035 141.193C141.171 140.799 141.318 140.696 141.461 140.666L141.903 140.574C142.193 140.527 142.484 140.486 142.778 140.471C143.363 140.435 143.948 140.435 144.533 140.379C145.707 140.269 146.877 140.118 148.054 140.093C149.231 140.037 150.401 140.173 151.582 140.295C152.171 140.361 152.759 140.409 153.351 140.534C153.51 140.563 153.664 140.597 153.819 140.637C154.253 140.192 155.783 138.397 155.338 135.538C155.32 135.428 155.327 135.314 155.345 135.203L154.801 135.108C154.05 134.979 153.296 134.828 152.535 134.714C151.004 134.471 149.456 134.313 147.929 133.997C146.398 133.706 144.875 133.327 143.341 133.003C142.572 132.852 141.796 132.735 141.027 132.606C140.641 132.543 140.258 132.459 139.876 132.363L139.302 132.205C139.11 132.153 138.93 132.032 138.783 131.616C139.026 131.252 139.232 131.175 139.43 131.171L140.03 131.164C140.424 131.167 140.817 131.182 141.207 131.223L143.558 131.458C145.133 131.572 146.711 131.66 148.275 131.874C149.845 132.061 151.387 132.451 152.928 132.856C153.697 133.066 154.474 133.268 155.235 133.562C155.618 133.706 155.997 133.883 156.376 134.078C156.475 134.14 156.574 134.199 156.674 134.258C157.38 134.122 159.028 133.522 159.175 130.91C159.212 130.318 159.72 129.869 160.316 129.895C160.912 129.928 161.368 130.439 161.335 131.031ZM178.887 233.743C179.17 234.162 179.166 234.501 179.1 234.817L178.879 235.762C178.71 236.384 178.545 237.006 178.335 237.617C177.923 238.838 177.481 240.048 177.036 241.255C176.175 243.687 175.252 246.111 174.082 248.433C172.938 250.769 171.525 252.98 169.892 255.04L169.285 255.812L168.626 256.552C168.177 257.041 167.758 257.541 167.239 257.968C166.735 258.406 166.25 258.859 165.709 259.241L164.859 259.775C164.587 259.959 164.259 260.087 163.759 259.914C163.763 259.348 163.943 259.083 164.175 258.877L164.848 258.24C165.286 257.806 165.665 257.302 166.091 256.861C166.526 256.43 166.86 255.886 167.258 255.415L167.832 254.687L168.358 253.91C169.796 251.876 170.948 249.639 172.169 247.447C173.368 245.236 174.538 242.988 175.583 240.674C176.098 239.515 176.562 238.334 177.014 237.146C177.246 236.557 177.478 235.965 177.728 235.38L178.103 234.501C178.225 234.206 178.419 233.938 178.887 233.743ZM138.312 95.7728L138.43 96.343C138.481 96.5306 138.456 96.7477 138.11 97.0862C137.62 97.0641 137.462 96.9169 137.374 96.744L137.08 96.2363C136.888 95.8979 136.704 95.5557 136.532 95.2062C136.182 94.5146 135.884 93.8046 135.568 93.0982C134.946 91.6818 134.287 90.2802 133.802 88.8123C133.287 87.3591 132.875 85.8618 132.426 84.3829C132.19 83.6471 131.929 82.9187 131.675 82.1903C131.554 81.8261 131.447 81.4508 131.352 81.0756L131.227 80.5053C131.182 80.314 131.208 80.097 131.51 79.7769C131.944 79.8211 132.106 79.9645 132.201 80.1338L132.485 80.6451C132.669 80.991 132.838 81.3368 132.989 81.6936C133.287 82.4073 133.577 83.121 133.89 83.8274C134.538 85.2327 135.229 86.6234 135.814 88.0508C136.429 89.4671 136.87 90.9534 137.348 92.4213C137.58 93.1608 137.834 93.8892 138.033 94.636C138.136 95.0112 138.228 95.3902 138.312 95.7728ZM197.756 160.547C197.973 160.959 197.929 161.147 197.829 161.276L197.55 161.695C197.355 161.967 197.167 162.254 196.928 162.49C196.472 162.983 195.983 163.45 195.445 163.862C194.93 164.3 194.368 164.679 193.801 165.054C193.22 165.403 192.613 165.723 191.973 165.952C190.711 166.456 189.364 166.706 188.036 166.853C187.37 166.926 186.715 167.022 186.046 167.052C185.711 167.063 185.376 167.052 185.042 167.011C184.876 166.993 184.707 166.963 184.541 166.934C184.376 166.904 184.199 166.798 184.067 166.397C184.254 166.014 184.398 165.922 184.552 165.893L185.012 165.804C185.317 165.753 185.619 165.694 185.924 165.657C186.531 165.573 187.142 165.488 187.734 165.322C188.923 164.984 190.045 164.491 191.13 163.972C192.204 163.439 193.315 162.975 194.338 162.317C194.868 162.019 195.339 161.632 195.854 161.298C196.119 161.136 196.358 160.945 196.619 160.764L197.009 160.499C197.134 160.404 197.314 160.363 197.756 160.547ZM79.1112 195.651C79.1039 196.527 78.8206 197.226 78.4637 197.892L77.4373 199.911L75.4323 203.973C74.1005 206.684 72.7761 209.396 71.4996 212.133C68.9464 217.603 66.5514 223.147 64.1344 228.68C62.9498 231.458 61.7174 234.217 60.5879 237.017L58.8441 241.203L57.1666 245.412C56.0371 248.215 55.0622 251.078 53.999 253.907C53.4656 255.323 52.991 256.758 52.4428 258.167L51.6482 260.29C51.3796 261 51.0412 261.684 50.4268 262.28C50.2944 261.441 50.4415 260.691 50.6586 259.966L51.3134 257.788C51.7439 256.335 52.1853 254.882 52.6857 253.451L54.1793 249.154C54.6649 247.719 55.1763 246.291 55.7024 244.868C57.6816 239.132 59.8742 233.474 62.1478 227.845C64.4949 222.242 67.0628 216.735 69.7889 211.305C71.1501 208.594 72.5297 205.886 74.0159 203.234C74.7333 201.898 75.5206 200.596 76.2969 199.286L77.4815 197.336C77.8714 196.689 78.3423 196.074 79.1112 195.651ZM143.076 85.1886C141.384 84.4859 139.747 83.6508 138.18 82.6906C135.045 80.7702 132.212 78.3421 129.906 75.4836C128.758 74.0489 127.717 72.5184 126.922 70.8593C126.514 70.0352 126.175 69.1743 125.907 68.2951C125.69 67.4158 125.256 66.5255 125.763 65.5175C126.543 66.2717 126.628 67.1031 127.003 67.9014C127.334 68.7034 127.717 69.4797 128.129 70.2449C128.96 71.7606 129.924 73.2138 131.061 74.5271C133.32 77.1722 136.171 79.2582 139.202 80.9468C140.718 81.804 142.304 82.5287 143.915 83.1983C144.713 83.5478 145.545 83.8347 146.358 84.1401C147.164 84.416 147.969 84.6882 148.793 84.8832C150.434 85.2805 152.13 85.4535 153.8 85.2879C154.639 85.2327 155.459 85.0598 156.276 84.8575C156.685 84.7545 157.086 84.622 157.479 84.4638C157.678 84.3939 157.858 84.2872 158.068 84.2321C158.285 84.1842 158.528 84.1879 158.888 84.2872C158.892 85.0525 158.41 85.2695 158.02 85.5197C157.615 85.7698 157.192 85.9906 156.758 86.1856C155.894 86.5939 154.963 86.8294 154.028 87.006C152.145 87.315 150.217 87.234 148.367 86.8956C147.439 86.719 146.516 86.5056 145.637 86.1856C144.78 85.8618 143.915 85.5602 143.076 85.1886ZM79.5968 147.745C84.4199 145.821 89.2723 143.981 94.1211 142.131C98.9736 140.28 103.833 138.452 108.726 136.712C113.476 135.016 118.225 133.334 123.034 131.778C124.148 129.663 125.248 127.54 126.385 125.436L129.954 118.722L131.723 115.359L132.577 113.689C132.632 113.571 132.739 113.369 132.856 113.17C132.978 112.994 133.103 112.821 133.246 112.67C133.522 112.372 133.828 112.118 134.137 111.916C135.384 111.099 136.682 110.716 137.97 110.4C139.026 110.154 140.071 109.981 141.141 109.874C141.185 109.407 141.259 108.962 141.373 108.498C141.553 107.792 141.811 107.082 142.238 106.427C142.326 106.287 142.432 106.155 142.535 106.022C140.987 106.114 139.423 106.048 137.885 105.798C135.509 105.419 133.198 104.694 131.013 103.723C126.635 101.733 122.912 98.6718 119.638 95.324C118.001 93.639 116.467 91.8658 115.072 89.9859C114.359 89.0588 113.719 88.0802 113.086 87.1016C112.769 86.6086 112.464 86.112 112.162 85.6117C111.861 85.115 111.622 84.5668 111.706 83.8384C112.38 84.107 112.773 84.5227 113.104 84.9899C113.446 85.4498 113.792 85.9023 114.145 86.3548C114.855 87.2488 115.588 88.1243 116.323 88.9962C117.81 90.7253 119.34 92.4103 120.981 93.9812C122.618 95.5484 124.351 97.0126 126.179 98.3223C128.015 99.6209 129.898 100.846 131.926 101.777C133.927 102.755 136.039 103.495 138.213 103.922C140.383 104.389 142.631 104.455 144.842 104.194C145.957 104.102 147.035 103.789 148.127 103.539C149.187 103.171 150.261 102.855 151.277 102.362C152.329 101.946 153.307 101.383 154.312 100.857C154.827 100.618 155.298 100.298 155.787 99.9998C156.269 99.6982 156.791 99.459 157.501 99.4406C157.266 100.084 156.835 100.5 156.372 100.861C155.905 101.21 155.452 101.593 154.944 101.891L153.44 102.822C152.939 103.142 152.384 103.355 151.858 103.627C150.809 104.19 149.665 104.529 148.547 104.944C148.462 104.963 148.381 104.988 148.293 105.011C149.04 105.338 149.724 105.816 150.246 106.431C151.218 107.516 151.817 108.947 151.505 110.367C150.728 109.19 150.221 108.093 149.389 107.225C148.562 106.364 147.432 105.923 146.248 105.882C145.074 105.831 144.117 106.309 143.566 107.262C143.003 108.193 142.778 109.491 142.793 110.625C142.797 111.073 142.462 111.445 142.028 111.493L142.006 111.496C140.814 111.625 139.57 111.835 138.4 112.133C137.234 112.435 136.064 112.836 135.196 113.443C134.975 113.59 134.795 113.755 134.644 113.924C134.567 114.005 134.512 114.094 134.453 114.175C134.412 114.256 134.368 114.329 134.291 114.502L133.445 116.231L131.738 119.641C129.439 124.167 127.143 128.692 124.755 133.173C124.616 133.43 124.384 133.614 124.126 133.699C119.215 135.303 114.282 136.91 109.378 138.577C104.474 140.243 99.5696 141.917 94.6877 143.657C89.8021 145.383 84.9533 147.215 80.1156 149.065L72.8534 151.836L69.2186 153.219C68.012 153.69 66.7869 154.113 65.422 154.208C66.4558 153.318 67.6257 152.759 68.8176 152.244L72.3935 150.702C74.7775 149.669 77.1871 148.712 79.5968 147.745ZM120.44 42.1822C119.211 31.0094 119.472 16.0988 128.166 10.2236C142.833 0.308953 173.31 11.8901 175.756 15.7898C176.952 17.6954 176.624 21.0874 175.984 24.0599C180.693 28.2392 174.744 42.6973 172.055 46.1039C171.805 46.4203 170.076 45.427 169.936 45.0812C168.902 42.4912 168.799 36.8699 168.608 32.3154C151.74 37.5946 135.663 24.5235 135.663 24.5235L136.153 34.4823C135.803 39.0036 134.166 43.33 131.425 46.9501L129.174 49.2641C128.721 47.6527 127.963 46.034 126.863 44.5551C126.863 44.5551 124.663 38.702 120.506 42.116C120.484 42.1381 120.462 42.1601 120.44 42.1822ZM162.567 53.3734C161.324 53.8075 159.966 53.1527 159.532 51.9166C159.098 50.6768 159.753 49.323 160.996 48.8889C162.236 48.4584 163.597 49.1096 164.031 50.3494C164.465 51.5855 163.807 52.943 162.567 53.3734ZM145.942 50.1066C146.373 51.3427 145.718 52.6965 144.474 53.1306C143.234 53.5647 141.877 52.9099 141.443 51.6701C141.009 50.4303 141.664 49.0802 142.907 48.646C144.151 48.2119 145.508 48.8668 145.942 50.1066ZM165.356 42.2926C164.811 42.3956 164.289 42.5648 163.744 42.5722C163.207 42.6126 162.648 42.5648 162.096 42.6016C161.82 42.62 161.559 42.6973 161.294 42.7561C161.162 42.7856 161.022 42.7929 160.878 42.804L160.658 42.7966C160.581 42.7966 160.481 42.7267 160.26 42.3956C160.176 42.013 160.209 41.8842 160.271 41.8327L160.452 41.6708C160.573 41.5715 160.709 41.4906 160.849 41.4317C161.125 41.2993 161.419 41.2183 161.699 41.0933C162.262 40.8468 162.836 40.5635 163.435 40.4458C164.035 40.2913 164.657 40.3501 165.264 40.3979C165.569 40.4274 165.871 40.4421 166.169 40.5194C166.323 40.5561 166.47 40.6076 166.621 40.6702L166.842 40.7695C166.916 40.7879 166.993 40.902 167.037 41.3434C166.934 41.7775 166.868 41.8805 166.798 41.8953L166.588 41.9836C166.448 42.0351 166.312 42.0866 166.172 42.1234C165.9 42.2006 165.628 42.2374 165.356 42.2926ZM159.414 73.4382C157.928 74.7221 155.901 75.3291 153.984 75.3144C153.028 75.3218 152.071 75.2335 151.107 74.9833C150.155 74.7184 149.205 74.288 148.389 73.6331C147.576 72.9893 146.913 72.1358 146.498 71.2014C146.288 70.7342 146.122 70.2522 146.008 69.7593C145.894 69.2516 145.821 68.8064 145.813 68.2068C145.81 67.6733 146.236 67.2355 146.77 67.2282C146.877 67.2282 146.976 67.2429 147.072 67.2723L147.105 67.2834C147.664 67.4636 148.223 67.666 148.786 67.8242C149.36 67.9603 149.923 68.1442 150.504 68.2325L151.372 68.3981L152.248 68.5084C152.833 68.6004 153.421 68.6151 154.006 68.6593C155.184 68.6924 156.364 68.6409 157.538 68.4864C158.127 68.4238 158.708 68.3061 159.282 68.1737C159.859 68.0155 160.415 67.9014 161.169 68.0706C160.82 68.777 160.213 69.0676 159.617 69.27C159.017 69.4797 158.406 69.671 157.785 69.8144C156.545 70.1014 155.276 70.2633 153.999 70.2853C152.722 70.3001 151.438 70.2449 150.184 70.0094C149.547 69.9359 148.933 69.7593 148.308 69.6342C148.241 69.6195 148.172 69.5974 148.102 69.579C148.194 69.8181 148.293 70.0499 148.411 70.2706C148.768 70.9181 149.216 71.4847 149.768 71.9556C150.868 72.8937 152.424 73.3977 154.047 73.5449C155.647 73.703 157.266 73.3388 158.487 72.3271C159.098 71.8378 159.628 71.2235 160.065 70.5355C160.294 70.1971 160.496 69.8365 160.687 69.4686C160.867 69.086 160.985 68.7181 161.577 68.4017C161.993 68.9499 161.842 69.4245 161.71 69.8623C161.577 70.3111 161.401 70.7526 161.188 71.1756C160.75 72.0144 160.168 72.8091 159.414 73.4382ZM152.623 60.0396C153.366 59.6533 154.098 59.256 154.823 58.8403C154.389 56.9052 153.973 54.9664 153.797 52.9945L153.502 49.7571C153.454 49.2163 153.425 48.6792 153.421 48.131C153.414 47.8588 153.414 47.5865 153.421 47.3106C153.447 47.0347 153.307 46.7808 153.903 46.4203C154.577 46.5969 154.514 46.8802 154.617 47.1377C154.702 47.3989 154.783 47.6601 154.852 47.925C155.007 48.4474 155.132 48.9735 155.242 49.5069L155.883 52.6892C156.317 54.8119 156.46 56.9788 156.611 59.142L156.618 59.2634C156.64 59.5945 156.445 59.8925 156.155 60.0139C155.176 60.4185 154.22 60.86 153.267 61.3162C152.789 61.5406 152.307 61.7613 151.814 61.949C151.567 62.0483 151.313 62.1329 151.063 62.2212C150.82 62.3242 150.556 62.3904 150.114 62.0998C150.143 61.57 150.353 61.4008 150.581 61.2647C150.802 61.1175 151.023 60.9667 151.247 60.8306C151.696 60.5436 152.16 60.2898 152.623 60.0396ZM146.796 43.4809C146.365 43.3521 145.957 43.1866 145.534 43.0688C144.691 42.8113 143.842 42.6642 143.043 42.4765C142.234 42.3147 141.421 42.1454 140.604 42.208C140.21 42.2779 139.809 42.3698 139.453 42.5538C139.269 42.6347 139.063 42.6862 138.882 42.7892L138.584 42.9106C138.481 42.9511 138.338 42.9364 137.977 42.7193C137.808 42.3588 137.849 42.2006 137.93 42.1013L138.183 41.7996C138.356 41.5899 138.577 41.4501 138.805 41.314C139.25 41.0123 139.765 40.8872 140.262 40.6849C141.274 40.3575 142.352 40.2361 143.382 40.3538C144.426 40.4421 145.365 40.8689 146.248 41.3103C146.693 41.5347 147.127 41.7628 147.528 42.0535C147.73 42.1933 147.918 42.3625 148.105 42.5244L148.37 42.7892C148.462 42.8702 148.521 43.021 148.374 43.4551C148.035 43.7641 147.892 43.7973 147.789 43.7568L147.451 43.6685C147.226 43.6096 147.009 43.5434 146.796 43.4809ZM199.489 146.247C199.665 146.406 199.798 146.63 199.713 147.13C199.249 147.344 199.003 147.277 198.801 147.145L198.175 146.788C197.759 146.542 197.347 146.299 196.943 146.041C196.133 145.526 195.361 144.974 194.566 144.437L192.201 142.837C191.421 142.311 190.641 141.73 189.916 141.229C189.835 141.119 189.486 141.049 189.063 141.005C188.651 140.961 188.198 140.95 187.742 140.95C186.826 140.953 185.884 141.009 184.946 141.093C184.059 141.189 183.173 141.329 182.286 141.468C182.098 141.674 181.837 141.811 181.543 141.822C180.921 141.855 180.656 142.098 180.513 142.274C179.95 142.958 180.031 144.334 180.082 144.665C180.093 144.754 180.093 144.842 180.086 144.934C180.145 144.967 180.207 144.993 180.266 145.03C180.873 145.386 181.462 145.773 182.076 146.111C183.316 146.792 184.578 147.436 185.777 148.171C186.999 148.881 188.113 149.75 189.25 150.581C189.813 151.004 190.391 151.409 190.935 151.858C191.211 152.078 191.48 152.314 191.741 152.553L192.131 152.917C192.267 153.031 192.359 153.208 192.26 153.675C191.866 153.947 191.664 153.933 191.505 153.855L191.012 153.646C190.685 153.502 190.361 153.355 190.049 153.189C189.416 152.873 188.812 152.509 188.198 152.163C186.977 151.46 185.733 150.791 184.593 149.967C183.438 149.165 182.341 148.274 181.223 147.421C180.66 146.99 180.071 146.612 179.497 146.203C179.365 146.104 179.24 145.993 179.107 145.894C178.993 145.905 178.876 145.905 178.758 145.876C178.758 145.872 177.805 145.673 177.11 146.185C176.595 146.56 176.289 147.277 176.201 148.315C175.896 151.854 180.023 154.429 180.064 154.455C180.075 154.459 180.082 154.47 180.093 154.473C180.66 154.838 181.249 155.172 181.782 155.551C182.418 155.974 182.952 156.519 183.533 156.997C183.816 157.247 184.118 157.453 184.394 157.711C184.538 157.829 184.67 157.961 184.81 158.097L185.012 158.292C185.089 158.344 185.122 158.48 185.049 158.925C184.795 159.293 184.652 159.348 184.552 159.318L184.221 159.271C184.011 159.226 183.802 159.171 183.599 159.101C183.202 158.962 182.831 158.767 182.474 158.575C181.749 158.182 181.028 157.792 180.439 157.24C180.27 157.089 180.108 156.935 179.95 156.773C177.831 161.14 180.895 165.109 181.035 165.286C181.179 165.47 181.263 165.694 181.267 165.929L181.429 172.231C181.433 172.305 181.425 172.382 181.41 172.456C181.337 172.849 174.104 211.772 181.348 229.045C181.576 229.593 181.315 230.226 180.767 230.457C180.631 230.513 180.487 230.538 180.351 230.538C179.928 230.538 179.523 230.292 179.354 229.876C171.985 212.313 178.743 174.972 179.266 172.173L179.115 166.33C177.654 164.3 175.918 159.977 178.077 155.687C176.595 154.536 173.729 151.813 174.045 148.131C174.192 146.431 174.803 145.184 175.859 144.426C176.543 143.937 177.275 143.749 177.89 143.698C177.919 143.091 178.037 142.359 178.357 141.678C176.036 141.421 173.103 140.733 171.849 138.941C170.44 136.936 171.172 134.125 171.201 134.004C171.356 133.43 171.948 133.088 172.526 133.242C173.1 133.397 173.446 133.986 173.291 134.563C173.151 135.1 172.934 136.73 173.619 137.705C174.707 139.254 179.004 139.732 181.458 139.669C181.775 139.655 182.076 139.806 182.286 140.037C183.092 139.868 183.905 139.714 184.718 139.559C185.671 139.368 186.631 139.188 187.624 139.066C188.121 139.011 188.628 138.967 189.166 138.967C189.441 138.974 189.717 138.989 190.034 139.044C190.185 139.066 190.358 139.107 190.541 139.169C190.714 139.224 191.001 139.375 191.064 139.423C192.793 140.475 194.206 141.704 195.714 142.914C196.453 143.521 197.2 144.117 197.918 144.757C198.278 145.074 198.628 145.405 198.974 145.74L199.489 146.247ZM148.19 118.659C148.319 118.67 148.455 118.755 148.62 119.189C148.528 119.641 148.411 119.752 148.286 119.781L147.91 119.906C147.657 119.984 147.406 120.057 147.153 120.116C146.649 120.237 146.141 120.307 145.633 120.392C144.618 120.558 143.606 120.76 142.576 120.778C141.553 120.822 140.516 120.764 139.486 120.741C138.971 120.734 138.459 120.782 137.944 120.793C137.69 120.8 137.429 120.786 137.172 120.764L136.782 120.708C136.649 120.694 136.513 120.605 136.355 120.226C136.447 119.825 136.568 119.711 136.693 119.675L137.069 119.557C137.319 119.491 137.573 119.432 137.826 119.399C138.338 119.325 138.849 119.285 139.353 119.189C140.369 118.998 141.377 118.762 142.396 118.637C143.411 118.479 144.445 118.512 145.471 118.501C145.986 118.501 146.501 118.483 147.02 118.519C147.278 118.534 147.539 118.564 147.796 118.597L148.19 118.659ZM210.514 127.496C210.441 127.713 210.305 127.89 210.132 128.015C208.068 127.139 205.099 126.131 202.958 125.436C202.244 125.2 201.534 125.215 200.894 125.399L154.955 109.97C154.393 109.782 154.087 109.168 154.279 108.605C154.47 108.042 155.081 107.737 155.647 107.928L209.837 126.131C210.4 126.319 210.706 126.933 210.514 127.496ZM188.389 128.725L188.051 129.563C187.929 129.861 187.595 130.016 187.289 129.913L172.68 124.969C172.342 124.851 172.173 124.472 172.316 124.144L172.699 123.291C172.824 123.004 173.151 122.861 173.453 122.964L188.021 127.923C188.353 128.037 188.522 128.401 188.389 128.725ZM167.456 119.682L166.802 121.264C166.68 121.555 166.353 121.705 166.051 121.606L165.713 121.496L166.86 118.814L166.106 118.553L167.085 118.873C167.42 118.983 167.589 119.355 167.456 119.682ZM159.451 119.439C159.105 119.325 158.936 118.943 159.087 118.615L159.804 117.041C159.929 116.761 160.253 116.621 160.547 116.717L161.107 116.901L159.907 119.531L161.059 119.939L162.203 117.265L165.771 118.438L164.55 121.113L159.451 119.439ZM204.411 135.619C203.557 135.152 202.281 134.35 201.115 133.32L195.221 131.385C194.879 131.271 194.71 130.888 194.857 130.557L195.574 128.986C195.703 128.706 196.023 128.563 196.317 128.662L198.411 129.35C198.282 128.714 198.348 128.096 198.558 127.544L160.669 114.811C160.794 115.039 160.842 115.267 160.779 115.499C160.176 117.802 155.07 119.255 150.085 119.134C149.923 119.13 149.772 119.126 149.614 119.123C149.592 119.318 149.702 119.509 149.897 119.579L186.914 132.135C190.795 132.131 194.504 132.223 195.177 132.345C196.03 132.499 199.849 135.365 202.502 137.422L204.352 138.047C204.547 138.113 204.76 138.032 204.86 137.859L205.559 136.667C205.345 136.292 204.992 135.932 204.411 135.619Z" fill="black"/>
</svg>
