<svg width="296" height="272" viewBox="0 0 296 272" fill="none" xmlns="http://www.w3.org/2000/svg">
<mask id="mask0_217_1462" style="mask-type:luminance" maskUnits="userSpaceOnUse" x="51" y="23" width="178" height="241">
<path d="M51.1604 23.9858H228.656V263.365H51.1604V23.9858Z" fill="white"/>
</mask>
<g mask="url(#mask0_217_1462)">
<path d="M194.119 184.717C201.608 222.495 210.727 251.638 212.591 262.896H86.6229C85.3341 262.034 84.5224 261.127 84.3063 260.187C82.732 253.328 84.2043 232.138 86.0519 210.214C83.2132 210.195 80.0198 210.004 76.7529 209.674C77.1118 211.072 77.12 212.043 76.7611 212.564C76.1167 213.504 75.3826 214.014 74.8931 214.351C74.783 214.426 74.6525 214.516 74.575 214.58C74.575 214.606 74.5791 214.636 74.5791 214.674C74.6321 215.599 74.783 218.429 72.1769 219.036C71.8954 219.103 71.6181 219.137 71.353 219.137C69.7624 219.137 68.9916 217.972 68.5756 217.346C68.5429 217.297 68.5062 217.241 68.4695 217.185C68.3757 217.215 68.2615 217.248 68.1636 217.278C67.5111 217.473 66.5282 217.769 65.6023 217.769C64.8152 217.769 64.1912 217.559 63.7466 217.14C63.298 216.724 63.0207 216.285 62.8004 215.933C62.4048 215.303 62.2417 215.045 61.4749 215.045C61.4015 215.045 61.324 215.045 61.2384 215.052C61.1854 215.056 61.1283 215.06 61.0752 215.06C59.2889 215.06 56.6256 213.167 54.0521 211.226C53.6483 210.922 53.2976 210.66 53.0365 210.476C52.539 210.131 52.2739 209.374 52.2127 208.164C52.1556 206.968 52.3065 205.417 52.6572 203.756C52.6205 203.726 52.5838 203.696 52.5512 203.666C47.4613 198.884 59.6314 172.14 65.7043 162.351C71.7812 152.561 71.4223 126.48 76.3655 107.479C78.7555 98.2708 82.7687 92.4954 86.268 88.98C86.2721 88.9725 86.2721 88.9613 86.2803 88.9538C86.8023 87.5708 96.0849 81.6905 106.779 74.8133C108.218 73.0144 109.78 71.4141 111.428 69.9974C111 69.349 110.564 68.637 110.115 67.8424C103.903 56.8614 99.9677 40.6672 99.9677 40.6672C105.351 22.1118 137.787 19.9344 143.807 31.6237C144.223 34.3072 147.323 39.9026 148.599 40.6709C149.346 41.1206 150.092 41.8177 150.826 42.8184C155.3 48.9498 149.815 55.8008 146.079 57.3449C146.214 59.7509 146.34 61.9546 146.471 63.8548C149.154 65.0541 152.405 66.9017 155.464 69.6863C166.467 71.9912 180.844 74.9557 187.794 78.2051C193.084 80.3113 198.063 83.0135 200.413 86.2591C221.559 115.454 244.346 186.292 212.22 189.455C207.203 189.949 200.812 187.944 194.119 184.717Z" fill="white"/>
</g>
<mask id="mask1_217_1462" style="mask-type:luminance" maskUnits="userSpaceOnUse" x="38" y="32" width="115" height="232">
<path d="M38.6313 32.6208H152.437V263.365H38.6313V32.6208Z" fill="white"/>
</mask>
<g mask="url(#mask1_217_1462)">
<path d="M45.6096 38.1227C45.8421 38.43 45.9849 38.8573 46.0623 39.307C46.1521 39.7605 46.1643 40.2365 46.1765 40.7349C46.1888 41.2671 46.201 41.803 46.3152 42.3577C46.4335 42.9049 46.6333 43.4858 47.029 43.9917C47.4164 44.5014 47.9792 44.8687 48.5135 45.1198C49.0519 45.3747 49.5821 45.5583 50.1041 45.7382L50.875 46.0081C51.1115 46.1092 51.344 46.1767 51.552 46.3041C51.9884 46.5253 52.3799 46.8251 52.7144 47.1774C53.3791 47.8932 53.8359 48.729 54.4722 49.6359C54.8515 47.4285 52.6573 45.4122 50.5283 44.7825C49.5168 44.3703 48.5013 44.0142 48.0404 43.3434C47.5592 42.68 47.4694 41.6943 47.4572 40.7312C47.449 40.2102 47.4409 39.663 47.3348 39.1121C47.237 38.5649 47.0697 37.984 46.67 37.4481C46.2704 36.9009 45.5852 36.5261 44.9408 36.3875C44.2923 36.2376 43.6805 36.2376 43.0932 36.2638C42.7996 36.275 42.51 36.3013 42.2245 36.3275C42.0165 36.3275 41.8207 36.3425 41.6617 36.2863C41.3435 36.2076 41.0784 35.9752 40.8704 35.6004C40.6624 35.2331 40.5278 34.7759 40.4177 34.3112C40.3035 33.8352 40.3402 33.363 39.9161 32.8308C39.4022 33.3105 39.443 33.8615 39.4348 34.3974C39.4348 34.9408 39.5123 35.4992 39.757 36.0652C39.9854 36.6123 40.5197 37.2232 41.2824 37.4256C41.6576 37.538 42.0247 37.5231 42.3672 37.5118C42.6323 37.4893 42.8974 37.4631 43.1585 37.4518C43.6805 37.4294 44.1903 37.4369 44.6186 37.538C45.0509 37.6392 45.3731 37.8229 45.6096 38.1227ZM144.786 149.526C142.947 148.878 137.787 147.247 134.455 146.689C131.119 146.127 129.113 143.975 126.584 142.874C124.059 141.772 122.864 138.863 122.546 137.346C122.224 135.828 120.801 132.837 123.464 132.725C126.123 132.616 144.297 136.544 146.042 135.891C147.792 135.247 144.24 134.392 139.382 132.987C134.525 131.581 127.885 133.399 127.991 129.393C128.06 126.754 137.514 127.459 144.851 128.49L139.974 114.9C139.504 113.6 137.983 112.884 136.56 113.296L116.702 119.041C115.984 119.251 115.388 119.723 115.062 120.346L114.618 121.2C114.316 121.773 114.267 122.426 114.475 123.033L126.669 158.584C127.122 159.9 128.656 160.634 130.091 160.222L149.937 154.514C150.892 154.241 151.601 153.514 151.797 152.614L152.201 150.763C148.791 150.388 145.61 149.811 144.786 149.526ZM95.7301 81.2636C99.4497 78.5464 103.251 76.5826 106.208 75.1209C102.806 86.1619 88.6784 145.197 87.1816 160.751C86.0804 172.121 81.8959 190.797 79.7221 200.016C82.63 201.197 83.9678 204.004 84.0412 207.013C84.3552 219.778 84.8814 256.293 80.8518 262.897H50.7363C49.0723 260.285 49.7289 254.689 49.7289 254.689C49.7289 254.689 36.6084 224.246 52.0822 207.085C52.0822 207.085 52.3758 206.848 52.906 206.462C52.7551 208.284 52.9305 209.656 53.4322 210C54.9412 211.065 59.1543 214.591 61.1935 214.456C63.2287 214.322 63.0125 215.6 64.2116 216.724C65.4107 217.844 68.2044 216.518 68.6694 216.536C69.1384 216.555 69.6482 219.01 72.0178 218.459C74.3874 217.904 73.9021 214.88 73.9225 214.449C73.9429 214.022 75.2072 213.711 76.2105 212.249C76.9936 211.11 75.1419 206.766 73.6696 203.715C73.3556 203.059 73.0578 202.46 72.805 201.969C72.7193 201.804 72.6377 201.646 72.5643 201.504C72.3767 201.137 72.2054 200.751 72.0504 200.361C72.0015 200.245 71.9607 200.132 71.9199 200.016C71.8098 199.731 71.7119 199.454 71.6222 199.173C71.6059 199.12 71.5814 199.061 71.5651 199.008H71.5692C71.4264 198.547 71.2959 198.101 71.198 197.7C71.3326 196.756 71.5121 195.624 71.7323 194.331L73.2414 191.936C73.2414 191.936 72.8457 191.876 72.1769 191.812C75.4356 173.755 83.9719 134.43 85.8357 125.607C88.2339 114.24 94.6738 83.8046 95.7301 81.2636Z" fill="#7ED957"/>
</g>
<mask id="mask2_217_1462" style="mask-type:luminance" maskUnits="userSpaceOnUse" x="46" y="10" width="169" height="254">
<path d="M46.9841 10.5537H214.039V263.365H46.9841V10.5537Z" fill="white"/>
</mask>
<g mask="url(#mask2_217_1462)">
<path d="M90.8768 103.713C92.8018 103.806 98.267 103.431 99.0868 102.922C99.7271 102.296 100.482 98.2333 100.196 97.0602C99.1235 96.9028 95.359 97.6074 92.0636 98.4619C91.5008 100.474 90.9788 102.712 90.8768 103.713ZM90.318 97.5137C90.4037 97.2102 90.6606 96.9703 90.9869 96.8841C100.857 94.2344 101.571 95.5199 101.872 96.0708C102.696 97.555 101.721 103.038 100.429 104.222C99.515 105.051 94.8941 105.508 91.9413 105.508C90.7544 105.508 89.8368 105.433 89.539 105.283C88.911 104.964 88.2625 104.635 90.318 97.5137ZM128.073 121.732C126.714 121.68 125.568 122.643 125.511 123.887C125.454 125.131 126.506 126.184 127.86 126.237C129.219 126.289 130.365 125.322 130.422 124.078C130.479 122.834 129.427 121.784 128.073 121.732ZM213.476 262.316C210.217 237.528 204.724 212.519 197.142 187.978C196.995 187.502 196.452 187.225 195.934 187.36C195.416 187.495 195.115 187.989 195.261 188.465C202.815 212.916 208.292 237.835 211.539 262.529C211.6 262.986 212.02 263.32 212.505 263.32C212.546 263.32 212.587 263.316 212.624 263.312C213.162 263.252 213.541 262.806 213.476 262.316ZM150.158 230.628C148.82 218.541 147.433 206.042 145.855 193.761C145.5 189.331 145.133 185.673 144.782 182.135C143.97 173.961 143.33 167.508 143.338 157.1C143.338 156.601 142.902 156.2 142.359 156.2C141.821 156.2 141.381 156.601 141.381 157.096C141.377 167.586 142.025 174.077 142.841 182.296C143.187 185.827 143.55 189.477 143.913 193.933C145.492 206.237 146.874 218.729 148.216 230.808C149.346 240.983 150.512 251.499 151.781 261.78C151.834 262.233 152.258 262.57 152.747 262.57C152.784 262.57 152.821 262.57 152.862 262.567C153.396 262.51 153.783 262.068 153.722 261.577C152.454 251.308 151.287 240.796 150.158 230.628ZM135.985 32.5569L140.108 44.4974C141.837 42.2375 145.484 38.4597 149.166 40.6747C152.14 29.4725 150.659 24.0682 149.864 22.6703C137.037 0.0598097 100.535 13.5631 94.7514 28.9103C91.9454 36.361 93.6909 41.6416 95.4977 44.6061C103.328 57.4573 135.985 32.5569 135.985 32.5569ZM114.291 56.749C115.352 56.4079 115.915 55.3398 115.543 54.3654C115.172 53.3909 114.01 52.8775 112.945 53.2185C111.885 53.5558 111.322 54.624 111.693 55.5984C112.065 56.5728 113.227 57.09 114.291 56.749ZM127.795 49.7706C126.731 50.1116 126.172 51.1797 126.543 52.1542C126.914 53.1286 128.077 53.642 129.137 53.301C130.202 52.9637 130.764 51.8956 130.393 50.9211C130.022 49.943 128.86 49.4333 127.795 49.7706ZM186.346 181.757C187.3 182.248 188.259 182.731 189.225 183.196C190.192 183.668 191.175 184.11 192.166 184.538L193.65 185.175C194.144 185.392 194.678 185.546 195.343 185.433C195.029 184.882 194.589 184.586 194.115 184.343L192.717 183.589L189.935 182.045C188.087 181.011 186.244 179.969 184.421 178.901C180.787 176.746 177.259 174.448 173.764 172.121C170.24 169.82 166.855 167.346 163.568 164.768L161.161 162.774C160.378 162.092 159.632 161.372 158.853 160.687L157.695 159.648L156.569 158.577L155.427 157.512C155.048 157.16 154.619 156.845 153.987 156.684C154.077 157.265 154.375 157.696 154.721 158.086L155.757 159.251C156.112 159.633 156.455 160.031 156.818 160.402L157.952 161.492C158.706 162.219 159.465 162.943 160.24 163.651L162.617 165.727C163.392 166.439 164.216 167.099 165.028 167.774C165.847 168.437 166.639 169.138 167.483 169.771L170.016 171.694C170.864 172.331 171.737 172.931 172.601 173.553C176.093 175.978 179.759 178.181 183.511 180.239L186.346 181.757ZM148.086 64.3907L147.751 60.8865C147.674 60.2794 147.6 59.6685 147.49 59.0613C147.441 58.7578 147.38 58.4542 147.315 58.1469C147.225 57.8546 147.294 57.4985 146.65 57.2811C146.426 57.4835 146.295 57.6185 146.259 57.7759C146.222 57.9295 146.242 58.0757 146.226 58.2256L146.185 59.1401C146.165 59.7472 146.169 60.3581 146.165 60.9652L146.214 64.6193C146.218 64.6718 146.222 64.728 146.242 64.7805L146.259 64.8442C146.931 67.0591 147.886 69.1617 148.93 71.2417L150.521 74.3486C150.79 74.8658 151.063 75.3792 151.389 75.874C151.552 76.1213 151.711 76.3687 151.895 76.6048C152.07 76.8446 152.225 77.0995 152.776 77.137C153.033 76.676 152.89 76.4361 152.768 76.1775L152.433 75.398C152.197 74.8808 151.96 74.3636 151.711 73.8539C151.214 72.827 150.806 71.7664 150.419 70.702C149.652 68.592 148.942 66.4595 148.086 64.3907ZM129.936 95.9022C130.528 95.8197 131.115 95.726 131.694 95.5986L132.567 95.4187L133.428 95.1901C134.566 94.8678 135.728 94.6092 136.821 94.1557C141.254 92.5179 145.272 89.9582 148.502 86.7725C150.158 85.2135 151.622 83.4932 152.902 81.6755C153.229 81.2258 153.547 80.7686 153.828 80.2889C154.122 79.8204 154.403 79.3444 154.664 78.861C154.942 78.385 155.182 77.8903 155.431 77.3993C155.676 76.9083 155.855 76.3762 155.7 75.7428C155.113 76.0913 154.787 76.5186 154.522 76.9833C154.232 77.4368 153.955 77.8903 153.641 78.3325C153.343 78.7785 153.029 79.217 152.698 79.6442L152.217 80.2926L151.711 80.926C150.357 82.605 148.914 84.2278 147.278 85.6669C146.499 86.4277 145.598 87.0611 144.762 87.7582L143.408 88.6952C142.959 89.01 142.514 89.321 142.025 89.5834C141.071 90.1343 140.137 90.7152 139.125 91.1725C138.628 91.4123 138.142 91.6747 137.637 91.8958L136.083 92.5029C135.071 92.9639 133.978 93.2337 132.914 93.571L132.11 93.8184L131.29 94.0095C130.744 94.1445 130.193 94.2494 129.643 94.3431C127.44 94.7516 125.181 94.8903 123.015 94.5305C121.939 94.3431 120.894 94.0208 119.948 93.5411C118.994 93.0576 118.154 92.4167 117.428 91.6747C116.706 90.9289 116.123 90.0631 115.645 89.1449C115.405 88.6839 115.209 88.2042 115.042 87.717C114.875 87.2223 114.679 86.7538 114.267 86.2591C113.973 86.825 114.002 87.4022 114.132 87.9381C114.263 88.474 114.434 89.01 114.65 89.5272C115.066 90.5691 115.682 91.5585 116.469 92.428C118.044 94.1782 120.344 95.3363 122.73 95.7972C125.116 96.2994 127.579 96.2357 129.936 95.9022ZM74.6322 214.685C74.6159 214.7 74.62 214.696 74.6322 214.685V214.685ZM54.0644 209.325C54.0644 209.325 54.0644 209.325 54.0603 209.322C54.0155 209.288 54.0318 209.299 54.0644 209.325ZM80.4481 200.972C80.4767 201.185 80.493 201.403 80.4848 201.612C80.4726 202.04 80.4196 202.463 80.3992 202.898C80.3543 203.767 80.3258 204.648 79.9383 205.585C79.8323 205.821 79.714 206.061 79.5182 206.308C79.3225 206.552 79.0533 206.822 78.6087 206.994C78.4904 207.032 78.3803 207.073 78.258 207.092C78.1478 207.107 77.9847 207.122 77.9154 207.118L77.5075 207.092C77.2383 207.066 76.9773 207.024 76.7245 206.968C76.3737 206.893 76.0393 206.784 75.7171 206.661C75.9332 207.17 76.1412 207.68 76.3329 208.205C76.6266 209.033 76.908 209.865 77.0507 210.787C77.1038 211.256 77.1976 211.732 76.9406 212.395C76.8998 212.47 76.8427 212.582 76.8101 212.627L76.7 212.777C76.6306 212.882 76.5532 212.976 76.4757 213.073C76.3207 213.264 76.1494 213.448 75.9699 213.62C75.6151 213.965 75.1909 214.273 74.8402 214.516C74.7913 214.554 74.7464 214.587 74.7056 214.621C74.7097 214.655 74.7097 214.685 74.7138 214.711L74.7301 215.045C74.7586 215.952 74.7178 216.952 74.0979 217.927C73.7879 218.406 73.2741 218.834 72.6949 219.058L72.2544 219.205C72.1076 219.238 71.9608 219.261 71.814 219.287C71.5122 219.325 71.19 219.343 70.8596 219.287C70.1989 219.197 69.583 218.849 69.1793 218.455C68.8326 218.129 68.5756 217.754 68.3717 217.458C68.282 217.484 68.1882 217.514 68.0985 217.544C67.6458 217.683 67.1686 217.818 66.6506 217.915C66.1286 218.005 65.5698 218.069 64.9213 217.972C64.5991 217.919 64.2565 217.803 63.9384 217.623C63.7916 217.522 63.6244 217.402 63.5102 217.297C63.4123 217.2 63.3062 217.106 63.2206 217.005C62.8617 216.607 62.5966 216.154 62.3886 215.847C62.1561 215.506 62.0542 215.438 61.8951 215.393C61.8054 215.363 61.6667 215.352 61.5076 215.344L61.2385 215.352C61.0631 215.352 60.8877 215.344 60.7123 215.333C60.0802 215.243 59.554 215.063 59.0932 214.853C58.1551 214.441 57.3598 213.946 56.5767 213.433C55.8018 212.92 55.0596 212.38 54.3377 211.84L53.2691 211.027L53.0081 210.836C52.9143 210.757 52.8857 210.761 52.641 210.528C52.2943 210.161 52.2087 209.861 52.123 209.599C51.8416 208.55 51.8987 207.676 51.9436 206.773C52.0048 205.881 52.1394 205.012 52.3107 204.146C52.6696 202.422 53.1916 200.732 53.9135 199.098C54.6435 197.475 55.5694 195.882 56.9112 194.522C57.2456 194.181 57.6127 193.858 58.0246 193.585L58.6323 193.161C58.8444 193.038 59.0646 192.933 59.2808 192.816C59.709 192.573 60.1617 192.4 60.6185 192.232C61.0712 192.037 61.5443 191.932 62.0052 191.793C63.8732 191.295 65.79 191.134 67.6784 191.126C68.6246 191.126 69.5667 191.149 70.5048 191.224C71.4387 191.287 72.3809 191.445 73.2414 191.936C72.2708 192.176 71.3653 192.187 70.4517 192.157C69.5341 192.134 68.6246 192.157 67.7151 192.202C65.9042 192.299 64.1097 192.569 62.4253 193.06C60.7368 193.555 59.2359 194.353 58.1062 195.507C56.9805 196.692 56.1567 198.161 55.5123 199.682C54.8719 201.211 54.4111 202.816 54.1133 204.438C53.9665 205.248 53.8564 206.065 53.8156 206.871C53.7789 207.661 53.7952 208.512 53.9747 209.116C54.0032 209.221 54.0562 209.307 54.0685 209.325C54.1052 209.355 54.1664 209.4 54.2153 209.43L54.4967 209.633L55.5816 210.439C56.2953 210.971 57.005 211.492 57.731 211.975C58.0613 212.193 58.3958 212.402 58.7302 212.601L58.2489 211.979C57.4332 210.787 56.7358 209.49 56.4258 208.115C56.0873 206.747 56.0139 205.349 56.0425 203.977C56.0425 203.295 56.0547 202.609 56.1118 201.931C56.1322 201.59 56.1934 201.249 56.2668 200.912C56.3035 200.747 56.3565 200.578 56.3973 200.413C56.4462 200.245 56.5604 200.083 56.9397 199.967C57.2619 200.185 57.3313 200.349 57.3353 200.514L57.3598 201.005L57.3761 201.98C57.3639 202.628 57.3843 203.277 57.4536 203.921C57.6168 205.207 57.9471 206.458 58.3101 207.673C58.7057 208.879 59.1258 210.064 59.7335 211.184L60.2351 211.998C60.4064 212.267 60.6226 212.507 60.8061 212.777C60.8999 212.908 60.9978 213.04 61.0835 213.178C61.1854 213.309 61.2996 213.426 61.4016 213.553L61.4057 213.557L61.5362 213.553C61.8421 213.56 62.1683 213.587 62.5191 213.703C62.8698 213.8 63.2206 214.018 63.4694 214.25C63.7304 214.486 63.8935 214.726 64.0241 214.928C64.2932 215.348 64.4645 215.652 64.6929 215.914C64.746 215.982 64.8071 216.034 64.8642 216.098C64.9172 216.143 64.9376 216.146 64.9662 216.184C65.0437 216.221 65.1375 216.266 65.2721 216.289C65.5413 216.341 65.9165 216.326 66.308 216.259C66.6995 216.195 67.1115 216.09 67.5397 215.963C67.5683 215.955 67.5968 215.948 67.6254 215.94L67.5438 215.839C67.2909 215.532 67.0421 215.221 66.8137 214.906C66.3366 214.273 65.9124 213.613 65.4842 212.957C64.6358 211.634 63.759 210.319 63.0942 208.876C62.931 208.508 62.772 208.149 62.6292 207.759C62.4824 207.407 62.3519 206.934 62.2703 206.59C62.099 205.862 61.9114 205.132 61.7034 204.401C61.4913 203.67 61.2344 202.95 60.9693 202.235C60.8388 201.875 60.7205 201.515 60.6185 201.144C60.5614 200.96 60.5206 200.773 60.4717 200.589C60.4146 200.406 60.4187 200.203 60.6919 199.9C61.1202 199.948 61.2711 200.102 61.3608 200.275C61.4628 200.447 61.5647 200.612 61.6585 200.784C61.8461 201.129 62.0174 201.478 62.1724 201.834L63.0819 203.977C63.4001 204.693 63.71 205.409 63.9874 206.151C64.1383 206.533 64.2361 206.796 64.4034 207.144C64.5461 207.474 64.7296 207.808 64.8887 208.141C65.5943 209.472 66.2509 210.855 66.9769 212.211C67.3399 212.893 67.7151 213.564 68.0618 214.258C68.2371 214.599 68.4003 214.951 68.5634 215.303L68.7551 215.723C68.7877 215.727 68.8285 215.73 68.8693 215.742C68.9549 215.76 69.0487 215.787 69.1303 215.82C69.216 215.862 69.2894 215.907 69.3057 215.922L69.3995 215.997C69.5422 216.116 69.579 216.176 69.6361 216.244C69.6972 216.319 69.7258 216.364 69.7625 216.42C70.256 217.215 70.6394 217.653 71.1492 217.728C71.3939 217.769 71.7691 217.739 72.0383 217.634C72.3115 217.533 72.5277 217.372 72.7031 217.128C73.0538 216.634 73.1762 215.862 73.1599 215.086L73.1558 214.782C73.1558 214.659 73.1313 214.614 73.1599 214.34C73.2414 213.917 73.4657 213.763 73.5718 213.658C73.5799 213.654 73.584 213.65 73.5881 213.647C73.3515 213.613 73.217 213.515 73.1232 213.403L72.7194 212.942C72.4584 212.627 72.1973 212.316 71.9567 211.994C71.4591 211.357 71.0064 210.69 70.5537 210.023C69.6564 208.688 68.7266 207.362 68.0169 205.896C67.8293 205.536 67.6702 205.158 67.5071 204.783C67.348 204.397 67.1971 203.996 67.0911 203.618C66.8545 202.849 66.6628 202.077 66.4752 201.305L65.892 199.012C65.8023 198.629 65.7248 198.239 65.6677 197.85C65.6391 197.655 65.6187 197.456 65.5984 197.261C65.5657 197.066 65.5984 196.86 65.9206 196.594C66.3366 196.71 66.463 196.879 66.5282 197.063C66.5976 197.246 66.6832 197.426 66.7485 197.614C66.8912 197.981 67.0177 198.348 67.1319 198.719C67.3603 199.465 67.5927 200.211 67.8741 200.938C68.1596 201.665 68.4614 202.385 68.7755 203.089C68.9346 203.449 69.0977 203.775 69.2527 204.112L69.791 205.124C70.5415 206.477 71.2552 207.879 72.0342 209.254C72.4176 209.94 72.8213 210.622 73.1884 211.323C73.376 211.672 73.5514 212.028 73.7268 212.384L73.9878 212.92C74.0449 213.032 74.0653 213.156 74.0286 213.321C74.363 213.096 74.6485 212.897 74.9055 212.661C75.0482 212.53 75.1869 212.395 75.3092 212.249C75.3745 212.178 75.4357 212.103 75.4928 212.028L75.5784 211.911C75.607 211.87 75.5906 211.881 75.607 211.863C75.6804 211.728 75.7008 211.319 75.6477 210.952C75.5458 210.187 75.297 209.382 75.0278 208.591C74.7545 207.8 74.4446 207.013 74.1101 206.23C73.4413 204.663 72.6786 203.127 71.9159 201.586L71.3612 200.398C71.1777 200.005 70.986 199.615 70.8229 199.169C70.517 198.296 70.415 197.366 70.4803 196.459C70.5578 195.549 70.8147 194.657 71.2348 193.84C71.659 193.03 72.3319 192.307 73.2414 191.936C72.8417 192.764 72.438 193.457 72.0913 194.196C71.765 194.93 71.5815 195.717 71.557 196.508C71.5407 197.299 71.6875 198.082 71.9649 198.82C72.0995 199.176 72.2993 199.562 72.4869 199.945L73.0579 201.092C73.7512 202.403 74.4038 203.741 75.0237 205.098L75.1746 205.124L75.8027 205.24C76.2146 205.312 76.6103 205.39 76.9977 205.413C77.1935 205.424 77.3852 205.424 77.5728 205.417L77.846 205.387C77.8787 205.372 77.8134 205.375 77.8134 205.375C77.7685 205.383 78.0092 205.177 78.1519 204.873C78.4741 204.27 78.78 203.494 79.0002 202.714C79.1104 202.321 79.1552 201.92 79.2205 201.515C79.2531 201.313 79.3021 201.11 79.3551 200.908L79.4489 200.608C79.4815 200.503 79.5794 200.409 79.9342 200.316C80.2891 200.428 80.3747 200.541 80.3951 200.649L80.4481 200.972ZM197.99 225.992L197.554 227.127L196.652 229.387C196.036 230.887 195.368 232.371 194.605 233.814C193.067 236.692 191.207 239.402 189.136 241.939C187.047 244.461 184.735 246.83 182.039 248.793C180.709 249.798 179.245 250.63 177.761 251.428C177.381 251.616 176.998 251.799 176.623 251.998C176.244 252.189 175.848 252.346 175.46 252.526C175.069 252.702 174.677 252.871 174.27 253.01C173.862 253.152 173.482 253.355 173.181 253.834C173.715 254.063 174.176 254.01 174.604 253.894C175.044 253.793 175.473 253.666 175.897 253.523C176.321 253.385 176.757 253.261 177.178 253.107C177.598 252.95 178.005 252.777 178.421 252.605C180.053 251.893 181.631 251.046 183.083 250.049C186.024 248.093 188.585 245.683 190.702 242.996C192.81 240.305 194.495 237.37 195.89 234.353C196.599 232.847 197.264 231.325 197.839 229.777C198.116 228.998 198.386 228.218 198.602 227.42C198.708 227.023 198.806 226.625 198.904 226.221C198.993 225.82 199.022 225.4 198.773 224.931C198.333 225.25 198.133 225.61 197.99 225.992ZM97.4024 158.213C97.2229 154.735 97.1332 151.253 96.9823 147.779L96.4806 137.357L96.2889 132.143L96.1054 128.231C96.0932 127.796 96.0116 127.361 95.616 126.919C95.2041 127.342 95.1103 127.781 95.0858 128.216L94.992 129.524C94.9226 130.401 94.8615 131.27 94.8452 132.143C94.7677 133.894 94.7677 135.64 94.7636 137.387C94.7636 140.879 94.8084 144.38 95.0368 147.865C95.2571 151.351 95.6201 154.833 95.9912 158.307L96.5173 163.52C96.6152 164.389 96.7172 165.255 96.8518 166.121L97.0598 167.418C97.1291 167.849 97.2678 168.28 97.6715 168.677C97.9734 168.212 98.0182 167.77 97.9978 167.335L97.9407 166.031C97.8999 165.161 97.8347 164.292 97.7735 163.422C97.6389 161.687 97.5043 159.952 97.4024 158.213ZM130.662 68.6969L130.181 68.9518C130.01 69.0342 129.81 69.0905 129.626 69.1617C129.255 69.3191 128.864 69.394 128.476 69.499C127.697 69.6526 126.894 69.7201 126.09 69.6751C125.287 69.6189 124.488 69.4577 123.705 69.2141C123.313 69.0942 122.934 68.933 122.558 68.7606C122.195 68.5658 121.853 68.3934 121.217 68.4496C121.241 69.0492 121.629 69.3416 122.008 69.5777C122.395 69.8213 122.791 70.0536 123.211 70.2448C124.051 70.6495 124.973 70.9156 125.923 71.0505C126.882 71.1892 127.86 71.133 128.811 70.9943C129.28 70.8969 129.761 70.8144 130.21 70.6533C130.438 70.5783 130.662 70.5221 130.891 70.4284L131.576 70.1098C131.69 70.0536 131.804 70.0087 131.914 69.9412L132.224 69.7238C132.428 69.5702 132.649 69.4352 132.832 69.2628L133.35 68.7082C133.534 68.5283 133.632 68.3034 133.774 68.0973C134.292 67.2615 134.566 66.3246 134.61 65.4289C134.737 63.6112 134.353 61.9359 133.656 60.2869C133.579 60.0995 133.424 59.9383 133.211 59.8409C132.763 59.6385 132.22 59.8072 132 60.2157L131.996 60.2194C131.498 61.1414 130.805 61.9771 129.932 62.6892C129.039 63.3826 127.999 63.9447 126.886 64.3832C125.776 64.833 124.59 65.114 123.395 65.3801C122.795 65.5076 122.191 65.6237 121.584 65.7287C120.972 65.8673 120.364 65.7886 119.761 66.3433C120.417 66.8643 121.066 66.6806 121.706 66.6806C122.35 66.6469 122.999 66.5907 123.631 66.482C124.908 66.2796 126.172 65.9723 127.396 65.5338C128.615 65.0878 129.814 64.5481 130.911 63.8098C131.454 63.4275 131.963 62.9928 132.424 62.5131C132.624 63.4425 132.718 64.3982 132.649 65.2902C132.522 66.7181 131.955 68.0111 130.662 68.6969ZM120.748 51.8581C120.809 51.5433 120.85 51.221 120.89 50.8987L120.935 50.4152C120.956 50.254 120.911 50.0779 120.609 49.838C120.221 49.9167 120.091 50.0554 120.022 50.2091L119.826 50.6738C119.704 50.9849 119.597 51.2997 119.508 51.6182C119.336 52.2591 119.186 52.9037 119.031 53.5483C118.704 54.8376 118.382 56.1456 118.317 57.521C118.284 58.2106 118.305 58.9189 118.496 59.6572C118.549 59.8446 118.61 60.032 118.672 60.2157C118.757 60.4068 118.867 60.6054 118.973 60.7928C119.198 61.1564 119.447 61.4375 119.748 61.726C120.34 62.2882 121.123 62.7192 121.951 62.8691C122.359 62.9516 122.775 62.9703 123.178 62.9403C123.382 62.9216 123.578 62.8916 123.774 62.8504C123.966 62.8241 124.174 62.7155 124.263 62.3182C124.006 61.9921 123.859 61.9209 123.696 61.9172C123.541 61.9022 123.382 61.8797 123.231 61.846C122.926 61.7897 122.636 61.6998 122.367 61.5911C121.832 61.3812 121.372 61.0852 121.025 60.6692C120.854 60.4705 120.682 60.2232 120.584 60.0058L120.47 59.6872C120.45 59.5561 120.421 59.4249 120.393 59.2975C120.315 58.7578 120.266 58.1619 120.262 57.551C120.254 56.3217 120.295 55.04 120.425 53.7657C120.503 53.1286 120.625 52.4915 120.748 51.8581ZM112.113 50.0479C112.081 49.6844 112.02 49.5944 111.958 49.5794L111.767 49.497C111.636 49.4483 111.506 49.407 111.375 49.392C111.106 49.3396 110.837 49.3508 110.568 49.3696C110.033 49.4108 109.471 49.482 109.022 49.7518C108.557 49.9954 108.194 50.3665 107.856 50.7113C107.688 50.8912 107.497 51.0336 107.333 51.2135C107.252 51.2997 107.183 51.4009 107.13 51.5095C107.101 51.562 107.081 51.6257 107.06 51.6857C107.036 51.7419 107.06 51.8468 107.297 52.0905C107.607 52.2554 107.709 52.2816 107.762 52.2591L107.921 52.2029C108.027 52.1579 108.121 52.1129 108.206 52.0567C108.373 51.9443 108.533 51.8169 108.724 51.7344C109.108 51.5658 109.524 51.4871 109.883 51.3559C110.246 51.2509 110.564 51.0523 110.923 50.9136C111.098 50.8387 111.286 50.7937 111.473 50.7188L111.767 50.5913L111.922 50.5164C111.975 50.5051 112.024 50.4152 112.113 50.0479ZM131.07 46.034C131.144 45.6705 131.087 45.5543 131.001 45.5093L130.752 45.3444C130.585 45.232 130.405 45.1345 130.214 45.0671C130.026 44.9921 129.834 44.9247 129.639 44.8685L129.043 44.7485C128.24 44.6173 127.391 44.5349 126.604 44.7335C125.809 44.8909 125.087 45.2245 124.402 45.5693C124.059 45.7454 123.709 45.8878 123.374 46.0752C123.211 46.1652 123.056 46.2776 122.909 46.4013C122.84 46.4613 122.775 46.5325 122.705 46.5999C122.636 46.6636 122.599 46.7911 122.726 47.1021C123.003 47.3195 123.121 47.3532 123.207 47.3307L123.468 47.267C123.639 47.2183 123.806 47.1658 123.966 47.1059C124.284 46.9822 124.598 46.8473 124.932 46.7686C125.605 46.6074 126.29 46.5662 126.935 46.4912C127.587 46.435 128.215 46.3301 128.868 46.3151L129.357 46.3226C129.516 46.3376 129.679 46.3526 129.851 46.3563C130.018 46.3563 130.189 46.3601 130.361 46.3751L130.626 46.3826C130.711 46.3975 130.826 46.3376 131.07 46.034ZM118.941 77.5717C120.336 78.5386 121.832 79.4194 123.488 80.0453C125.136 80.6711 126.914 81.0834 128.733 81.1396C130.548 81.2108 132.367 80.9222 134.076 80.4088C135.789 79.8878 137.392 79.0408 138.779 78.0214C140.169 76.9871 141.401 75.7953 142.396 74.4685C142.906 73.8127 143.355 73.1231 143.75 72.4072C143.946 72.0475 144.138 71.6877 144.309 71.3204C144.497 70.9643 144.631 70.5671 144.399 70.0499C143.836 70.2523 143.599 70.5521 143.395 70.8856C143.179 71.2117 142.951 71.5303 142.718 71.8451C142.245 72.4672 141.74 73.0669 141.222 73.6515C140.169 74.8058 139.019 75.8777 137.714 76.7434C136.409 77.6129 134.99 78.2913 133.456 78.696C131.943 79.1645 130.365 79.3819 128.782 79.3819C125.613 79.3557 122.465 78.2725 119.769 76.5411C118.427 75.6678 117.195 74.6372 116.045 73.5353C116.033 73.5278 116.025 73.5166 116.012 73.5054C116 73.4904 115.988 73.4791 115.972 73.4641C115.425 72.9319 114.891 72.3885 114.369 71.8338C114.092 71.549 113.822 71.2567 113.561 70.9569C113.296 70.6608 112.986 70.3984 112.472 70.2335C112.407 70.7282 112.578 71.1143 112.799 71.4516C113.027 71.7889 113.264 72.1187 113.512 72.4485C113.814 72.8457 114.136 73.2243 114.471 73.6028C114.442 73.644 114.41 73.6927 114.385 73.7415C110.723 81.4994 108.712 99.6425 106.938 115.649C106.538 119.251 106.163 122.65 105.784 125.746C105.372 129.145 105.103 132.87 104.813 136.813C103.675 152.535 102.26 172.099 90.7218 196.231C79.8567 218.95 82.9686 260.254 83.0012 260.667C83.0379 261.139 83.4662 261.499 83.9719 261.499C83.9964 261.499 84.0209 261.499 84.0453 261.495C84.5837 261.461 84.9875 261.034 84.9467 260.539C84.914 260.127 81.8389 219.268 92.5082 196.946C94.4006 192.993 96.0198 189.162 97.4146 185.448C97.2433 186.595 97.072 187.738 96.917 188.885C96.4194 192.34 95.9831 195.803 95.5426 199.27C94.6575 206.196 93.8378 213.137 93.2138 220.093L92.3654 230.527L91.6558 240.972L90.9502 251.413C90.8401 253.156 90.734 254.895 90.6729 256.638L90.5627 259.254C90.5301 260.123 90.5627 261 90.8564 261.888C91.2683 261.038 91.4192 260.176 91.5049 259.306L91.7496 256.701C91.9209 254.966 92.0636 253.227 92.2105 251.488C92.4837 248.014 92.7611 244.54 93.0669 241.066L94.0866 230.65L95.151 220.247L97.2515 199.435L98.3526 189.031C98.5362 187.296 98.6871 185.557 98.8502 183.818L99.0868 181.213C99.1072 181.011 99.1235 180.808 99.1316 180.602C104.833 163.527 105.886 149.091 106.767 136.937C107.048 133.009 107.317 129.303 107.725 125.945C108.104 122.841 108.48 119.435 108.879 115.833C110.507 101.142 112.521 82.9573 115.898 75.0794C116.844 75.9714 117.864 76.8034 118.941 77.5717ZM55.6346 215.682C55.394 216.424 55.1574 217.166 54.9372 217.912C54.4763 219.403 54.0889 220.91 53.734 222.424C53.0285 225.452 52.4738 228.51 52.0252 231.587C51.5969 234.582 51.3318 237.603 51.238 240.638C50.5814 237.771 50.0797 234.874 49.8105 231.958C49.5414 228.934 49.5128 225.891 49.9003 222.892C50.1001 221.397 50.3815 219.909 50.8506 218.47C50.9525 218.103 51.083 217.75 51.2258 217.398C51.3644 217.042 51.4868 216.686 51.6622 216.345C51.8376 216.008 51.9681 215.648 52.1027 215.288C52.2372 214.925 52.3555 214.554 52.38 214.115C51.9925 214.344 51.6907 214.636 51.4012 214.943C51.1238 215.251 50.9321 215.607 50.7364 215.955C50.5243 216.304 50.3693 216.671 50.2021 217.035C50.0267 217.394 49.8636 217.762 49.7331 218.137C49.1458 219.617 48.7257 221.157 48.4728 222.709C47.9181 225.816 47.8937 228.964 48.0976 232.075C48.3097 235.189 48.7746 238.277 49.4231 241.332C49.7371 242.861 50.1205 244.375 50.5487 245.878C50.9811 247.388 51.4338 248.872 51.9885 250.375C52.1394 250.791 52.6002 251.05 53.0815 250.971C53.6117 250.881 53.9624 250.42 53.8686 249.933L53.8646 249.925C53.2813 246.957 53.004 243.929 52.951 240.886C52.9387 237.839 53.0978 234.784 53.4282 231.737C53.7952 228.694 54.3295 225.666 54.9698 222.656C55.2879 221.153 55.6346 219.651 55.9854 218.148C56.1607 217.398 56.3524 216.652 56.5441 215.907C56.7399 215.157 56.8745 214.4 56.7807 213.572C56.1974 214.213 55.8793 214.94 55.6346 215.682ZM153.106 126.308C153.449 126.45 153.783 126.604 154.114 126.773C154.163 126.664 154.216 126.559 154.273 126.458L154.97 125.202C155.439 124.37 155.925 123.55 156.414 122.721C157.393 121.08 158.376 119.435 159.322 117.774C160.256 116.107 161.178 114.435 162.083 112.76C162.997 111.084 163.898 109.405 164.767 107.719C165.672 106.044 166.516 104.346 167.377 102.667C168.213 100.98 169.033 99.2714 169.624 97.5512C169.767 97.124 169.897 96.693 169.979 96.277C170.065 95.8834 170.089 95.4225 170.024 95.2651C170.179 95.3138 169.685 95.0327 169.294 94.8903C168.866 94.7404 168.409 94.6017 167.927 94.4967C166.973 94.2831 165.986 94.0957 164.987 93.9458C164.489 93.8709 163.988 93.8034 163.486 93.7434C163.307 93.7247 163.131 93.691 162.952 93.646C162.352 94.0957 161.74 94.538 161.129 94.9727C159.815 95.8834 158.494 96.7717 157.115 97.5924C156.434 98.0084 155.733 98.3982 155.027 98.7805L154.628 98.9941C153.938 100.793 153.216 102.592 152.495 104.383C149.888 110.878 147.188 117.594 146.373 123.718C146.352 123.891 146.263 124.033 146.157 124.157C146.442 124.209 146.723 124.265 147.001 124.344C147.686 124.532 148.367 124.741 149.044 124.944C150.419 125.33 151.797 125.735 153.106 126.308ZM141.854 149.867C141.226 149.597 140.585 149.353 139.969 149.053C139.664 148.907 139.366 148.731 139.08 148.547C138.938 148.45 138.799 148.353 138.66 148.248C138.526 148.15 138.416 147.989 138.473 147.633C138.811 147.446 138.987 147.449 139.142 147.506L139.607 147.667C139.916 147.775 140.218 147.888 140.52 148.004C141.124 148.244 141.731 148.48 142.364 148.656C143.628 149.008 144.929 149.237 146.21 149.503C146.858 149.623 147.498 149.754 148.143 149.889C148.779 150.043 149.427 150.167 150.08 150.286C150.729 150.418 151.389 150.485 152.042 150.624L153.025 150.811L153.522 150.92C153.628 150.939 153.73 150.995 153.832 151.122C153.873 151.055 153.91 150.984 153.951 150.916C154.224 150.515 154.485 150.114 154.738 149.706C154.982 149.29 155.28 148.907 155.48 148.473L156.124 147.195C156.887 145.448 157.499 143.649 157.907 141.801C158.294 139.95 158.555 138.076 158.661 136.187C158.739 134.692 158.739 133.163 158.629 131.679C158.629 131.675 158.624 131.675 158.62 131.671L158.241 131.368C157.992 131.165 157.695 130.997 157.442 130.802C157.189 130.603 156.903 130.434 156.634 130.251C156.361 130.071 156.096 129.883 155.802 129.73C154.672 129.044 153.424 128.523 152.233 127.901C151.026 127.305 149.807 126.694 148.542 126.154C147.906 125.896 147.254 125.667 146.601 125.45C146.275 125.334 145.953 125.214 145.635 125.079L145.153 124.873C144.994 124.809 144.856 124.681 144.778 124.325C144.786 124.318 144.79 124.314 144.798 124.31C144.541 124.123 144.391 123.823 144.431 123.501C145.28 117.171 148.016 110.357 150.663 103.765C155.651 91.3486 160.366 79.618 153.946 70.4284C153.653 70.0124 153.787 69.4577 154.236 69.1916C154.693 68.9255 155.296 69.0455 155.586 69.4615C161.186 77.4705 158.955 87.271 155.301 97.2027L156.267 96.5056C157.54 95.5874 158.816 94.6804 160.044 93.7285C161.275 92.7803 162.479 91.8021 163.612 90.7789C164.75 89.7633 165.852 88.7177 166.769 87.5933L167.095 87.1773C167.185 87.0536 167.267 86.9225 167.344 86.7913C167.487 86.5252 167.593 86.2404 167.675 85.9368C167.826 85.3334 167.83 84.67 167.736 83.9992C167.54 82.6537 166.969 81.2933 166.263 80.0003C165.546 78.7073 164.657 77.4855 163.727 76.29C163.258 75.6941 162.776 75.1057 162.291 74.5135L161.561 73.6328C161.316 73.3367 161.121 73.0069 161.088 72.5234C161.618 72.5722 161.969 72.797 162.262 73.0631L163.127 73.8726C163.686 74.4236 164.22 75.0045 164.726 75.6004C165.746 76.7922 166.671 78.0589 167.499 79.3931C168.319 80.7274 169.061 82.144 169.408 83.7518C169.575 84.5464 169.632 85.4009 169.469 86.2666C169.392 86.6938 169.249 87.1248 169.045 87.5333C168.939 87.7357 168.825 87.9344 168.694 88.1255L168.331 88.624C167.071 90.2355 165.591 91.5885 164.024 92.829C164.387 92.844 164.754 92.8552 165.117 92.874C166.153 92.9377 167.197 93.0164 168.242 93.2038C168.764 93.29 169.29 93.4099 169.828 93.5673C170.101 93.6647 170.366 93.7322 170.652 93.8896L170.868 94.0058L170.97 94.062C171.007 94.0845 171.072 94.137 171.121 94.1819C171.227 94.2719 171.321 94.3693 171.378 94.463C171.439 94.5605 171.504 94.6654 171.533 94.7516C171.794 95.4899 171.68 95.9996 171.619 96.5206C171.541 97.034 171.415 97.5137 171.276 97.986C170.097 101.723 168.348 105.133 166.512 108.51C165.566 110.185 164.595 111.845 163.608 113.494C162.609 115.136 161.59 116.77 160.562 118.396L157.511 123.291C156.989 124.101 156.471 124.91 155.92 125.705L155.088 126.889C155.019 126.99 154.946 127.088 154.868 127.181C155.537 127.564 156.186 127.987 156.805 128.448C157.103 128.647 157.372 128.883 157.65 129.108C157.927 129.333 158.2 129.561 158.437 129.831C158.506 129.91 158.576 129.988 158.649 130.063C158.788 129.846 159.028 129.689 159.326 129.659C159.44 129.647 159.558 129.659 159.664 129.685L168.213 131.918C171.064 132.664 173.894 133.463 176.733 134.242C179.567 135.029 182.394 135.85 185.224 136.671L186.595 137.075C186.024 132.057 184.417 127.241 182.855 122.586C181.109 117.388 179.466 112.475 179.775 108.307C180.832 94.2119 189.829 87.1773 190.212 86.885C190.628 86.5702 191.244 86.6189 191.591 86.9974C191.933 87.3797 191.876 87.9419 191.464 88.2604C191.33 88.3654 182.72 95.1676 181.725 108.431C181.44 112.269 183.034 117.025 184.719 122.058C186.268 126.672 188.022 131.9 188.577 137.207C188.593 137.36 188.565 137.506 188.503 137.638L189.458 137.919C190.498 138.245 191.509 138.541 192.549 138.882C192.655 138.799 192.77 138.762 192.884 138.739L193.557 138.605C193.777 138.56 194.005 138.518 194.23 138.481L194.911 138.421C195.368 138.383 195.824 138.342 196.281 138.335L197.651 138.357C199.475 138.432 201.314 138.586 203.064 139.058C204.826 139.493 206.514 140.115 208.158 140.805C208.982 141.142 209.805 141.475 210.609 141.846C211.013 142.034 211.404 142.24 211.783 142.465C211.975 142.573 212.159 142.697 212.346 142.817C212.534 142.933 212.689 143.113 212.701 143.495C212.33 143.675 212.102 143.649 211.898 143.574L211.282 143.357C210.878 143.207 210.47 143.057 210.07 142.9C209.271 142.573 208.464 142.274 207.64 142.011C205.98 141.505 204.283 141.142 202.603 140.793C200.914 140.452 199.234 140.126 197.525 139.928L196.24 139.811L194.96 139.751C196.734 140.445 198.382 141.284 199.988 142.232C201.962 143.413 203.798 144.792 205.45 146.336C206.302 147.09 207.02 147.952 207.766 148.791C208.109 149.23 208.435 149.683 208.765 150.129C208.928 150.358 209.108 150.575 209.255 150.807L209.671 151.527C209.94 152.007 210.242 152.475 210.482 152.966L211.151 154.469C211.388 154.96 211.571 155.473 211.673 156.009C211.783 156.542 211.861 157.081 211.816 157.64C211.416 157.19 211.147 156.721 210.907 156.245C210.67 155.769 210.511 155.267 210.246 154.806L209.528 153.397C209.271 152.932 208.957 152.498 208.676 152.052C208.394 151.602 208.105 151.16 207.762 150.747C207.432 150.328 207.114 149.9 206.779 149.484C206.041 148.701 205.339 147.892 204.52 147.176C202.933 145.707 201.155 144.41 199.238 143.304C198.749 143.042 198.267 142.768 197.778 142.514C197.276 142.281 196.783 142.023 196.273 141.805C195.266 141.355 194.197 140.947 193.181 140.64L193.116 140.617C191.815 140.182 190.347 139.796 188.952 139.403L184.698 138.245L176.174 135.959L167.662 133.627L160.382 131.592C160.46 133.17 160.427 134.718 160.313 136.281C160.158 138.237 159.856 140.182 159.367 142.098C158.877 144.013 158.16 145.879 157.234 147.655L156.479 148.963C156.239 149.402 155.9 149.795 155.619 150.215C155.084 151.066 154.305 151.793 153.331 152.292C153.371 152.138 153.42 151.992 153.477 151.853C153.473 151.853 153.465 151.857 153.457 151.857L152.943 151.902C152.596 151.924 152.25 151.954 151.903 151.947C151.214 151.939 150.529 151.909 149.839 151.849C148.465 151.737 147.078 151.594 145.745 151.235C144.403 150.894 143.114 150.406 141.854 149.867ZM142.567 147.052C142.996 147.078 143.424 147.086 143.852 147.06L144.501 147.026C144.713 147.022 144.933 146.955 145.157 146.602C144.966 146.22 144.77 146.123 144.566 146.093L143.958 145.973C143.55 145.905 143.151 145.815 142.751 145.729C141.948 145.583 141.144 145.426 140.353 145.246C138.762 144.875 137.208 144.414 135.63 143.99C134.06 143.555 132.469 143.139 130.911 142.622C130.136 142.352 129.378 142.053 128.623 141.738C128.244 141.584 127.86 141.442 127.473 141.303L126.89 141.101C126.694 141.033 126.474 141.018 126.115 141.206C126.123 141.584 126.27 141.753 126.445 141.865C126.621 141.974 126.796 142.094 126.971 142.199C127.33 142.409 127.697 142.607 128.073 142.787C128.823 143.143 129.59 143.473 130.352 143.814C131.87 144.507 133.419 145.171 135.03 145.692C136.629 146.243 138.326 146.531 140.01 146.793C140.859 146.906 141.707 147.03 142.567 147.052ZM126.698 138.166C126.221 137.994 125.748 137.806 125.287 137.604L124.594 137.282C124.365 137.173 124.161 137.004 124.063 136.614C124.435 136.405 124.7 136.416 124.944 136.476L125.674 136.663C126.16 136.794 126.645 136.922 127.122 137.068C128.081 137.36 129.043 137.641 130.014 137.885C131.968 138.361 133.946 138.728 135.907 139.122C137.877 139.5 139.823 139.954 141.801 140.291C142.788 140.475 143.779 140.617 144.77 140.782L146.259 141.033L147.005 141.164C147.254 141.202 147.498 141.303 147.727 141.689C147.449 142.038 147.184 142.101 146.931 142.098L146.157 142.12C145.639 142.131 145.125 142.135 144.611 142.098C144.097 142.068 143.583 142.053 143.069 142.008L141.536 141.85C139.492 141.622 137.445 141.352 135.459 140.857C133.464 140.392 131.519 139.774 129.59 139.126C128.623 138.807 127.657 138.496 126.698 138.166Z" fill="black"/>
</g>
<mask id="mask3_217_1462" style="mask-type:luminance" maskUnits="userSpaceOnUse" x="39" y="17" width="214" height="168">
<path d="M39.9854 17.7346H252.735V184.212H39.9854V17.7346Z" fill="white"/>
</mask>
<g mask="url(#mask3_217_1462)">
<path d="M185.693 109.409C185.873 110.47 186.113 111.516 186.362 112.565C186.864 114.656 187.39 116.748 187.993 118.82C188.589 120.893 189.27 122.95 190.057 124.978C190.245 125.484 190.473 125.982 190.677 126.484C190.885 126.99 191.097 127.489 191.338 127.983C191.77 128.98 192.28 129.966 193.157 130.768C193.067 129.621 192.61 128.666 192.219 127.665C192.015 127.17 191.831 126.668 191.656 126.162C191.477 125.66 191.281 125.161 191.126 124.648C190.42 122.628 189.841 120.57 189.233 118.52C188.646 116.466 188.124 114.394 187.635 112.314C187.386 111.276 187.157 110.234 186.896 109.192C186.758 108.679 186.623 108.158 186.452 107.648C186.289 107.134 186.223 106.606 185.665 106.153C185.298 106.748 185.44 107.273 185.485 107.809C185.534 108.349 185.608 108.877 185.693 109.409ZM209.52 183.132C207.819 182.799 206.159 182.266 204.532 181.663C201.273 180.456 198.145 178.931 195.062 177.346C191.982 175.749 188.976 174.025 186.02 172.234L181.603 169.52C180.86 169.074 180.118 168.628 179.363 168.197C178.609 167.766 177.92 167.26 176.924 167.114C177.357 167.95 178.103 168.403 178.788 168.932C179.478 169.453 180.183 169.947 180.901 170.438C182.337 171.409 183.813 172.327 185.306 173.231C188.283 175.029 191.317 176.761 194.433 178.373C195.987 179.178 197.566 179.954 199.185 180.662C200.8 181.375 202.431 182.06 204.128 182.623C205.816 183.192 207.546 183.691 209.336 183.987C210.233 184.125 211.151 184.245 212.077 184.174C212.305 184.155 212.538 184.148 212.766 184.114C212.995 184.065 213.219 184.02 213.443 183.96L213.778 183.874C213.884 183.833 213.986 183.781 214.092 183.736C214.3 183.638 214.5 183.537 214.691 183.428C212.889 183.593 211.233 183.44 209.52 183.132ZM144.443 24.2369C143.717 23.5886 142.861 23.0526 141.947 22.6366C141.034 22.2094 140.047 21.9246 139.048 21.7484C138.546 21.6585 138.036 21.5985 137.522 21.6022C137.265 21.6097 137.012 21.6397 136.756 21.6922C136.511 21.7559 136.229 21.7334 136.038 22.1832C136.327 22.5917 136.531 22.5429 136.768 22.6029C136.996 22.6441 137.225 22.7003 137.449 22.7266C137.902 22.7903 138.35 22.8428 138.799 22.9215C139.692 23.0789 140.565 23.3412 141.385 23.701C142.196 24.072 143 24.4805 143.705 25.0202C144.089 25.2563 144.415 25.5599 144.762 25.8447C145.092 26.1483 145.365 26.4781 146.026 26.5868C146.075 26.0059 145.789 25.6086 145.467 25.2601C145.137 24.9153 144.823 24.548 144.443 24.2369ZM125.56 19.2973C125.956 19.3048 126.343 19.3048 126.731 19.2936L129.051 19.1774C130.597 19.1175 132.147 19.11 133.684 19.2111C135.218 19.3311 136.751 19.466 138.248 19.7733C138.623 19.837 138.991 19.942 139.362 20.0244C139.737 20.1031 140.096 20.2118 140.451 20.3355C141.189 20.5491 141.833 20.8714 142.751 20.8602C142.274 20.1818 141.552 19.7846 140.797 19.526C140.43 19.3686 140.059 19.2261 139.672 19.1175C139.288 19.005 138.909 18.8664 138.521 18.7727C136.964 18.3791 135.373 18.1468 133.778 18.0381C132.179 17.9257 130.585 17.9294 128.99 17.9856C128.195 18.0156 127.399 18.0643 126.612 18.173C126.221 18.2217 125.829 18.3079 125.442 18.4016C125.054 18.5028 124.646 18.5178 124.332 19.0013C124.793 19.3686 125.169 19.2824 125.56 19.2973ZM251.532 125.218C251.031 124.933 250.468 124.697 249.819 124.592C249.187 124.479 248.343 124.577 247.756 125.068C247.45 125.296 247.274 125.592 247.103 125.862C246.985 126.083 246.866 126.304 246.74 126.514C246.491 126.934 246.214 127.324 245.896 127.609C245.574 127.893 245.235 128.047 244.831 128.073C244.423 128.092 243.954 127.98 243.493 127.804C243.024 127.635 242.576 127.395 242.111 127.14C241.613 126.87 241.112 126.597 240.533 126.398C239.966 126.196 239.321 126.05 238.644 126.091C237.963 126.125 237.327 126.372 236.813 126.657C236.291 126.942 235.842 127.26 235.402 127.571L234.745 128.032C234.529 128.163 234.345 128.306 234.113 128.403C233.681 128.628 233.195 128.774 232.694 128.849C231.682 128.995 230.667 128.909 229.492 128.928C231.336 130.386 234.362 129.737 236.067 128.403C236.98 127.83 237.845 127.226 238.709 127.223C239.578 127.196 240.541 127.642 241.438 128.141C241.927 128.407 242.441 128.692 243.008 128.894C243.567 129.108 244.191 129.288 244.901 129.254C245.614 129.228 246.324 128.894 246.793 128.467C247.27 128.04 247.592 127.56 247.882 127.088C248.025 126.852 248.151 126.615 248.278 126.379C248.388 126.214 248.477 126.053 248.608 125.96C248.853 125.753 249.207 125.671 249.66 125.705C250.113 125.735 250.606 125.866 251.096 126.027C251.597 126.192 252.018 126.466 252.735 126.417C252.56 125.761 252.026 125.502 251.532 125.218ZM229.908 62.307C229.908 62.0372 229.896 61.7711 229.88 61.5088C229.892 61.3176 229.884 61.1377 229.949 60.9953C230.051 60.7067 230.316 60.4744 230.736 60.302C231.144 60.1258 231.645 60.0246 232.159 59.9459C232.686 59.8672 233.195 59.9197 233.795 59.5562C233.297 59.0615 232.694 59.0764 232.11 59.0465C231.519 59.0202 230.903 59.0615 230.279 59.2601C229.672 59.4437 228.982 59.9047 228.729 60.5943C228.587 60.9316 228.587 61.2689 228.583 61.5837C228.595 61.8311 228.611 62.0747 228.611 62.3145C228.611 62.7905 228.578 63.2552 228.448 63.645C228.317 64.0385 228.105 64.3234 227.763 64.5257C227.42 64.7281 226.951 64.8368 226.454 64.8893C225.956 64.9492 225.438 64.938 224.896 64.923C224.312 64.9118 223.733 64.8968 223.121 64.9755C222.518 65.0579 221.878 65.2116 221.307 65.5526C220.731 65.8862 220.307 66.3846 220.01 66.8606C219.704 67.3441 219.479 67.8201 219.259 68.2923L218.933 68.9856C218.811 69.1955 218.725 69.4054 218.578 69.5928C218.313 69.9788 217.97 70.3198 217.575 70.6122C216.763 71.1893 215.829 71.5679 214.814 72.1113C217.195 72.561 219.5 70.6459 220.283 68.7233C220.776 67.8163 221.213 66.9018 221.963 66.5083C222.71 66.0998 223.786 66.0661 224.839 66.0961C225.405 66.1148 226.001 66.1298 226.609 66.0586C227.208 65.9949 227.848 65.8712 228.456 65.5264C229.064 65.1891 229.508 64.5782 229.688 63.9936C229.884 63.4089 229.908 62.8467 229.908 62.307ZM56.2993 101.202C55.2144 101.389 54.1581 101.625 53.3628 101.314C52.5552 101.018 51.8741 100.257 51.2624 99.4664C50.9361 99.0467 50.5894 98.6007 50.1612 98.1997C49.7411 97.8024 49.2435 97.4089 48.5787 97.1765C47.9139 96.9367 47.1145 96.9817 46.5028 97.2028C45.8747 97.4201 45.369 97.7425 44.904 98.0685C44.6675 98.2297 44.4472 98.4021 44.2311 98.5707C44.0557 98.6794 43.9048 98.7956 43.7416 98.8331C43.4276 98.9343 43.0687 98.8818 42.6649 98.6794C42.2652 98.4883 41.8737 98.1847 41.4903 97.8549C41.1069 97.5213 40.8418 97.1166 40.1648 96.8955C40.0343 97.5626 40.4136 97.9936 40.7399 98.4395C41.0743 98.8855 41.4862 99.3053 42.0368 99.6426C42.567 99.9761 43.3827 100.197 44.1332 99.9649C44.5125 99.8637 44.8061 99.6613 45.0835 99.4739C45.2874 99.3165 45.4872 99.1554 45.6952 99.0092C46.1072 98.7206 46.5313 98.462 46.9514 98.3196C47.3674 98.1772 47.7467 98.1585 48.126 98.2896C48.5094 98.4171 48.8928 98.6944 49.2354 99.0242C49.5902 99.3503 49.8961 99.7363 50.2101 100.141C50.5527 100.572 50.8912 101.007 51.3317 101.4C51.7681 101.794 52.2901 102.165 52.9305 102.375C53.5708 102.592 54.26 102.603 54.8514 102.532C55.455 102.461 56.0056 102.334 56.5481 102.21L57.3515 102.03C57.6044 101.989 57.8369 101.925 58.0897 101.921C58.5832 101.876 59.0931 101.921 59.5825 102.034C60.5776 102.274 61.4708 102.727 62.5557 103.143C61.5034 101.127 58.4446 100.61 56.2993 101.202ZM141.136 123.752C141.556 125.12 141.939 126.499 141.956 127.965C141.16 126.698 140.695 125.349 140.239 123.996C139.774 122.647 139.296 121.301 138.787 119.971C138.538 119.307 138.269 118.644 137.995 117.992C137.726 117.358 137.424 116.665 137.09 116.185C137.082 116.174 137.074 116.17 137.07 116.159C136.955 116.159 136.788 116.174 136.633 116.193C136.278 116.242 135.907 116.309 135.544 116.384C134.806 116.541 134.06 116.71 133.321 116.89C130.356 117.617 127.399 118.453 124.455 119.3C122.982 119.723 121.514 120.158 120.034 120.563C119.287 120.754 118.549 120.949 117.791 121.117C117.036 121.275 116.322 121.548 115.433 121.35C116.012 120.701 116.771 120.529 117.481 120.244C118.198 119.971 118.924 119.727 119.65 119.48C121.115 119.011 122.587 118.584 124.067 118.16C127.024 117.317 129.985 116.485 132.995 115.754C133.75 115.574 134.504 115.395 135.279 115.252C135.667 115.181 136.058 115.117 136.474 115.069C136.686 115.05 136.89 115.024 137.163 115.035C137.229 115.042 137.31 115.046 137.416 115.069C137.481 115.069 137.734 115.177 137.783 115.233C137.951 115.365 138.024 115.466 138.089 115.559C138.575 116.283 138.807 116.931 139.092 117.617C139.366 118.292 139.598 118.974 139.831 119.652C140.296 121.016 140.72 122.384 141.136 123.752Z" fill="#05ABBB"/>
</g>
<path d="M186.676 47.5184C186.709 47.4359 186.717 47.3422 186.725 47.2485C186.721 47.1961 186.738 47.1548 186.717 47.0911C186.689 47.0274 186.611 46.93 186.452 46.7876C186.244 46.7164 186.118 46.6939 186.04 46.6976C185.971 46.7089 185.938 46.7388 185.885 46.7576C185.791 46.8063 185.706 46.855 185.636 46.9187C185.498 47.0349 185.412 47.1886 185.31 47.3272C185.11 47.6121 184.906 47.8969 184.719 48.1892C184.523 48.4778 184.356 48.7814 184.197 49.0887C184.119 49.2461 184.042 49.4035 183.972 49.5609C183.895 49.7183 183.809 49.8683 184.078 50.2243C184.547 50.2992 184.662 50.1606 184.78 50.0294C184.906 49.902 185.029 49.7746 185.151 49.6434C185.388 49.381 185.616 49.1112 185.812 48.8226C186.02 48.5453 186.211 48.253 186.411 47.9681C186.505 47.822 186.615 47.6833 186.676 47.5184ZM193.19 50.8352C193.12 50.8164 193.08 50.8277 193.022 50.8239C192.916 50.8314 192.819 50.8427 192.729 50.8727C192.549 50.9251 192.403 51.0263 192.248 51.1125C191.938 51.2924 191.628 51.4686 191.326 51.6559C191.016 51.8358 190.726 52.042 190.441 52.2593C190.302 52.368 190.163 52.4805 190.029 52.5966C189.886 52.7053 189.739 52.8065 189.821 53.2375C190.212 53.4849 190.371 53.4062 190.543 53.335C190.714 53.2712 190.885 53.2038 191.048 53.1326C191.383 52.9902 191.709 52.8365 192.019 52.6566C192.333 52.4842 192.639 52.3006 192.945 52.1207C193.096 52.027 193.259 51.9483 193.385 51.8209C193.455 51.7609 193.508 51.6784 193.557 51.596C193.577 51.5473 193.61 51.5173 193.618 51.4536C193.626 51.3824 193.598 51.2662 193.52 51.075C193.365 50.9289 193.263 50.8577 193.19 50.8352ZM195.388 43.7743C194.854 43.6619 194.691 43.8718 194.446 44.0142C194.213 44.1679 193.985 44.3215 193.773 44.4977C193.357 44.8425 192.965 45.2172 192.574 45.5845L190.237 47.8145C189.454 48.5565 188.703 49.3248 187.953 50.0894L186.839 51.2587C186.468 51.641 186.089 52.027 186.012 52.6753C186.717 52.5817 187.117 52.2219 187.525 51.8658L188.76 50.8089C189.572 50.0931 190.384 49.3773 191.167 48.6352L193.516 46.4165C193.903 46.0455 194.299 45.6745 194.658 45.2772C194.841 45.0786 195.001 44.8649 195.16 44.6476C195.306 44.419 195.531 44.2615 195.388 43.7743ZM80.5094 74.4201C80.2932 74.1427 80.0689 73.8729 79.8201 73.6218C79.5795 73.3669 79.3225 73.1196 79.0737 72.8685C78.9432 72.7485 78.829 72.6136 78.67 72.5162C78.5925 72.4675 78.4987 72.4337 78.3967 72.4037C78.3437 72.3925 78.3029 72.3663 78.2336 72.37C78.1561 72.3775 78.0337 72.4187 77.842 72.5237C77.7115 72.6886 77.6585 72.7935 77.6422 72.8647C77.634 72.9284 77.6585 72.9659 77.6626 73.0184C77.6911 73.1121 77.7156 73.202 77.7645 73.277C77.8543 73.4344 77.9929 73.5506 78.1153 73.678C78.3641 73.9291 78.6088 74.1802 78.8657 74.4238C79.1186 74.6712 79.3919 74.8998 79.6774 75.1209C79.8201 75.2296 79.9669 75.3383 80.1178 75.4432C80.2606 75.5519 80.3952 75.6681 80.8438 75.5219C81.0396 75.1246 80.9254 74.9897 80.8193 74.8511C80.7214 74.7049 80.6154 74.5625 80.5094 74.4201ZM85.7217 70.1101C85.6605 69.7765 85.583 69.4467 85.4729 69.1282C85.375 68.8059 85.2608 68.4873 85.1507 68.1687C85.0895 68.0076 85.0528 67.8427 84.9508 67.7003C84.906 67.6216 84.8326 67.5578 84.7591 67.4904C84.7102 67.4604 84.6898 67.4229 84.6246 67.3967C84.5511 67.3742 84.4247 67.3667 84.2004 67.3854C84.0087 67.4866 83.9067 67.5578 83.8619 67.6141C83.8211 67.6703 83.8252 67.7115 83.8089 67.764C83.7885 67.8577 83.7722 67.9476 83.7803 68.0338C83.7885 68.2062 83.8578 68.3599 83.9067 68.5248C84.0169 68.8433 84.1188 69.1656 84.2412 69.4805C84.3513 69.799 84.49 70.1138 84.6449 70.4174C84.7224 70.5711 84.8081 70.7247 84.8937 70.8746C84.9712 71.0283 85.0406 71.1857 85.5137 71.2232C85.8766 70.9421 85.8359 70.7809 85.8032 70.6123C85.7828 70.4436 85.7543 70.275 85.7217 70.1101ZM83.4663 72.8985C83.7395 73.3519 84.0128 73.8017 83.9271 74.45C83.2623 74.2139 82.9565 73.7792 82.6546 73.3444L81.7125 72.0589C81.1007 71.1932 80.489 70.3275 79.9098 69.443L78.1765 66.7895C77.8869 66.3473 77.5973 65.9051 77.3404 65.4441C77.218 65.2117 77.112 64.9719 77.01 64.7245C76.9244 64.4697 76.7449 64.271 77.0019 63.8288C77.5525 63.8288 77.6585 64.0686 77.8624 64.256C78.05 64.4547 78.2336 64.6533 78.3967 64.8669C78.7189 65.2904 79.0044 65.7327 79.294 66.1749L81.0192 68.8358C81.5983 69.7203 82.1367 70.6273 82.6791 71.5305L83.4663 72.8985Z" fill="#65CBC3"/>
</svg>
