<svg width="343" height="330" viewBox="0 0 343 330" fill="none" xmlns="http://www.w3.org/2000/svg">
<path d="M119.144 213.116C115.85 213.166 112.75 211.566 111.025 208.865C108.676 205.182 106.918 200.798 105.434 196.406C105.444 196.401 105.448 196.397 105.458 196.397C116.276 213.48 216.152 207.173 216.152 207.173L217.896 211.566L119.144 213.116ZM165.583 139.055C165.814 138.928 165.966 138.737 166.06 138.519C166.074 139.61 166.112 141.301 166.207 142.875C165.507 141.974 164.798 141.029 164.08 140.051C164.623 139.66 165.172 139.287 165.583 139.055ZM166.306 135.709C166.221 136.259 166.155 136.695 166.107 136.977C165.989 136.404 165.791 135.945 165.791 135.945C165.98 135.872 166.145 135.795 166.306 135.709ZM170.526 148.181C170.484 148.131 170.441 148.076 170.394 148.026C170.465 148.049 170.536 148.067 170.607 148.09C170.578 148.122 170.555 148.149 170.526 148.181ZM269.415 269.226L269.85 269.071L262.501 225.493C264.93 224.152 267.69 222.515 270.998 220.419C284.76 211.688 274.127 198.448 264.429 199.048C263.985 199.075 263.474 199.18 262.926 199.33C270.176 183.111 279.637 160.167 277.463 155.411C275.521 151.168 262.354 147.594 251.224 145.285C250.199 131.962 247.996 117.939 243.473 109.059C234.102 90.6847 211.563 102.439 205.934 108.059C200.839 113.142 193.155 121.768 185.484 130.63C185.13 129.993 184.818 129.579 184.818 129.579C184.818 129.579 184.771 129.375 184.09 127.52C183.414 125.664 182.942 126.515 182.734 124.209C182.526 121.9 180.13 121.399 180.13 121.399C180.13 121.399 182.162 119.044 182.214 118.139C182.266 117.239 180.858 115.429 178.825 115.379C177.1 115.338 171.661 118.976 170.054 120.081C169.156 118.971 166.131 116.307 164.538 115.584C162.766 114.779 159.964 115.193 159.964 115.193C159.964 115.193 154.529 116.771 153.409 117.171C152.86 117.366 152.18 117.78 151.433 118.326C147.562 107.408 147.175 92.3171 138.261 85.8877C132.17 81.4908 123.058 78.1124 113.752 75.8389C115.945 73.72 118.086 70.1734 119.182 64.517C121.479 52.6813 120.435 28.6051 120.435 28.6051C114.385 14.3595 100.207 13.9594 84.7716 21.3845C69.341 28.8052 79.8423 57.1327 80.3953 60.5066C81.2602 65.7674 80.7309 70.0961 79.6722 73.5109C67.8476 77.0029 47.5679 81.4953 42.0243 98.4282C38.1867 110.146 42.6245 127.952 47.8232 141.179C48.1209 142.097 48.5935 143.47 49.2268 145.085C44.3211 144.794 39.8503 149.009 40.8427 154.215C43.7304 169.42 48.9385 192.555 56.3065 208.978C63.8162 225.707 90.5327 239.916 105.117 246.65C111.086 249.405 117.637 250.815 124.258 250.815H233.449L244.305 278.201L245.255 277.86C247.009 283.999 249.4 291.688 250.874 293.552C260.572 305.788 278.191 290.342 278.191 290.342L269.415 269.226Z" fill="white"/>
<mask id="mask0_217_1568" style="mask-type:luminance" maskUnits="userSpaceOnUse" x="60" y="14" width="254" height="312">
<path d="M60.4939 14.7002H313.112V325.48H60.4939V14.7002Z" fill="white"/>
</mask>
<g mask="url(#mask0_217_1568)">
<path d="M83.406 57.0144L83.9448 56.3642C81.5865 55.1729 80.0458 51.0761 80.9059 47.0611C81.6479 43.5963 84.5025 44.5648 86.3645 45.6288C87.4515 46.2517 88.1746 47.3294 88.3306 48.5389C88.4157 49.2073 88.4913 50.0166 88.5196 50.8578L90.3581 48.6389C90.9394 47.9432 91.0717 47.0247 90.6984 46.229C89.9658 44.6694 88.789 41.8412 88.2739 38.9539C88.4346 39.0403 88.5291 39.0857 88.5291 39.0857C88.5291 39.0857 118.242 45.7061 122.155 37.5807C126.064 29.4553 129.036 14.2593 99.4747 14.7095C88.6472 14.8732 78.5429 21.3617 76.0995 26.1224C67.602 31.1649 75.0787 48.8753 78.869 56.5824C79.696 58.2512 82.1867 58.4876 83.406 57.0144ZM117.046 50.8987C116.706 49.9621 115.643 49.4664 114.669 49.7938C113.695 50.1212 113.18 51.1443 113.521 52.0855C113.861 53.0176 114.924 53.5132 115.898 53.1858C116.871 52.8585 117.387 51.8354 117.046 50.8987ZM100.496 49.6119C99.5219 49.9393 99.0068 50.9624 99.3471 51.8991C99.6874 52.8357 100.751 53.3313 101.724 53.004C102.698 52.6766 103.208 51.6535 102.873 50.7123C102.532 49.7802 101.464 49.2846 100.496 49.6119ZM118.724 44.7694C118.833 44.7376 118.941 44.6921 119.05 44.6467L119.211 44.5694C119.263 44.5603 119.319 44.4693 119.4 44.0919C119.371 43.7054 119.31 43.61 119.253 43.5918L119.078 43.5054C118.96 43.4554 118.842 43.4099 118.724 43.3781C118.488 43.3099 118.247 43.2962 118.006 43.2689C117.528 43.2235 117.037 43.1689 116.564 43.2917C116.087 43.3917 115.638 43.61 115.198 43.8146L114.527 44.0828C114.414 44.1283 114.31 44.1965 114.215 44.2738L114.074 44.4057C114.031 44.4511 114.007 44.5557 114.092 44.8831C114.281 45.1787 114.367 45.2423 114.428 45.2469L114.603 45.256C114.712 45.256 114.825 45.2514 114.929 45.2332C115.132 45.1877 115.34 45.1468 115.553 45.1286C115.988 45.115 116.422 45.1605 116.843 45.1377C117.264 45.1423 117.67 45.0013 118.091 44.9149C118.299 44.8695 118.516 44.8376 118.724 44.7694ZM114.882 66.6812C115.052 66.3538 115.184 66.0174 115.288 65.6763C115.387 65.3399 115.506 64.9716 115.123 64.5487C114.603 64.7715 114.508 65.0443 114.367 65.3308C114.211 65.6036 114.05 65.8719 113.875 66.1265C113.53 66.6357 113.119 67.0859 112.651 67.4542C111.706 68.1999 110.463 68.4636 109.229 68.3363C107.967 68.2135 106.786 67.8225 105.949 67.1405C105.519 66.804 105.198 66.3766 104.919 65.9082C104.862 65.8082 104.81 65.6991 104.758 65.5899C105.226 65.6991 105.699 65.7946 106.176 65.8673C107.169 66.0401 108.18 66.0765 109.182 66.0628C110.189 66.0446 111.191 65.9128 112.164 65.6809C112.656 65.5718 113.133 65.4263 113.606 65.2626C114.074 65.1125 114.551 64.8761 114.801 64.2986C114.187 64.1167 113.757 64.194 113.308 64.3168C112.859 64.4123 112.405 64.4987 111.947 64.5441C111.03 64.6487 110.108 64.676 109.192 64.6487C108.279 64.5851 107.363 64.5078 106.469 64.3213C105.567 64.1531 104.688 63.8848 103.823 63.5984L103.808 63.5938C103.719 63.562 103.615 63.5484 103.515 63.5484C103.033 63.5575 102.651 63.9394 102.66 64.3986C102.674 65.2717 102.863 65.9764 103.199 66.713C103.52 67.4451 104.073 68.0862 104.716 68.5955C106.039 69.6185 107.689 69.9005 109.173 69.8732C110.69 69.8732 112.301 69.4048 113.483 68.4136C114.083 67.9316 114.541 67.3223 114.882 66.6812ZM106.999 58.7559C106.819 58.865 106.654 58.9787 106.479 59.0969C106.304 59.2015 106.143 59.3333 106.143 59.7835C106.512 60.0472 106.72 60.0017 106.914 59.929C107.112 59.8653 107.311 59.8062 107.504 59.7335C107.897 59.5925 108.27 59.4243 108.648 59.2606C109.395 58.9196 110.151 58.5876 110.921 58.2875C111.181 58.1875 111.356 57.9374 111.337 57.651L111.332 57.5327C111.228 55.8913 111.143 54.2544 110.779 52.6539L110.26 50.2485C110.16 49.8484 110.066 49.4482 109.938 49.0527C109.882 48.8571 109.815 48.6571 109.74 48.4616C109.655 48.266 109.711 48.0523 109.111 47.9296C108.572 48.2115 108.691 48.4024 108.667 48.6116C108.653 48.8208 108.648 49.0254 108.648 49.2345C108.643 49.6483 108.672 50.0575 108.695 50.4668L108.913 52.913C109.021 54.3908 109.366 55.8322 109.716 57.2736C109.173 57.5782 108.624 57.8738 108.071 58.1557C107.712 58.3512 107.348 58.5376 106.999 58.7559ZM104.016 45.9107L104.286 45.9698C104.366 46.0016 104.489 45.9607 104.782 45.6879C104.919 45.3196 104.881 45.1923 104.81 45.1286L104.602 44.9195C104.461 44.7876 104.319 44.6558 104.158 44.5466C103.846 44.3147 103.501 44.1419 103.156 43.9646C102.462 43.6236 101.72 43.2871 100.888 43.2235C100.065 43.1371 99.2053 43.2462 98.4019 43.5054C98.0049 43.6554 97.5984 43.7691 97.244 43.9964C97.0597 44.1056 96.8848 44.2147 96.7525 44.3784L96.554 44.6194C96.4925 44.6967 96.4689 44.8285 96.6343 45.1286C96.9415 45.3242 97.0644 45.3514 97.1447 45.3196L97.381 45.2378C97.5275 45.165 97.6835 45.1332 97.8253 45.0741C98.0994 44.9377 98.4113 44.8831 98.7138 44.8331C99.3424 44.7967 99.9567 44.9422 100.581 45.065C101.195 45.215 101.852 45.3105 102.509 45.4924L103.497 45.7879C103.667 45.8289 103.842 45.8743 104.016 45.9107ZM180.792 101.006C179.879 101.006 178.901 101.861 178.556 102.948C178.353 103.603 178.419 104.207 178.736 104.621C178.967 104.921 179.312 105.089 179.714 105.089H179.724C180.636 105.089 181.619 104.239 181.959 103.143C182.162 102.498 182.096 101.888 181.779 101.475C181.548 101.174 181.198 101.006 180.792 101.006ZM223.52 195.551L224.399 202.231C224.489 202.931 224.569 203.631 224.645 204.336C227.83 202.29 241.437 193.628 243.365 193.628C243.871 193.628 244.575 193.982 245.435 194.505L245.402 193.996C245.227 192.104 245.014 190.218 244.901 188.326C244.764 186.434 244.792 184.538 244.778 182.638C244.778 181.692 244.764 180.746 244.797 179.796C244.806 179.323 244.835 178.846 244.868 178.373L244.901 177.932C244.665 177.882 244.433 177.832 244.197 177.786C241.621 177.341 238.96 177.381 236.347 177.777C233.738 178.164 231.153 178.832 228.653 179.737C226.323 180.555 224.016 181.574 221.885 182.751C222.433 187.016 222.925 191.291 223.52 195.551ZM257.453 274.414L244.735 278.974C244.268 279.138 243.748 278.933 243.54 278.501L243.535 278.492C241.971 275.25 240.449 271.985 239.097 268.657C237.713 265.342 236.446 261.982 235.241 258.604C235.075 258.126 234.915 257.653 234.754 257.181L233.979 313.281H221.469L220.614 250.815H232.641C232.382 250.005 232.126 249.196 231.885 248.387C231.365 246.668 230.869 244.945 230.444 243.203C230.231 242.335 230.037 241.462 229.844 240.584C229.711 239.998 229.584 239.402 229.593 238.779C228.497 238.956 227.424 239.034 226.323 239.025C225.174 239.011 224.012 238.884 222.868 238.565C222.041 238.338 221.223 237.979 220.505 237.474C220.429 237.479 220.363 237.483 220.325 237.469C219.971 237.374 219.616 237.001 219.304 236.369C218.671 235.596 218.255 234.682 218.08 233.764C217.976 233.204 217.929 232.645 217.934 232.09C217.929 231.649 218.019 231.208 218.274 230.804C218.113 225.479 219.333 216.995 223.723 205.423C223.553 204.413 223.364 203.404 223.203 202.39L222.183 195.724C221.54 191.277 220.779 186.848 220.084 182.41C220.032 182.078 220.198 181.76 220.477 181.587C222.882 180.132 225.363 178.977 227.963 177.982C230.576 177.045 233.279 176.286 236.077 175.936C238.866 175.581 241.739 175.585 244.532 176.14C245.926 176.417 247.288 176.854 248.597 177.404C249.471 177.777 250.303 178.227 251.106 178.727C251.158 177.404 251.215 176.081 251.295 174.762L251.442 172.102C251.489 171.216 251.508 170.329 252.023 169.452C252.5 170.347 252.486 171.234 252.496 172.121L252.538 174.781C252.576 176.554 252.571 178.327 252.576 180.101C252.576 180.501 252.241 180.828 251.825 180.828C251.669 180.828 251.522 180.783 251.404 180.705L251.357 180.678C250.27 179.982 249.15 179.332 247.94 178.855C247.316 178.609 246.683 178.395 246.035 178.214L246.054 178.323C246.12 178.796 246.191 179.268 246.234 179.741C246.347 180.687 246.413 181.633 246.489 182.574C246.635 184.466 246.82 186.357 246.839 188.253C246.881 190.145 246.824 192.045 246.81 193.941L246.829 195.396C249.674 197.265 253.545 199.839 257.236 199.048C262.865 197.843 276.315 197.943 273.083 207.778C271.348 213.052 232.429 233.041 222.528 236.851C223.69 237.26 225.023 237.401 226.323 237.379C227.353 237.356 228.407 237.242 229.399 237.038C229.565 237.001 229.858 236.906 230.113 236.837L230.888 236.601L232.438 236.124L238.634 234.155C242.765 232.845 246.872 231.454 250.931 229.94L253.947 228.744L256.934 227.48C257.921 227.043 258.909 226.607 259.916 226.198L261.4 225.547C261.896 225.329 262.425 225.17 263.073 225.234C262.751 225.77 262.302 226.088 261.83 226.348L260.393 227.13C259.429 227.63 258.446 228.103 257.463 228.571C255.483 229.48 253.479 230.34 251.47 231.19C247.467 232.918 243.393 234.487 239.267 235.919C237.188 236.606 235.118 237.306 233.005 237.888L231.422 238.329L230.628 238.543C230.477 238.579 230.34 238.615 230.184 238.661C230.463 239.211 230.633 239.788 230.789 240.37C231.035 241.221 231.28 242.076 231.55 242.926C232.06 244.631 232.585 246.332 233.128 248.023C233.426 248.96 233.733 249.887 234.05 250.815H234.839L234.811 253.016C235.416 254.716 236.044 256.412 236.706 258.094C238.039 261.409 239.381 264.71 240.836 267.97C241.545 269.607 242.316 271.217 243.029 272.854L244.929 276.946L256.91 272.958C259.046 272.245 261.192 271.558 263.347 270.876L266.579 269.88C267.666 269.571 268.683 269.084 269.954 269.271C269.098 270.194 267.988 270.444 266.948 270.871L263.791 272.081C261.683 272.868 259.575 273.654 257.453 274.414ZM207.962 179.728C206.284 179.569 204.611 179.459 202.938 179.446C199.592 179.368 196.255 179.473 192.928 179.623C186.269 179.928 179.629 180.437 173.017 181.142C166.405 181.865 159.813 182.71 153.229 183.629L143.356 184.961C141.712 185.193 140.067 185.434 138.427 185.707L135.969 186.116C135.152 186.257 134.339 186.453 133.573 186.907C134.443 187.13 135.279 187.098 136.107 187.007L138.578 186.735C140.232 186.562 141.877 186.357 143.526 186.157L153.409 184.97C160.011 184.27 166.613 183.602 173.216 182.997C179.818 182.374 186.42 181.719 193.027 181.269C199.644 180.842 206.227 180.592 212.816 181.087C212.489 180.787 212.102 180.578 211.705 180.387C211.303 180.246 210.892 180.146 210.471 180.064C209.635 179.919 208.798 179.814 207.962 179.728ZM71.2316 81.1178L72.5597 82.1363C73.4482 82.8138 74.3697 83.4504 75.3008 84.0688C77.1676 85.3055 79.0864 86.4605 81.0477 87.5563C84.9467 89.7888 89.0631 91.7531 93.5293 92.9535C95.7647 93.5128 98.0947 93.9084 100.472 93.8175C102.84 93.6992 105.255 93.1445 107.325 91.8486C109.366 90.5209 110.86 88.4293 111.403 86.1922C111.72 85.0827 111.838 83.946 111.833 82.8275C111.833 82.2636 111.8 81.7089 111.744 81.1496C111.692 80.5994 111.545 80.0356 111.049 79.5673C110.756 80.1629 110.713 80.6813 110.727 81.2087C110.732 81.7316 110.713 82.2591 110.661 82.7774C110.572 83.8187 110.345 84.8372 110.023 85.8012C109.399 87.7518 108.114 89.4069 106.398 90.4618C104.64 91.4803 102.523 91.9259 100.415 91.9714C98.2884 91.9759 96.1286 91.6804 94.0208 91.1484C89.772 90.1344 85.6745 88.3793 81.7377 86.3741C79.7858 85.3419 77.8765 84.2279 75.9955 83.0594L74.1051 81.8726C74.313 81.7953 74.5115 81.6998 74.7148 81.6134C75.1779 81.3815 75.6458 81.1178 76.0428 80.7859C76.8746 80.1538 77.5646 79.3718 78.1412 78.5397C79.2896 76.8709 80.1072 75.0294 80.5609 73.1333C81.0382 71.2418 81.2131 69.3185 81.3124 67.4087C81.3691 66.4539 81.4258 65.5036 81.4305 64.5532C81.4305 64.0758 81.4211 63.5984 81.3785 63.1209L81.2982 62.4116C81.2698 62.1706 81.1753 61.9296 80.8114 61.7068C80.4711 61.9569 80.3813 62.1888 80.3577 62.4207L80.2868 63.1164L80.1734 64.5078C80.1119 65.4353 80.041 66.3584 79.9087 67.2769C79.6251 69.1138 79.1951 70.9144 78.6847 72.665C78.1506 74.4019 77.5977 76.1298 76.6903 77.6667C76.2365 78.4351 75.6883 79.1262 75.0739 79.7628C74.7715 80.0811 74.4359 80.3721 74.0815 80.6495C73.8971 80.7768 73.727 80.9268 73.5332 81.0451C73.4198 81.1042 73.3206 81.1906 73.2402 81.3315L73.1882 81.2997L71.7988 80.3948C71.3309 80.0947 70.8346 79.8356 70.173 79.7674C70.3951 80.3721 70.7968 80.7722 71.2316 81.1178ZM90.9961 70.0823C90.0934 69.1047 89.2664 68.0635 88.4818 66.9904L87.305 65.3808L86.719 64.5714C86.53 64.2941 86.2889 64.0576 85.8163 63.9167C85.6604 64.3714 85.7549 64.7124 85.9014 65.017L86.3693 65.9264C86.7001 66.5221 87.0593 67.1041 87.4374 67.6725C88.203 68.8046 89.0395 69.8914 89.9186 70.9508C91.6577 73.0742 93.6191 75.1067 96.0199 76.6618C97.2251 77.4211 98.4964 78.1259 99.8811 78.5897C101.261 79.058 102.712 79.3581 104.172 79.4582C105.637 79.5764 107.107 79.4218 108.516 79.0944C108.865 79.0035 109.215 78.9216 109.56 78.817L110.562 78.4306C110.898 78.3123 111.219 78.1623 111.536 77.9986C111.857 77.8531 112.155 77.6394 112.301 77.1574C111.81 76.9392 111.469 76.9801 111.153 77.0937C110.841 77.2029 110.515 77.3029 110.189 77.3666L109.215 77.5894C108.884 77.6257 108.558 77.6849 108.237 77.7394C106.932 77.8986 105.619 77.994 104.328 77.8167C101.738 77.5121 99.3045 76.4845 97.088 75.1067C94.862 73.7426 92.8204 72.0148 90.9961 70.0823ZM164.052 141.138C164 141.179 163.943 141.219 163.891 141.26C163.995 141.383 164.09 141.515 164.179 141.651L164.132 141.497C164.094 141.379 164.071 141.26 164.052 141.138ZM164.614 122.963C164.553 122.991 164.491 123.023 164.43 123.045C164.524 123.059 164.624 123.073 164.723 123.086C164.685 123.045 164.652 123.004 164.614 122.963ZM171.273 137.336C171.269 137.336 171.269 137.327 171.269 137.327C171.264 137.341 171.264 137.345 171.273 137.336ZM171.264 137.227C171.269 137.236 171.273 137.259 171.278 137.277C171.283 137.259 171.278 137.241 171.264 137.227ZM177.828 147.617L177.899 147.549C177.88 147.558 177.824 147.585 177.828 147.617ZM112.665 157.411C107.514 158.493 102.329 159.471 97.1022 160.153C94.5028 160.558 91.8704 160.771 89.2522 161.044C87.943 161.181 86.6245 161.226 85.3106 161.312C83.992 161.349 82.6876 161.617 81.3313 161.126C82.5931 160.408 83.907 160.444 85.2066 160.253C86.5016 160.089 87.806 159.967 89.0962 159.753C91.6861 159.38 94.2807 159.053 96.8564 158.607C102.022 157.825 107.136 156.747 112.221 155.579L116.025 154.683L119.811 153.705C122.335 153.055 124.849 152.373 127.344 151.614C132.316 150.109 137.312 148.504 142.038 146.444L142.052 146.435C142.142 146.394 142.241 146.376 142.336 146.38C145.152 146.408 147.978 145.648 150.639 144.593C151.967 144.048 153.281 143.461 154.557 142.784C155.394 142.361 156.164 141.852 157.015 141.433C156.915 141.415 156.816 141.397 156.717 141.374L156.684 141.37C156.452 141.32 156.311 141.097 156.358 140.874C156.381 140.783 156.438 140.706 156.504 140.647C156.807 140.415 157.1 140.26 157.407 140.101C157.714 139.942 158.04 139.824 158.366 139.724C159.028 139.523 159.727 139.455 160.394 139.533C159.746 139.719 159.151 139.951 158.603 140.256C158.343 140.387 158.102 140.542 157.861 140.692L160.072 141.024C160.602 141.097 161.141 141.165 161.646 141.201C161.764 141.21 161.916 141.219 161.968 141.206C162.015 141.206 162.105 141.174 162.19 141.133C162.369 141.06 162.577 140.924 162.776 140.778C163.593 140.192 164.298 139.41 165.352 138.778C165.881 138.605 165.9 137.809 165.739 137.059C165.611 137.004 165.493 136.945 165.375 136.882C165.106 136.718 164.836 136.55 164.548 136.409C163.962 136.15 163.352 135.945 162.785 135.709C162.209 135.495 161.698 135.163 161.145 134.926C160.871 134.813 160.588 134.699 160.314 134.599C160.176 134.549 160.035 134.463 159.898 134.413L159.68 134.317C159.605 134.299 159.538 134.204 159.458 133.812C159.538 133.435 159.638 133.353 159.727 133.34L160.006 133.276C160.2 133.23 160.38 133.23 160.569 133.226C160.952 133.208 161.301 133.294 161.66 133.353C162.374 133.494 163.069 133.69 163.669 134.049C164.283 134.385 164.808 134.845 165.328 135.281L165.994 135.8C166.661 135.067 167.322 134.317 167.904 133.553C167.918 133.526 167.941 133.499 167.965 133.471C167.979 133.153 168.017 132.835 168.112 132.467C168.135 132.389 168.168 132.321 168.211 132.257C168.187 131.962 168.154 131.644 168.135 131.307C167.984 131.307 167.833 131.303 167.681 131.284C167.28 131.23 166.878 131.166 166.472 131.121C165.659 131.057 164.836 131.03 164.033 130.912C163.23 130.816 162.454 130.566 161.675 130.343C161.282 130.229 160.89 130.134 160.507 129.989C160.314 129.92 160.124 129.838 159.935 129.752L159.652 129.611C159.557 129.579 159.477 129.466 159.458 129.075C159.633 128.72 159.751 128.647 159.855 128.652L160.172 128.629C160.38 128.62 160.588 128.615 160.791 128.62C161.202 128.634 161.608 128.688 162.01 128.729C162.818 128.815 163.636 128.87 164.416 129.084C165.205 129.27 165.975 129.547 166.75 129.793C167.143 129.907 167.535 129.998 167.932 130.093C168.012 130.111 168.093 130.148 168.178 130.175C168.249 129.711 168.4 129.234 168.66 128.811C169.08 128.174 169.331 127.961 169.458 127.529C169.728 126.733 169.397 125.692 168.891 124.928C168.872 124.896 168.863 124.864 168.844 124.837L168.494 124.873C168.206 124.9 167.918 124.923 167.639 124.932C167.067 124.955 166.5 124.928 165.933 124.923C164.803 124.896 163.664 124.905 162.544 124.755C161.419 124.632 160.304 124.414 159.184 124.232C158.622 124.15 158.059 124.087 157.497 124.023C157.218 123.987 156.939 123.932 156.66 123.873L156.244 123.764C156.107 123.732 155.97 123.627 155.857 123.282C156.027 122.959 156.178 122.877 156.32 122.868L156.75 122.822C157.034 122.809 157.322 122.804 157.601 122.813C158.168 122.836 158.73 122.868 159.302 122.877C160.101 122.877 160.904 122.868 161.703 122.877C161.798 122.791 161.901 122.718 162.005 122.65C162.28 122.481 162.539 122.295 162.785 122.081C163.281 121.658 163.782 121.249 164.359 120.963L164.482 120.904C164.917 120.685 165.451 120.849 165.678 121.267C165.881 121.636 166.046 122.027 166.24 122.404C166.335 122.595 166.42 122.791 166.481 123.004C166.505 123.109 166.538 123.218 166.557 123.327C166.557 123.336 166.557 123.341 166.557 123.345C166.958 123.405 167.36 123.464 167.757 123.541C168.036 123.595 168.315 123.664 168.594 123.736L169.005 123.85C169.019 123.85 169.028 123.859 169.038 123.859C169.487 122.895 169.78 121.754 169.813 120.695C169.794 120.049 169.766 120.012 169.165 119.64C168.603 119.317 167.941 118.939 167.36 118.521C166.774 118.121 166.216 117.616 165.715 117.189C165.243 116.766 164.709 116.434 164.156 116.161C163.598 115.893 163.007 115.716 162.407 115.652C161.835 115.584 161.15 115.638 160.711 115.788L160.687 115.797C160.644 115.811 160.602 115.82 160.559 115.829C159.274 116.052 157.974 116.298 156.722 116.593C156.107 116.748 155.46 116.902 154.973 117.121C154.415 117.38 153.862 117.666 153.319 117.998C151.15 119.308 149.108 120.904 147.232 122.618C146.301 123.473 145.407 124.378 144.651 125.337C144.24 125.833 144.046 126.233 143.545 126.91C143.092 127.506 142.553 127.983 142 128.42C139.755 130.116 137.293 131.18 134.708 132.098C134.623 132.13 134.537 132.144 134.452 132.148H134.415C129.915 132.217 125.411 132.221 120.907 132.248L107.405 132.321L80.438 132.412C78.2404 132.594 76.1042 133.235 74.1287 134.24C72.1532 135.263 70.3573 136.618 68.7457 138.168C67.1388 139.724 65.7116 141.465 64.4308 143.302C63.1264 145.139 62.1623 147.126 60.6877 148.94C61.028 146.626 62.3088 144.666 63.5187 142.734C64.7805 140.815 66.1936 138.978 67.8289 137.314C69.4593 135.645 71.3167 134.154 73.4151 132.989C74.469 132.421 75.5796 131.939 76.7375 131.562C77.9049 131.207 79.1053 130.984 80.3246 130.857H80.386L107.391 130.543L120.898 130.416C125.341 130.38 129.788 130.316 134.235 130.32C136.574 129.516 138.956 128.479 140.861 127.06C141.334 126.692 141.783 126.301 142.113 125.874C142.387 125.523 142.822 124.787 143.243 124.296C144.103 123.232 145.053 122.3 146.041 121.404C148.03 119.635 150.148 118.035 152.482 116.666C153.064 116.325 153.678 116.011 154.321 115.729C155.039 115.429 155.696 115.293 156.358 115.138C157.681 114.847 158.985 114.615 160.309 114.406L160.158 114.447C160.342 114.388 160.517 114.347 160.692 114.315L165.749 101.056C166.056 100.251 166.826 99.7012 167.715 99.6512C167.715 99.6512 183.523 98.7509 183.528 98.7509C184.005 98.7509 184.355 99.0737 184.379 99.4875C184.393 99.6921 184.322 99.8922 184.175 100.051C184.034 100.206 183.83 100.297 183.618 100.311L167.809 101.211C167.568 101.224 167.36 101.374 167.275 101.593L162.45 114.238C162.497 114.247 162.539 114.247 162.582 114.251C163.367 114.347 164.118 114.583 164.803 114.924C165.479 115.27 166.117 115.688 166.656 116.184C167.195 116.648 167.648 117.066 168.192 117.448C168.726 117.834 169.265 118.148 169.893 118.512C170.196 118.698 170.602 118.93 170.895 119.408C171.174 119.885 171.174 120.344 171.174 120.722C171.117 121.754 170.924 122.718 170.564 123.668C170.985 123.609 171.41 123.577 171.812 123.536C171.968 123.495 172.464 123.277 172.833 123.091C173.225 122.886 173.651 122.713 174.071 122.527C174.917 122.159 175.81 121.84 176.685 121.477C177.115 121.29 177.531 121.076 177.956 120.867C178.164 120.763 178.386 120.676 178.613 120.594L178.958 120.485C179.071 120.444 179.218 120.467 179.501 120.699C179.577 121.045 179.525 121.186 179.435 121.263L179.166 121.504C178.977 121.649 178.783 121.795 178.585 121.918L177.37 122.663C176.576 123.191 175.791 123.746 174.936 124.196C174.506 124.423 174.066 124.637 173.589 124.796C173.074 124.955 172.691 125.123 171.892 125.182C171.406 125.155 170.947 125.137 170.475 125.087C170.588 125.355 170.683 125.633 170.753 125.933C170.905 126.551 170.933 127.238 170.711 127.892C170.536 128.547 169.959 129.147 169.785 129.438C169.548 129.82 169.435 130.252 169.416 130.734C169.402 130.921 169.416 131.125 169.425 131.33C169.884 131.007 170.347 130.689 170.829 130.393C171.637 129.898 172.469 129.42 173.315 128.961C174.227 128.42 175.144 128.042 176.018 127.62C176.453 127.401 176.902 127.215 177.356 127.028C177.587 126.947 177.814 126.86 178.05 126.792C178.287 126.728 178.49 126.587 178.93 126.919C178.925 127.456 178.693 127.52 178.495 127.656C178.292 127.792 178.088 127.92 177.885 128.047C177.464 128.283 177.049 128.515 176.628 128.734C175.782 129.184 174.974 129.684 174.303 130.239C173.537 130.825 172.753 131.398 171.954 131.939C171.24 132.435 170.489 132.867 169.737 133.303C169.685 133.508 169.643 133.744 169.629 133.953C169.591 134.294 169.624 134.631 169.666 134.967C169.714 135.304 169.818 135.631 169.955 135.954C169.955 135.959 169.959 135.963 169.959 135.968C169.988 135.94 170.016 135.913 170.04 135.89C170.29 135.654 170.536 135.486 170.782 135.34C171.273 135.045 171.765 134.831 172.256 134.645C172.748 134.458 173.239 134.299 173.731 134.154L174.478 133.949C174.723 133.881 175.016 133.826 175.149 133.776C176.028 133.458 176.945 133.035 177.847 132.653C178.301 132.462 178.759 132.267 179.223 132.094L179.927 131.844C180.163 131.762 180.428 131.735 180.806 131.935C180.74 132.344 180.555 132.53 180.343 132.658L179.705 133.04C179.275 133.29 178.835 133.517 178.396 133.74C177.498 134.181 176.628 134.604 175.678 135.036C175.347 135.177 175.153 135.222 174.927 135.313L174.26 135.572C173.816 135.745 173.381 135.94 172.965 136.15C172.549 136.354 172.148 136.582 171.812 136.823C171.566 136.973 171.358 137.205 171.287 137.3C171.311 137.364 171.339 137.446 171.363 137.509C171.439 137.705 171.524 137.887 171.604 138.05C171.779 138.382 171.968 138.582 172.133 138.678C172.304 138.769 172.592 138.81 172.97 138.728C173.339 138.655 173.821 138.487 174.265 138.328C175.177 137.996 176.113 137.609 177.124 137.345C177.625 137.205 178.154 137.104 178.693 137.059C178.967 137.036 179.246 137.041 179.53 137.054C179.804 137.064 180.111 137.182 180.286 137.605C179.965 137.941 179.776 138.014 179.553 138.032C179.336 138.073 179.119 138.118 178.901 138.187C178.466 138.309 178.036 138.478 177.597 138.65C176.727 139.023 175.848 139.437 174.927 139.851C174.454 140.055 174.01 140.26 173.414 140.428C172.833 140.592 172.067 140.66 171.325 140.356C170.579 140.037 170.12 139.437 169.851 138.919C169.704 138.655 169.605 138.396 169.515 138.141C169.463 138 169.43 137.909 169.383 137.737C169.345 137.514 169.307 137.264 169.35 137.054C169.184 136.904 169.019 136.754 168.887 136.577C168.57 136.213 168.348 135.777 168.197 135.322C168.178 135.277 168.168 135.227 168.149 135.177C167.738 135.663 167.313 136.141 166.873 136.604C166.987 137.068 167.048 137.518 167.015 138.028C166.987 138.341 166.925 138.678 166.746 139.005C166.646 139.173 166.524 139.328 166.368 139.464C166.231 139.583 165.98 139.719 165.923 139.751C165.526 139.969 165.134 140.269 164.728 140.592C164.893 140.774 165.007 140.969 165.092 141.179L165.578 142.252C165.909 142.966 166.268 143.661 166.623 144.348C166.987 145.03 167.393 145.689 167.823 146.262C168.041 146.553 168.277 146.785 168.494 146.958C168.712 147.081 169.01 147.212 169.364 147.308C170.772 147.69 172.417 147.79 173.991 147.817C174.785 147.822 175.579 147.808 176.354 147.767C176.741 147.744 177.129 147.708 177.464 147.649C177.658 147.622 177.781 147.581 177.895 147.553C177.899 147.549 177.899 147.549 177.899 147.549L178.036 147.412C180.347 145.284 182.361 142.861 183.793 140.133C184.469 138.75 184.965 137.291 185.22 135.795C185.277 135.422 185.352 135.049 185.376 134.667C185.414 134.29 185.456 133.913 185.461 133.54C185.48 133.158 185.461 132.78 185.437 132.403C185.409 132.021 185.433 131.653 185.655 131.18C186.113 131.466 186.288 131.88 186.368 132.28C186.439 132.685 186.505 133.099 186.534 133.508C186.624 134.331 186.567 135.154 186.463 135.972C186.246 137.605 185.726 139.178 185.078 140.687C183.76 143.702 181.751 146.403 179.412 148.731L179.194 148.954C179.024 149.09 178.731 149.258 178.594 149.299C178.315 149.395 178.046 149.463 177.824 149.49C177.356 149.577 176.926 149.618 176.491 149.645C175.626 149.704 174.78 149.713 173.934 149.663C172.233 149.563 170.564 149.422 168.83 148.877C168.57 148.79 168.305 148.686 168.036 148.545C168.561 149.286 169.109 150.004 169.69 150.695C170.286 151.441 170.971 152.114 171.637 152.796C172.365 153.419 173.046 154.092 173.83 154.647C175.267 155.802 176.893 156.693 178.518 157.548C181.231 157.457 183.944 157.366 186.657 157.325C189.445 157.257 192.238 157.284 195.031 157.257L203.401 157.248C204.795 157.252 206.194 157.261 207.589 157.307L209.498 157.348C208.779 154.956 208.075 152.56 207.414 150.15C207.409 150.15 207.404 150.145 207.399 150.141L206.818 149.759C206.45 149.486 206.123 149.168 205.788 148.854C205.443 148.549 205.169 148.199 204.876 147.854C204.583 147.512 204.309 147.153 204.063 146.79C203.018 145.339 202.116 143.811 201.454 142.193C200.764 140.587 200.273 138.919 199.814 137.255C199.573 136.427 199.327 135.604 199.11 134.767C199.006 134.349 198.911 133.931 198.841 133.508L198.751 132.862C198.722 132.648 198.755 132.417 199.053 132.135C199.445 132.267 199.583 132.448 199.663 132.648L199.899 133.24C200.055 133.64 200.178 134.04 200.32 134.44C200.584 135.245 200.849 136.05 201.156 136.836C201.785 138.409 202.513 139.942 203.236 141.451C203.978 142.952 204.639 144.489 205.509 145.903C205.712 146.267 205.934 146.617 206.18 146.949C206.393 147.231 206.568 147.549 206.79 147.826C206.166 145.498 205.566 143.152 205.169 140.715C204.658 137.546 204.635 134.335 204.833 131.166C205.022 127.988 205.495 124.837 206.232 121.745C206.591 120.199 207.031 118.667 207.555 117.166C207.815 116.416 208.085 115.666 208.378 114.924C208.671 114.188 209.049 113.465 209.687 112.874C209.706 113.729 209.503 114.479 209.266 115.225C209.02 115.966 208.798 116.716 208.586 117.466C208.175 118.971 207.778 120.476 207.456 122.004C206.804 125.046 206.369 128.133 206.242 131.23C206.152 134.322 206.279 137.432 206.865 140.456C207.423 143.461 208.359 146.476 209.238 149.495L211.62 157.729C211.667 157.757 211.719 157.784 211.771 157.816C211.733 157.843 211.7 157.861 211.662 157.884L214.474 167.628L217.13 176.695L218.416 181.237L219.049 183.511C219.267 184.27 219.427 185.043 219.281 185.907C218.652 185.27 218.34 184.538 218.08 183.797L217.296 181.565C216.771 180.073 216.242 178.591 215.75 177.09C214.744 174.103 213.794 171.098 212.834 168.092C211.804 164.85 210.783 161.604 209.796 158.352C209.758 158.352 209.72 158.352 209.682 158.357L207.589 158.48C206.199 158.571 204.805 158.634 203.406 158.689L195.045 158.975C192.262 159.053 189.473 159.18 186.685 159.212C183.897 159.271 181.113 159.275 178.32 159.28H178.268C178.131 159.28 178.003 159.248 177.895 159.185C176.103 158.202 174.35 157.134 172.828 155.802C172.025 155.183 171.339 154.442 170.607 153.76C169.945 153.005 169.227 152.305 168.627 151.509C167.374 149.959 166.254 148.308 165.342 146.558C164.879 145.685 164.487 144.78 164.127 143.87C163.868 143.116 163.494 142.374 163.523 141.533C163.485 141.561 163.452 141.588 163.409 141.615C163.168 141.779 162.927 141.938 162.61 142.07C162.45 142.129 162.28 142.193 162.057 142.206C161.84 142.229 161.717 142.206 161.561 142.193C160.994 142.138 160.46 142.052 159.921 141.97C159.245 141.852 158.574 141.733 157.898 141.611C157.095 142.461 156.055 143.02 155.072 143.634C153.801 144.389 152.492 145.089 151.117 145.666C148.432 146.812 145.521 147.64 142.487 147.681C137.704 149.804 132.85 151.632 127.888 153.237C122.888 154.86 117.812 156.279 112.665 157.411ZM151.939 121.117L152.199 121.076C152.374 121.045 152.544 121.008 152.705 120.963C153.035 120.872 153.343 120.74 153.659 120.626C154.283 120.381 154.926 120.172 155.493 119.822C156.065 119.485 156.599 119.071 157.147 118.689C157.426 118.507 157.714 118.344 158.002 118.176C158.144 118.089 158.277 117.989 158.404 117.875L158.593 117.703C158.655 117.639 158.683 117.521 158.598 117.184C158.357 116.925 158.239 116.884 158.154 116.898L157.898 116.948C157.728 116.989 157.568 117.039 157.412 117.102C157.105 117.234 156.802 117.371 156.485 117.489C155.852 117.712 155.195 117.898 154.586 118.166C153.962 118.416 153.418 118.808 152.86 119.167C152.582 119.353 152.293 119.521 152.033 119.731C151.896 119.835 151.773 119.949 151.646 120.067L151.466 120.253C151.4 120.303 151.372 120.426 151.48 120.799C151.74 121.099 151.859 121.14 151.939 121.117ZM106.398 197.579C106.233 197.643 106.068 197.711 105.907 197.784C107.292 201.708 108.922 205.568 111.025 208.865C112.75 211.565 115.851 213.166 119.145 213.116L217.896 211.565L216.152 207.173C216.152 207.173 121.021 213.175 106.398 197.579ZM180.806 291.01H193.316L193.869 250.815H180.253L180.806 291.01ZM74.1382 292.815H86.6481L87.4137 237.469C82.6215 234.673 77.7442 231.518 73.2497 228.08L74.1382 292.815ZM127.316 315.086H139.831L140.71 250.815H126.432L127.316 315.086ZM309.785 324.448C303.93 328.991 254.953 317.2 249.443 315.213C247.013 314.34 245.596 311.917 246.068 309.471L249.211 293.356C249.296 292.915 249.457 292.501 249.651 292.11C249.655 291.992 249.679 291.874 249.726 291.742C249.759 291.751 249.783 291.769 249.811 291.778C250.638 290.378 252.118 289.396 253.843 289.209L272.237 287.19C273.763 287.027 275.285 287.5 276.424 288.495C282.256 293.606 298.892 307.543 306.241 311.608C312.337 314.977 316.251 319.433 309.785 324.448Z" fill="black"/>
</g>
<mask id="mask1_217_1568" style="mask-type:luminance" maskUnits="userSpaceOnUse" x="50" y="89" width="264" height="234">
<path d="M50.8149 89.6296H313.112V322.434H50.8149V89.6296Z" fill="white"/>
</mask>
<g mask="url(#mask1_217_1568)">
<path d="M180.527 102.188C180.144 102.184 179.714 102.57 179.568 103.043C179.416 103.521 179.605 103.907 179.988 103.907C180.371 103.912 180.801 103.525 180.952 103.052C181.099 102.575 180.91 102.188 180.527 102.188ZM180.801 101.32C180.031 101.315 179.166 102.088 178.868 103.043C178.57 103.994 178.948 104.776 179.714 104.776C180.484 104.78 181.349 104.012 181.647 103.052C181.945 102.097 181.567 101.324 180.801 101.32ZM160.309 114.406C159.68 114.506 159.052 114.611 158.423 114.724C161.221 106.69 163.896 99.392 164.581 98.7782C166.155 97.3732 183.003 97.3732 183.003 97.3732C183.003 97.3732 185.475 97.696 184.242 100.506C183.708 101.725 181.34 108.304 178.83 115.379C178.826 115.379 178.826 115.379 178.826 115.379C177.337 115.343 173.112 118.03 170.933 119.485C170.919 119.458 170.909 119.43 170.895 119.408C170.602 118.93 170.196 118.698 169.893 118.512C169.265 118.148 168.726 117.834 168.192 117.448C167.648 117.066 167.195 116.648 166.656 116.184C166.117 115.688 165.479 115.27 164.803 114.924C164.118 114.583 163.367 114.347 162.582 114.251C162.426 114.233 162.27 114.224 162.114 114.215L166.968 101.484C167.095 101.147 167.422 100.92 167.79 100.897L183.599 99.9967C183.864 99.9831 184.072 99.7603 184.053 99.5011C184.038 99.2465 183.812 99.0419 183.537 99.0646L167.733 99.9649C166.977 100.006 166.32 100.479 166.056 101.165L161.06 114.256C160.772 114.292 160.474 114.347 160.158 114.447L160.309 114.406ZM296.283 319.719C290.668 319.051 285.134 317.751 279.6 316.436C274.056 315.154 268.55 313.672 263.03 312.226L254.783 309.925C253.408 309.543 252.037 309.161 250.653 308.811L248.583 308.27C247.888 308.093 247.179 307.97 246.39 308.097C246.971 308.625 247.628 308.907 248.304 309.134L250.341 309.798C251.692 310.253 253.053 310.666 254.419 311.08L262.628 313.526C268.087 315.182 273.56 316.832 279.122 318.246C284.671 319.647 290.323 320.82 296.099 321.356C298.986 321.606 301.912 321.72 304.837 321.352C306.297 321.17 307.758 320.838 309.143 320.288C309.833 320.001 310.513 319.688 311.127 319.26C311.77 318.874 312.304 318.283 312.498 317.528C307.72 320.57 301.841 320.283 296.283 319.719ZM262.302 199.116C262.921 199.029 263.541 199.089 264.16 199.048C264.779 199.034 265.388 199.157 266.008 199.198C266.617 199.284 267.203 199.48 267.813 199.612C268.39 199.83 268.961 200.021 269.746 199.953C269.358 199.352 268.787 198.957 268.167 198.698C267.534 198.497 266.901 198.238 266.239 198.093C265.578 197.993 264.911 197.811 264.235 197.775C263.564 197.752 262.884 197.674 262.213 197.734C259.509 197.838 256.896 198.511 254.424 199.421C249.48 201.267 244.962 203.927 240.766 206.928C236.592 209.96 232.679 213.284 228.95 216.776C227.065 218.5 225.212 220.259 223.416 222.064C222.523 222.969 221.63 223.879 220.784 224.829L219.503 226.248C219.087 226.725 218.714 227.243 218.548 227.939C219.243 227.698 219.739 227.298 220.198 226.857L221.564 225.534L224.314 222.915C226.148 221.164 228.005 219.441 229.91 217.768C233.762 214.462 237.746 211.306 241.914 208.433C246.073 205.559 250.383 202.849 255.053 200.953C257.387 200.016 259.831 199.352 262.302 199.116ZM221.507 211.37C221.493 210.856 221.063 210.415 220.514 210.451L119.13 212.179C119.083 212.179 119.041 212.179 118.989 212.179C116.082 212.179 113.355 210.733 111.852 208.378C109.617 204.868 107.915 200.68 106.474 196.46C111.2 195.446 130.955 190.254 151.358 170.72C160.668 161.804 175.205 158.584 184.79 159.348C185.329 159.407 185.797 159.012 185.839 158.498C185.886 157.98 185.489 157.529 184.955 157.484C174.936 156.675 159.737 160.058 149.987 169.392C129.594 188.917 109.952 193.823 105.879 194.669C105.302 192.896 104.763 191.131 104.243 189.435C103.898 188.308 103.558 187.203 103.222 186.134C100.108 176.267 96.8612 168.683 83.3588 160.903L53.0221 145.184C52.5447 144.939 51.954 145.112 51.7035 145.566C51.4483 146.021 51.6231 146.589 52.0957 146.835L82.3946 162.536C95.2638 169.943 98.3735 177.218 101.36 186.68C101.696 187.739 102.032 188.84 102.377 189.967C104.338 196.388 106.569 203.667 110.193 209.356C112.051 212.261 115.406 214.053 118.993 214.053C119.05 214.053 119.107 214.053 119.164 214.053L220.547 212.325C221.086 212.316 221.516 211.888 221.507 211.37ZM252.122 170.793C252.132 170.793 252.141 170.793 252.151 170.793C252.689 170.779 253.11 170.347 253.096 169.829L252.472 147.258C252.458 146.753 252.023 146.348 251.499 146.348C251.489 146.348 251.484 146.348 251.47 146.348C250.936 146.358 250.511 146.789 250.525 147.308L251.154 169.879C251.168 170.388 251.598 170.793 252.122 170.793ZM53.5703 94.8678C53.6837 94.8269 56.2641 93.7947 59.9978 95.5998C63.7077 97.3913 68.5709 101.993 73.1599 113.219C68.0888 107.663 62.7578 106.408 62.4742 106.344C61.9496 106.222 61.4298 106.54 61.3069 107.04C61.184 107.545 61.5054 108.049 62.03 108.168C62.115 108.186 70.2912 110.155 75.6316 120.053C76.5107 122.786 77.3708 125.805 78.1979 129.143C78.3019 129.57 78.7036 129.861 79.1431 129.861C79.2187 129.861 79.2943 129.852 79.37 129.834C79.8898 129.716 80.2159 129.211 80.0883 128.706C79.2943 125.496 78.4673 122.568 77.6166 119.899C77.6166 119.758 77.5788 119.612 77.5079 119.471C77.4795 119.421 77.4512 119.367 77.4228 119.317C71.9358 102.429 65.4989 96.1136 60.7681 93.8765C56.2122 91.7213 52.9228 93.099 52.781 93.1581C52.2942 93.3718 52.0768 93.9175 52.2942 94.3903C52.5069 94.8587 53.0835 95.0724 53.5703 94.8678ZM131.432 91.985C131.215 91.5121 131.437 90.9574 131.929 90.7482C132.415 90.5391 132.992 90.7528 133.209 91.2257L146.348 119.817C146.565 120.29 146.343 120.845 145.852 121.054C145.724 121.108 145.587 121.131 145.459 121.131C145.086 121.131 144.727 120.922 144.566 120.576L131.432 91.985Z" fill="#7ED957"/>
</g>
<path d="M246.489 128.993C246.479 128.233 246.508 127.469 246.366 126.724C246.253 125.978 246.04 125.232 245.865 124.491C245.789 124.118 245.737 123.746 245.676 123.373C245.648 123.186 245.596 123 245.534 122.813L245.43 122.541C245.392 122.45 245.288 122.363 244.929 122.304C244.594 122.431 244.509 122.531 244.494 122.632L244.447 122.918C244.428 123.109 244.414 123.3 244.419 123.495C244.438 123.868 244.461 124.246 244.466 124.628C244.447 125.387 244.395 126.155 244.433 126.91C244.452 127.67 244.636 128.411 244.783 129.156C244.863 129.529 244.924 129.902 245.033 130.275C245.08 130.457 245.147 130.639 245.222 130.825L245.331 131.098C245.359 131.193 245.463 131.275 245.87 131.334C246.253 131.203 246.342 131.093 246.347 130.998L246.399 130.711C246.432 130.516 246.46 130.325 246.475 130.134C246.503 129.752 246.489 129.375 246.489 128.993ZM243.355 115.229C243.294 114.693 243.308 114.138 243.162 113.61C243.025 113.083 242.902 112.546 242.746 112.019C242.665 111.755 242.604 111.487 242.509 111.223L242.179 110.464C241.408 108.377 240.005 106.49 238.28 104.985C236.536 103.489 234.404 102.479 232.226 101.87C231.129 101.579 230.033 101.302 228.908 101.17C228.345 101.097 227.783 101.047 227.216 101.052C226.937 101.047 226.649 101.074 226.37 101.083C226.091 101.102 225.798 101.188 225.538 101.534C225.826 101.87 226.082 101.956 226.346 101.988C226.611 102.025 226.876 102.052 227.14 102.102C227.665 102.184 228.189 102.257 228.714 102.361C229.234 102.443 229.744 102.584 230.264 102.693C230.77 102.825 231.266 103.002 231.767 103.157C233.738 103.894 235.501 105.012 236.975 106.372C237.16 106.54 237.372 106.685 237.542 106.872L238.043 107.431C238.365 107.813 238.747 108.149 239.017 108.572L239.901 109.795C240.151 110.227 240.369 110.682 240.61 111.128L240.964 111.796C241.063 112.033 241.139 112.274 241.224 112.515C241.389 112.992 241.583 113.465 241.767 113.947C241.947 114.424 242.046 114.934 242.202 115.429L242.41 116.179C242.476 116.429 242.609 116.67 243.053 116.884C243.407 116.584 243.45 116.307 243.417 116.038L243.355 115.229ZM86.1424 179.123C86.0478 178.864 85.9486 178.609 85.821 178.373C85.5847 177.877 85.2917 177.418 84.9892 176.963C84.3843 176.058 83.7415 175.158 82.9239 174.421C82.1252 173.662 81.2272 173.016 80.3151 172.402C79.8709 172.089 79.4313 171.766 78.9729 171.466C78.7461 171.316 78.505 171.184 78.2545 171.061L77.867 170.897C77.7394 170.843 77.5693 170.843 77.2668 171.057C77.1959 171.416 77.2479 171.557 77.3424 171.648L77.626 171.921C77.8197 172.098 78.0135 172.275 78.2167 172.434C78.6279 172.757 79.0296 173.089 79.4124 173.439C80.1544 174.162 80.8255 174.953 81.5108 175.708C82.1866 176.472 82.9334 177.172 83.6045 177.941C83.9542 178.318 84.2614 178.723 84.5969 179.114L85.1121 179.691L85.3815 179.987C85.4571 180.087 85.6083 180.151 86.0242 180.087C86.3078 179.796 86.3267 179.637 86.27 179.514L86.1424 179.123ZM69.0387 165.909C68.585 165.514 68.136 165.114 67.6539 164.768C66.7135 164.027 65.7257 163.363 64.7521 162.686C62.7955 161.335 60.8106 160.03 58.7595 158.83C56.7083 157.625 54.6005 156.52 52.5021 155.392L49.3924 153.66C48.8678 153.378 48.3479 153.096 47.8091 152.837L47.001 152.455C46.7269 152.328 46.4244 152.255 45.9849 152.4C46.0605 152.842 46.2732 153.06 46.5142 153.228L47.2467 153.737C47.7335 154.069 48.2392 154.383 48.7402 154.697L51.7696 156.552C53.7593 157.834 55.7206 159.153 57.7244 160.408C59.7189 161.672 61.7747 162.845 63.8022 164.054L66.8174 165.891L68.325 166.801C68.5755 166.951 68.8307 167.101 69.0623 167.264C69.2986 167.433 69.5727 167.546 70.0737 167.446C70.1115 166.978 69.9319 166.719 69.7098 166.51C69.4924 166.296 69.2655 166.105 69.0387 165.909ZM104.626 16.6328L104.47 16.5555C104.366 16.5101 104.267 16.4691 104.163 16.4419C103.96 16.3782 103.756 16.3646 103.553 16.3327C103.147 16.2782 102.74 16.1872 102.339 16.26C101.932 16.3055 101.535 16.4464 101.133 16.551C100.935 16.5919 100.732 16.6146 100.533 16.6419C100.429 16.6556 100.33 16.6919 100.231 16.7329L100.08 16.8102C100.032 16.8374 99.9851 16.9284 99.9425 17.2694C100.009 17.6013 100.061 17.6923 100.113 17.715L100.269 17.7832C100.368 17.8196 100.472 17.8469 100.571 17.856C100.774 17.8696 100.978 17.8787 101.181 17.906C101.587 17.9878 101.994 18.1061 102.4 18.1288C102.807 18.1743 103.208 18.0606 103.61 17.9787C103.808 17.9333 104.012 17.906 104.21 17.8332C104.309 17.7969 104.413 17.7514 104.513 17.6968L104.659 17.615C104.711 17.5968 104.754 17.5013 104.791 17.1194C104.73 16.7374 104.678 16.6465 104.626 16.6328ZM96.0293 17.3922L95.3771 17.3285C94.9376 17.2694 94.5028 17.2785 94.068 17.3058C93.1842 17.3103 92.3288 17.474 91.4639 17.6195C89.7673 17.9878 88.0706 18.4653 86.5346 19.2473C84.9892 20.0112 83.5667 20.9615 82.2103 21.9664C81.525 22.4666 80.8397 22.9577 80.1922 23.4942C79.8661 23.7579 79.5495 24.0353 79.2565 24.3354C79.1052 24.4809 78.9635 24.6446 78.8217 24.7946C78.6799 24.9538 78.5806 25.1584 78.6752 25.5449C79.0722 25.6495 79.2801 25.5858 79.4502 25.4721L79.9654 25.1356L80.972 24.44C81.6337 23.9671 82.3095 23.5033 83.009 23.085C84.4221 22.2665 85.9013 21.5845 87.3711 20.9297C88.8599 20.2977 90.3344 19.6793 91.8798 19.2201C92.6549 19.02 93.4347 18.8199 94.2334 18.679C94.6304 18.6062 95.0227 18.5062 95.4291 18.4698L96.0341 18.3743C96.2373 18.3516 96.4405 18.2606 96.6579 17.8696C96.4641 17.4877 96.2467 17.4058 96.0293 17.3922ZM162.596 90.5254C162.53 90.4118 162.454 90.3026 162.369 90.2072C162.19 90.0207 162.005 89.8389 161.84 89.6388C161.523 89.225 161.226 88.7885 160.866 88.4156C160.526 88.0292 160.068 87.7609 159.638 87.4653C159.416 87.3198 159.212 87.1652 158.971 87.0425C158.853 86.9788 158.726 86.9242 158.593 86.8742L158.39 86.806C158.333 86.7742 158.22 86.7969 157.898 87.0334C157.676 87.3562 157.662 87.4653 157.7 87.5245L157.785 87.7109C157.846 87.8336 157.908 87.9519 157.984 88.061C158.125 88.2838 158.305 88.4702 158.47 88.6703C158.806 89.0659 159.118 89.4842 159.543 89.7843C159.954 90.1071 160.427 90.3572 160.881 90.63C161.098 90.7755 161.296 90.9392 161.504 91.0984C161.608 91.1711 161.727 91.2348 161.849 91.2939L162.048 91.3712C162.114 91.3939 162.223 91.3712 162.511 91.1666C162.705 90.8801 162.719 90.771 162.686 90.7073L162.596 90.5254ZM176.307 79.3036C176.278 79.1808 176.236 79.0535 176.188 78.9262L176.108 78.7397C176.094 78.6761 175.999 78.6079 175.607 78.5351C175.205 78.5851 175.106 78.6442 175.092 78.7079L175.002 78.8943C174.945 79.0171 174.893 79.1399 174.86 79.2626C174.78 79.5082 174.752 79.7582 174.7 80.0083C174.619 80.5039 174.496 80.9996 174.539 81.4997C174.563 81.9999 174.676 82.5046 174.761 83.0093C174.789 83.2594 174.794 83.5049 174.808 83.755C174.818 83.8823 174.841 84.0097 174.884 84.1324L174.95 84.3234C174.974 84.387 175.068 84.4507 175.413 84.5235C175.768 84.4734 175.862 84.4143 175.891 84.3507L175.976 84.1642C176.018 84.0415 176.051 83.9187 176.07 83.7914C176.103 83.5459 176.122 83.2958 176.169 83.0502C176.278 82.5501 176.429 82.059 176.481 81.5588C176.557 81.0587 176.467 80.5585 176.415 80.0583C176.382 79.8083 176.368 79.5582 176.307 79.3036ZM168.735 86.4332C168.608 86.0649 168.475 85.7011 168.324 85.3419C168.041 84.6235 167.715 83.9187 167.398 83.2139C166.755 81.8044 166.155 80.3766 165.399 79.0216C164.671 77.653 163.849 76.3298 163.064 74.9885L161.944 72.9469C161.75 72.6104 161.561 72.274 161.344 71.9466L161.013 71.46C160.904 71.2964 160.734 71.1645 160.328 71.1418C160.096 71.46 160.106 71.6738 160.167 71.8556L160.361 72.4058C160.498 72.7696 160.654 73.1242 160.814 73.4789L161.793 75.5796C162.407 77.0028 162.988 78.4442 163.655 79.8401C164.302 81.2451 165.101 82.5819 165.857 83.9369C166.24 84.6098 166.618 85.2919 167.034 85.9467C167.228 86.2831 167.45 86.606 167.672 86.9333L168.008 87.4153C168.112 87.579 168.282 87.7154 168.731 87.7154C169 87.3789 168.995 87.1652 168.924 86.9834L168.735 86.4332ZM188.665 82.3864C188.297 82.2363 188.178 82.2409 188.131 82.2864L187.956 82.4046C187.843 82.4864 187.734 82.5683 187.635 82.6637C187.436 82.8365 187.28 83.0412 187.11 83.2367C186.77 83.6323 186.401 84.0051 186.179 84.4689C185.934 84.9145 185.768 85.4101 185.57 85.8875C185.466 86.124 185.338 86.3422 185.215 86.5696C185.158 86.6833 185.116 86.806 185.083 86.9333L185.045 87.1334C185.031 87.2016 185.078 87.3017 185.338 87.5335C185.669 87.6563 185.787 87.6518 185.839 87.6108L186.009 87.4881C186.113 87.4017 186.208 87.3153 186.293 87.2107C186.449 87.0061 186.6 86.8015 186.765 86.606C187.129 86.224 187.517 85.8648 187.829 85.451C188.16 85.0555 188.344 84.5735 188.561 84.1051C188.665 83.8732 188.788 83.6459 188.864 83.3958C188.906 83.273 188.935 83.1412 188.963 83.0093L188.996 82.8047C189.015 82.7411 188.968 82.641 188.665 82.3864ZM200.466 97.014L200.263 96.9639C200.126 96.9367 199.989 96.9139 199.857 96.9003C199.592 96.873 199.332 96.8912 199.067 96.8957C198.543 96.9094 198.013 96.8912 197.512 97.0321C197.007 97.1458 196.515 97.355 196.019 97.5278C195.769 97.6005 195.518 97.6551 195.263 97.7187C195.135 97.7506 195.017 97.8006 194.894 97.8597L194.715 97.9643C194.653 97.9961 194.606 98.0961 194.596 98.4371C194.719 98.76 194.8 98.8373 194.866 98.8555L195.069 98.8964C195.206 98.9146 195.338 98.9237 195.466 98.9191C195.726 98.8964 195.986 98.8691 196.246 98.8646C196.775 98.8737 197.309 98.9191 197.829 98.8737C198.349 98.8509 198.845 98.669 199.346 98.5235C199.597 98.4462 199.847 98.3826 200.093 98.2735C200.216 98.2234 200.334 98.1598 200.457 98.0916L200.632 97.9779C200.693 97.9552 200.745 97.8506 200.745 97.4641C200.617 97.1003 200.532 97.0185 200.466 97.014ZM205.344 81.618C205.4 82.0044 205.296 82.1909 205.15 82.3273L204.72 82.732C204.427 83.0002 204.12 83.2458 203.812 83.4913L201.946 84.9418C200.731 85.9376 199.54 86.9697 198.283 87.9246C197.045 88.8931 195.707 89.7388 194.393 90.6164C193.732 91.0529 193.079 91.4939 192.399 91.9032C192.063 92.1123 191.718 92.3079 191.369 92.4988L190.839 92.7807C190.669 92.8853 190.452 92.9308 190.055 92.7398C189.97 92.3169 190.078 92.1305 190.225 92.0032L190.65 91.5894C190.938 91.3212 191.227 91.0483 191.529 90.7983C192.125 90.2754 192.744 89.7934 193.358 89.3023C194.596 88.3247 195.806 87.3153 197.111 86.4332C198.41 85.5329 199.767 84.7099 201.095 83.8551L203.056 82.5273C203.387 82.3091 203.718 82.0908 204.058 81.8953L204.583 81.6043C204.758 81.5088 204.975 81.4634 205.344 81.618Z" fill="#05ABBB"/>
</svg>
