<svg width="980" height="1280" viewBox="0 0 1080 1080" fill="none" xmlns="http://www.w3.org/2000/svg">
<g clip-path="url(#clip0_506_447)">
<rect width="1080" height="1080" fill="white"/>
<path d="M306.846 67.2939C316.406 67.2939 325.148 69.8634 333.073 75.0023C341.004 80.1412 346.962 86.8946 350.943 95.2569H336.244C332.98 90.5578 328.756 86.8368 323.571 84.0879C318.391 81.342 312.818 79.9676 306.846 79.9676C296.884 79.9676 288.397 83.4948 281.383 90.5463C274.375 97.592 270.874 106.096 270.874 116.056C270.874 126.009 274.398 134.493 281.453 141.507C288.504 148.521 296.968 152.028 306.846 152.028C312.818 152.028 318.391 150.656 323.571 147.907C328.756 145.153 332.98 141.426 336.244 136.727H350.943C346.962 145.092 341.004 151.843 333.073 156.981C325.148 162.12 316.406 164.69 306.846 164.69C293.38 164.69 281.907 159.953 272.425 150.477C262.949 140.995 258.212 129.522 258.212 116.056C258.212 102.592 262.949 91.0989 272.425 81.5764C281.907 72.0567 293.38 67.2939 306.846 67.2939Z" fill="#8E53FE"/>
<path d="M359.663 164.69V67.2939H372.337V93.8217C377.435 90.2424 383.092 88.4514 389.304 88.4514C397.429 88.4514 404.4 91.3622 410.219 97.1782C416.035 102.988 418.945 109.956 418.945 118.081V164.69H406.272V118.081C406.272 113.46 404.597 109.499 401.249 106.194C397.907 102.884 393.925 101.229 389.304 101.229C384.68 101.229 380.696 102.884 377.348 106.194C374.006 109.499 372.337 113.46 372.337 118.081V164.69H359.663Z" fill="#8E53FE"/>
<path d="M504.027 126.565V164.69H491.365V126.565C491.365 119.559 488.871 113.567 483.889 108.59C478.912 103.607 472.916 101.113 465.902 101.113C458.894 101.113 452.919 103.607 447.974 108.59C443.035 113.567 440.567 119.562 440.567 126.576C440.567 133.584 443.035 139.556 447.974 144.493C452.919 149.432 458.894 151.9 465.902 151.9C473.871 151.9 480.364 148.877 485.382 142.826V159.308C479.247 162.896 472.754 164.69 465.902 164.69C455.385 164.69 446.403 160.969 438.958 153.521C431.51 146.067 427.789 137.083 427.789 126.565C427.789 116.05 431.51 107.068 438.958 99.6202C446.403 92.1751 455.385 88.4512 465.902 88.4512C476.418 88.4512 485.399 92.1751 492.847 99.6202C500.301 107.068 504.027 116.05 504.027 126.565Z" fill="#8E53FE"/>
<path d="M512.279 164.69V118.081C512.279 109.956 515.184 102.988 520.995 97.178C526.811 91.3621 533.784 88.4512 541.909 88.4512C550.118 88.4512 557.109 91.3418 562.881 97.1202C568.66 102.893 571.55 109.881 571.55 118.081V164.69H558.877V118.081C558.877 113.46 557.201 109.478 553.853 106.136C550.511 102.789 546.53 101.113 541.909 101.113C537.285 101.113 533.301 102.789 529.953 106.136C526.611 109.478 524.941 113.46 524.941 118.081V164.69H512.279Z" fill="#8E53FE"/>
<path d="M618.041 88.4512C625.13 88.4512 631.681 90.2654 637.693 93.891C643.712 97.5108 648.353 102.311 651.617 108.289H635.841C630.902 103.506 624.968 101.113 618.041 101.113C611.027 101.113 605.049 103.607 600.112 108.59C595.173 113.567 592.705 119.562 592.705 126.576C592.705 133.584 595.173 139.556 600.112 144.493C605.049 149.432 611.027 151.9 618.041 151.9C622.184 151.9 626.044 150.986 629.626 149.157C633.214 147.323 636.16 144.811 638.469 141.622H653.052C650.104 148.474 645.462 154.036 639.128 158.301C632.792 162.56 625.763 164.69 618.041 164.69C607.523 164.69 598.556 160.969 591.142 153.521C583.735 146.067 580.031 137.083 580.031 126.565C580.031 116.05 583.735 107.068 591.142 99.6202C598.556 92.1751 607.523 88.4512 618.041 88.4512Z" fill="#8E53FE"/>
<path d="M672.583 99.6202C680.037 92.1751 689.021 88.4512 699.539 88.4512C710.054 88.4512 719.036 92.1751 726.484 99.6202C733.937 107.068 737.664 116.05 737.664 126.565C737.664 128.555 737.462 130.67 737.062 132.907H681.021V120.234H724.157C722.797 114.655 719.828 110.077 715.245 106.495C710.668 102.907 705.433 101.113 699.539 101.113C692.369 101.113 686.336 103.625 681.437 108.648C676.536 113.665 674.088 119.64 674.088 126.576C674.088 133.506 676.536 139.458 681.437 144.435C686.336 149.412 692.369 151.9 699.539 151.9C706.946 151.9 713.118 149.232 718.058 143.891H733.474C730.21 150.187 725.549 155.231 719.493 159.018C713.442 162.8 706.79 164.69 699.539 164.69C689.021 164.69 680.037 160.969 672.583 153.521C665.135 146.067 661.414 137.083 661.414 126.565C661.414 116.05 665.135 107.068 672.583 99.6202Z" fill="#8E53FE"/>
<path d="M822.509 126.565V164.69H809.847V126.565C809.847 119.559 807.353 113.567 802.37 108.59C797.393 103.607 791.398 101.113 784.384 101.113C777.376 101.113 771.401 103.607 766.456 108.59C761.516 113.567 759.048 119.562 759.048 126.576C759.048 133.584 761.516 139.556 766.456 144.493C771.401 149.432 777.376 151.9 784.384 151.9C792.353 151.9 798.846 148.877 803.863 142.826V159.308C797.729 162.896 791.236 164.69 784.384 164.69C773.866 164.69 764.885 160.969 757.439 153.521C749.992 146.067 746.271 137.083 746.271 126.565C746.271 116.05 749.992 107.068 757.439 99.6202C764.885 92.1751 773.866 88.4512 784.384 88.4512C794.899 88.4512 803.88 92.1751 811.328 99.6202C818.782 107.068 822.509 116.05 822.509 126.565Z" fill="#8E53FE"/>
<path opacity="0.25" d="M45.2449 720.346C45.2449 720.346 66.9966 910.99 164.402 1039.1C261.807 1167.22 428.388 1224.12 587.062 1174.58C745.737 1125.04 800.497 935.032 936.809 810.698C1073.12 686.364 1122.51 510.348 986.784 374.567C851.059 238.787 747.716 325.342 551.177 271.312C354.639 217.281 13.5513 278.224 45.2449 720.346Z" fill="#AA8ED6"/>
<path d="M720.3 296.719C718.94 295.579 717.22 294.959 715.44 294.999C713.4 295.039 711.42 294.179 710.06 292.639L709.84 291.939C709.76 291.699 709.52 291.559 709.26 291.619C709.02 291.699 708.88 291.939 708.94 292.199L717.04 319.559C716.42 319.199 715.72 318.979 715 318.879C713.24 318.699 711.46 319.039 709.86 319.819C706.22 321.519 704.16 324.819 705.28 327.199C706.24 329.239 709.24 329.939 712.34 329.019C712.86 328.859 713.36 328.679 713.86 328.439C715.48 327.719 716.88 326.559 717.88 325.099C718.74 323.959 718.96 322.459 718.46 321.119L712.78 301.959C714.16 303.139 715.92 303.779 717.74 303.759C719.9 303.739 721.96 304.699 723.34 306.379C723.44 306.479 723.56 306.499 723.7 306.479H723.78C723.92 306.399 723.98 306.239 723.94 306.079L721.92 299.319C721.66 298.299 721.1 297.399 720.28 296.739L720.3 296.719Z" fill="#FFDF43"/>
<path d="M384.52 392.28C383.16 391.14 381.44 390.52 379.66 390.56C377.62 390.6 375.64 389.74 374.28 388.2L374.06 387.5C373.98 387.26 373.74 387.12 373.48 387.18C373.24 387.26 373.1 387.5 373.16 387.76L381.26 415.12C380.64 414.76 379.94 414.54 379.22 414.44C377.46 414.26 375.68 414.6 374.08 415.38C370.44 417.08 368.38 420.38 369.5 422.76C370.46 424.8 373.46 425.5 376.56 424.58C377.08 424.42 377.58 424.24 378.08 424C379.7 423.28 381.1 422.12 382.1 420.66C382.96 419.52 383.18 418.02 382.68 416.68L377 397.52C378.38 398.7 380.14 399.34 381.96 399.32C384.12 399.3 386.18 400.26 387.56 401.94C387.66 402.04 387.78 402.06 387.92 402.04H388C388.14 401.96 388.2 401.8 388.16 401.64L386.14 394.88C385.88 393.86 385.32 392.96 384.5 392.3L384.52 392.28Z" fill="#FFDF43"/>
<path d="M781.86 445.1L776.74 429.44L774.84 423.6L774.7 423.3L758.74 428.48L758.88 428.8L760.78 434.64L765.46 448.98C763.72 448.24 761.74 448.38 760.12 449.32C757.46 450.64 756 453.16 756.86 454.9C757.56 456.42 759.86 456.86 762.16 456.1C762.52 455.96 762.88 455.8 763.22 455.6C765.86 454.28 767.32 451.8 766.5 450.08L762.1 436.62L776.74 431.84L780.7 443.94C780.24 443.68 779.72 443.52 779.18 443.48C777.86 443.38 776.56 443.66 775.38 444.28C772.7 445.62 771.26 448.12 772.12 449.86C772.82 451.38 775.12 451.82 777.42 451.06C777.78 450.92 778.14 450.76 778.48 450.56C781.2 449.32 782.64 446.86 781.84 445.12L781.86 445.1ZM761.96 436L761.44 434.44L776.08 429.66L776.6 431.22L761.96 436Z" fill="#FFDF43"/>
<path d="M521.179 283.4L516.059 267.74L514.159 261.9L514.019 261.6L498.059 266.78L498.199 267.1L500.099 272.94L504.779 287.28C503.039 286.54 501.059 286.68 499.439 287.62C496.779 288.94 495.319 291.46 496.179 293.2C496.879 294.72 499.179 295.16 501.479 294.4C501.839 294.26 502.199 294.1 502.539 293.9C505.179 292.58 506.639 290.1 505.819 288.38L501.419 274.92L516.059 270.14L520.019 282.24C519.559 281.98 519.039 281.82 518.499 281.78C517.179 281.68 515.879 281.96 514.699 282.58C512.019 283.92 510.579 286.42 511.439 288.16C512.139 289.68 514.439 290.12 516.739 289.36C517.099 289.22 517.459 289.06 517.799 288.86C520.519 287.62 521.959 285.16 521.159 283.42L521.179 283.4ZM501.279 274.3L500.759 272.74L515.399 267.96L515.919 269.52L501.279 274.3Z" fill="#FFDF43"/>
<path d="M524.579 384.179C527.339 391.419 534.639 395.379 540.839 392.999C547.039 390.619 549.859 382.819 547.079 375.579C544.319 368.339 537.019 364.379 530.819 366.759C524.599 369.139 521.799 376.939 524.579 384.179Z" fill="#407BFF"/>
<path opacity="0.7" d="M524.579 384.179C527.339 391.419 534.639 395.379 540.839 392.999C547.039 390.619 549.859 382.819 547.079 375.579C544.319 368.339 537.019 364.379 530.819 366.759C524.599 369.139 521.799 376.939 524.579 384.179Z" fill="white"/>
<path d="M528.619 382.64C530.679 388.04 536.119 390.98 540.759 389.22C545.399 387.44 547.479 381.64 545.419 376.22C543.359 370.8 537.919 367.86 533.279 369.64C528.639 371.42 526.559 377.22 528.619 382.64Z" fill="#1F042F"/>
<path d="M553.179 337.88C550.159 334.18 539.339 333.18 533.739 339.64C527.759 346.52 519.919 359.44 515.699 355.62C516.779 359.8 520.359 362.88 524.659 363.34C524.659 363.34 519.819 368 514.119 365.8C515.799 371.76 520.739 376.24 526.819 377.34C536.719 379.42 552.359 351.76 554.859 347.22C555.179 342.08 554.819 342.26 553.179 337.88Z" fill="#263238"/>
<path d="M559.279 339.54C568.199 339.02 576.919 342.24 583.379 348.4C587.559 352.48 590.659 357.7 588.759 363.62C584.319 375.76 579.199 387.66 573.419 399.22L533.159 364C533.159 364 533.839 350.34 541.039 344.14C544.899 340.96 552.679 339.86 559.279 339.54Z" fill="#263238"/>
<path d="M551.6 338.599C551.6 338.599 567.4 328.759 586.62 344.999C605.84 361.239 583.88 387.119 583.88 387.119C583.88 387.119 576.66 398.719 582.16 402.019C580.04 402.699 577.82 402.919 575.62 402.679C575.62 402.679 577.34 406.439 579.86 406.359C579.86 406.359 576.28 407.519 570.26 404.359C564.24 401.199 551.6 338.599 551.6 338.599Z" fill="#263238"/>
<path d="M547.959 410.24L547.899 410.4L548.519 418.92C548.279 421.94 547.539 424.9 546.319 427.66C544.579 430.38 551.639 432 556.979 432.84C564.999 434.12 573.399 429 574.579 425.56C572.919 413.92 572.239 400.54 574.779 390.22L563.779 398.46L547.919 410.24H547.959Z" fill="#EBB376"/>
<g opacity="0.2">
<path d="M547.999 410.46L548.639 418.979C554.079 417.639 560.239 413.68 562.439 408.6C564.019 404.92 562.959 400.979 561.439 400.479L548.019 410.479L547.999 410.46Z" fill="black"/>
</g>
<path d="M530.939 389.62C531.079 391.48 531.279 393.32 531.579 395.16C533.679 411.24 552.219 416.14 565.919 407.18C567.159 406.36 568.339 405.46 569.439 404.44C578.639 396.12 578.199 388.3 580.259 371.16C581.979 358.28 572.919 346.44 560.039 344.72C556.399 344.24 552.679 344.6 549.199 345.82C533.519 351.08 529.459 371.08 530.919 389.62H530.939Z" fill="#EBB376"/>
<path d="M580.16 372.7C580.16 372.7 575.02 371.98 573.96 376.32C572.92 380.66 573.24 381.3 573.24 381.3L566.96 381.42C566.96 381.42 571.88 365.08 567.44 364.46C563 363.84 569.2 357.22 566.76 355.64C560.96 351.88 544.06 348.52 535.56 357.48C537.98 351.52 542.48 346.68 548.24 343.82C557.34 339.92 573.76 341.86 578.82 351.08C583.86 360.3 580.16 372.7 580.16 372.7Z" fill="#263238"/>
<path d="M553.919 378C553.839 379.56 552.96 380.8 551.94 380.74C550.92 380.68 550.14 379.36 550.22 377.8C550.3 376.24 551.18 375 552.2 375.06C553.22 375.12 553.999 376.44 553.919 378Z" fill="#263238"/>
<path d="M538.519 377.599C538.439 379.159 537.559 380.399 536.539 380.339C535.519 380.279 534.739 378.959 534.799 377.399C534.859 375.839 535.759 374.599 536.779 374.659C537.799 374.719 538.579 376.039 538.499 377.599H538.519Z" fill="#263238"/>
<path d="M543.559 376.96C543.559 376.96 539.659 382.5 537.459 386.04C536.859 387 537.239 388.34 538.319 388.72C540.279 389.38 542.419 388.98 542.419 388.98L543.579 376.96H543.559Z" fill="#D58745"/>
<path d="M558.099 370.78C557.859 370.86 557.579 370.82 557.359 370.64C554.859 368.5 552.239 369.22 552.219 369.22C551.819 369.34 551.419 369.1 551.299 368.72C551.179 368.34 551.419 367.92 551.799 367.82C551.939 367.78 555.219 366.88 558.319 369.54C558.619 369.8 558.659 370.26 558.399 370.58C558.319 370.68 558.199 370.74 558.099 370.78Z" fill="#263238"/>
<path d="M547.319 394.199C549.859 394.339 551.899 393.159 553.959 391.359" stroke="#263238" stroke-width="0.75" stroke-linecap="round" stroke-linejoin="round"/>
<path d="M585.039 382.42C583.519 386.62 580.199 389.7 576.839 391.18C571.779 393.4 570.199 387.92 570.899 382.74C571.539 378.06 573.159 372.42 578.579 372.38C583.899 372.34 586.779 377.62 585.039 382.42Z" fill="#EBB376"/>
<path opacity="0.2" d="M581.46 377.68C580.84 376.66 579.5 376.24 578.32 376.46C577.14 376.7 576.16 377.48 575.4 378.4C574.5 379.52 573.9 380.86 573.68 382.28" stroke="black" stroke-width="0.5" stroke-linecap="round" stroke-linejoin="round"/>
<path d="M532.019 370.66C531.879 370.62 531.759 370.54 531.659 370.44C531.379 370.14 531.419 369.66 531.719 369.4C534.739 366.68 537.999 367.58 538.159 367.6C538.559 367.7 538.779 368.12 538.679 368.5C538.579 368.9 538.179 369.12 537.779 369.02C537.639 368.98 535.119 368.32 532.699 370.5C532.519 370.68 532.259 370.72 532.019 370.66Z" fill="#263238"/>
<path d="M567.919 378.899C565.639 386.319 568.959 393.899 575.319 395.859C581.679 397.819 588.679 393.379 590.959 385.959C593.239 378.539 589.919 370.959 583.559 368.999C577.199 367.039 570.199 371.479 567.919 378.899Z" fill="#407BFF"/>
<path opacity="0.7" d="M567.919 378.899C565.639 386.319 568.959 393.899 575.319 395.859C581.679 397.819 588.679 393.379 590.959 385.959C593.239 378.539 589.919 370.959 583.559 368.999C577.199 367.039 570.199 371.479 567.919 378.899Z" fill="white"/>
<path d="M572.039 380.159C570.339 385.699 572.819 391.359 577.559 392.819C582.299 394.279 587.539 390.979 589.219 385.439C590.899 379.899 588.439 374.239 583.699 372.779C578.959 371.319 573.719 374.619 572.039 380.159Z" fill="#1F042F"/>
<path d="M553 337.78C553 335.92 559.5 335.24 560.46 335.64C560.46 335.64 589.34 338.86 584.62 379.76L578.58 379.88C578.58 379.88 586.439 342.6 552.979 337.78H553Z" fill="#1F042F"/>
<path d="M413.26 541.44C413.92 540.34 439.58 508.98 448.88 499.24C458.18 489.5 483.54 462.26 483.54 462.26L502.58 481.86L468.86 514.06L426.22 548.7L413.28 541.46L413.26 541.44Z" fill="#EBB373"/>
<path d="M435.259 558.579C433.739 557.559 434.239 554.919 432.519 551.959C430.799 548.999 426.619 547.279 426.619 547.279C426.619 547.279 425.879 545.739 425.999 545.619C426.099 545.519 413.279 541.439 413.279 541.439C413.279 541.439 406.679 544.819 405.959 545.339C402.419 548.019 391.819 557.359 390.479 559.699L390.439 559.759C389.599 561.279 390.919 563.099 392.639 562.819L393.279 562.619C393.959 564.819 397.619 563.199 397.619 563.199C401.999 565.439 403.899 562.559 403.899 562.559C403.899 562.559 404.319 564.159 407.499 563.959C409.119 563.859 416.959 556.759 417.279 556.559C417.579 556.359 423.959 555.199 423.959 555.199C427.619 559.059 432.559 561.419 434.679 560.999C436.819 560.599 436.819 559.579 435.299 558.559L435.259 558.579Z" fill="#EBB373"/>
<g opacity="0.3">
<path d="M405.879 554.479C402.419 557.499 400.939 559.659 397.819 563.159C397.819 563.159 398.619 560.999 400.679 558.699C403.139 555.959 405.879 554.499 405.879 554.499V554.479Z" fill="black"/>
</g>
<g opacity="0.3">
<path d="M411.82 554.14C408.36 557.16 406.88 559.32 403.76 562.82C403.76 562.82 404.56 560.66 406.62 558.36C409.08 555.62 411.82 554.16 411.82 554.16V554.14Z" fill="black"/>
</g>
<g opacity="0.3">
<path d="M401.64 553.24C398.72 556.38 396.4 559.16 393.26 562.66C393.26 562.66 395.42 559.22 397.14 557.14C398.86 555.06 401.64 553.24 401.64 553.24Z" fill="black"/>
</g>
<path opacity="0.3" d="M430.779 544.96L423.399 545.6L427.439 547.68L430.779 544.96Z" fill="black"/>
<path d="M542.119 423.5C542.479 423.5 550.259 421.94 550.259 421.94L573.679 422.8C573.679 422.8 585.779 423.1 585.539 423.44C585.299 423.8 573.219 448.76 573.219 448.76L559.779 446.78C559.779 446.78 544.879 442.38 545.599 442.12C546.319 441.86 542.119 423.52 542.119 423.52V423.5Z" fill="#EBB373"/>
<path d="M594.739 433.94L614.039 416.9L636.799 400.96L627.939 349L640.019 342.46C640.019 342.46 667.179 402.06 661.079 412.66C654.979 423.26 610.659 459.82 610.659 459.82L594.739 433.9V433.94Z" fill="#EBB373"/>
<path d="M638.719 330.54C636.799 327.22 634.179 322.92 632.319 322.7C630.479 322.48 630.139 323.96 628.999 324.12C627.859 324.28 626.259 323.14 624.519 325.76C624.519 325.76 620.259 324.62 619.419 327.64C616.599 328.26 616.039 330.04 616.899 333.02C617.139 333.72 619.379 337.54 619.559 338.28C619.259 338.16 616.079 334.16 615.659 334.08C612.179 333.42 610.559 334.1 610.719 335.68C610.799 336.5 611.379 337.16 612.139 337.48C613.999 338.22 615.459 345.2 617.619 346.14C619.439 346.94 625.699 349.24 628.199 349.56C630.719 349.9 640.319 345.98 640.319 345.98C640.319 345.98 640.619 333.84 638.679 330.52L638.719 330.54Z" fill="#EBB373"/>
<path d="M620.02 329.2C621.24 332.16 622.66 335.54 625.02 338.02C625.56 338.6 626.219 339.1 626.979 339.3C627.739 339.48 628.66 339.24 629.08 338.58C629.44 338.02 629.4 337.3 629.26 336.64C629 335.42 628.48 334.28 627.96 333.16C627.1 331.3 626.26 329.44 625.4 327.56" stroke="#D58745" stroke-width="0.5" stroke-linecap="round" stroke-linejoin="round"/>
<path d="M629.339 336.26C630.339 336.6 631.879 335.9 632.279 334.92C632.679 333.94 632.539 332.84 632.339 331.8C631.959 330 631.359 328.26 630.559 326.6" stroke="#D58745" stroke-width="0.5" stroke-linecap="round" stroke-linejoin="round"/>
<path d="M632.539 333.86C633.079 334.22 634.239 334.46 634.779 334.1C635.319 333.74 635.679 333.16 635.919 332.56C636.479 331.14 636.459 329.5 635.859 328.08" stroke="#D58745" stroke-width="0.5" stroke-linecap="round" stroke-linejoin="round"/>
<path d="M620.14 339.44C624.16 338.64 628.56 340.44 630.88 343.8" stroke="#D58745" stroke-width="0.5" stroke-linecap="round" stroke-linejoin="round"/>
<path opacity="0.3" d="M636.799 400.98C636.799 400.98 641.739 403.54 644.999 405.84C644.999 405.84 640.699 398.66 636.399 398.66L636.799 400.96V400.98Z" fill="black"/>
<path d="M577.86 422.54L603.08 420.04L623.7 409.7L639.4 446.84L607.86 466.14L608.1 576.74H507.06L510.4 485.8L496.92 499.98L470.56 470.5C470.56 470.5 504.4 430.96 512.28 428.52L542.94 422.82C542.94 422.82 547.32 434.62 561.78 433.4C573.04 432.46 577.86 422.52 577.86 422.52V422.54Z" fill="black"/>
<g opacity="0.3">
<path d="M510.319 486.661C510.319 486.661 511.399 464.641 510.319 453.641C510.319 453.641 502.739 470.541 510.319 486.661Z" fill="#3A527C"/>
</g>
<path opacity="0.3" d="M607.859 466.141V442.061C607.859 442.061 614.859 455.041 607.859 466.141Z" fill="#94AAD3"/>
<path d="M919.039 846.261H158.119V874.061H919.039V846.261Z" fill="#263238"/>
<path opacity="0.3" d="M919.039 846.261H158.119V874.061H919.039V846.261Z" fill="#263238"/>
<path d="M712.239 560.98H580.279V577.62H712.239V560.98Z" fill="#263238"/>
<path opacity="0.2" d="M712.239 560.98H580.279V577.62H712.239V560.98Z" fill="white"/>
<path d="M498.399 560.98H366.439V577.62H498.399V560.98Z" fill="#263238"/>
<path opacity="0.2" d="M498.399 560.98H366.439V577.62H498.399V560.98Z" fill="white"/>
<path d="M889.879 611.381H727.939V848.281H889.879V611.381Z" fill="#263238"/>
<path opacity="0.3" d="M755.68 611.381H734.56V848.281H755.68V611.381Z" fill="black"/>
<path opacity="0.3" d="M852.075 676.991C854.534 660.885 843.471 645.836 827.365 643.377C811.259 640.918 796.21 651.981 793.751 668.087C791.292 684.193 802.355 699.242 818.461 701.701C834.567 704.16 849.616 693.097 852.075 676.991Z" fill="black"/>
<path opacity="0.3" d="M822.939 709.741C843.55 709.741 860.259 693.032 860.259 672.421C860.259 651.809 843.55 635.101 822.939 635.101C802.328 635.101 785.619 651.809 785.619 672.421C785.619 693.032 802.328 709.741 822.939 709.741Z" stroke="black" stroke-miterlimit="10"/>
<path d="M834.519 672.58C834.519 678.98 829.319 684.18 822.919 684.18C816.519 684.18 811.319 678.98 811.319 672.58C811.319 666.18 816.519 660.98 822.919 660.98C829.319 660.98 834.519 666.18 834.519 672.58Z" fill="#FFF800"/>
<path opacity="0.3" d="M854.172 813.409C871.425 796.156 871.425 768.182 854.172 750.929C836.919 733.676 808.945 733.676 791.692 750.929C774.439 768.182 774.439 796.156 791.692 813.409C808.945 830.662 836.919 830.662 854.172 813.409Z" fill="black"/>
<path opacity="0.3" d="M877.308 794.982C884.486 764.966 865.973 734.815 835.958 727.637C805.942 720.458 775.791 738.971 768.613 768.987C761.434 799.002 779.947 829.153 809.963 836.331C839.978 843.51 870.129 824.997 877.308 794.982Z" stroke="black" stroke-miterlimit="10"/>
<path d="M835.208 794.444C841.987 787.665 841.987 776.673 835.208 769.894C828.428 763.114 817.437 763.114 810.657 769.894C803.878 776.673 803.878 787.665 810.657 794.444C817.437 801.224 828.428 801.224 835.208 794.444Z" fill="#FFF800"/>
<path d="M186.099 848.281H348.039L348.039 611.381H186.099L186.099 848.281Z" fill="#263238"/>
<path opacity="0.3" d="M320.319 848.281H341.439L341.439 611.381H320.319V848.281Z" fill="black"/>
<path opacity="0.3" d="M257.823 701.7C273.898 699.047 284.779 683.866 282.126 667.791C279.473 651.716 264.292 640.835 248.217 643.487C232.142 646.14 221.261 661.321 223.913 677.396C226.566 693.471 241.747 704.353 257.823 701.7Z" fill="black"/>
<path opacity="0.3" d="M253.06 709.741C273.671 709.741 290.38 693.032 290.38 672.421C290.38 651.809 273.671 635.101 253.06 635.101C232.449 635.101 215.74 651.809 215.74 672.421C215.74 693.032 232.449 709.741 253.06 709.741Z" stroke="black" stroke-miterlimit="10"/>
<path d="M241.459 672.58C241.459 678.98 246.659 684.18 253.059 684.18C259.459 684.18 264.659 678.98 264.659 672.58C264.659 666.18 259.459 660.98 253.059 660.98C246.659 660.98 241.459 666.18 241.459 672.58Z" fill="#FFF800"/>
<path opacity="0.3" d="M293.695 799.541C303.284 777.104 292.868 751.143 270.431 741.554C247.994 731.965 222.033 742.381 212.444 764.818C202.855 787.255 213.271 813.217 235.708 822.805C258.145 832.394 284.106 821.978 293.695 799.541Z" fill="black"/>
<path opacity="0.3" d="M304.918 802.747C316.394 774.098 302.473 741.571 273.824 730.095C245.175 718.619 212.648 732.54 201.172 761.189C189.696 789.837 203.617 822.365 232.265 833.841C260.914 845.317 293.442 831.396 304.918 802.747Z" stroke="black" stroke-miterlimit="10"/>
<path d="M269.036 788.977C272.78 780.151 268.661 769.96 259.835 766.215C251.009 762.471 240.818 766.59 237.073 775.416C233.329 784.242 237.448 794.433 246.274 798.178C255.1 801.922 265.291 797.803 269.036 788.977Z" fill="#FFDF43"/>
<path d="M740.319 574.58H338.219V846.26H740.319V574.58Z" fill="#263238"/>
<path opacity="0.2" d="M720.819 595.061H363.719V835.181H720.819V595.061Z" fill="white"/>
<path d="M523.079 564.66H505.839V576.22H523.079V564.66Z" fill="#263238"/>
<path d="M534.88 566.961H526.06V576.221H534.88V566.961Z" fill="#263238"/>
<path d="M548.799 566.961H539.979V576.221H548.799V566.961Z" fill="#263238"/>
<path opacity="0.2" d="M423.059 814.701H374.799V825.801H423.059V814.701Z" fill="white"/>
<path opacity="0.2" d="M423.059 797.721H374.799V808.821H423.059V797.721Z" fill="white"/>
<path opacity="0.2" d="M423.059 780.761H374.799V791.861H423.059V780.761Z" fill="white"/>
<path opacity="0.2" d="M423.059 763.781H374.799V774.881H423.059V763.781Z" fill="white"/>
<path opacity="0.2" d="M423.059 729.821H374.799V740.921H423.059V729.821Z" fill="white"/>
<path opacity="0.2" d="M423.059 712.861H374.799V723.961H423.059V712.861Z" fill="white"/>
<path opacity="0.2" d="M423.059 695.881H374.799V706.981H423.059V695.881Z" fill="white"/>
<path opacity="0.2" d="M423.059 746.801H374.799V757.901H423.059V746.801Z" fill="white"/>
<path opacity="0.2" d="M481.419 814.7H433.159V825.8H481.419V814.7Z" fill="white"/>
<path opacity="0.2" d="M481.419 797.721H433.159V808.821H481.419V797.721Z" fill="white"/>
<path opacity="0.2" d="M481.419 780.761H433.159V791.861H481.419V780.761Z" fill="white"/>
<path opacity="0.2" d="M481.419 763.78H433.159V774.88H481.419V763.78Z" fill="white"/>
<path opacity="0.2" d="M481.419 746.801H433.159V757.901H481.419V746.801Z" fill="white"/>
<path opacity="0.2" d="M481.419 729.82H433.159V740.92H481.419V729.82Z" fill="white"/>
<path opacity="0.2" d="M481.419 712.86H433.159V723.96H481.419V712.86Z" fill="white"/>
<path opacity="0.2" d="M481.419 695.881H433.159V706.981H481.419V695.881Z" fill="white"/>
<path opacity="0.2" d="M481.419 678.101H433.159V689.201H481.419V678.101Z" fill="white"/>
<path opacity="0.2" d="M481.419 660.301H433.159V671.401H481.419V660.301Z" fill="white"/>
<path opacity="0.2" d="M481.419 642.521H433.159V653.621H481.419V642.521Z" fill="white"/>
<path opacity="0.2" d="M539.239 814.7H490.979V825.8H539.239V814.7Z" fill="white"/>
<path opacity="0.2" d="M539.239 797.721H490.979V808.821H539.239V797.721Z" fill="white"/>
<path opacity="0.2" d="M539.239 780.761H490.979V791.861H539.239V780.761Z" fill="white"/>
<path opacity="0.2" d="M539.239 763.78H490.979V774.88H539.239V763.78Z" fill="white"/>
<path opacity="0.2" d="M539.239 746.801H490.979V757.901H539.239V746.801Z" fill="white"/>
<path opacity="0.2" d="M539.239 729.82H490.979V740.92H539.239V729.82Z" fill="white"/>
<path opacity="0.2" d="M539.239 712.86H490.979V723.96H539.239V712.86Z" fill="white"/>
<path opacity="0.2" d="M654.439 814.7H606.179V825.8H654.439V814.7Z" fill="white"/>
<path opacity="0.2" d="M654.439 797.721H606.179V808.821H654.439V797.721Z" fill="white"/>
<path opacity="0.2" d="M654.439 780.761H606.179V791.861H654.439V780.761Z" fill="white"/>
<path opacity="0.2" d="M654.439 763.78H606.179V774.88H654.439V763.78Z" fill="white"/>
<path opacity="0.2" d="M654.439 746.801H606.179V757.901H654.439V746.801Z" fill="white"/>
<path opacity="0.2" d="M654.439 729.82H606.179V740.92H654.439V729.82Z" fill="white"/>
<path opacity="0.2" d="M654.439 712.86H606.179V723.96H654.439V712.86Z" fill="white"/>
<path opacity="0.2" d="M596.199 814.7H547.939V825.8H596.199V814.7Z" fill="white"/>
<path opacity="0.2" d="M596.199 797.721H547.939V808.821H596.199V797.721Z" fill="white"/>
<path opacity="0.2" d="M596.199 780.761H547.939V791.861H596.199V780.761Z" fill="white"/>
<path opacity="0.2" d="M596.199 763.78H547.939V774.88H596.199V763.78Z" fill="white"/>
<path opacity="0.2" d="M712.039 814.7H663.779V825.8H712.039V814.7Z" fill="white"/>
<path opacity="0.2" d="M712.039 797.721H663.779V808.821H712.039V797.721Z" fill="white"/>
<path opacity="0.2" d="M712.039 780.761H663.779V791.861H712.039V780.761Z" fill="white"/>
<path opacity="0.2" d="M712.039 763.78H663.779V774.88H712.039V763.78Z" fill="white"/>
<path opacity="0.2" d="M807.319 615.921C807.319 615.921 817.499 624.601 827.919 621.881C827.919 621.881 817.239 632.061 807.319 615.921Z" fill="black"/>
<path d="M699.1 616.34C722.14 621.8 731.8 612.04 738.88 603.58L737.32 607.62C737.32 607.62 748.82 602.26 747.66 590.24C746.5 578.22 747.8 579.86 752.06 573.78C756.32 567.7 752.56 558.56 747.12 557.42C747.12 557.42 754.48 550.72 732.14 539.14C709.8 527.56 685.74 538.8 684.74 551.64C683.72 564.48 667.56 569.48 661.48 561.56C655.4 553.64 650.56 557.64 650.56 557.64C653.84 556.92 657.2 558.44 658.8 561.4C660.5 564.26 663 566.52 666.02 567.92C661.6 567.62 657.36 566.1 653.78 563.5C647.54 559.1 639.96 552.14 647.98 545.38C647.98 545.38 638.38 542.68 633.38 554.42C628.38 566.16 634.8 576.94 646.66 585.66C646.66 585.66 628.58 576.58 630.18 568.6C630.18 568.6 622.68 579.76 642.8 596.82C642.8 596.82 664 615.9 682.88 617.06C701.76 618.22 699.1 616.36 699.1 616.36V616.34Z" fill="#263238"/>
<path d="M730.78 618.54C730.78 618.54 724.38 621.54 715.66 627.44C713.84 628.68 711.88 629.7 709.84 630.5C704.32 632.66 699.42 633.7 698.42 631.04C698.2 630.46 698.04 629.84 697.96 629.2C697.36 624.88 698.48 619.04 702.18 616.74C706.36 614.14 708.5 611.74 708.28 607.56C708.18 605.18 707.62 602.68 706.9 600.22L710.32 597.06L727.88 583C726.26 593.56 723.16 611.86 730.78 618.58V618.54Z" fill="#EEC1BB"/>
<path opacity="0.2" d="M708.3 608.46C712.92 606.4 718.181 602.48 718.201 597.32C718.201 595.14 717.96 593.06 717.6 591.7L707.48 602.32C707.98 604.28 708.1 605.54 708.3 608.44V608.46Z" fill="black"/>
<path d="M734.28 566.46C730.94 582.46 729.86 589.28 720.54 596.78C706.52 608.08 687.72 601.56 686.24 585.16C684.92 570.4 690.6 546.72 707.26 541.76C723.66 536.88 737.62 550.46 734.28 566.46Z" fill="#EEC1BB"/>
<path d="M713.56 569.221C713.3 570.721 712.22 571.861 711.16 571.761C710.1 571.661 709.44 570.361 709.7 568.861C709.96 567.361 711.04 566.221 712.1 566.321C713.16 566.421 713.82 567.721 713.56 569.221Z" fill="#263238"/>
<path d="M696.84 567.06C696.58 568.52 695.52 569.62 694.46 569.52C693.4 569.42 692.74 568.16 693 566.7C693.26 565.24 694.32 564.14 695.38 564.24C696.44 564.34 697.1 565.6 696.84 567.06Z" fill="#263238"/>
<path d="M716.8 563.74C716.6 563.74 716.38 563.66 716.24 563.48C714.02 560.88 711.12 561.38 711.08 561.38C710.66 561.46 710.26 561.16 710.22 560.74C710.18 560.3 710.48 559.9 710.92 559.82C711.08 559.8 714.7 559.18 717.46 562.4C717.74 562.72 717.68 563.22 717.34 563.52C717.18 563.66 716.98 563.74 716.78 563.74H716.8Z" fill="#263238"/>
<path d="M692.4 560.101C692.2 560.121 692 560.081 691.84 559.941C691.5 559.681 691.48 559.181 691.76 558.821C694.62 555.281 698.24 555.461 698.4 555.461C698.84 555.481 699.14 555.861 699.08 556.301C699.02 556.741 698.62 557.081 698.2 557.041C698.06 557.041 695.24 556.941 692.96 559.761C692.82 559.941 692.6 560.061 692.4 560.081V560.101Z" fill="#263238"/>
<path d="M699.101 583.32C700.181 585.5 701.321 589.6 701.321 589.6C701.721 589.56 702.101 589.52 702.481 589.48C707.761 588.86 710.021 586.84 710.901 584.78C711.381 583.64 711.441 582.5 711.381 581.56C711.301 580.48 711.021 579.74 711.021 579.74C708.421 581.74 703.521 582.68 700.901 583.08C699.801 583.26 699.101 583.32 699.101 583.32Z" fill="#263238"/>
<path d="M700.9 583.08L701.6 584.92C706.58 584.34 710 583.26 711.38 581.56C711.3 580.48 711.02 579.74 711.02 579.74C708.42 581.74 703.52 582.68 700.9 583.08Z" fill="white"/>
<path d="M702.48 589.48C707.76 588.86 710.02 586.84 710.9 584.78C709.1 585.06 706.98 585.6 705.16 586.62C703.78 587.4 702.96 588.46 702.46 589.48H702.48Z" fill="#DC5753"/>
<path d="M701.24 567.12C701.24 567.12 698.02 572.88 694.72 576.32C694.14 576.92 694.34 577.92 695.08 578.3C697 579.26 699.4 578.86 699.4 578.86L701.22 567.12H701.24Z" fill="#D4827D"/>
<path d="M712.44 566.321L708.84 565.021C708.84 565.021 710.54 568.021 712.44 566.321Z" fill="#263238"/>
<path d="M695.76 564.321L692.16 563.021C692.16 563.021 693.86 566.021 695.76 564.321Z" fill="#263238"/>
<path d="M688.239 558.7C703.699 558.76 720.459 545.88 724.039 546.78C720.439 548.1 721.079 554.32 721.919 556.32C727.419 569.16 722.079 576.66 730.659 579.28C747.519 584.42 739.539 551.1 729.059 545.54C728.239 545.1 729.059 545.54 728.179 545.24C729.619 529.26 699.939 538.42 693.039 544.48" fill="#263238"/>
<path d="M737.659 580.18C735.359 583.28 732.019 585 729.099 585.38C724.699 585.96 723.279 578.82 725.239 574.7C726.999 571 731.499 568.92 735.559 570.24C739.559 571.54 740.279 576.62 737.659 580.16V580.18Z" fill="#EEC1BB"/>
<path opacity="0.2" d="M728.1 578.6C728.42 577.1 729.28 575.7 730.52 574.78C731.76 573.86 733.32 573.4 734.86 573.52" stroke="black" stroke-width="0.5" stroke-linecap="round" stroke-linejoin="round"/>
<path d="M630.52 530.78L633.96 588.66L683.98 622.42L671.2 650.96C671.2 650.96 635.32 621.86 619.74 605.12C604.16 588.38 616.94 527.18 616.94 527.18L630.52 530.76V530.78Z" fill="#EEC1BB"/>
<path d="M628.76 534.34C628.76 534.34 634.62 534.2 637.94 530.66C641.26 527.12 644.84 525.16 647.12 522.36C649.4 519.56 644.6 520.4 642.14 521.38C639.68 522.36 636.88 523.42 636.44 521.46C636 519.5 641.22 502.96 640.3 500.3C639.4 497.64 637.72 500.04 637.72 500.04C637.72 500.04 638.88 496 637.4 495.1C637.02 494.86 635.74 494.94 634.92 496.72C633.08 500.68 629.66 509.2 629.66 509.2C629.86 508.72 633.34 497.9 633.66 496.2C634.06 494 633.12 492.74 631.84 492.56C630 492.28 625.24 505.56 624.64 505.98C624.64 505.98 627.64 498.44 626.12 496.6C624.6 494.76 622.44 499.4 621.34 503.86C620.32 507.94 617.24 515.7 616.6 519.94C615.82 525.18 616.46 528.88 620.64 531.58C624.82 534.28 628.76 534.34 628.76 534.34Z" fill="#EEC1BB"/>
<path opacity="0.3" d="M637.659 500.62C636.659 503.84 635.499 507.02 634.199 510.14" stroke="black" stroke-width="0.25" stroke-linecap="round" stroke-linejoin="round"/>
<path opacity="0.3" d="M623.38 508.88C627.74 509.04 632.04 510.52 635.58 513.08" stroke="black" stroke-width="0.25" stroke-linecap="round" stroke-linejoin="round"/>
<path opacity="0.3" d="M634.379 522.16C632.619 521.88 630.779 522.24 629.259 523.16C627.739 524.08 626.539 525.52 625.939 527.2" stroke="black" stroke-width="0.25" stroke-linecap="round" stroke-linejoin="round"/>
<g opacity="0.4">
<path d="M744.24 664.859L753.06 624.679C746.08 619.099 719.92 617.779 719.92 617.779L679.34 619.019L674.28 636.359C674.28 636.359 666.68 652.519 665.06 664.979C664.22 671.419 668.34 697.839 666.8 710.299L665.38 724.179C704.78 753.059 745.04 750.659 745.04 750.659C743.16 745.419 733.18 728.739 732.24 723.579C732.62 716.959 732.08 711.599 735.64 697.719C738.46 686.719 744.22 666.319 744.2 664.839L744.24 664.859Z" fill="#070707"/>
</g>
<path d="M687.2 618.72C687.2 618.72 681.28 645.64 693.58 651.08C705.9 656.52 717.16 646.88 724.96 639.88C732.76 632.88 739.539 620 739.539 620L722.02 617.14L687.2 618.74V618.72Z" fill="#EEC1BB"/>
<path d="M660.84 760.58C660.84 760.58 608.04 878.4 617.06 891.7C645.06 940.26 687.98 1000.32 694.68 1015.38C696.32 1017.62 704.84 1013.04 706.14 1010.24C706.14 1010.24 706.14 1003.54 703.08 992.82C682.44 920.62 693.36 929.34 659.3 881.5C688.24 841.2 709.54 779.7 709.54 779.7L660.86 760.58H660.84Z" fill="#EEC1BB"/>
<path d="M677.8 728C677.8 728 704.38 830.58 714.9 881.02C725.94 933.9 740.52 1022.84 737.44 1057.98C740.4 1059.74 745.88 1059.98 751.88 1058.08C751.88 1058.08 775.58 939.98 751.72 883.34C762.2 758.04 748.58 760.58 748.58 760.58L677.8 728Z" fill="#EEC1BB"/>
<path d="M750.08 757.24C746.9 747.98 737.48 732.84 732.28 724.54L665.1 724.2L659.2 752.28L658.58 757.44L640.58 803.52L692.32 825.88L694.4 820.56L698.38 811.76L701.56 826.36L758.6 815.46C758.7 793.3 757.14 778.28 750.06 757.28L750.08 757.24Z" fill="#407BFF"/>
<path d="M750.08 757.24C746.9 747.98 737.48 732.84 732.28 724.54L665.1 724.2L659.2 752.28L658.58 757.44L640.58 803.52L692.32 825.88L694.4 820.56L698.38 811.76L701.56 826.36L758.6 815.46C758.7 793.3 757.14 778.28 750.06 757.28L750.08 757.24Z" fill="#1F042F"/>
<path d="M688.74 730.561C689.76 730.561 690.58 731.381 690.58 732.401C690.58 733.421 689.76 734.241 688.74 734.241C687.72 734.241 686.9 733.421 686.9 732.401C686.9 731.381 687.72 730.561 688.74 730.561Z" fill="black"/>
<path opacity="0.2" d="M698.38 811.72L686.92 772.86L694.4 820.54L698.38 811.72Z" fill="black"/>
<path d="M689.46 1011.18L694.34 1008.88C695.44 1008.36 696.72 1008.44 697.8 1009.02C702.42 1011.54 703.86 1009.1 705.22 1004.04C707.06 1002.9 708.64 1004.88 709.08 1005.42L718.96 1016.98C719.8 1017.94 719.7 1019.4 718.74 1020.24C718.56 1020.38 718.38 1020.52 718.18 1020.6C712.26 1023.38 709.44 1024.7 702.08 1028.16L679.52 1038.76C673.36 1041.64 669.18 1036.06 671.44 1034.28C681.64 1026.42 688.14 1019.26 690.1 1014.3C690.48 1013.42 689.6 1013.3 689.48 1011.16L689.46 1011.18Z" fill="#263238"/>
<path d="M684.3 1019.12C685.82 1018.36 687.26 1017.44 688.6 1016.38C688.72 1016.26 688.72 1016.08 688.6 1015.96C688.54 1015.9 688.44 1015.86 688.36 1015.88C687.52 1015.88 680.08 1015.88 679.06 1017.68C678.86 1018 678.86 1018.4 679.06 1018.72C679.36 1019.34 679.94 1019.8 680.64 1019.92C681.92 1020.04 683.2 1019.76 684.3 1019.12ZM687.46 1016.46C685.82 1017.64 682.68 1019.66 680.8 1019.28C680.3 1019.16 679.88 1018.84 679.64 1018.4C679.54 1018.28 679.54 1018.1 679.64 1017.96C680.2 1016.98 684.4 1016.54 687.46 1016.46Z" fill="#1F042F"/>
<path d="M688.54 1016.42C688.54 1016.42 688.68 1016.38 688.74 1016.34C688.78 1016.24 688.76 1016.1 688.68 1016.02C688.56 1015.76 684.3 1010.44 681.14 1012.38C680.36 1012.88 680.32 1013.4 680.44 1013.74C680.98 1015.44 686.24 1016.64 688.42 1016.54L688.54 1016.42ZM681.7 1012.7C683.82 1011.7 686.7 1014.64 687.76 1015.84C685.28 1015.72 681.32 1014.54 681.02 1013.48C680.98 1013.4 680.88 1013.18 681.46 1012.82L681.68 1012.7H681.7Z" fill="#1F042F"/>
<path d="M687.84 1016.54C689.62 1015.98 691.66 1016.26 693.24 1017.26" stroke="#1F042F" stroke-width="0.5" stroke-linecap="round" stroke-linejoin="round"/>
<path d="M685.88 1020.24C687.66 1019.68 689.7 1019.96 691.28 1020.96" stroke="#1F042F" stroke-width="0.5" stroke-linecap="round" stroke-linejoin="round"/>
<path d="M683 1023.94C684.78 1023.38 686.82 1023.66 688.4 1024.66" stroke="#1F042F" stroke-width="0.5" stroke-linecap="round" stroke-linejoin="round"/>
<path d="M735.44 1051.5H740.84C742.06 1051.5 743.18 1052.12 743.92 1053.1C747.02 1057.34 749.36 1055.74 752.74 1051.74C754.9 1051.48 755.46 1053.96 755.64 1054.62L759.68 1069.28C760.02 1070.5 759.32 1071.78 758.1 1072.14C757.88 1072.2 757.66 1072.24 757.42 1072.22H714.7C707.9 1072.22 706.5 1065.38 709.3 1064.74C721.88 1061.96 730.8 1058.26 734.7 1054.6C735.42 1053.96 734.7 1053.48 735.46 1051.5H735.44Z" fill="#263238"/>
<path d="M727.4 1056.5C729.1 1056.46 730.8 1056.24 732.46 1055.84C732.62 1055.78 732.7 1055.62 732.64 1055.46C732.6 1055.38 732.54 1055.3 732.46 1055.28C731.7 1054.92 724.96 1051.76 723.28 1052.96C722.96 1053.16 722.8 1053.54 722.84 1053.92C722.84 1054.62 723.18 1055.28 723.76 1055.68C724.86 1056.34 726.14 1056.62 727.42 1056.5H727.4ZM731.4 1055.44C729.42 1055.8 725.72 1056.3 724.18 1055.16C723.78 1054.84 723.54 1054.38 723.52 1053.88C723.48 1053.72 723.56 1053.56 723.7 1053.48C724.64 1052.82 728.62 1054.22 731.42 1055.46L731.4 1055.44Z" fill="#7421A5"/>
<path d="M732.38 1055.88C732.38 1055.88 732.52 1055.9 732.6 1055.88C732.68 1055.8 732.72 1055.68 732.68 1055.56C732.68 1055.28 731.1 1048.64 727.4 1049.06C726.48 1049.18 726.22 1049.62 726.18 1050C725.96 1051.76 730.2 1055.08 732.22 1055.94L732.38 1055.88ZM727.76 1049.6C730.1 1049.6 731.46 1053.48 731.92 1055.02C729.72 1053.86 726.64 1051.1 726.84 1050.02C726.84 1049.94 726.84 1049.68 727.52 1049.62H727.76V1049.6Z" fill="#7421A5"/>
<path d="M731.7 1055.68C733.56 1055.94 735.28 1057.04 736.28 1058.64Z" fill="#7421A5"/>
<path d="M731.7 1055.68C733.56 1055.94 735.28 1057.04 736.28 1058.64" stroke="#1F042F" stroke-width="0.5" stroke-linecap="round" stroke-linejoin="round"/>
<path d="M728.34 1058.2C730.2 1058.46 731.92 1059.56 732.92 1061.14Z" fill="#7421A5"/>
<path d="M728.34 1058.2C730.2 1058.46 731.92 1059.56 732.92 1061.14" stroke="#1F042F" stroke-width="0.5" stroke-linecap="round" stroke-linejoin="round"/>
<path d="M724.18 1060.32C726.04 1060.58 727.76 1061.68 728.76 1063.26Z" fill="#7421A5"/>
<path d="M724.18 1060.32C726.04 1060.58 727.76 1061.68 728.76 1063.26" stroke="#1F042F" stroke-width="0.5" stroke-linecap="round" stroke-linejoin="round"/>
<path d="M798.44 559.46L786.2 566.32L793.54 607.92L743.14 620.64L747.3 649.68C747.3 649.68 791.02 637.5 812.28 626.62C830.72 617.18 798.44 559.46 798.44 559.46Z" fill="#EEC1BB"/>
<path d="M787.56 566.28C787.56 566.28 781.7 566 778.48 562.38C775.26 558.76 771.72 556.72 769.5 553.86C767.28 551 772.08 551.96 774.52 553C776.96 554.04 779.74 555.18 780.22 553.22C780.7 551.26 775.88 534.62 776.86 531.98C777.84 529.34 779.46 531.8 779.46 531.8C779.46 531.8 778.4 527.72 779.9 526.86C780.28 526.64 781.56 526.74 782.34 528.54C784.08 532.54 787.3 541.14 787.3 541.14C787.1 540.66 783.88 529.76 783.62 528.06C783.26 525.84 784.24 524.62 785.52 524.46C787.36 524.22 791.8 537.6 792.4 538.04C792.4 538.04 789.58 530.42 791.14 528.62C792.7 526.82 794.74 531.52 795.76 536C796.68 540.1 799.58 547.92 800.12 552.2C800.78 557.46 800.04 561.14 795.8 563.74C791.56 566.34 787.6 566.3 787.6 566.3L787.56 566.28Z" fill="#EEC1BB"/>
<path opacity="0.3" d="M779.46 532.36C780.4 535.6 781.48 538.8 782.7 541.96" stroke="black" stroke-width="0.25" stroke-linecap="round" stroke-linejoin="round"/>
<path opacity="0.3" d="M793.54 540.94C789.18 541 784.84 542.38 781.24 544.84" stroke="black" stroke-width="0.25" stroke-linecap="round" stroke-linejoin="round"/>
<path opacity="0.3" d="M782.24 553.98C784 553.74 785.84 554.16 787.34 555.1C788.84 556.04 790 557.52 790.56 559.22" stroke="black" stroke-width="0.25" stroke-linecap="round" stroke-linejoin="round"/>
<path d="M310.72 704.92C307.5 738.24 296.78 770.82 279.62 799.58C276.62 804.6 273.38 809.64 272.3 815.38C271.22 821.12 272.9 827.84 277.9 830.86C281.94 833.3 287 832.82 291.72 833.24C305.8 834.48 317.48 844.06 329.88 850.8C349.72 861.58 373.22 865.46 395.48 861.64C400.74 860.74 406.24 859.24 409.9 855.38C414.46 850.58 415.14 843.38 415.56 836.78C418.26 794.66 420.98 752.54 423.68 710.42L310.7 704.94L310.72 704.92Z" fill="#407BFF"/>
<g opacity="0.3">
<path d="M310.72 704.92C307.5 738.24 296.78 770.82 279.62 799.58C276.62 804.6 273.38 809.64 272.3 815.38C271.22 821.12 272.9 827.84 277.9 830.86C281.94 833.3 287 832.82 291.72 833.24C305.8 834.48 317.48 844.06 329.88 850.8C349.72 861.58 373.22 865.46 395.48 861.64C400.74 860.74 406.24 859.24 409.9 855.38C414.46 850.58 415.14 843.38 415.56 836.78C418.26 794.66 420.98 752.54 423.68 710.42L310.7 704.94L310.72 704.92Z" fill="#1F042F"/>
</g>
<path d="M310.72 704.92C307.5 738.24 296.78 770.82 279.62 799.58C276.62 804.6 273.38 809.64 272.3 815.38C271.22 821.12 272.9 827.84 277.9 830.86C281.94 833.3 287 832.82 291.72 833.24C305.8 834.48 317.48 844.06 329.88 850.8C349.72 861.58 373.22 865.46 395.48 861.64C400.74 860.74 406.24 859.24 409.9 855.38C414.46 850.58 415.14 843.38 415.56 836.78C418.26 794.66 420.98 752.54 423.68 710.42L310.7 704.94L310.72 704.92Z" fill="#1F042F"/>
<g opacity="0.4">
<path d="M310.72 704.92C307.5 738.24 296.78 770.82 279.62 799.58C275.96 805.7 271.92 811.9 271.92 819.32C271.92 821.96 272.58 824.6 273.96 826.84C278.2 833.76 285.28 832.66 291.7 833.22C305.78 834.46 317.46 844.04 329.86 850.78C349.7 861.56 373.2 865.44 395.46 861.62C400.72 860.72 406.22 859.22 409.88 855.36C414.44 850.56 415.12 843.36 415.54 836.76C418.24 794.64 420.96 752.52 423.66 710.4L310.68 704.92H310.72Z" fill="#122B2D"/>
</g>
<path d="M433.7 991.78L441.3 1033L455.04 1031.06L457.68 989.42L433.7 991.78Z" fill="#895555"/>
<path d="M464.68 1023.98C465.34 1021.52 465.52 1019.4 462.86 1018.78L459.08 1017.9C457.64 1017.64 456.44 1018.44 455.16 1019.04C445.38 1023.6 443.16 1015.12 439.76 1014.54C435.4 1013.78 435.78 1028.18 435.44 1028.88L427.86 1044.2C427.22 1045.48 427.54 1048.54 428.92 1049.18C429.16 1049.3 429.42 1049.38 429.7 1049.42C437.42 1050.76 441.08 1051.4 450.7 1053.08L480.12 1058.2C488.14 1059.6 489.94 1049.8 486.76 1048.52C472.44 1042.86 467.42 1036.98 463.16 1032.58C463.16 1032.58 463.66 1027.8 464.66 1024L464.68 1023.98Z" fill="#1F042F"/>
<path opacity="0.4" d="M480.141 1058.18L450.721 1053.06C441.101 1051.38 437.441 1050.74 429.721 1049.4C429.461 1049.36 429.201 1049.28 428.941 1049.16C428.001 1048.72 427.561 1047.18 427.581 1045.84L427.821 1044.62L487.341 1055C486.161 1057.14 483.801 1058.84 480.141 1058.2V1058.18Z" fill="white"/>
<path d="M469.64 1039.3C468.18 1040.24 466.9 1041.44 465.88 1042.84" stroke="#263238" stroke-width="0.5" stroke-linecap="round" stroke-linejoin="round"/>
<path d="M465.5 1035.68C464.16 1036.58 462.96 1037.68 461.96 1038.94" stroke="#263238" stroke-width="0.5" stroke-linecap="round" stroke-linejoin="round"/>
<path d="M462.62 1032.66C461.4 1033.06 460.32 1033.88 459.58 1034.92" stroke="#263238" stroke-width="0.5" stroke-linecap="round" stroke-linejoin="round"/>
<path d="M463.52 1027.52C462.16 1027.3 460.78 1027.34 459.44 1027.64" stroke="#263238" stroke-width="0.5" stroke-linecap="round" stroke-linejoin="round"/>
<g opacity="0.3">
<path d="M448.881 1025.72C448.561 1027.14 447.761 1028.64 446.361 1029.08C445.501 1029.36 444.561 1029.18 443.661 1029C441.001 1028.46 438.341 1027.92 435.681 1027.36V1027.28C435.901 1023.4 436.381 1013.94 439.701 1014.52C442.321 1014.98 444.121 1020.78 449.861 1020.18C449.461 1022.18 449.101 1024.76 448.881 1025.72Z" fill="black"/>
</g>
<path d="M348.3 995.159L341.94 1041.84L326.74 1042.6L321.8 997.599L348.3 995.159Z" fill="#895555"/>
<path d="M313.78 1063.5H347.8C347.8 1063.5 348.54 1062.08 347.7 1058.26C347.58 1057.66 347.4 1057.02 347.18 1056.3C347.18 1056.26 347.18 1056.22 347.14 1056.2C346.82 1055.14 346.46 1053.86 346.06 1052.46C344.5 1046.76 343.44 1033.66 343.44 1033.66C343.44 1033.66 337 1027.2 330.38 1030.22C324.56 1032.88 325.48 1036.24 325.48 1036.24C325.48 1036.24 325.38 1044.94 320.98 1048.86C318.26 1051.3 315.54 1053.18 314.24 1056.2C314 1056.76 313.8 1057.36 313.66 1058.02C313.66 1058.1 313.62 1058.18 313.62 1058.26C313.34 1059.72 313.36 1061.42 313.76 1063.5H313.78Z" fill="#1F042F"/>
<g opacity="0.4">
<path d="M347.7 1058.28C348.54 1062.08 347.8 1063.52 347.8 1063.52H313.78C313.38 1061.44 313.38 1059.74 313.64 1058.28H347.7Z" fill="white"/>
</g>
<path d="M327.34 1042.38C329.26 1040.88 331.76 1041.08 333.48 1042.76C333.94 1043.22 334.66 1042.5 334.2 1042.04C332.06 1039.94 328.98 1039.82 326.64 1041.66C326.14 1042.06 326.84 1042.76 327.36 1042.38H327.34Z" fill="#263238"/>
<path d="M326.381 1045.56C328.301 1044.06 330.801 1044.26 332.521 1045.94C332.981 1046.4 333.701 1045.68 333.241 1045.22C331.101 1043.12 328.021 1043 325.681 1044.84C325.181 1045.24 325.881 1045.94 326.401 1045.54L326.381 1045.56Z" fill="#263238"/>
<path d="M325.42 1048.48C327.34 1046.98 329.84 1047.18 331.56 1048.86C332.02 1049.32 332.74 1048.6 332.26 1048.14C330.12 1046.04 327.04 1045.92 324.7 1047.76C324.2 1048.16 324.9 1048.86 325.4 1048.48H325.42Z" fill="#263238"/>
<path d="M312.141 729.42L379.461 730L420.441 728.76C420.441 728.76 460.621 839.36 463.061 862.72C465.501 886.08 463.421 1012.82 463.421 1012.82L433.301 1017.94C433.301 1017.94 419.181 883.04 416.581 870.4C414.301 859.38 376.961 803.76 370.541 785.8C369.901 789.48 369.221 793.18 368.561 796.84C366.941 813.4 364.201 872.4 361.921 892.04C361.921 892.04 354.501 998.04 348.781 1030.64L318.801 1030.68C314.841 984.42 312.301 821.92 312.301 821.92C310.081 786.62 312.161 729.44 312.161 729.44L312.141 729.42Z" fill="#263238"/>
<g opacity="0.2">
<path d="M312.141 729.42L379.461 730L420.441 728.76C420.441 728.76 460.621 839.36 463.061 862.72C465.501 886.08 463.421 1012.82 463.421 1012.82L433.301 1017.94C433.301 1017.94 419.181 883.04 416.581 870.4C414.301 859.38 376.961 803.76 370.541 785.8C369.901 789.48 369.221 793.18 368.561 796.84C366.941 813.4 364.201 872.4 361.921 892.04C361.921 892.04 354.501 998.04 348.781 1030.64L318.801 1030.68C314.841 984.42 312.301 821.92 312.301 821.92C310.081 786.62 312.161 729.44 312.161 729.44L312.141 729.42Z" fill="white"/>
</g>
<g opacity="0.5">
<path d="M403.621 747.3C407.421 759.82 417.601 769.86 430.161 773.52C430.841 773.72 430.541 774.78 429.861 774.58C416.941 770.82 406.461 760.48 402.541 747.58C402.341 746.9 403.401 746.62 403.601 747.28L403.621 747.3Z" fill="black"/>
<path d="M369.421 747.3C370.161 758.24 370.881 769.22 371.621 780.16C371.661 780.86 372.741 780.86 372.721 780.16C372.341 774.54 371.961 768.92 371.601 763.28C374.301 765.36 377.461 762.84 378.341 760.04C379.781 755.52 379.241 750.16 378.121 745.62C377.941 744.94 376.881 745.24 377.061 745.9C377.861 749.08 378.201 752.32 377.961 755.6C377.861 757.26 377.701 759.16 376.921 760.68C376.061 762.38 373.861 763.8 372.121 762.26C371.921 762.1 371.721 762.08 371.541 762.18C371.201 757.22 370.861 752.24 370.541 747.28C370.501 746.58 369.421 746.58 369.441 747.28L369.421 747.3Z" fill="black"/>
<path d="M337.221 749.16C337.381 763.68 326.201 775.82 311.761 776.96C311.061 777.02 311.081 775.94 311.761 775.88C325.621 774.78 336.301 763.04 336.141 749.16C336.141 748.46 337.221 748.46 337.221 749.16Z" fill="black"/>
<path d="M330.141 890.74C325.641 892.4 320.821 892.42 316.301 890.82C315.661 890.58 315.941 889.54 316.581 889.78C320.941 891.34 325.521 891.3 329.861 889.7C330.521 889.46 330.801 890.5 330.141 890.74Z" fill="black"/>
</g>
<path d="M396.9 566.019C392.78 565.839 383.18 564.919 370.46 564.879C354.38 564.839 324.16 565.319 302.78 569.519L311.98 703.419C311.98 703.419 310.7 721.059 307.94 738.799C347.64 752.259 399.04 747.319 424.72 732.539C424.44 733.119 423.04 718.599 420.9 697.319C417.14 659.839 411.08 601.399 404.82 567.739C404.66 566.899 397.84 566.059 396.92 566.019H396.9Z" fill="black"/>
<path d="M339.52 568.46C339.52 568.46 340.14 556.4 331.36 536.36C331.36 536.34 332.4 535.7 332.38 535.68C331.16 532.88 329.92 530.3 328.78 528.08C328.76 528.02 328.74 528 328.74 528L359.56 541.86C359.76 548.62 363.86 561.16 366 566.42C366 566.42 370.9 575.8 357.86 577.94C348.34 579.52 339.52 568.46 339.52 568.46Z" fill="#895555"/>
<path opacity="0.2" d="M361.3 551.16L344.42 549.62C346.58 554.52 351.9 559.98 363.36 558.96C363.36 558.96 361.46 553.4 361.3 551.16Z" fill="black"/>
<path d="M326.72 514.179C331.02 531.999 333.08 542.119 343.82 549.659C359.98 560.999 380.3 549.099 381.4 530.299C382.4 513.379 375.2 487.099 356.3 483.239C337.68 479.439 322.42 496.359 326.72 514.159V514.179Z" fill="#895555"/>
<path d="M320.6 492.92C321.32 482.56 346.16 478.04 354.02 481.88C355.2 482.46 341.78 492.46 342.6 491.98L336.08 495.6C334.96 495.56 333.1 497.18 332.6 500.68C332.6 500.68 338.28 528.16 331.88 537.54C325.04 535.58 322.74 524.72 319.6 518.54C314.92 509.36 308.84 495.76 320.6 492.9V492.92Z" fill="#263238"/>
<path opacity="0.1" d="M381.4 530.32C381.4 530.32 365.9 529.84 360.68 528.52C360.68 528.52 355.14 527.26 347.98 526.86C344.4 526.66 335.12 518.34 335.12 518.34L332.98 519.78L332.48 538.88C332.48 538.88 344.56 557.66 361.86 553.64C377.78 549.94 381.4 534.84 381.38 530.32" fill="black"/>
<path d="M322.261 530.459C324.521 534.839 328.601 537.739 332.501 538.879C338.341 540.599 339.301 534.359 337.801 528.779C336.441 523.759 333.841 517.799 327.921 518.539C322.081 519.259 319.701 525.439 322.281 530.459H322.261Z" fill="#895555"/>
<path d="M352.9 513.679C353.22 515.519 354.46 516.839 355.68 516.599C356.88 516.379 357.6 514.699 357.26 512.859C356.94 511.019 355.7 509.699 354.48 509.939C353.28 510.159 352.56 511.839 352.9 513.679Z" fill="#263238"/>
<path d="M372.12 511.12C372.44 512.96 373.68 514.28 374.9 514.04C376.1 513.82 376.821 512.14 376.481 510.3C376.161 508.46 374.921 507.14 373.701 507.38C372.501 507.6 371.78 509.28 372.12 511.12Z" fill="#263238"/>
<path d="M365.5 511.979C365.5 511.979 372.96 520.099 375.48 523.499C373.32 526.279 368.72 525.979 368.72 525.979L365.5 511.979Z" fill="#561616"/>
<path d="M347.36 506.919C347.66 506.979 347.98 506.899 348.2 506.639C350.82 503.719 354.02 504.159 354.06 504.159C354.54 504.239 354.98 503.899 355.06 503.419C355.14 502.939 354.8 502.499 354.34 502.419C354.18 502.399 350.16 501.839 346.9 505.459C346.58 505.819 346.6 506.379 346.96 506.699C347.08 506.799 347.22 506.879 347.36 506.899V506.919Z" fill="#263238"/>
<path d="M363.72 532.919C360.74 533.479 358.16 532.399 355.44 530.579" stroke="#263238" stroke-width="0.75" stroke-linecap="round" stroke-linejoin="round"/>
<path opacity="0.2" d="M325.5 524.74C326.04 523.54 327.44 522.88 328.76 522.96C330.08 523.04 331.28 523.76 332.24 524.66C333.38 525.76 334.24 527.14 334.68 528.66" stroke="black" stroke-width="0.5" stroke-linecap="round" stroke-linejoin="round"/>
<path d="M378.14 502.76C378.3 502.7 378.44 502.58 378.54 502.44C378.82 502.04 378.72 501.5 378.32 501.22C374.34 498.48 370.62 500.04 370.44 500.08C370 500.26 369.78 500.78 369.96 501.24C370.14 501.68 370.64 501.9 371.1 501.72C371.26 501.64 374.14 500.5 377.32 502.7C377.56 502.88 377.88 502.9 378.14 502.78V502.76Z" fill="#263238"/>
<path d="M315.501 485.76C316.201 481.5 321.301 479.76 325.401 479.96C324.421 475.04 330.401 471.16 334.481 470.64C338.721 470.1 340.501 471.54 340.501 471.54C340.181 471.66 341.381 468.88 342.221 467.72C345.301 463.44 350.921 461.4 355.881 462.76C360.841 464.12 364.861 468.78 365.661 474.1C367.861 471.02 372.561 470.36 375.481 472.76C378.401 475.14 378.981 480.12 376.681 483.14C379.801 482.84 382.921 485.68 383.061 489C383.201 492.3 380.361 495.4 377.221 495.34C377.621 499.02 377.961 503.66 378.341 507.34L371.321 494.68C368.661 494.18 368.001 493.12 367.061 490.44C365.761 494.18 362.821 494.36 359.041 494.82C355.261 495.28 351.301 493.34 349.181 490C347.821 493.92 344.561 497.24 340.621 497.76C336.681 498.3 332.341 495.44 331.701 491.3C329.941 495.2 325.261 497.3 321.341 495.96C317.421 494.62 314.761 490 315.461 485.74L315.501 485.76Z" fill="#263238"/>
<path d="M257.44 544.58C257.44 544.58 267.58 485.32 267.98 485.32L251.68 480.34C251.68 480.34 222.72 550.36 230.82 562.44C238.92 574.52 311.24 607.04 311.24 607.04L323.92 576.38L257.44 544.58Z" fill="#895555"/>
<path d="M336.72 566.619L317.36 565.519C303.26 559.679 266.9 546.699 266.9 546.699L246.46 586.979L315.06 613.539L336.72 566.619Z" fill="black"/>
<path d="M268 486.92C268 486.92 281.58 480.42 282.22 477.24C282.86 474.06 281.84 471.48 281.84 471.48C281.84 471.48 295 449.96 291.64 448.46C289.82 447.64 285.741 452.4 279.661 462.66C279.661 462.66 277.561 456.66 274.021 459C274.021 459 272.08 454.58 267.68 456.84C267.68 456.84 263.861 454.76 261.361 457.26C258.861 459.76 251.881 471.58 250.741 478.48C249.621 485.38 262.98 489.62 262.98 489.62L267.98 486.9L268 486.92Z" fill="#895555"/>
<path opacity="0.3" d="M282.12 472.399C280.86 470.359 278.68 467.259 277.44 465.219C276.98 464.459 276.12 462.559 275.3 462.239C273.96 461.699 273.1 462.079 272.36 463.319C270.98 465.619 272.28 470.159 274.18 472.059C272.1 472.159 268.78 472.999 267.02 474.099C265.26 475.199 263.9 477.119 263.88 479.199" stroke="black" stroke-width="0.5" stroke-linecap="round" stroke-linejoin="round"/>
<path d="M499.72 563.319C499.64 564.099 471.64 624.339 471.64 624.339L436.3 593.519C436.3 593.519 422.08 624.419 422.98 624.459C423.88 624.499 471.14 671.439 485.98 654.219C500.82 636.999 516.7 572.399 516.7 572.399L499.7 563.299L499.72 563.319Z" fill="#895555"/>
<path opacity="0.2" d="M471.641 624.339C471.641 624.339 470.101 631.979 472.781 637.619C472.781 637.619 469.981 635.419 468.741 630.579C467.521 625.739 468.561 621.679 468.561 621.679L471.621 624.339H471.641Z" fill="black"/>
<path d="M499.24 564.499C499.24 564.499 495.62 549.899 497.66 547.379C499.7 544.859 502.34 543.999 502.34 543.999C502.34 543.999 510.56 520.159 513.84 521.779C515.62 522.659 514.56 528.839 510.52 540.059C510.52 540.059 516.481 537.859 516.921 542.079C516.921 542.079 521.56 540.759 522.62 545.599C522.62 545.599 526.66 547.219 526.32 550.739C525.98 554.259 521.32 567.179 516.72 572.439C512.12 577.699 500.34 570.099 500.34 570.099L499.24 564.519V564.499Z" fill="#895555"/>
<path opacity="0.3" d="M501.44 544.359C503.82 544.019 507.6 543.739 509.96 543.399C510.84 543.279 512.84 542.719 513.62 543.159C514.88 543.859 515.14 544.739 514.66 546.119C513.76 548.639 509.44 550.539 506.76 550.299C508 551.959 509.48 555.059 509.76 557.119C510.04 559.179 509.42 561.439 507.84 562.779" stroke="black" stroke-width="0.5" stroke-linecap="round" stroke-linejoin="round"/>
<path opacity="0.3" d="M524.541 553.82C524.301 554.56 524.061 555.32 523.601 555.96C523.141 556.6 522.421 557.1 521.641 557.1C520.381 557.1 519.461 555.88 519.161 554.66C518.721 552.98 519.081 551.12 520.121 549.74C519.581 550.94 518.761 552.08 517.621 552.76C516.481 553.44 514.981 553.6 513.821 552.96C512.661 552.32 512.001 550.78 512.541 549.56" stroke="black" stroke-width="0.5" stroke-linecap="round" stroke-linejoin="round"/>
<path d="M397.06 567.219C387.26 578.039 389.66 603.839 435.94 647.419L458.08 611.579C448.04 600.139 440.36 595.099 426.24 581.939C404.08 561.599 397.06 567.219 397.06 567.219Z" fill="black"/>
<path opacity="0.2" d="M412.84 623.299L410.94 598.359L420.18 631.619L412.84 623.299Z" fill="black"/>
<path d="M311.96 703.44C313.74 701.5 375.7 717.28 375.7 717.28L375.12 723.92L310.32 720.58C310.32 720.58 303.12 713 311.96 703.44Z" fill="#1F042F"/>
<path d="M375.72 717.28L420.68 695.34C420.68 695.34 436.32 703.26 425.22 719.96C423.72 722.2 375.12 723.9 375.12 723.9L375.7 717.26L375.72 717.28Z" fill="#1F042F"/>
<path d="M385.92 719.5C385.92 725.14 381.36 729.7 375.72 729.7C370.08 729.7 365.52 725.14 365.52 719.5C365.52 713.86 370.08 709.3 375.72 709.3C381.36 709.3 385.92 713.86 385.92 719.5Z" fill="#1F042F"/>
<path d="M373.18 722.62C363.98 729.3 357.92 740.1 357.04 751.44C356.14 762.76 360.44 774.4 368.48 782.42C374.78 781.14 381.1 779.86 387.4 778.58C376.74 762.74 372.46 742.7 375.76 723.88" fill="#1F042F"/>
<path d="M383.02 724.08C383.02 724.08 406.42 759.92 418.24 762.32L401.12 776.96C401.12 776.96 376.78 763.98 375.7 726.28L383 724.06L383.02 724.08Z" fill="#1F042F"/>
<g opacity="0.4">
<path d="M311.96 703.44C313.74 701.5 375.7 717.28 375.7 717.28L375.12 723.92L310.32 720.58C310.32 720.58 303.12 713 311.96 703.44Z" fill="#1F042F"/>
<path d="M375.72 717.28L420.68 695.34C420.68 695.34 436.32 703.26 425.22 719.96C423.72 722.2 375.12 723.9 375.12 723.9L375.7 717.26L375.72 717.28Z" fill="black"/>
<path d="M385.92 719.5C385.92 725.14 381.36 729.7 375.72 729.7C370.08 729.7 365.52 725.14 365.52 719.5C365.52 713.86 370.08 709.3 375.72 709.3C381.36 709.3 385.92 713.86 385.92 719.5Z" fill="black"/>
<path d="M373.18 722.62C363.98 729.3 357.92 740.1 357.04 751.44C356.14 762.76 360.44 774.4 368.48 782.42C374.78 781.14 381.1 779.86 387.4 778.58C376.74 762.74 372.46 742.7 375.76 723.88" fill="#1F042F"/>
<path d="M383.02 724.08C383.02 724.08 406.42 759.92 418.24 762.32L401.12 776.96C401.12 776.96 376.78 763.98 375.7 726.28L383 724.06L383.02 724.08Z" fill="black"/>
</g>
</g>
<defs>
<clipPath id="clip0_506_447">
<rect width="1080" height="1080" fill="white"/>
</clipPath>
</defs>
</svg>