<svg id="Capa_1" xmlns="http://www.w3.org/2000/svg" viewBox="-100 -200 1100 1400"><defs><style>.cls-1{fill:#e9437f;}.cls-2{fill:#fff;}.cls-3{opacity:.5;}.cls-4{fill:#f49f99;}.cls-5{fill:#ec5f91;}.cls-6{stroke-dasharray:0 0 1 2;}.cls-6,.cls-7,.cls-8,.cls-9,.cls-10,.cls-11,.cls-12,.cls-13,.cls-14,.cls-15{fill:none;stroke-linecap:round;}.cls-6,.cls-7,.cls-8,.cls-9,.cls-10,.cls-11,.cls-12,.cls-14,.cls-15{stroke-width:.5px;}.cls-6,.cls-7,.cls-8,.cls-9,.cls-10,.cls-12,.cls-13,.cls-14,.cls-15{stroke-linejoin:round;}.cls-6,.cls-10,.cls-13,.cls-14{stroke:#a83e4c;}.cls-16{fill:#914441;}.cls-17{fill:#ae8fc2;}.cls-18{fill:#4e296f;}.cls-7,.cls-9,.cls-11,.cls-12,.cls-15{stroke:#f39307;}.cls-7,.cls-10{stroke-dasharray:0 0 1 2;}.cls-8{stroke:#2b1e49;}.cls-19{fill:#281c44;}.cls-20{fill:#41255e;}.cls-11{stroke-miterlimit:10;}.cls-21{fill:#f8c1bd;}.cls-22{fill:#1d1c3c;}.cls-23{fill:#ef7c77;}.cls-12{stroke-dasharray:0 0 1 2;}.cls-24{fill:#f7a71b;}.cls-25{fill:#755888;}.cls-26{fill:#ae6763;}.cls-27{fill:#a83e4c;}.cls-28{fill:#bd7076;}.cls-29{fill:#f39307;}.cls-30{fill:#813030;}.cls-15{stroke-dasharray:0 0 1.01 2.01;}</style></defs><path class="cls-17" d="M51.88,810.55c163.4-15,318.51-7.13,487.94-8.59,90.55-.78,181.89-1.08,270.84,4.64,58.15,3.74,114.81,10.05,168.03,18.71,8.06,1.31,16.69,2.91,19.95,5.69,7.75,6.62-19.01,11.54-39.83,13.09-35.67,2.65-71.33,5.3-107,7.95-54.98,4.08-110.19,8.18-166.36,9.61-50.02,1.27-100.28,.42-150.38-.43-62.87-1.07-125.74-2.14-188.61-3.21-95.75-1.63-192.25-3.3-285.14-11.22-27.18-2.32-58.98-7.12-61.2-16.45-2.21-9.3,24.78-17.31,51.75-19.79Z"/><g class="cls-3"><path class="cls-17" d="M165.26,651.56c-46.12-64.08-92.57-129.21-120.73-202.98-28.16-73.76-36.45-158.34-5.57-231.01,30.88-72.67,107-128.62,185.52-120.35,74.99,7.9,139.31,69.39,214.61,65.38,35.23-1.88,68.03-18.16,102.71-24.62,112.15-20.88,215.65,61.83,293.24,145.45,43.4,46.77,85.37,97.13,106.77,157.24,21.4,60.11,18.78,132.29-21.35,181.9-16.81,20.78-39.16,36.52-62.86,48.88-78.88,41.12-176.05,45.37-258.22,11.28-23-9.54-45.53-22.09-70.36-23.93-23.08-1.71-45.68,6.04-67.68,13.24-52.36,17.16-106.83,31.98-161.8,28.15-54.97-3.83-96.57-9.79-134.27-48.64"/></g><g><path class="cls-18" d="M767.89,43.46c13.82-1.21,28,2.19,39.59,14.18,11.58,11.99,20.42,32.65,23.91,53.84,1.32,8.04,1.88,16.33,2.37,24.6,2.35,40.19,3.03,80.63,2.04,120.97-.11,4.35-.27,8.91-1.68,12.64-2.74,7.26-8.94,8.69-14.29,8.54-23.28-.62-45.78-16.21-69.05-14.91-8.15,.45-16.47,2.96-24.37-.27-1.19-.49-2.37-1.11-3.42-2.11-4.51-4.28-5.45-13.9-5.37-22.22,.29-30.75,7.91-60.33,8.84-91.04,.37-12.24-.32-24.75,1.74-36.57,2.64-15.21,9.99-28.18,19.25-34"/><path class="cls-24" d="M789.56,421.94s43.33,42.41,34.11,197.28c0,0,10.02,23.12,35.7,61.59,18.18,27.23,26.86,113.5,26.86,113.5,0,0-9.49-2.29-20.55,8.77,0,0-55.33-128.46-68.74-146.06-15.54-20.38-57.16-142.89-57.16-142.89,0,0-1.9,68.11-22.49,128.64,0,0,15.05,76.46-.77,173,0,0-15.5,14.9-24.71-.77,0,0-16.09-122.59-21.43-186.09-8.58-101.98-.66-158.11,15.93-206.97h103.25Z"/><path class="cls-26" d="M658.2,264.54s-82.18,137.13-146.53,150.39l8.41,22.93s72.96-7.16,171.29-157.91l-33.17-15.41Z"/><path class="cls-26" d="M534.14,422.24s-21.44-10.5-30.52-11.41l-11.35-4.11-14.88-5.71s-5.95,5.83,6.16,12.12c3.74,1.94,7.45,3.69,10,5.23-.48,.73-1.01,1.47-1.55,2.2l-23.38,12.62c-1.86,.85-3.38,2.02-2.19,4.6l.22,.47c1.18,2.57,3.13,2.34,4.99,1.49l10.74-4.19-11.15,7.69c-1.74,1.03-3.1,2.36-1.56,4.95l.28,.48c1.53,2.59,3.45,2.2,5.19,1.17l4.51-2.3-3.05,2.24c-2.14,1.43-3.88,3.05-2.49,5.13l.26,.38c1.39,2.09,5.06,2.43,7.2,1.01l11.61-7.87-8.79,6.52c-2.35,1.57-4.25,3.39-2.58,5.89l.31,.46c1.67,2.5,4.18,1.6,6.53,.03l18.7-11.3s.07,.03,.07,.03l3.04-1.91,12.98-7.84c.33-.22,.53-.54,.79-.81l8.67-5.45,1.27-11.8Z"/><path class="cls-26" d="M783.07,213.01c-3.81-2.89-14.5-6.13-15.94-5.69-1.34-.7-12.44,.48-16.72,2.6-26.08,12.92-65.02,19.06-67.24,42.24,0,0-1.06,16.66,11.88,17.88l65.58,6.19,65.58,6.19c12.95,1.22,15.02-15.35,15.02-15.35,2.16-23.19-34.95-36.51-58.15-54.08Z"/><path class="cls-5" d="M639.21,287.66c8.37-12.21,18.27-24.49,26.61-39.43,6.01-10.77,27.02-21.23,39.2-23.16l22.27-5.63-5.12,29.82-20.17,29.3c-9.82,12.21-28.12,32.95-28.12,32.95,0,0-22.1-3.93-34.67-23.83Z"/><path class="cls-26" d="M762.63,231.82h0c-9.56-.31-17.07-8.31-16.76-17.87l1.38-43.11,34.63,1.11-1.38,43.11c-.31,9.56-8.31,17.07-17.87,16.76Z"/><path class="cls-16" d="M751.1,192.49s-13.96-43.35-11.99-56.87l-2.42-53.69c1.97-13.52,10.51-26.67,22.99-26.95l30.62-.71c12.48-.29,24.12,13.25,22.16,26.77l-17.3,78.99c-1.97,13.52-11.98,31.43-44.06,32.46Z"/><path class="cls-26" d="M750.69,192.54l-.82,.09c-18.02,.42-32.51-14.57-32.93-32.59l-4.84-62.7c-.37-16.07,12.47-29.52,28.54-29.89l40.29-.93c4.61-.11,14.11,3.48,14.22,8.09l-5.06,71.16c.57,24.82-14.58,46.18-39.4,46.76Z"/><path class="cls-22" d="M722.44,125.31c-.17,4.69,2.07,8.58,5,8.69,2.94,.11,5.46-3.61,5.63-8.3,.17-4.69-2.07-8.58-5-8.69-2.94-.11-5.46,3.61-5.63,8.3Z"/><path class="cls-22" d="M764.29,126.08c-.41,4.68,1.63,8.67,4.56,8.93,2.93,.26,5.63-3.33,6.04-8,.41-4.67-1.63-8.67-4.56-8.93-2.93-.26-5.63,3.33-6.04,8Z"/><path class="cls-16" d="M734.42,142.07s1.77,7.6,7.66,7.42c5.88-.17,8.79-5.92,8.79-5.92,0,0-5.35,2.21-8.93,1.89-3.58-.32-7.52-3.4-7.52-3.4Z"/><path class="cls-16" d="M815.88,142.12c-3.97,8.72-11.7,13.73-17.25,11.2-.55-.25-1.05-.56-1.52-.93-4.23-3.39-4.92-11.58-1.34-19.44,3.97-8.72,11.7-13.73,17.25-11.2,5.55,2.53,6.83,11.65,2.85,20.37Z"/><path class="cls-30" d="M800.25,135.56c-.71,2.44,3.71,2.79,4,4.75,.44,2.99-2.64,7.11-.33,7.46,3.81,.59,8.35-3.93,10.14-10.08,1.79-6.16,.14-11.62-3.67-12.21-3.81-.59-8.35,3.93-10.14,10.08Z"/><path class="cls-5" d="M690.76,328.27c-23.5-30.48,9.9-57.49,11.58-61.9l10.68-42.11,30.9,49.28,62.18-45.01,15.24,53.54-31.77,139.88c-13.11,2.01-76.31,10.92-103.25,0,2.06-21.13,12.83-82.8,4.45-93.67Z"/><path class="cls-1" d="M691.98,330.55s10.62,10.6,34.3,6.47c0,0-16,9.6-32.47,4.96l-1.83-11.43Z"/><path class="cls-1" d="M746.45,335.17s31.45,10.73,48.83-2.79l-8.55,13.6s-24.62,2.95-40.28-10.81Z"/><path class="cls-1" d="M784.92,345.05c16.39-15.5,15.06-39.4,19.33-63.02l9.72,38.02-24.4,101.89c-6.75,.98-12.46,1.73-12.46,1.73,2.26-12.57,2.16-62.77,6.55-74.94,.44-1.21,.86-2.44,1.26-3.68Z"/><g><path class="cls-22" d="M732.61,163.93c1.76,2.07,6.23,3.6,13.43,2.43,6.86-1.11,8.25-2.61,8.25-2.61-.6,2.22-14.48,13.19-21.68,.18Z"/><path class="cls-2" d="M732.61,163.93c-.29-.52-.59-1.01-.85-1.61,0,0,6.01,.94,8.34,1.13,4.08,.34,13.49-.54,13.49-.54l.69,.84s-1.39,1.5-8.25,2.61c-7.2,1.17-11.66-.36-13.43-2.43Z"/><path class="cls-16" d="M740.1,163.45c-2.33-.19-8.34-1.13-8.34-1.13,5.1-4.27,8.95-1.26,8.95-1.26,5.84-3.05,12.88,1.84,12.88,1.84,0,0-9.42,.88-13.49,.54Z"/><path class="cls-16" d="M732.61,163.93c7.2,13.01,21.08,2.03,21.68-.18,0,0-3.2,11.73-12.86,11.73s-9.67-13.15-9.67-13.15c.27,.6,.56,1.09,.85,1.61Z"/></g><path class="cls-5" d="M806.09,228.52s-35.21,22.19-55.22,19.61c-20.01-2.58-23.57-28.7-23.57-28.7,0,0-5.2,.99-13.14,3.32,0,0-1.85,61.61,22.53,61.61s71.23-30.07,69.4-55.85Z"/><path class="cls-26" d="M779.54,134.57s-1.96-4.28-9.88-4.99c-7.92-.71-14.33,5.72-14.33,5.72l11.49,4.64,12.73-5.37Z"/><path class="cls-26" d="M739.48,133.84s-1.96-4.28-9.88-4.99c-7.92-.71-14.33,5.72-14.33,5.72l11.49,4.64,12.73-5.37Z"/><g><polygon class="cls-25" points="644.51 842.89 721.22 841.43 721.22 836.61 644.5 838.07 644.51 842.89"/><path class="cls-19" d="M664.48,825.41l16.51-2.97,9.47-12.23c8.44,3.68,17.49,4.88,28.12-.41,1.5-.02,2.73,1.17,2.76,2.67l.11,6.05h-.06v18.93l-76.76,1.74c-1.58-12.42,8.71-13.56,19.86-13.77Z"/></g><path class="cls-18" d="M818.19,90.68s1.93,33.19-14.5,30.4c-16.43-2.79-12.73-27.09-12.73-27.09,0,0-67.78,13.79-81.83,5.65-14.05-8.14,2.53-42.8,23.95-50.98,21.7-8.29,78.87-23.7,85.11,42.02Z"/><g><path class="cls-9" d="M782.36,434.09c.06,.15,.12,.31,.18,.46"/><path class="cls-15" d="M783.25,436.43c9.38,25.09,33.11,99.27,26.25,192.02"/><path class="cls-9" d="M809.42,629.46c-.01,.17-.03,.33-.04,.5,0,0,.12,.12,.34,.36"/><path class="cls-12" d="M811.08,631.79c5.85,6.44,25.49,28.97,37.26,53.45,15.71,32.71,23.94,71.56,25.52,79.52"/><path class="cls-9" d="M874.05,765.75c.06,.32,.09,.49,.09,.49"/></g><path class="cls-7" d="M723.3,541.35s-12.58,51.47-16.92,100.85c-3.2,36.39,14.85,106.65,5.45,162.19"/><path class="cls-11" d="M793.98,427.58s-56.75,7.9-109.55,0"/><path class="cls-29" d="M707.32,430.59c-1,3.89-1.96,7.79-3,11.67-.93,3.5-2.03,7.01-3.93,10.12s-4.54,5.68-7.22,8.13-5.58,4.92-8.79,6.8c-3.6,2.1-7.71,3.48-11.92,3.25-.32-.02-.32,.48,0,.5,3.74,.2,7.43-.84,10.74-2.53s6.31-4.07,9.1-6.56,5.53-5,7.66-8.03,3.41-6.51,4.41-10.04c1.1-3.86,2.03-7.77,3.02-11.66l.39-1.51c.08-.31-.4-.44-.48-.13h0Z"/><path class="cls-29" d="M766.8,430.39c1.32,7.06,3.11,14.03,5.38,20.84,.57,1.7,1.16,3.4,1.78,5.08,.58,1.56,1.18,3.12,1.98,4.58,1.51,2.76,3.81,4.93,6.46,6.57,3.27,2.03,6.96,3.24,10.6,4.42,.31,.1,.44-.38,.13-.48-6.06-1.98-12.78-4.26-16.32-10-.87-1.41-1.52-2.95-2.11-4.5s-1.2-3.26-1.76-4.91c-1.14-3.36-2.17-6.76-3.08-10.2-1.01-3.82-1.88-7.67-2.61-11.56-.06-.32-.54-.18-.48,.13h0Z"/><path class="cls-29" d="M728.07,432.35c.22,2.25,.44,4.51,.65,6.76,.2,2.06,.37,4.13,.73,6.17,.63,3.64,1.96,7.28,4.83,9.75,1.42,1.22,3.13,2.06,5,2.28,.32,.04,.32-.46,0-.5-3.31-.38-5.97-2.88-7.47-5.72-1.86-3.51-2.16-7.6-2.54-11.48-.23-2.42-.47-4.83-.7-7.25-.03-.32-.53-.32-.5,0h0Z"/><path class="cls-29" d="M741.57,431.88c.18,5.18,.25,10.35,.22,15.53s-.17,10.31-.41,15.47c-.14,2.92-.31,5.83-.51,8.75-.02,.32,.48,.32,.5,0,.36-5.17,.62-10.34,.77-15.52s.19-10.31,.13-15.47c-.03-2.92-.1-5.84-.2-8.76-.01-.32-.51-.32-.5,0h0Z"/><g><polygon class="cls-25" points="823.42 835.35 897.19 814.25 895.95 809.59 822.18 830.68 823.42 835.35"/><path class="cls-19" d="M838.24,813.33l15.19-7.1,6.01-14.25c9.1,1.39,18.16,.23,27.07-7.61,1.44-.4,2.94,.43,3.35,1.87l1.66,5.82-.06,.02,4.87,18.28-73.75,21.38c-4.71-11.6,4.94-15.34,15.66-18.41Z"/></g><path class="cls-4" d="M94.41,397.61c-14.93-1.11-11.44-9.56-11.44-9.56l17.46-.66,13.21-.76c9.54-3,35.68-1.66,35.68-1.66l3.81,12.45-6.39,9.23c-.14,.39-.21,.8-.45,1.16l-9.7,13.5-2.24,3.24h-.08l-13.98,19.45c-1.7,2.6-3.83,4.59-6.6,2.79l-.51-.33c-2.76-1.8-1.63-4.45,.06-7.05l6.05-10.36-8.31,12.94c-1.54,2.36-5.39,3.6-7.69,2.09l-.42-.28c-2.3-1.5-1.25-3.89,.29-6.25l2.11-3.57-3.55,4.27c-1.31,1.79-3.07,3.01-5.73,1.06l-.49-.36c-2.66-1.95-1.87-3.88-.56-5.67l7.92-12.57-9.01,8.86c-1.51,1.66-3.37,2.74-5.67,.65l-.42-.38c-2.3-2.08-1.28-3.92,.23-5.58l18.14-22.83c.22-.97,.42-1.93,.59-2.87-3.24-.46-7.74-.61-12.34-.95Z"/><path class="cls-28" d="M374.37,426.15s7.53,124.85,7.53,226.03c0,0,37.67,12.92,54.89,82.88,17.22,69.96,32.29,76.42,32.29,76.42l-29.06,8.61s-83.95-125.93-100.1-157.14c-16.14-31.21-40.9-143.15-40.9-143.15,0,0-82.88,110.86-88.26,123.78-5.38,12.92-7.53,75.34-43.05,108.71-35.52,33.37-43.05,67.81-54.89,67.81s-12.92-16.14-8.61-29.06c4.31-12.92,147.46-364.87,147.46-364.87h122.7Z"/><g><polygon class="cls-25" points="397.05 863.75 475.03 816.71 472.16 811.76 394.19 858.8 397.05 863.75"/><path class="cls-19" d="M461.6,793.08l.06-.05-3.71-6.15c-.92-1.52-2.89-2.02-4.41-1.1-7.79,11.75-17.8,15.89-28.66,17.11l-2.47,18.19-15.2,12.85c-11.33,6.83-21.23,14.12-12.23,25.94l77.87-47.36-11.24-19.43Z"/></g><path class="cls-20" d="M288.51,452.79c37.39,6.24,72.68-4.5,88.81-10.66l-.82,11c-.15,1.98-1.49,3.67-3.38,4.25-16.74,5.12-95.91,26.87-128.11-8.59-.77-.85-1.18-1.95-1.21-3.1-.15-6.32-.34-12.86-.57-19.54,9.33,11.76,23.64,23.03,45.28,26.64Z"/><path class="cls-20" d="M249.33,188.18c15.71-10.08,35.92-18.4,51.47-28.82,4.84-3.24,16.58-5.84,18.21-5.06,1.65-.73,14.43,2.47,19.14,5.89,28.63,20.85,72.29,34.53,71.72,65.39,0,0-23.69,19.6-38.95,19.3l6.4,2.31,10.37,14.68-6.86,133.55-3.49,46.71c-16.13,6.15-51.43,16.9-88.81,10.66-21.64-3.61-35.95-14.88-45.28-26.64-1.69-49.66,5.99-113.55,9.09-150.32,2.77-29.95-2.97-87.34-3-87.65Z"/><path class="cls-19" d="M225.63,214.73c3.04-10.82,12.16-19.16,23.69-26.55,.03,.3,5.77,57.7,3,87.65-18.39,44.75-84.06,97.1-99.19,122.54,0,0-20.64,11.48-32.25-11,16.03-45.15,92.39-142.93,104.74-172.63Z"/><path class="cls-4" d="M334.14,171.67c-1.41,14.33-40.61,24.23-39.54,1.15l4.02-46.07,36.95-1.96c-3.14,19.92-4.09,36.81-1.43,46.88Z"/><path class="cls-4" d="M292.36,155.67s-5.14-42.93-.86-55.18l7.49-50.48c4.29-12.25,14.64-22.95,26.32-20.95l28.67,4.9c11.68,2,20.08,16.73,15.79,28.97l-27.76,71.12c-4.29,12.25-19.57,26.48-49.65,21.62Z"/><path class="cls-21" d="M291.97,155.64l-.78-.07c-16.87-2.88-25.57-21.61-22.69-38.49l8.11-76.68c.74-4.32,4.87-7.24,9.19-6.51l57.22,9.78c4.32,.74,12.52,5.81,11.78,10.13l-15.46,65.74c-3.97,23.23-24.15,40.07-47.38,36.1Z"/><path class="cls-22" d="M277.84,87.85c-1.01,4.34,.37,8.37,3.09,9,2.72,.63,5.74-2.37,6.75-6.71,1.01-4.34-.37-8.37-3.09-9-2.72-.63-5.74,2.37-6.75,6.71Z"/><path class="cls-22" d="M316.71,96.17c-1.23,4.28-.05,8.38,2.63,9.15,2.68,.77,5.85-2.08,7.08-6.36,1.23-4.28,.05-8.38-2.63-9.15-2.68-.77-5.85,2.08-7.08,6.36Z"/><path class="cls-4" d="M285.97,105.65s.28,7.4,5.79,8.31c5.51,.91,9.27-3.92,9.27-3.92,0,0-5.57,1.31-8.84,.36-3.27-.94-6.22-4.75-6.22-4.75Z"/><path class="cls-4" d="M361.88,120.48c-5.29,7.41-13.39,10.68-18.11,7.31-.46-.33-.88-.72-1.24-1.15-3.33-3.93-2.48-11.68,2.28-18.36,5.29-7.41,13.39-10.68,18.11-7.31,4.71,3.37,4.25,12.1-1.04,19.51Z"/><path class="cls-23" d="M348.51,111.53c-1.1,2.14,2.95,3.27,2.87,5.15-.13,2.87-3.75,6.15-1.67,6.89,3.45,1.24,8.5-2.14,11.28-7.56s2.24-10.81-1.2-12.05c-3.45-1.24-8.5,2.14-11.28,7.56Z"/><g><path class="cls-21" d="M328.05,107.44s-.88-4.13-7.68-6.3c-6.8-2.17-13.67,2.21-13.67,2.21l9.16,6.3,12.2-2.22Z"/><path class="cls-21" d="M293.11,98.99s-.88-4.13-7.68-6.3c-6.8-2.17-13.67,2.21-13.67,2.21l9.16,6.3,12.2-2.22Z"/></g><path class="cls-24" d="M343.9,60.46s-26.22,.53-46.19-3.75c-19.97-4.28-24.43-8.92-24.43-8.92v-.14c-2.2-23.15,18.39-41.98,41.27-37.84,2.29,.41,4.63,.82,7.01,1.22,24.79,4.1,47.05,4.31,54.66,22.25,7.61,17.94-9.51,56.85-19.74,73.66l-6.9-1.84s-3.37-10.8-5.69-44.64Z"/><path class="cls-2" d="M306.7,129.11s-13.7-.25-18.86-2.39c-5.16-2.14-9.08-4.55-9.08-4.55,0,0,3.63,10.79,10.03,12.93,6.4,2.14,17.91-5.99,17.91-5.99Z"/><g><path class="cls-14" d="M364.45,482.51v.5"/><path class="cls-6" d="M364.49,485.01c.93,62.01,1.03,159.23,7.15,173.31,6.85,15.75,27.39,26.71,41.77,61.63,12.56,30.5,21.99,57.59,24.17,63.96"/><path class="cls-14" d="M437.91,784.85c.11,.31,.16,.47,.16,.47"/></g><path class="cls-10" d="M270.27,546.67c-15.32,14.71-68.41,78.46-75.27,111.56-6.86,33.1-16.41,58.84-36.15,84.59-19.75,25.74-33.88,46.82-33.88,46.82"/><path class="cls-13" d="M373.08,467.53s-78.88,28.24-131.64-6.84"/><path class="cls-27" d="M288.78,477.55c-.34,6.96-.67,13.92-1.01,20.89-.08,1.69-.17,3.39-.24,5.08-.06,1.36-.08,2.73,.07,4.09s.44,2.57,1.05,3.73,1.47,2.08,2.55,2.75c2.46,1.54,5.57,1.65,8.38,1.61,.32,0,.32-.5,0-.5-2.51,.04-5.22-.03-7.51-1.19-1.12-.57-2.08-1.41-2.74-2.48s-1.02-2.34-1.19-3.6c-.18-1.33-.18-2.68-.13-4.02,.06-1.62,.15-3.23,.23-4.84,.16-3.36,.32-6.71,.49-10.07,.18-3.81,.37-7.62,.55-11.44,.02-.32-.48-.32-.5,0h0Z"/><path class="cls-27" d="M301.32,478.46c-.55,4.26-1.1,8.52-1.67,12.77s-1.13,8.51-1.71,12.76c-.33,2.4-.66,4.81-.99,7.21-.04,.31,.44,.45,.48,.13,.59-4.27,1.17-8.55,1.75-12.82s1.14-8.51,1.69-12.77c.32-2.43,.63-4.85,.94-7.28,.04-.32-.46-.32-.5,0h0Z"/><path class="cls-27" d="M265.28,473.66c-2.5,4.2-6.29,7.57-10.7,9.65-2.4,1.13-4.95,1.81-7.57,2.15-3,.39-6.05,.5-9.07,.59-3.33,.1-6.7-.02-9.92-.97-.31-.09-.44,.39-.13,.48,2.92,.86,5.97,1.05,8.99,1.01,1.53-.02,3.06-.1,4.59-.18s3.1-.16,4.64-.33c2.72-.29,5.37-.87,7.89-1.95,2.28-.97,4.4-2.28,6.3-3.86,2.15-1.79,3.99-3.94,5.42-6.34,.17-.28-.27-.53-.43-.25h0Z"/><path class="cls-27" d="M337.93,477.73c1.16,5.24,2.88,10.36,5.11,15.24,1.06,2.32,2.16,4.78,3.97,6.63,.87,.89,1.88,1.64,2.91,2.33,1.15,.77,2.32,1.5,3.48,2.25,2.72,1.75,5.43,3.49,8.15,5.24,.27,.17,.52-.26,.25-.43-2.39-1.53-4.77-3.07-7.16-4.6-1.17-.75-2.34-1.5-3.51-2.26-1.06-.68-2.12-1.38-3.06-2.21-1.96-1.72-3.12-4.04-4.21-6.36s-2.14-4.86-3.01-7.36c-.98-2.82-1.8-5.69-2.44-8.61-.07-.31-.55-.18-.48,.13h0Z"/><path class="cls-8" d="M343.58,168.3c.44,6.86-5.53,20.58-24.78,26.11-19.25,5.53-28.98-3.1-32.3-18.81"/><g><polygon class="cls-25" points="36.92 808.02 123 837.76 124.96 832.38 38.89 802.65 36.92 808.02"/><path class="cls-19" d="M132.98,801.43c-14.01,1.55-23.6-3.49-31.5-11.04l-15.55,9.76-19.6-3.44c-12.5-4.32-24.44-7.25-27.75,7.23l86.25,29.44,7.72-21.08h.07l2.35-6.77c.58-1.68-.3-3.51-1.98-4.1Z"/></g><path class="cls-4" d="M460.06,458.43c-8.2,12.53-13.9,5.39-13.9,5.39l7.87-15.6,5.73-11.93c1.99-9.8,15.81-32.03,15.81-32.03l12.74,2.69,4.99,10.06c.28,.31,.6,.57,.8,.95l7.12,15.02,1.75,3.52-.04,.07,10.26,21.65c1.45,2.74,2.16,5.58-.75,7.12l-.53,.28c-2.91,1.54-4.68-.73-6.14-3.47l-6.14-10.31,7.3,13.53c1.32,2.49,.54,6.45-1.89,7.74l-.45,.24c-2.43,1.29-4.01-.79-5.33-3.28l-2.11-3.57,2.02,5.17c.93,2.01,1.15,4.14-1.84,5.53l-.55,.25c-2.99,1.39-4.3-.24-5.23-2.25l-7.16-13.01,3.39,12.17c.73,2.12,.76,4.27-2.17,5.28l-.54,.18c-2.94,1.01-4.05-.78-4.77-2.9l-11.2-26.92c-.74-.67-1.49-1.3-2.23-1.91-1.97,2.61-4.28,6.47-6.81,10.33Z"/><path class="cls-19" d="M386.72,188.86c39.09,29.26,75.72,110.16,112.86,230.14,0,0-17.16,7.99-40.26,4.25l-74.32-147.61-17.33-16.66c-15.61-15.01-21.56-37.48-15.42-58.25h0c2.03-6.88,7.24-12.36,14-14.75h0c6.89-2.44,14.63-1.49,20.48,2.89Z"/><path class="cls-24" d="M273.28,47.8s-6.83-23.75-4.02-47.8c0,0,98.06,1.61,106.96,33.28v18.56h-18.27s.94-5.93-20.3-9.68c-21.24-3.75-20.28-2.86-20.28-2.86l-44.1,8.51Z"/><path class="cls-26" d="M752.6,487.27l12.49-23.48c.04-.91,.06-1.8,.05-2.67-2.98,.12-7.03,.72-11.22,1.18-13.58,1.47-11.84-6.68-11.84-6.68l15.55-3.48,11.72-2.87c2.86-1.52,7.7-2.88,12.75-4.02,26.02-34.71,28.18-111.7,26.57-160.71l34.73,3.05c-.74,105.17-26.75,152.3-38.31,168.09l-2.73,6.07c-.06,.37-.05,.75-.21,1.12l-6.47,13.72-1.47,3.27h-.07l-9.32,19.77c-1.09,2.61-2.68,4.75-5.45,3.59l-.51-.21c-2.78-1.16-2.2-3.72-1.11-6.33l3.72-10.3-5.31,12.98c-.99,2.37-4.24,4.12-6.55,3.15l-.42-.18c-2.31-.97-1.76-3.28-.77-5.65l1.3-3.55-2.48,4.41c-.88,1.82-2.26,3.21-4.97,1.9l-.5-.24c-2.71-1.31-2.32-3.17-1.44-4.99l5.03-12.58-6.62,9.44c-1.07,1.74-2.57,3.01-4.98,1.52l-.44-.27c-2.41-1.49-1.79-3.3-.72-5.04Z"/><path class="cls-5" d="M803.38,287.67l-10.91-14-17.94-2.98,31.61-42.71s18.45,6.38,29.44,17.15l.02-.02c.06,.07,.11,.14,.17,.21,2.84,2.81,5.15,5.92,6.49,9.29,.11,.24,.22,.48,.33,.74,0,.02,.02,.03,.02,.05h0c6.3,15.27,9.01,59.62,9.67,60.24,0,0-43.15,8.74-49.56,9.78-7.6,1.24,6.98-22.51,.65-37.75Z"/></g></svg>