<svg width="485" height="602" viewBox="0 0 485 589" fill="none" xmlns="http://www.w3.org/2000/svg">
<g opacity="0.25">
<path d="M422.56 239.1C420.218 232.749 417.582 226.495 414.654 220.437C388.498 167.282 339.893 131.226 279.966 121.748C277.429 121.358 274.794 120.967 272.158 120.674C223.261 114.811 154.843 122.139 126.93 167.38C112.485 190.83 118.341 220.535 103.018 243.301C83.1072 272.908 57.536 287.76 52.8512 333.978C49.3376 367.981 50.9968 404.721 75.0064 431.884C103.31 463.836 151.915 474.877 193.395 468.722C233.704 462.761 269.718 442.828 304.952 424.165C338.429 406.382 376.688 393.484 403.723 366.418C437.981 332.023 437.981 281.897 422.56 239.1Z" fill="#80BA27"/>
<path d="M422.56 239.1C420.218 232.749 417.582 226.495 414.654 220.437C388.498 167.282 339.893 131.226 279.966 121.748C277.429 121.358 274.794 120.967 272.158 120.674C223.261 114.811 154.843 122.139 126.93 167.38C112.485 190.83 118.341 220.535 103.018 243.301C83.1072 272.908 57.536 287.76 52.8512 333.978C49.3376 367.981 50.9968 404.721 75.0064 431.884C103.31 463.836 151.915 474.877 193.395 468.722C233.704 462.761 269.718 442.828 304.952 424.165C338.429 406.382 376.688 393.484 403.723 366.418C437.981 332.023 437.981 281.897 422.56 239.1Z" fill="#511F74"/>
</g>
<path d="M292.166 496.569C292.166 496.569 283.285 509.76 280.454 512.008C277.722 514.451 265.912 519.434 265.522 521.486C265.034 523.342 264.155 524.808 266.01 526.176C267.864 527.544 290.41 528.033 294.606 528.033C298.803 528.033 301.731 523.831 303.488 522.463C305.342 521.095 310.906 516.893 314.224 514.451C317.542 512.008 327.4 506.438 327.79 503.214C328.181 499.892 315.298 487.287 315.298 487.287L292.166 496.569Z" fill="#F3BE22" stroke="#263339" stroke-linecap="round" stroke-linejoin="round"/>
<path d="M265.912 526.078C267.766 527.446 290.312 527.935 294.509 527.935C298.706 527.935 301.634 523.733 303.39 522.365C305.245 520.997 310.808 516.796 314.126 514.353C317.445 511.91 327.302 506.341 327.693 503.116C327.79 501.944 326.326 499.598 324.277 497.058C320.763 500.38 317.542 503.995 314.712 507.806C310.515 513.864 298.803 521.388 292.166 521.877C285.627 522.365 265.522 521.388 265.522 521.388C265.034 523.245 264.155 524.71 265.912 526.078Z" fill="white" stroke="#263339" stroke-linecap="round" stroke-linejoin="round"/>
<path d="M213.11 310.918C213.11 310.918 220.04 333.782 226.286 352.152C232.338 370.326 244.44 405.209 250.198 414.394C255.762 423.774 272.744 452.892 277.331 464.52C282.016 476.245 290.898 494.029 290.898 494.029L314.322 482.304C314.322 482.304 306.318 458.364 303.586 446.248C300.853 434.132 297.534 420.452 292.362 412.928C288.946 407.945 285.139 403.353 281.138 398.858L269.035 343.065L256.933 294.307C256.738 294.6 224.334 294.111 213.11 310.918Z" fill="#263339" stroke="#263339" stroke-linecap="round" stroke-linejoin="round"/>
<path d="M284.749 490.511C284.749 490.511 288.067 496.569 288.946 498.524C289.824 500.38 299.194 500.966 303.488 499.012C307.685 497.156 319.397 491 319.397 488.264C319.397 485.528 315.59 478.395 314.224 476.148C312.858 473.705 307.685 475.659 304.366 477.027C301.048 478.395 288.946 484.453 287.579 485.039C285.334 485.626 284.066 487.971 284.651 490.218C284.651 490.218 284.651 490.414 284.749 490.511Z" fill="white" stroke="#263339" stroke-linecap="round" stroke-linejoin="round"/>
<path d="M201.789 504.973C199.056 508.002 195.835 510.64 192.322 512.985C186.27 517.186 171.728 521.486 166.555 522.463C161.382 523.44 161.382 526.274 161.382 529.01C161.382 531.745 179.243 536.142 188.027 537.51C197.006 538.878 220.723 538.39 223.163 536.631C225.603 534.775 225.603 516.014 225.603 514.06C225.701 512.105 201.789 504.973 201.789 504.973Z" fill="#F3BE22" stroke="#263339" stroke-linecap="round" stroke-linejoin="round"/>
<path d="M223.358 536.436C224.139 535.849 224.627 533.407 224.92 530.377C216.331 531.648 207.742 532.429 199.056 532.234C186.466 532.234 174.07 529.694 162.358 524.613C161.578 525.883 161.382 527.348 161.48 528.912C161.48 531.648 179.341 536.045 188.125 537.413C196.909 538.781 221.016 538.194 223.358 536.436Z" fill="white" stroke="#263339" stroke-linecap="round" stroke-linejoin="round"/>
<path d="M223.846 311.504C223.846 311.504 220.04 346.191 219.162 362.998C218.283 379.804 215.355 394.852 215.355 402.376C215.355 409.899 208.816 456.801 208.816 464.618C208.816 472.63 203.253 496.472 203.253 496.472C203.253 496.472 203.253 497.351 208.426 498.914C213.598 500.282 221.992 502.237 221.992 502.237H226.286C226.286 502.237 231.459 486.798 237.51 472.728C243.562 458.657 248.734 448.788 250.003 434.816C251.37 420.745 250.003 403.939 251.858 400.617C253.712 397.295 274.696 343.944 277.624 339.254C280.357 334.564 286.115 322.838 286.115 322.838C286.115 322.838 292.654 315.412 292.166 301.733C291.678 288.151 284.749 289.128 271.573 289.128C258.397 289.128 242.098 294.698 236.437 298.606C230.874 302.221 223.846 311.504 223.846 311.504Z" fill="#263339" stroke="#263339" stroke-linecap="round" stroke-linejoin="round"/>
<path d="M227.653 481.522C226.384 485.43 225.506 487.971 225.506 487.971" stroke="#646464" stroke-linecap="round" stroke-linejoin="round"/>
<path d="M239.462 396.122C239.462 398.76 239.462 400.812 239.462 401.398C239.462 403.157 237.706 403.841 237.218 407.847C236.632 411.854 241.219 418.303 239.462 419.475C237.706 420.648 235.949 421.722 235.949 424.752C236.534 432.08 236.534 439.604 235.949 447.03C235.363 454.847 231.752 467.549 229.019 476.734" stroke="#646464" stroke-linecap="round" stroke-linejoin="round"/>
<path d="M264.155 317.073C256.835 335.932 242.878 371.89 241.317 378.729C240.438 382.54 239.95 386.449 239.755 390.357" stroke="#646464" stroke-linecap="round" stroke-linejoin="round"/>
<path d="M268.742 305.544L266.302 311.602" stroke="#646464" stroke-linecap="round" stroke-linejoin="round"/>
<path d="M200.91 491.391C200.91 491.391 215.453 496.569 219.064 497.937C222.773 499.305 229.312 499.305 229.312 502.139C229.312 504.875 229.8 514.744 227.458 515.33C225.018 515.819 211.549 512.887 206.864 511.128C202.179 509.272 198.861 509.272 197.982 507.318C197.104 505.461 198.47 500.185 198.47 497.449C198.763 495.201 199.642 493.149 200.91 491.391Z" fill="white" stroke="#263339" stroke-linecap="round" stroke-linejoin="round"/>
<path d="M243.659 126.439C243.659 126.439 220.138 132.106 217.893 134.549C215.746 137.089 201.301 162.103 200.325 163.178C197.885 165.328 195.25 167.38 192.614 169.138C190.858 170.506 189.491 172.265 188.71 174.415C188.32 175.783 187.344 177.932 183.05 185.456C178.755 192.882 168.898 205.585 171.826 206.366C174.754 207.148 183.83 204.217 191.541 202.458C199.251 200.699 209.109 192.589 209.109 192.589C209.109 192.589 207.352 213.695 207.352 226.495C207.352 239.295 207.742 281.507 207.742 289.226C207.742 296.945 206.962 304.762 207.742 307.205C208.523 309.745 213.403 317.464 213.403 317.464L217.307 312.872L220.43 319.614C220.43 319.614 224.627 314.338 242.293 308.377C259.861 302.417 267.669 299.876 272.256 300.267C276.843 300.658 301.829 314.728 303.195 315.412C304.562 316.096 301.829 288.542 301.829 273.006C301.829 257.47 300.853 230.013 300.853 230.013C300.853 230.013 312.858 171.777 314.224 159.074C315.59 146.274 309.246 134.646 306.806 131.226C304.269 127.709 274.306 119.599 274.306 119.599L243.659 126.439Z" fill="#26A699" stroke="#263339" stroke-linecap="round" stroke-linejoin="round"/>
<path d="M209.206 192.491C209.206 192.491 210.182 174.122 214.184 162.885" stroke="#263339" stroke-miterlimit="10" stroke-linecap="round"/>
<path d="M189.101 177.737C189.101 177.737 191.638 191.514 191.248 195.716C190.858 199.918 193.005 196.693 193.005 186.824" stroke="#263339" stroke-miterlimit="10" stroke-linecap="round"/>
<path d="M242.488 138.359C242.488 138.359 233.021 169.627 229.995 185.065" stroke="#263339" stroke-miterlimit="10" stroke-linecap="round"/>
<path d="M221.797 235.973L220.43 253.854" stroke="#263339" stroke-miterlimit="10" stroke-linecap="round"/>
<path d="M219.65 266.948C219.65 266.948 216.917 295.577 217.502 308.573" stroke="#263339" stroke-miterlimit="10" stroke-linecap="round"/>
<path d="M181.976 172.363C180.61 177.151 178.267 181.743 175.242 185.749C169.971 192.882 167.922 193.859 164.798 194.25C161.675 194.641 157.576 189.267 156.6 187.117C155.624 184.968 154.453 187.117 155.624 194.25C156.6 201.383 165.872 208.418 170.752 208.418C175.632 208.418 183.342 198.55 185.197 193.566C186.954 188.583 187.637 183.307 186.954 178.03C186.173 174.219 186.173 170.995 181.976 172.363Z" fill="#26A699" stroke="#263339" stroke-linecap="round" stroke-linejoin="round"/>
<path d="M188.71 117.351C188.71 117.351 195.835 110.609 197.202 108.851C198.568 107.092 199.934 98.9817 200.325 96.4412C200.715 93.9007 204.912 87.4517 204.912 86.2792C204.912 85.1066 202.472 84.0318 200.715 86.1815C199.349 88.038 198.178 90.0899 197.202 92.1419C196.421 93.119 194.469 92.9235 194.469 92.9235C194.469 92.9235 194.762 91.067 195.054 88.9174C195.445 86.7677 199.349 80.8073 200.715 78.7554C202.082 76.6057 200.813 70.9385 197.69 75.2378C194.566 79.5371 188.125 87.354 188.125 87.354C188.125 87.354 177.877 99.9588 176.51 103.281C175.144 106.408 175.144 111.782 175.144 114.909C175.144 118.035 176.12 116.667 174.363 122.335C172.606 128.002 162.749 152.332 158.552 162.983C154.355 173.633 152.891 181.352 155.038 185.554C157.186 189.756 163.53 196.595 167.043 195.814C170.557 195.032 179.438 183.209 181.195 178.812C182.562 175.099 183.245 171.093 182.952 167.184C182.952 164.057 181.195 143.636 182.952 136.21C184.416 128.491 188.71 117.351 188.71 117.351Z" fill="white" stroke="#263339" stroke-linecap="round" stroke-linejoin="round"/>
<path d="M178.853 105.333L180.61 104.063C181.488 105.04 182.464 105.821 183.635 106.603C185.685 107.385 187.832 106.701 189.296 105.235L189.784 104.356L192.517 101.229L195.152 98.2977C195.738 97.7114 196.03 96.7343 196.03 95.7572C196.03 94.1938 195.542 92.7281 194.762 91.4579C193.981 90.4807 191.248 83.8364 189.296 83.4455C187.539 83.0547 185.392 87.354 185.392 87.354C183.635 88.3311 182.074 89.6013 180.805 91.2624C180.317 92.1418 179.829 93.119 179.438 93.9984C179.438 93.9984 174.851 96.5389 174.461 99.6656C174.461 103.672 174.754 107.678 175.242 111.684" fill="white"/>
<path d="M178.853 105.333L180.61 104.063C181.488 105.04 182.464 105.821 183.635 106.603C185.685 107.385 187.832 106.701 189.296 105.235L189.784 104.356L192.517 101.229L195.152 98.2977C195.738 97.7114 196.03 96.7343 196.03 95.7572C196.03 94.1938 195.542 92.7281 194.762 91.4579C193.981 90.4807 191.248 83.8364 189.296 83.4455C187.539 83.0547 185.392 87.354 185.392 87.354C183.635 88.3311 182.074 89.6013 180.805 91.2624C180.317 92.1418 179.829 93.119 179.438 93.9984C179.438 93.9984 174.851 96.5389 174.461 99.6656C174.461 103.672 174.754 107.678 175.242 111.684" stroke="#263339" stroke-linecap="round" stroke-linejoin="round"/>
<path d="M186.466 87.8425C186.466 87.8425 193.298 96.7343 193.786 99.861" stroke="#263339" stroke-linecap="round" stroke-linejoin="round"/>
<path d="M180.219 93.9984C180.219 93.9984 187.539 98.7863 189.784 104.356" stroke="#263339" stroke-linecap="round" stroke-linejoin="round"/>
<path d="M247.856 122.432L242.195 126.243L239.853 140.9L242.488 138.359L247.563 125.559L247.856 122.432Z" fill="#26A699" stroke="#263339" stroke-linecap="round" stroke-linejoin="round"/>
<path d="M208.914 76.7034C208.914 76.7034 208.523 84.7157 210.182 87.8425C211.842 90.9693 215.258 97.7113 215.258 100.838C215.55 105.431 217.112 109.73 219.942 113.247C223.456 117.938 231.459 126.048 235.266 126.048C239.072 126.048 246.392 119.306 246.392 119.306L247.368 125.364L243.171 137.773C243.171 137.773 257.226 127.318 261.325 123.507C265.522 119.696 270.206 110.121 270.206 110.121L262.008 93.3143C264.155 90.2853 265.326 86.7677 265.522 83.0546C265.814 76.9965 265.229 78.6576 264.546 74.7492C263.96 70.9384 256.933 61.3627 247.758 55.8909C238.486 50.419 221.992 52.9595 215.55 56.4771C209.011 59.9947 208.914 76.7034 208.914 76.7034Z" fill="white" stroke="#263339" stroke-linecap="round" stroke-linejoin="round"/>
<path d="M252.541 131.031L250.003 129.468L252.736 115.788L246.392 119.501L247.368 125.559L243.171 137.969C243.464 137.969 247.954 134.744 252.541 131.031Z" fill="#263339" stroke="#263339" stroke-linecap="round" stroke-linejoin="round"/>
<path d="M219.552 88.6243L222.48 93.3144C222.48 93.3144 223.456 103.574 224.042 105.431C224.627 107.287 228.434 107.287 230.386 106.017" stroke="#263339" stroke-linecap="round" stroke-linejoin="round"/>
<path d="M227.458 111.586C227.458 111.586 237.022 114.127 239.56 102.988" stroke="#263339" stroke-linecap="round" stroke-linejoin="round"/>
<path d="M217.6 87.6471C217.6 87.6471 214.086 87.9402 213.208 90.1876" stroke="#263339" stroke-linecap="round" stroke-linejoin="round"/>
<path d="M225.896 85.1066C229.019 83.0546 233.118 82.8592 236.339 84.5203" stroke="#263339" stroke-linecap="round" stroke-linejoin="round"/>
<path d="M234.094 91.6533C234.387 92.9235 234.094 94.1938 233.314 94.2915C232.533 94.3892 231.654 93.7052 231.264 92.2395C230.971 90.9693 231.264 89.699 232.045 89.6013C232.826 89.5036 233.802 90.2853 234.094 91.6533Z" fill="#263339"/>
<path d="M219.552 95.464C219.845 96.7343 219.552 98.0045 218.771 98.1022C217.99 98.1999 217.112 97.516 216.722 96.0503C216.429 94.78 216.722 93.5098 217.502 93.4121C218.381 93.3144 219.162 94.1938 219.552 95.464Z" fill="#263339"/>
<path d="M216.038 46.2175C216.038 46.2175 212.525 50.6145 209.304 50.4191C206.181 50.1259 199.056 46.2175 194.664 52.2756C190.272 58.3337 191.736 65.2712 197.202 66.9323C202.667 68.5934 202.277 71.3293 206.474 73.6744C210.67 75.9217 216.722 77.876 221.797 71.1339C226.091 65.4666 233.704 63.4147 240.243 66.0529C244.928 68.3003 242.781 71.5247 244.44 74.6515C245.611 76.8011 247.173 78.56 249.125 80.1233C249.125 80.1233 249.71 83.9341 250.686 84.5203C251.565 85.1066 253.614 86.0837 253.81 83.9341C254.102 81.6867 253.517 80.4165 254.786 78.2668C255.664 76.508 257.323 75.5309 259.178 75.3355C261.032 75.0423 264.838 77.192 264.838 77.192C265.814 72.5996 266.4 67.8117 266.4 63.1215C266.4 55.7932 262.886 47.7809 254.005 42.1136C245.026 36.4463 230.093 39.1823 225.701 40.5502C221.309 41.8205 216.038 46.2175 216.038 46.2175Z" fill="#8A8A8A" stroke="#263339" stroke-linecap="round" stroke-linejoin="round"/>
<path d="M241.805 62.4376C237.413 61.949 232.826 61.8513 228.434 62.0468C222.382 62.633 220.138 64.2941 219.454 65.1735C218.869 66.0529 219.747 76.7035 223.261 79.4394C227.458 82.4684 233.118 82.7616 237.51 80.0257C241.219 77.0943 243.562 72.8927 244.245 68.3003C244.733 65.3689 243.757 62.4376 241.805 62.4376Z" fill="#263339" stroke="#263339" stroke-linecap="round" stroke-linejoin="round"/>
<path d="M243.074 62.8285L258.104 75.4333" stroke="#263339" stroke-linecap="round" stroke-linejoin="round"/>
<path d="M219.552 65.3689L214.477 66.6391" stroke="#263339" stroke-linecap="round" stroke-linejoin="round"/>
<path d="M216.624 71.4271C216.624 71.4271 216.038 66.3461 211.158 66.3461C206.278 66.3461 198.178 71.4271 197.494 75.3355C196.909 79.1463 200.422 84.6181 204.814 86.4746C209.206 88.3311 214.672 83.5433 215.648 81.6868C217.014 78.3646 217.405 74.847 216.624 71.4271Z" fill="#263339" stroke="#263339" stroke-linecap="round" stroke-linejoin="round"/>
<path d="M271.085 107.776L247.856 130.64L253.322 139.336L276.55 118.622L271.085 107.776Z" fill="#26A699" stroke="#263339" stroke-linecap="round" stroke-linejoin="round"/>
<path d="M121.366 186.726L138.349 214.281L151.134 214.672L134.738 185.359L121.366 186.726Z" fill="#263339" stroke="#263339" stroke-linecap="round" stroke-linejoin="round"/>
<path d="M246.099 205.096C246.099 205.096 203.253 214.086 191.346 214.477C179.438 214.867 171.24 215.258 171.24 215.258C171.24 215.258 165.286 208.516 161.09 204.412C157.088 200.406 149.182 201.774 149.182 201.774C149.182 201.774 139.813 202.165 137.275 202.165C134.64 202.165 127.906 204.021 127.906 205.487C127.906 207.051 129.467 207.734 131.614 207.734H139.032L144.205 209.298C140.691 209.786 137.275 210.568 133.859 211.545C132.298 212.327 133.859 215.551 133.859 215.551L135.421 217.115L136.982 220.144L138.837 221.707C138.837 221.707 138.837 223.564 142.546 225.029C146.254 226.593 159.333 227.277 161.48 227.277H167.434C167.434 227.277 201.984 231.283 209.89 232.455C217.698 233.628 246.002 234.312 252.346 233.237C258.69 232.065 261.715 232.846 263.179 230.306C264.741 227.668 256.445 210.177 254.2 207.539C252.053 204.705 246.099 205.096 246.099 205.096Z" fill="white" stroke="#263339" stroke-linecap="round" stroke-linejoin="round"/>
<path d="M135.518 216.919L146.938 216.138" stroke="#263339" stroke-linecap="round" stroke-linejoin="round"/>
<path d="M138.739 221.414L150.061 222.098" stroke="#263339" stroke-linecap="round" stroke-linejoin="round"/>
<path d="M279.186 145.688C279.186 145.688 269.816 165.425 267.278 173.633C264.741 181.841 263.277 184.088 263.96 187.02C264.448 188.681 263.96 190.537 262.789 191.807C262.789 191.807 259.763 194.837 259.763 195.814C259.763 196.791 256.054 196.204 259.373 203.24C262.789 210.373 269.133 224.15 270.89 227.179C272.744 230.208 276.746 231.185 279.869 229.426C283.187 227.57 292.166 223.075 293.24 216.822C294.314 210.568 294.411 204.217 295.875 201.481C297.437 198.843 308.173 179.105 311.198 168.357C314.224 157.608 315.59 150.866 313.053 143.831C310.515 136.796 305.635 135.623 305.635 135.623" fill="#26A699"/>
<path d="M279.186 145.688C279.186 145.688 269.816 165.425 267.278 173.633C264.741 181.841 263.277 184.088 263.96 187.02C264.448 188.681 263.96 190.537 262.789 191.807C262.789 191.807 259.763 194.837 259.763 195.814C259.763 196.791 256.054 196.204 259.373 203.24C262.789 210.373 269.133 224.15 270.89 227.179C272.744 230.208 276.746 231.185 279.869 229.426C283.187 227.57 292.166 223.075 293.24 216.822C294.314 210.568 294.411 204.217 295.875 201.481C297.437 198.843 308.173 179.105 311.198 168.357C314.224 157.608 315.59 150.866 313.053 143.831C310.515 136.796 305.635 135.623 305.635 135.623" stroke="#263339" stroke-linecap="round" stroke-linejoin="round"/>
<path d="M259.861 196.107C259.861 196.107 276.258 220.632 277.331 224.052C278.502 227.374 278.112 229.622 276.55 231.185C274.989 232.749 264.253 236.755 261.227 236.755C258.202 236.755 257.226 231.967 257.226 229.622C257.226 227.374 242.683 204.705 242.683 204.705C243.269 202.849 244.245 201.188 245.318 199.527C246.49 198.354 259.861 196.107 259.861 196.107Z" fill="#26A699" stroke="#263339" stroke-linecap="round" stroke-linejoin="round"/>
<path d="M278.698 209.2C280.259 210.373 281.333 211.838 282.211 213.499" stroke="#263339" stroke-linecap="round" stroke-linejoin="round"/>
<path d="M262.789 197.963C262.789 197.963 269.718 202.263 275.282 206.562" stroke="#263339" stroke-linecap="round" stroke-linejoin="round"/>
<path d="M265.814 196.4C265.814 196.4 280.357 198.647 281.821 201.969" stroke="#263339" stroke-linecap="round" stroke-linejoin="round"/>
</svg>
