<svg id="Capa_1" xmlns="http://www.w3.org/2000/svg" viewBox="-200 -200 1400 1400"><defs><style>.cls-1{stroke-miterlimit:10;}.cls-1,.cls-2,.cls-3,.cls-4,.cls-5,.cls-6,.cls-7,.cls-8,.cls-9,.cls-10,.cls-11,.cls-12{fill:none;stroke-linecap:round;}.cls-1,.cls-3,.cls-6,.cls-7,.cls-8,.cls-9,.cls-10,.cls-11{stroke-width:.5px;}.cls-1,.cls-6,.cls-8,.cls-9,.cls-10{stroke:#ec5f91;}.cls-13{fill:#f18fae;}.cls-2,.cls-3,.cls-4,.cls-5,.cls-6,.cls-7,.cls-8,.cls-9,.cls-10,.cls-11,.cls-12{stroke-linejoin:round;}.cls-2,.cls-5{stroke:#7c79b8;}.cls-14{fill:#fff;}.cls-15{fill:#fff2de;}.cls-3,.cls-4,.cls-9{stroke-dasharray:0 0 1 2;}.cls-3,.cls-7,.cls-11,.cls-12{stroke:#2b1e49;}.cls-16{opacity:.5;}.cls-17{fill:#f49f99;}.cls-4{stroke:#8e8ac2;}.cls-18{fill:#ec5f91;}.cls-19{fill:#2b1e49;}.cls-20{fill:#ae8fc2;}.cls-21{fill:#8e8ac2;}.cls-5{stroke-dasharray:0 0 1 2;}.cls-22{fill:#41255e;}.cls-23{fill:#8d89c2;}.cls-8{stroke-dasharray:0 0 .99 1.98;}.cls-24{fill:#f8c1bd;}.cls-25{fill:#1d1c3c;}.cls-10{stroke-dasharray:0 0 1 2;}.cls-11{stroke-dasharray:0 0 1 2;}.cls-26{fill:#ef7c77;}.cls-27{fill:#e94879;}.cls-28{fill:#7c79b8;}</style></defs><path class="cls-20" d="M950.81,1012.29c-154.92-16.96-301.97-8.06-462.6-9.71-85.85-.88-172.45-1.22-256.77,5.25-55.13,4.23-108.85,11.36-159.31,21.16-7.64,1.48-15.82,3.28-18.91,6.43-7.35,7.49,18.03,13.05,37.76,14.8,33.81,2.99,67.63,5.99,101.44,8.98,52.13,4.62,104.47,9.25,157.72,10.86,47.42,1.44,95.07,.48,142.57-.49,59.61-1.21,119.21-2.42,178.82-3.63,90.78-1.84,182.26-3.73,270.33-12.68,25.77-2.62,55.91-8.05,58.02-18.6,2.1-10.51-23.49-19.57-49.06-22.37Z"/><g class="cls-16"><path class="cls-20" d="M872.36,546.57c15.01-85.6,29.84-172.39,22.41-258.97-7.43-86.59-39.72-174.37-105.14-231.59C724.22-1.21,621.99-20.2,548.13,25.61c-70.53,43.75-104.82,135.49-181.36,167.59-35.81,15.02-76.11,14.59-113.58,24.8-121.13,33.03-184.08,164.57-220.91,284.61C11.69,569.75-5.78,639.75,1.81,709.57c7.59,69.82,44.76,140.1,108.29,170.03,26.62,12.54,56.3,17.43,85.71,18.33,97.87,2.97,196.2-39.38,261.29-112.52,18.22-20.47,34.54-43.7,58.27-57.42,22.05-12.75,48.16-15.9,73.41-19.29,60.1-8.08,121.19-19.49,173.82-49.61,52.64-30.12,91.01-55.96,109.76-112.52"/></g><path class="cls-22" d="M484.63,226.13s26.1-5.15,36.91-22.68c10.8-17.53,8.5-32.22,21.07-49.84,12.57-17.62-5.31-53.75-26.92-63.49-21.6-9.74-50.11-6.73-50.11-6.73,0,0-25.53-11.69-42.25-6.02-16.72,5.67-18.85,25.32-18.85,25.32,0,0-14.26,18.68,6.59,31.21l27.41-26.78,58.26,7.08,20.9,29.22-33.01,34.97-14,26.66,14,21.09Z"/><path class="cls-22" d="M629.67,196.43c25.79-47.4,97.27-58.46,138.35,7.83,41.08,66.29-4.96,102.77,8.15,193.08,13.1,90.31,33.09,150.87-98.2,150.87s-93.46-66.99-71.62-113.33c21.84-46.34,27.31-87.45,19.23-136.95-8.08-49.51-9.25-76.99,4.09-101.5Z"/><g><path class="cls-24" d="M582.92,401.32c-29.49,44.84-74.65,103.74-116.06,117.92-5.29-2.09-10.54-3.84-14.09-4.23l-12.44-4.65-16.31-6.47s-6.62,6.34,6.64,13.41c4.1,2.18,8.15,4.15,10.94,5.88-.53,.79-1.1,1.59-1.7,2.39l-25.91,13.63c-2.06,.92-3.74,2.19-2.47,5.03l.23,.52c1.27,2.85,3.42,2.61,5.48,1.7l11.87-4.49-12.37,8.33c-1.93,1.11-3.44,2.57-1.78,5.43l.3,.53c1.66,2.87,3.77,2.46,5.7,1.35l4.99-2.48-3.38,2.43c-2.37,1.54-4.31,3.31-2.8,5.62l.28,.43c1.51,2.32,5.54,2.74,7.91,1.19l12.87-8.52-9.76,7.07c-2.61,1.7-4.72,3.68-2.91,6.45l.33,.51c1.81,2.77,4.58,1.81,7.19,.11l20.72-12.21s.07,.04,.07,.04l3.36-2.06,14.38-8.48c.36-.24,.59-.58,.88-.89l6.24-3.83c19.57-6.95,69.41-32.08,131.96-119.25l-30.36-22.4Z"/><path class="cls-17" d="M633.15,544.93l16.64,18.1,14.69,15.37s-4.1,10.33-18.09-1.34c-9.1-7.59-17.11-15.62-18.31-10.43-.83,3.57-10.5-36.55,5.07-21.69Z"/><path class="cls-17" d="M623.29,619.47h0c-3.7,1.07-8.53-.73-10.75-3.99l-10.35-15.27c-2.21-3.27-1-6.82,2.69-7.89h0c3.7-1.07,8.53,.73,10.75,3.99l10.35,15.27c2.21,3.27,1,6.82-2.69,7.89Z"/><path class="cls-17" d="M630.77,615.75h0c-3.7,1.07-8.53-.73-10.75-4l-10.35-15.27c-2.21-3.27-1-6.82,2.69-7.89h0c3.7-1.07,8.53,.73,10.75,3.99l10.35,15.27c2.21,3.27,1,6.82-2.69,7.89Z"/><path class="cls-17" d="M640.93,610.79h0c-3.7,1.07-8.53-.73-10.75-4l-10.35-15.27c-2.21-3.27-1-6.82,2.69-7.89h0c3.7-1.07,8.53,.73,10.75,3.99l10.35,15.27c2.21,3.27,1,6.82-2.69,7.89Z"/><path class="cls-13" d="M719.46,578.48s47.69,46.68,37.54,217.15c0,0,20.63,31.73,47.49,55.76,32.13,28.74,46.63,105.01,46.63,105.01,0,0-6.79,16.9-18.96,29.07,0,0-82.26-130.99-104.58-148.24-22.32-17.25-62.91-157.28-62.91-157.28,0,0-33.49,80.16-69,141.04,0,0,56.23,94.08,35.31,187.74,0,0-18.26,17.25-28.41,0,0,0-56.65-151.83-46.47-221.23,11.16-76.1,31.46-155.25,49.72-209.03h113.65Z"/><path class="cls-18" d="M712.31,348.52c-4.2-3.18-15.96-6.74-17.55-6.26-1.47-.77-13.69,.53-18.41,2.87-28.7,14.22-71.57,20.97-74.01,46.49,0,0-1.17,18.34,13.08,19.68l72.18,6.81,66.81,6.4s6.58-20.38,1.85-38.16c-5.43-20.39-18.43-18.51-43.96-37.84Z"/><path class="cls-18" d="M553.97,430.69c9.21-13.44,20.11-26.95,29.29-43.4,6.61-11.85,29.74-23.36,43.15-25.5l24.51-6.2-5.63,32.82-22.2,32.24c-10.81,13.44-21.2,25.96-31.16,37.69,.13-.89,.21-1.43,.21-1.43,0,0-24.32-4.33-38.16-26.23Z"/><path class="cls-24" d="M689.82,369.21h0c-10.53-.34-18.78-9.14-18.45-19.67l1.52-47.45,38.11,1.22-1.52,47.45c-.34,10.53-9.14,18.78-19.67,18.45Z"/><path class="cls-17" d="M677.12,325.93s-15.36-47.71-13.2-62.59l-2.66-59.1c2.16-14.88,11.57-29.35,25.31-29.67l33.7-.78c13.74-.32,26.55,14.58,24.39,29.47l-19.04,86.94c-2.16,14.89-13.19,34.59-48.49,35.73Z"/><path class="cls-24" d="M676.67,325.98l-.9,.1c-19.84,.46-35.79-16.04-36.25-35.87l-5.33-69.01c-.41-17.68,13.73-32.49,31.41-32.9l44.35-1.02c5.07-.12,15.53,3.84,15.65,8.91l-5.57,78.33c.63,27.31-16.05,50.83-43.37,51.46Z"/><path class="cls-17" d="M658.76,270.43s1.95,8.36,8.43,8.17c6.47-.19,9.68-6.51,9.68-6.51,0,0-5.89,2.43-9.83,2.08-3.94-.35-8.28-3.74-8.28-3.74Z"/><path class="cls-17" d="M748.42,270.49c-4.37,9.6-12.87,15.12-18.98,12.33-.6-.28-1.16-.62-1.67-1.03-4.66-3.73-5.41-12.75-1.47-21.4,4.37-9.6,12.87-15.12,18.98-12.33,6.11,2.79,7.52,12.83,3.14,22.42Z"/><path class="cls-26" d="M731.23,263.27c-.78,2.68,4.09,3.07,4.4,5.23,.49,3.29-2.9,7.82-.37,8.21,4.2,.65,9.19-4.32,11.16-11.1,1.97-6.78,.16-12.79-4.04-13.44-4.2-.65-9.19,4.32-11.16,11.1Z"/><path class="cls-18" d="M610.7,475.37c-25.87-33.54,10.9-63.27,12.75-68.13l11.75-46.35,34.01,54.24,68.44-49.54,16.77,58.93-34.97,153.96c-14.43,2.22-83.99,12.02-113.65,0,2.27-23.26,14.12-91.14,4.89-103.11Z"/><path class="cls-27" d="M612.05,477.89s11.69,11.67,37.75,7.12c0,0-17.61,10.57-35.74,5.46l-2.01-12.58Z"/><path class="cls-27" d="M672,482.97s34.62,11.81,53.75-3.07l-9.41,14.97s-27.1,3.25-44.34-11.9Z"/><path class="cls-27" d="M714.34,493.85c18.04-17.06,16.57-43.36,21.27-69.37l14.01,21.11-30.17,132.88c-7.53,.03-13.38,0-13.38,0,2.48-13.84,2.04-67.18,6.87-80.58,.48-1.33,.94-2.68,1.39-4.05Z"/><path class="cls-25" d="M667.48,290.48l12.95,2.97-1.36,3.65s-10.35,8.87-10.22,8.62-7.6-3.04-7.6-3.04c0,0-4.88-6.14-4.97-6.48-.09-.33-.62-3.67-.62-3.67l11.83-2.05Z"/><path class="cls-14" d="M668.59,292.56l11.05-.1,.79,.99s-1.46,1.86-8.95,3.45c-9.81,2.09-15.19-1.05-15.82-4.37,0,0,6.76-1.31,6.95-1.31,.19,0,5.99,1.34,5.99,1.34Z"/><path class="cls-26" d="M679.64,292.46s-7.92-5.66-14.21-1.77c0,0-4.35-3.51-9.77,1.84,0,0,6.64,.92,9.2,1.07,4.49,.26,14.79-1.14,14.79-1.14Z"/><path class="cls-26" d="M680.43,293.45s-3.04,14.31-13.65,14.66c-10.12,.33-11.13-15.57-11.13-15.57,8.18,18.61,24.19,3.73,24.78,.92Z"/><path class="cls-18" d="M737.65,365.59s-38.76,24.42-60.78,21.58c-22.03-2.84-25.94-31.58-25.94-31.58,0,0-7.55,2.47-16.07,5.46,0,0-.43,66.01,26.4,66.01s78.4-33.1,76.39-61.47Z"/><g><polygon class="cls-15" points="799.36 1024.57 868.62 976.25 865.66 971.84 796.4 1020.16 799.36 1024.57"/><path class="cls-23" d="M846.83,948.95c1.35-.94,3.21-.6,4.15,.75l3.81,5.47-.05,.05,11.6,17.29-69.14,48.61c-9.05-10.39-.34-17.74,9.72-24.76l13.28-12.82,1.17-16.99c9.97-1.8,18.98-6.25,25.47-17.6Z"/></g><g><polygon class="cls-15" points="551.87 1041.81 636.31 1040.2 636.3 1034.89 551.86 1036.5 551.87 1041.81"/><path class="cls-23" d="M573.85,1022.57l18.17-3.27,10.42-13.46c9.29,4.05,19.25,5.37,30.95-.45,1.65-.02,3,1.29,3.03,2.94l.12,6.66h-.07v20.83l-84.48,1.91c-1.74-13.67,9.59-14.93,21.85-15.16Z"/></g><path class="cls-22" d="M750.96,213.88s2.12,36.53-15.96,33.46c-18.08-3.07-31.64-28.46-31.64-28.46,0,0-18.44,10.01-35.66,2.27,0,0-21.31,11.55-36.78,2.59-15.47-8.96,5.18-51.72,30.34-56.27,25.16-4.55,82.83-25.93,89.7,46.4Z"/><g><path class="cls-6" d="M711.53,591.85c.06,.15,.12,.31,.18,.46"/><path class="cls-10" d="M712.41,594.18c10.26,27.38,36.59,109.29,28.98,211.75"/><path class="cls-6" d="M741.31,806.94c-.01,.17-.03,.33-.04,.5,0,0,.13,.1,.39,.31"/><path class="cls-8" d="M743.21,808.98c6.43,5.2,28.1,23.35,53.08,51.21,27.06,30.18,41.12,77.92,43.56,86.79"/><path class="cls-6" d="M840.11,947.94c.08,.32,.13,.48,.13,.48"/></g><path class="cls-9" d="M646.52,709.91s-55.67,57.1-59.69,111.52c-2.54,34.46,33.54,73.4,39.77,172.95"/><path class="cls-1" d="M724.31,584.68s-62.47,8.69-120.58,0"/><path class="cls-18" d="M628.95,588c-1.09,4.26-2.15,8.53-3.28,12.78-1.04,3.89-2.25,7.79-4.36,11.24s-5.01,6.26-7.96,8.96c-3.02,2.76-6.16,5.43-9.71,7.49s-7.47,3.47-11.57,3.57c-.5,.01-1,0-1.51-.02-.32-.02-.32,.48,0,.5,4.1,.23,8.16-.92,11.8-2.78,3.69-1.88,6.95-4.49,10.04-7.23s6.06-5.48,8.4-8.8c2.36-3.34,3.78-7.21,4.89-11.12,1.2-4.22,2.22-8.51,3.31-12.76,.14-.56,.29-1.12,.43-1.69,.08-.31-.4-.44-.48-.13h0Z"/><path class="cls-18" d="M694.42,587.77c1.45,7.75,3.42,15.41,5.9,22.9,.63,1.89,1.29,3.77,1.98,5.64,.64,1.72,1.31,3.45,2.2,5.06,1.66,3.02,4.18,5.4,7.1,7.2,3.6,2.23,7.66,3.56,11.66,4.86,.31,.1,.44-.38,.13-.48-6.65-2.18-14.04-4.68-17.94-10.96-.99-1.59-1.72-3.33-2.38-5.08s-1.31-3.57-1.92-5.36c-1.25-3.7-2.38-7.44-3.38-11.21-1.11-4.2-2.07-8.44-2.86-12.7-.06-.32-.54-.18-.48,.13h0Z"/><path class="cls-18" d="M651.8,589.93l.72,7.42c.22,2.28,.41,4.57,.81,6.83,.7,3.99,2.16,7.98,5.31,10.7,1.55,1.34,3.43,2.26,5.48,2.49,.32,.04,.32-.46,0-.5-3.64-.41-6.57-3.16-8.23-6.28-2.05-3.85-2.39-8.36-2.81-12.62l-.78-8.04c-.03-.32-.53-.32-.5,0h0Z"/><path class="cls-18" d="M666.66,589.42c.2,5.7,.28,11.4,.24,17.1s-.19,11.36-.45,17.03c-.15,3.21-.34,6.42-.56,9.62-.02,.32,.48,.32,.5,0,.4-5.69,.68-11.38,.84-17.08s.21-11.36,.15-17.04c-.04-3.21-.11-6.42-.22-9.63-.01-.32-.51-.32-.5,0h0Z"/><path class="cls-24" d="M293.75,572.56l13.42-26.34c.03-1.01,.04-2.03,.02-2.99-3.31,.19-7.8,.94-12.46,1.53-15.07,1.9-13.31-7.2-13.31-7.2l17.23-4.18,12.98-3.42c8.88-4.9,35.15-8.85,35.15-8.85l6.3,11.61-4.49,10.47c-.06,.42-.05,.84-.21,1.25l-6.92,15.39-1.57,3.66s-.07,.01-.08,.01l-9.97,22.17c-1.16,2.93-2.89,5.34-6,4.1l-.57-.23c-3.11-1.24-2.52-4.1-1.36-7.02l3.93-11.53-5.65,14.55c-1.05,2.66-4.63,4.66-7.22,3.63l-.48-.19c-2.59-1.03-2.02-3.62-.97-6.28l1.37-3.98-2.67,4.96c-.94,2.04-2.45,3.61-5.49,2.21l-.56-.26c-3.04-1.4-2.64-3.48-1.7-5.52l5.34-14.09-7.18,10.63c-1.16,1.96-2.8,3.4-5.51,1.79l-.5-.29c-2.71-1.61-2.06-3.64-.9-5.6Z"/><path class="cls-21" d="M445.67,279.59c7.47,54.33-28.26,147.46-94.81,271.83,0,0-19.93-7.4-35.17-28.82l59.28-175.9-.36-27c-.33-24.33,12.93-46.81,34.37-58.3h0c7.1-3.8,15.59-3.98,22.84-.46h0c7.39,3.58,12.74,10.51,13.86,18.65Z"/><path class="cls-22" d="M522.64,550.3s8.46,140.23,8.46,253.87c0,0,23.76,34.8,26.23,90.93,2.99,68.02-12.99,110.29-12.99,110.29l-32.84-7.18s-9.41-146.89-27.54-181.95c-18.13-35.06-45.94-160.78-45.94-160.78,0,0-30.24,133.48-36.29,147.99-6.04,14.51,13.01,64.94-12.93,113.13-29.77,55.3-32.52,83.91-45.82,83.91s-14.51-18.13-9.67-32.64c4.84-14.51,45.96-415.6,45.96-415.6l143.37-1.96Z"/><g><polygon class="cls-22" points="448.18 1035.2 550.46 1036.48 550.65 1030.05 448.38 1028.77 448.18 1035.2"/><path class="cls-25" d="M475.53,1012.75l22.12-3.26,13.13-15.9c11.09,5.26,23.1,7.23,37.49,.64,1.99,.03,3.59,1.67,3.56,3.67l-.11,8.07h-.08l-.78,25.22-102.36-.91c-1.58-16.61,12.18-17.7,27.03-17.52Z"/></g><g><polygon class="cls-22" points="254.03 1025.63 356.18 1030.86 356.62 1024.45 254.47 1019.21 254.03 1025.63"/><path class="cls-25" d="M254.53,1020.71c-.94-16.66,12.85-17.22,27.69-16.46l22.23-2.4,13.74-15.38c10.88,5.69,22.8,8.12,37.43,2.09,1.99,.11,3.52,1.81,3.41,3.8l-.42,8.06h-.08l-1.75,25.16-102.25-4.87Z"/></g><path class="cls-21" d="M426.22,580.23c41.99,7.01,81.64-5.06,99.75-11.97l-.92,12.35c-.17,2.22-1.67,4.12-3.8,4.77-18.81,5.75-107.72,30.17-143.88-9.65-.87-.95-1.33-2.19-1.36-3.48-.16-7.1-.38-14.44-.64-21.95,10.48,13.21,26.55,25.87,50.85,29.92Z"/><path class="cls-28" d="M440.01,250.66c5.43-3.64,18.63-6.56,20.45-5.68,1.85-.82,16.21,2.77,21.49,6.62,32.16,23.42,82.2,38.94,81.56,73.6,0,0-1.15,24.82-18.28,24.49l-19.28-.38,17.73,22.07-13.8,144.41-3.92,52.47c-18.12,6.91-57.76,18.98-99.75,11.97-24.3-4.06-40.38-16.71-50.85-29.92-1.9-55.77,6.73-127.53,10.21-168.83,5.24-57.46,27.62-106.58,35.84-123.04,7.12-1.49,12.79-3.88,18.59-7.77Z"/><path class="cls-17" d="M477.46,264.48c-1.58,16.09-45.61,27.22-44.41,1.29l4.51-51.75,41.5-2.2c-3.53,22.37-4.6,41.35-1.6,52.66Z"/><path class="cls-17" d="M430.54,246.52s-5.78-48.22-.96-61.98l8.42-56.7c4.81-13.76,16.44-25.77,29.56-23.53l32.2,5.5c13.12,2.24,22.55,18.79,17.74,32.54l-31.18,79.88c-4.81,13.76-21.98,29.74-55.77,24.28Z"/><path class="cls-24" d="M430.1,246.48l-.87-.07c-18.95-3.24-28.72-24.28-25.48-43.23l9.11-86.13c.83-4.85,5.47-8.14,10.32-7.31l64.27,10.99c4.85,.83,14.06,6.52,13.23,11.37l-17.37,73.83c-4.46,26.09-27.12,45-53.21,40.54Z"/><path class="cls-25" d="M414.23,170.35c-1.14,4.87,.42,9.4,3.47,10.11,3.05,.71,6.45-2.66,7.58-7.54s-.42-9.4-3.47-10.11c-3.05-.71-6.45,2.66-7.58,7.54Z"/><path class="cls-25" d="M457.88,179.68c-1.38,4.81-.06,9.41,2.95,10.27s6.57-2.34,7.95-7.15c1.38-4.81,.06-9.41-2.95-10.28-3.01-.86-6.57,2.34-7.95,7.15Z"/><path class="cls-17" d="M423.35,190.33s.31,8.31,6.5,9.33c6.19,1.02,10.41-4.4,10.41-4.4,0,0-6.25,1.47-9.93,.41-3.68-1.06-6.99-5.34-6.99-5.34Z"/><path class="cls-17" d="M508.62,206.99c-5.94,8.32-15.04,11.99-20.34,8.21-.52-.37-.99-.8-1.4-1.29-3.74-4.42-2.79-13.12,2.56-20.62,5.94-8.32,15.04-11.99,20.34-8.21,5.29,3.78,4.77,13.59-1.17,21.91Z"/><path class="cls-26" d="M493.6,196.94c-1.24,2.41,3.32,3.67,3.22,5.79-.15,3.22-4.21,6.9-1.87,7.74,3.87,1.39,9.54-2.41,12.67-8.49,3.12-6.08,2.52-12.14-1.35-13.53-3.87-1.39-9.54,2.41-12.67,8.49Z"/><g><path class="cls-24" d="M470.62,192.34s-.99-4.64-8.63-7.07c-7.64-2.43-15.35,2.49-15.35,2.49l10.28,7.08,13.7-2.49Z"/><path class="cls-24" d="M431.38,182.86s-.99-4.64-8.63-7.07c-7.64-2.43-15.35,2.49-15.35,2.49l10.28,7.08,13.7-2.49Z"/></g><path class="cls-14" d="M446.64,216.69s-15.38-.28-21.18-2.69c-5.8-2.4-10.2-5.11-10.2-5.11,0,0,4.08,12.12,11.27,14.52,7.19,2.4,20.11-6.73,20.11-6.73Z"/><g><path class="cls-7" d="M511.5,613.61v.5"/><path class="cls-11" d="M511.54,616.1c1.05,69.63,1.16,179.13,8.04,194.96,7.69,17.69,15.41,41.08,21.29,86.63,4.9,37.96,1.25,85.47,.49,94.4"/><path class="cls-7" d="M541.27,993.09c-.03,.33-.04,.49-.04,.49"/></g><path class="cls-3" d="M425.34,688.76c-5.36,29.82-33.61,94-41.32,131.18-7.71,37.18,4.22,57.59-5.18,86.04-11.43,34.6-27.79,60.33-27.79,60.33"/><path class="cls-12" d="M521.19,596.79s-88.6,31.72-147.85-7.68"/><path class="cls-19" d="M426.54,608.04c-.38,7.8-.75,15.6-1.13,23.4-.09,1.9-.19,3.8-.27,5.71-.07,1.53-.09,3.06,.07,4.58s.48,2.89,1.15,4.19,1.62,2.33,2.81,3.09c2.77,1.77,6.29,1.9,9.47,1.85,.32,0,.32-.5,0-.5-2.84,.04-5.89-.04-8.48-1.35-1.28-.65-2.36-1.62-3.11-2.85s-1.12-2.63-1.31-4.04c-.2-1.48-.19-2.99-.14-4.48,.07-1.81,.17-3.63,.26-5.44,.18-3.78,.36-7.55,.55-11.33,.21-4.27,.41-8.55,.62-12.82,.02-.32-.48-.32-.5,0h0Z"/><path class="cls-19" d="M440.63,609.06c-.62,4.78-1.24,9.57-1.87,14.35s-1.27,9.56-1.93,14.34c-.37,2.7-.74,5.4-1.11,8.1-.04,.31,.44,.45,.48,.13,.66-4.8,1.32-9.6,1.96-14.4s1.28-9.57,1.9-14.35c.36-2.72,.71-5.44,1.06-8.17,.04-.32-.46-.32-.5,0h0Z"/><path class="cls-19" d="M400.15,603.69c-1.98,3.33-4.69,6.21-7.87,8.43s-6.95,3.83-10.85,4.54c-2.7,.5-5.46,.64-8.2,.78-.32,.02-.32,.52,0,.5,2.47-.13,4.94-.26,7.38-.64,2.11-.33,4.19-.86,6.18-1.66,3.63-1.45,6.96-3.65,9.71-6.44,1.56-1.58,2.94-3.36,4.08-5.27,.17-.28-.27-.53-.43-.25h0Z"/><path class="cls-19" d="M481.75,608.24c1.31,5.9,3.24,11.65,5.75,17.15,1.19,2.59,2.41,5.33,4.43,7.4,.98,1,2.11,1.84,3.26,2.62,1.27,.86,2.58,1.67,3.87,2.5,3.07,1.97,6.14,3.95,9.21,5.92,.27,.17,.52-.26,.25-.43-2.69-1.73-5.37-3.45-8.06-5.18-1.32-.85-2.65-1.7-3.97-2.55-1.18-.76-2.37-1.55-3.43-2.48-2.18-1.92-3.47-4.51-4.69-7.09s-2.41-5.47-3.39-8.29c-1.11-3.17-2.02-6.41-2.75-9.69-.07-.31-.55-.18-.48,.13h0Z"/><path class="cls-4" d="M488.06,260.7c.76,9.34-4.31,35.09-27.83,29.32-21.85-5.35-32.55-3.48-36.28-21.12"/><path class="cls-22" d="M513.43,172.4l-12.7,11.99s-12.51-13.39-7.35-35.37c0,0-19.08,6.87-27.47-8.52,0,0-21.04,9.79-32.89-7.92,0,0-29.29,12.12-29.89-13.52,0,0,12.83-30.3,24.52-31.23,11.69-.93,8.78-5.13,30.98-2.33,22.2,2.8,32.46,.93,46.91,9.79,14.45,8.86,32.63,23.77,26.1,45.68-6.53,21.91-18.21,31.44-18.21,31.44Z"/><path class="cls-24" d="M682.85,422.39c-29.49,44.84-74.65,103.74-116.06,117.92-5.29-2.09-10.54-3.84-14.09-4.23l-12.44-4.65-16.31-6.47s-6.62,6.34,6.64,13.41c4.1,2.18,8.15,4.15,10.94,5.88-.53,.79-1.1,1.59-1.7,2.39l-25.91,13.63c-2.05,.92-3.74,2.19-2.47,5.03l.23,.52c1.27,2.85,3.42,2.61,5.48,1.7l11.87-4.49-12.37,8.34c-1.93,1.11-3.44,2.57-1.78,5.43l.3,.53c1.66,2.87,3.77,2.46,5.7,1.35l4.99-2.48-3.38,2.43c-2.37,1.54-4.31,3.31-2.8,5.62l.28,.42c1.51,2.32,5.54,2.74,7.91,1.19l12.87-8.52-9.76,7.07c-2.61,1.7-4.72,3.68-2.91,6.45l.33,.51c1.81,2.77,4.58,1.81,7.19,.11l20.72-12.21s.07,.04,.07,.04l3.36-2.06,14.38-8.48c.36-.24,.59-.58,.88-.89l6.24-3.83c19.57-6.95,69.41-32.08,131.96-119.25l-30.36-22.4Z"/><path class="cls-18" d="M653.9,451.75c9.21-13.44,20.11-26.95,29.29-43.4,6.61-11.85,29.74-23.37,43.15-25.5h0c11.53-2.92,22.24,7,20.23,18.72l-1.36,7.9-22.2,32.24c-10.81,13.44-21.2,25.96-31.16,37.69,.13-.89,.21-1.43,.21-1.43,0,0-24.32-4.33-38.16-26.23Z"/><path class="cls-24" d="M598.75,632.65l-3.74-29.32c-.55-.85-1.11-1.7-1.67-2.49-2.63,2.03-5.92,5.17-9.44,8.28-11.39,10.06-15.05,1.54-15.05,1.54l11.89-13.16,8.81-10.14c4.58-9.05,24.07-27.1,24.07-27.1l11.74,6.04,2.18,11.18c.19,.38,.43,.72,.53,1.15l2.94,16.62,.76,3.91-.06,.06,4.24,23.94c.69,3.07,.62,6.04-2.65,6.77l-.6,.13c-3.27,.73-4.39-1.97-5.08-5.04l-3.24-11.74,3.52,15.21c.62,2.79-1.2,6.46-3.93,7.07l-.5,.11c-2.72,.61-3.71-1.85-4.33-4.64l-1.1-4.06,.58,5.6c.37,2.22,.01,4.36-3.29,4.92l-.61,.1c-3.3,.55-4.14-1.39-4.51-3.61l-3.52-14.66,.05,12.82c.14,2.27-.4,4.39-3.54,4.58l-.58,.04c-3.15,.2-3.75-1.85-3.89-4.12Z"/><path class="cls-21" d="M559.38,304.99c36.76,40.7,59.66,137.78,74.66,278.04,0,0-20.64,5.1-45.29-4.02l-50.02-178.75-15.5-22.11c-13.97-19.92-15.67-45.96-4.41-67.53h0c3.72-7.14,10.65-12.06,18.61-13.24h0c8.12-1.2,16.45,1.52,21.95,7.61Z"/><g><path class="cls-2" d="M536.99,309.51c.11,.13,.21,.26,.32,.38"/><path class="cls-5" d="M538.56,311.45c8.66,10.78,17.94,24.38,27.01,41.37,30,56.24,48.27,208.36,50.2,225.02"/><path class="cls-2" d="M615.89,578.83c.04,.33,.06,.49,.06,.49"/></g></g><path class="cls-25" d="M686.42,258.8s-.85-12.63,7.88-12.63,6.77,14.53,6.77,14.53c0,0-1.51-10.77-6.99-10.77s-7.66,8.87-7.66,8.87Z"/><path class="cls-25" d="M643.48,260.03s-3.07-12.28,5.52-13.82c8.59-1.55,9.24,13.1,9.24,13.1,0,0-3.4-10.33-8.79-9.36-5.39,.97-5.97,10.08-5.97,10.08Z"/></svg>