<svg width="1080" height="1080" viewBox="0 0 1080 1080" fill="none" xmlns="http://www.w3.org/2000/svg">
<path d="M106 288H969V702H106V288Z" fill="#2A2C39"/>
<path d="M969 317L670.323 547.282C670.25 548.052 670.213 548.823 670.114 549.599C669.639 553.339 668.935 557.203 668.027 561.093C662.204 585.78 647.851 608.227 627.607 624.309C613.384 635.606 589.628 651.647 557.227 663.927C551.248 666.193 544.94 667.334 538.627 667.334C532.684 667.334 526.736 666.328 521.06 664.308C488.32 652.678 464.136 637.116 449.616 626.106C428.955 610.44 414.012 588.29 407.542 563.729C406.535 559.901 405.731 556.052 405.147 552.281C404.886 550.583 404.693 548.901 404.542 547.219L106 317.031V729.216C106 762.73 133.319 790 166.899 790H908.101C941.681 790 968.995 762.73 968.995 729.216L969 317Z" fill="#CB6CE6"/>
<path d="M407.471 521.776C412.034 505.105 422.541 490.91 437.833 481.863C460.144 468.658 487.059 470.581 508.078 486.887C524.497 499.628 533.493 514.595 537.251 522C540.822 514.517 549.418 499.373 565.495 486.308C585.999 469.632 612.806 467.115 635.428 479.768C651.551 488.778 662.81 503.995 667.539 521.75L966.135 290.22L969 288H106L108.865 290.22L407.471 521.776Z" fill="#CB6CE6"/>
</svg>
