<svg width="1080" height="1080" viewBox="0 0 450 450" fill="none" xmlns="http://www.w3.org/2000/svg">
<path d="M406.717 226.237H291.725V315.651H406.717V226.237Z" fill="#80BA27"/>
<path d="M281.296 142.311H166.304V315.651H281.296V142.311Z" fill="#2A2C39"/>
<path d="M158.095 187.426H43.1033V315.651H158.095V187.426Z" fill="#80BA27"/>
<path d="M200.503 206.53C206.456 203.604 211.157 201.929 218.785 192.834H237.381V252.005H247.096V265.909H205.306V252.005H215.755V213.222L205.306 218.133L200.503 206.53Z" fill="white"/>
<path d="M77.3025 233.225C83.5265 226.02 91.5278 222.194 100.423 222.194C112.248 222.194 121.582 229.666 121.582 241.677C121.582 251.91 116.784 255.471 107.357 261.608C103.088 264.366 96.0634 269.972 94.0191 273.533H109.67V266.41H124.605V285.367H76.5929V272.465C81.48 264.455 83.8802 261.875 89.5725 257.337C95.8832 251.732 105.31 247.997 105.31 242.478C105.31 237.94 101.934 236.608 97.8407 236.608C93.0404 236.608 89.5725 240.521 86.9075 243.368L77.3025 233.225Z" fill="white"/>
<path d="M327.151 295.239L335.977 286.057C339.184 289.26 342.472 291.686 347.405 291.686C352.25 291.686 355.195 289.347 355.195 285.017C355.195 280.338 352.337 278.693 348.01 278.693H341.517V268.39H347.836C351.992 268.39 355.195 266.306 355.195 262.411C355.195 257.736 351.213 255.571 347.578 255.571C344.286 255.571 340.48 257.561 337.452 260.764L329.056 250.631C332.17 247.257 339.703 242.404 347.578 242.404C361.684 242.404 369.648 249.679 369.648 260.764C369.648 266.656 365.497 270.035 363.247 271.766C366.016 273.756 371.293 278.175 371.293 285.968C371.293 298.791 359.002 305.024 347.318 305.024C339.095 305.024 330.525 300.258 327.151 295.239Z" fill="white"/>
<path d="M163.244 193.945H37.9514V180.909H163.244V193.945Z" fill="#2A2C39"/>
<path d="M411.871 232.752H286.578V219.718H411.871V232.752Z" fill="#2A2C39"/>
<path d="M286.443 147.413H161.15V134.379H286.443V147.413Z" fill="#83BF00"/>
<path d="M82.518 374.114C82.518 373.162 82.7373 372.308 83.176 371.552C83.624 370.796 84.226 370.208 84.982 369.788C85.7473 369.359 86.5827 369.144 87.488 369.144C88.524 369.144 89.4433 369.401 90.246 369.914C91.058 370.418 91.646 371.137 92.01 372.07H90.092C89.84 371.557 89.49 371.174 89.042 370.922C88.594 370.67 88.076 370.544 87.488 370.544C86.844 370.544 86.27 370.689 85.766 370.978C85.262 371.267 84.8653 371.683 84.576 372.224C84.296 372.765 84.156 373.395 84.156 374.114C84.156 374.833 84.296 375.463 84.576 376.004C84.8653 376.545 85.262 376.965 85.766 377.264C86.27 377.553 86.844 377.698 87.488 377.698C88.076 377.698 88.594 377.572 89.042 377.32C89.49 377.068 89.84 376.685 90.092 376.172H92.01C91.646 377.105 91.058 377.824 90.246 378.328C89.4433 378.832 88.524 379.084 87.488 379.084C86.5733 379.084 85.738 378.874 84.982 378.454C84.226 378.025 83.624 377.432 83.176 376.676C82.7373 375.92 82.518 375.066 82.518 374.114ZM93.3461 375.108C93.3461 374.333 93.5048 373.647 93.8221 373.05C94.1488 372.453 94.5875 371.991 95.1381 371.664C95.6981 371.328 96.3141 371.16 96.9861 371.16C97.5928 371.16 98.1201 371.281 98.5681 371.524C99.0255 371.757 99.3895 372.051 99.6601 372.406V371.286H101.27V379H99.6601V377.852C99.3895 378.216 99.0208 378.519 98.5541 378.762C98.0875 379.005 97.5555 379.126 96.9581 379.126C96.2955 379.126 95.6888 378.958 95.1381 378.622C94.5875 378.277 94.1488 377.801 93.8221 377.194C93.5048 376.578 93.3461 375.883 93.3461 375.108ZM99.6601 375.136C99.6601 374.604 99.5481 374.142 99.3241 373.75C99.1095 373.358 98.8248 373.059 98.4701 372.854C98.1155 372.649 97.7328 372.546 97.3221 372.546C96.9115 372.546 96.5288 372.649 96.1741 372.854C95.8195 373.05 95.5301 373.344 95.3061 373.736C95.0915 374.119 94.9841 374.576 94.9841 375.108C94.9841 375.64 95.0915 376.107 95.3061 376.508C95.5301 376.909 95.8195 377.217 96.1741 377.432C96.5381 377.637 96.9208 377.74 97.3221 377.74C97.7328 377.74 98.1155 377.637 98.4701 377.432C98.8248 377.227 99.1095 376.928 99.3241 376.536C99.5481 376.135 99.6601 375.668 99.6601 375.136ZM107.258 371.16C107.865 371.16 108.406 371.286 108.882 371.538C109.368 371.79 109.746 372.163 110.016 372.658C110.287 373.153 110.422 373.75 110.422 374.45V379H108.84V374.688C108.84 373.997 108.668 373.47 108.322 373.106C107.977 372.733 107.506 372.546 106.908 372.546C106.311 372.546 105.835 372.733 105.48 373.106C105.135 373.47 104.962 373.997 104.962 374.688V379H103.366V371.286H104.962V372.168C105.224 371.851 105.555 371.603 105.956 371.426C106.367 371.249 106.801 371.16 107.258 371.16ZM113.27 370.264C112.981 370.264 112.738 370.166 112.542 369.97C112.346 369.774 112.248 369.531 112.248 369.242C112.248 368.953 112.346 368.71 112.542 368.514C112.738 368.318 112.981 368.22 113.27 368.22C113.55 368.22 113.788 368.318 113.984 368.514C114.18 368.71 114.278 368.953 114.278 369.242C114.278 369.531 114.18 369.774 113.984 369.97C113.788 370.166 113.55 370.264 113.27 370.264ZM114.054 380.512C114.054 381.268 113.863 381.814 113.48 382.15C113.107 382.495 112.561 382.668 111.842 382.668H111.016V381.324H111.562C111.889 381.324 112.118 381.259 112.248 381.128C112.388 381.007 112.458 380.801 112.458 380.512V371.286H114.054V380.512ZM123.22 374.954C123.22 375.243 123.201 375.505 123.164 375.738H117.27C117.316 376.354 117.545 376.849 117.956 377.222C118.366 377.595 118.87 377.782 119.468 377.782C120.326 377.782 120.933 377.423 121.288 376.704H123.01C122.776 377.413 122.352 377.997 121.736 378.454C121.129 378.902 120.373 379.126 119.468 379.126C118.73 379.126 118.068 378.963 117.48 378.636C116.901 378.3 116.444 377.833 116.108 377.236C115.781 376.629 115.618 375.929 115.618 375.136C115.618 374.343 115.776 373.647 116.094 373.05C116.42 372.443 116.873 371.977 117.452 371.65C118.04 371.323 118.712 371.16 119.468 371.16C120.196 371.16 120.844 371.319 121.414 371.636C121.983 371.953 122.426 372.401 122.744 372.98C123.061 373.549 123.22 374.207 123.22 374.954ZM121.554 374.45C121.544 373.862 121.334 373.391 120.924 373.036C120.513 372.681 120.004 372.504 119.398 372.504C118.847 372.504 118.376 372.681 117.984 373.036C117.592 373.381 117.358 373.853 117.284 374.45H121.554ZM124.258 375.108C124.258 374.333 124.417 373.647 124.734 373.05C125.061 372.453 125.5 371.991 126.05 371.664C126.61 371.328 127.226 371.16 127.898 371.16C128.505 371.16 129.032 371.281 129.48 371.524C129.938 371.757 130.302 372.051 130.572 372.406V371.286H132.182V379H130.572V377.852C130.302 378.216 129.933 378.519 129.466 378.762C129 379.005 128.468 379.126 127.87 379.126C127.208 379.126 126.601 378.958 126.05 378.622C125.5 378.277 125.061 377.801 124.734 377.194C124.417 376.578 124.258 375.883 124.258 375.108ZM130.572 375.136C130.572 374.604 130.46 374.142 130.236 373.75C130.022 373.358 129.737 373.059 129.382 372.854C129.028 372.649 128.645 372.546 128.234 372.546C127.824 372.546 127.441 372.649 127.086 372.854C126.732 373.05 126.442 373.344 126.218 373.736C126.004 374.119 125.896 374.576 125.896 375.108C125.896 375.64 126.004 376.107 126.218 376.508C126.442 376.909 126.732 377.217 127.086 377.432C127.45 377.637 127.833 377.74 128.234 377.74C128.645 377.74 129.028 377.637 129.382 377.432C129.737 377.227 130.022 376.928 130.236 376.536C130.46 376.135 130.572 375.668 130.572 375.136ZM147.253 371.16C147.86 371.16 148.401 371.286 148.877 371.538C149.363 371.79 149.741 372.163 150.011 372.658C150.291 373.153 150.431 373.75 150.431 374.45V379H148.849V374.688C148.849 373.997 148.677 373.47 148.331 373.106C147.986 372.733 147.515 372.546 146.917 372.546C146.32 372.546 145.844 372.733 145.489 373.106C145.144 373.47 144.971 373.997 144.971 374.688V379H143.389V374.688C143.389 373.997 143.217 373.47 142.871 373.106C142.526 372.733 142.055 372.546 141.457 372.546C140.86 372.546 140.384 372.733 140.029 373.106C139.684 373.47 139.511 373.997 139.511 374.688V379H137.915V371.286H139.511V372.168C139.773 371.851 140.104 371.603 140.505 371.426C140.907 371.249 141.336 371.16 141.793 371.16C142.409 371.16 142.96 371.291 143.445 371.552C143.931 371.813 144.304 372.191 144.565 372.686C144.799 372.219 145.163 371.851 145.657 371.58C146.152 371.3 146.684 371.16 147.253 371.16ZM151.93 375.108C151.93 374.333 152.089 373.647 152.406 373.05C152.733 372.453 153.171 371.991 153.722 371.664C154.282 371.328 154.898 371.16 155.57 371.16C156.177 371.16 156.704 371.281 157.152 371.524C157.609 371.757 157.973 372.051 158.244 372.406V371.286H159.854V379H158.244V377.852C157.973 378.216 157.605 378.519 157.138 378.762C156.671 379.005 156.139 379.126 155.542 379.126C154.879 379.126 154.273 378.958 153.722 378.622C153.171 378.277 152.733 377.801 152.406 377.194C152.089 376.578 151.93 375.883 151.93 375.108ZM158.244 375.136C158.244 374.604 158.132 374.142 157.908 373.75C157.693 373.358 157.409 373.059 157.054 372.854C156.699 372.649 156.317 372.546 155.906 372.546C155.495 372.546 155.113 372.649 154.758 372.854C154.403 373.05 154.114 373.344 153.89 373.736C153.675 374.119 153.568 374.576 153.568 375.108C153.568 375.64 153.675 376.107 153.89 376.508C154.114 376.909 154.403 377.217 154.758 377.432C155.122 377.637 155.505 377.74 155.906 377.74C156.317 377.74 156.699 377.637 157.054 377.432C157.409 377.227 157.693 376.928 157.908 376.536C158.132 376.135 158.244 375.668 158.244 375.136ZM164.75 379.126C164.144 379.126 163.598 379.019 163.112 378.804C162.636 378.58 162.258 378.281 161.978 377.908C161.698 377.525 161.549 377.101 161.53 376.634H163.182C163.21 376.961 163.364 377.236 163.644 377.46C163.934 377.675 164.293 377.782 164.722 377.782C165.17 377.782 165.516 377.698 165.758 377.53C166.01 377.353 166.136 377.129 166.136 376.858C166.136 376.569 165.996 376.354 165.716 376.214C165.446 376.074 165.012 375.92 164.414 375.752C163.836 375.593 163.364 375.439 163 375.29C162.636 375.141 162.319 374.912 162.048 374.604C161.787 374.296 161.656 373.89 161.656 373.386C161.656 372.975 161.778 372.602 162.02 372.266C162.263 371.921 162.608 371.65 163.056 371.454C163.514 371.258 164.036 371.16 164.624 371.16C165.502 371.16 166.206 371.384 166.738 371.832C167.28 372.271 167.569 372.873 167.606 373.638H166.01C165.982 373.293 165.842 373.017 165.59 372.812C165.338 372.607 164.998 372.504 164.568 372.504C164.148 372.504 163.826 372.583 163.602 372.742C163.378 372.901 163.266 373.111 163.266 373.372C163.266 373.577 163.341 373.75 163.49 373.89C163.64 374.03 163.822 374.142 164.036 374.226C164.251 374.301 164.568 374.399 164.988 374.52C165.548 374.669 166.006 374.823 166.36 374.982C166.724 375.131 167.037 375.355 167.298 375.654C167.56 375.953 167.695 376.349 167.704 376.844C167.704 377.283 167.583 377.675 167.34 378.02C167.098 378.365 166.752 378.636 166.304 378.832C165.866 379.028 165.348 379.126 164.75 379.126ZM172.534 375.136C172.534 374.343 172.692 373.647 173.01 373.05C173.336 372.443 173.784 371.977 174.354 371.65C174.923 371.323 175.576 371.16 176.314 371.16C177.247 371.16 178.017 371.384 178.624 371.832C179.24 372.271 179.655 372.901 179.87 373.722H178.148C178.008 373.339 177.784 373.041 177.476 372.826C177.168 372.611 176.78 372.504 176.314 372.504C175.66 372.504 175.138 372.737 174.746 373.204C174.363 373.661 174.172 374.305 174.172 375.136C174.172 375.967 174.363 376.615 174.746 377.082C175.138 377.549 175.66 377.782 176.314 377.782C177.238 377.782 177.849 377.376 178.148 376.564H179.87C179.646 377.348 179.226 377.973 178.61 378.44C177.994 378.897 177.228 379.126 176.314 379.126C175.576 379.126 174.923 378.963 174.354 378.636C173.784 378.3 173.336 377.833 173.01 377.236C172.692 376.629 172.534 375.929 172.534 375.136ZM188.446 371.286V379H186.85V378.09C186.598 378.407 186.267 378.659 185.856 378.846C185.455 379.023 185.025 379.112 184.568 379.112C183.961 379.112 183.415 378.986 182.93 378.734C182.454 378.482 182.076 378.109 181.796 377.614C181.525 377.119 181.39 376.522 181.39 375.822V371.286H182.972V375.584C182.972 376.275 183.145 376.807 183.49 377.18C183.835 377.544 184.307 377.726 184.904 377.726C185.501 377.726 185.973 377.544 186.318 377.18C186.673 376.807 186.85 376.275 186.85 375.584V371.286H188.446ZM192.148 372.42C192.419 372.065 192.787 371.767 193.254 371.524C193.721 371.281 194.248 371.16 194.836 371.16C195.508 371.16 196.119 371.328 196.67 371.664C197.23 371.991 197.669 372.453 197.986 373.05C198.303 373.647 198.462 374.333 198.462 375.108C198.462 375.883 198.303 376.578 197.986 377.194C197.669 377.801 197.23 378.277 196.67 378.622C196.119 378.958 195.508 379.126 194.836 379.126C194.248 379.126 193.725 379.009 193.268 378.776C192.811 378.533 192.437 378.235 192.148 377.88V382.668H190.552V371.286H192.148V372.42ZM196.838 375.108C196.838 374.576 196.726 374.119 196.502 373.736C196.287 373.344 195.998 373.05 195.634 372.854C195.279 372.649 194.897 372.546 194.486 372.546C194.085 372.546 193.702 372.649 193.338 372.854C192.983 373.059 192.694 373.358 192.47 373.75C192.255 374.142 192.148 374.604 192.148 375.136C192.148 375.668 192.255 376.135 192.47 376.536C192.694 376.928 192.983 377.227 193.338 377.432C193.702 377.637 194.085 377.74 194.486 377.74C194.897 377.74 195.279 377.637 195.634 377.432C195.998 377.217 196.287 376.909 196.502 376.508C196.726 376.107 196.838 375.64 196.838 375.108ZM203.386 379.126C202.658 379.126 202 378.963 201.412 378.636C200.824 378.3 200.362 377.833 200.026 377.236C199.69 376.629 199.522 375.929 199.522 375.136C199.522 374.352 199.695 373.657 200.04 373.05C200.386 372.443 200.857 371.977 201.454 371.65C202.052 371.323 202.719 371.16 203.456 371.16C204.194 371.16 204.861 371.323 205.458 371.65C206.056 371.977 206.527 372.443 206.872 373.05C207.218 373.657 207.39 374.352 207.39 375.136C207.39 375.92 207.213 376.615 206.858 377.222C206.504 377.829 206.018 378.3 205.402 378.636C204.796 378.963 204.124 379.126 203.386 379.126ZM203.386 377.74C203.797 377.74 204.18 377.642 204.534 377.446C204.898 377.25 205.192 376.956 205.416 376.564C205.64 376.172 205.752 375.696 205.752 375.136C205.752 374.576 205.645 374.105 205.43 373.722C205.216 373.33 204.931 373.036 204.576 372.84C204.222 372.644 203.839 372.546 203.428 372.546C203.018 372.546 202.635 372.644 202.28 372.84C201.935 373.036 201.66 373.33 201.454 373.722C201.249 374.105 201.146 374.576 201.146 375.136C201.146 375.967 201.356 376.611 201.776 377.068C202.206 377.516 202.742 377.74 203.386 377.74ZM212.86 371.16C213.467 371.16 214.008 371.286 214.484 371.538C214.969 371.79 215.347 372.163 215.618 372.658C215.889 373.153 216.024 373.75 216.024 374.45V379H214.442V374.688C214.442 373.997 214.269 373.47 213.924 373.106C213.579 372.733 213.107 372.546 212.51 372.546C211.913 372.546 211.437 372.733 211.082 373.106C210.737 373.47 210.564 373.997 210.564 374.688V379H208.968V371.286H210.564V372.168C210.825 371.851 211.157 371.603 211.558 371.426C211.969 371.249 212.403 371.16 212.86 371.16ZM225.13 374.954C225.13 375.243 225.111 375.505 225.074 375.738H219.18C219.226 376.354 219.455 376.849 219.866 377.222C220.276 377.595 220.78 377.782 221.378 377.782C222.236 377.782 222.843 377.423 223.198 376.704H224.92C224.686 377.413 224.262 377.997 223.646 378.454C223.039 378.902 222.283 379.126 221.378 379.126C220.64 379.126 219.978 378.963 219.39 378.636C218.811 378.3 218.354 377.833 218.018 377.236C217.691 376.629 217.528 375.929 217.528 375.136C217.528 374.343 217.686 373.647 218.004 373.05C218.33 372.443 218.783 371.977 219.362 371.65C219.95 371.323 220.622 371.16 221.378 371.16C222.106 371.16 222.754 371.319 223.324 371.636C223.893 371.953 224.336 372.401 224.654 372.98C224.971 373.549 225.13 374.207 225.13 374.954ZM223.464 374.45C223.454 373.862 223.244 373.391 222.834 373.036C222.423 372.681 221.914 372.504 221.308 372.504C220.757 372.504 220.286 372.681 219.894 373.036C219.502 373.381 219.268 373.853 219.194 374.45H223.464ZM229.5 379.126C228.894 379.126 228.348 379.019 227.862 378.804C227.386 378.58 227.008 378.281 226.728 377.908C226.448 377.525 226.299 377.101 226.28 376.634H227.932C227.96 376.961 228.114 377.236 228.394 377.46C228.684 377.675 229.043 377.782 229.472 377.782C229.92 377.782 230.266 377.698 230.508 377.53C230.76 377.353 230.886 377.129 230.886 376.858C230.886 376.569 230.746 376.354 230.466 376.214C230.196 376.074 229.762 375.92 229.164 375.752C228.586 375.593 228.114 375.439 227.75 375.29C227.386 375.141 227.069 374.912 226.798 374.604C226.537 374.296 226.406 373.89 226.406 373.386C226.406 372.975 226.528 372.602 226.77 372.266C227.013 371.921 227.358 371.65 227.806 371.454C228.264 371.258 228.786 371.16 229.374 371.16C230.252 371.16 230.956 371.384 231.488 371.832C232.03 372.271 232.319 372.873 232.356 373.638H230.76C230.732 373.293 230.592 373.017 230.34 372.812C230.088 372.607 229.748 372.504 229.318 372.504C228.898 372.504 228.576 372.583 228.352 372.742C228.128 372.901 228.016 373.111 228.016 373.372C228.016 373.577 228.091 373.75 228.24 373.89C228.39 374.03 228.572 374.142 228.786 374.226C229.001 374.301 229.318 374.399 229.738 374.52C230.298 374.669 230.756 374.823 231.11 374.982C231.474 375.131 231.787 375.355 232.048 375.654C232.31 375.953 232.445 376.349 232.454 376.844C232.454 377.283 232.333 377.675 232.09 378.02C231.848 378.365 231.502 378.636 231.054 378.832C230.616 379.028 230.098 379.126 229.5 379.126ZM239.412 372.42C239.682 372.065 240.051 371.767 240.518 371.524C240.984 371.281 241.512 371.16 242.1 371.16C242.772 371.16 243.383 371.328 243.934 371.664C244.494 371.991 244.932 372.453 245.25 373.05C245.567 373.647 245.726 374.333 245.726 375.108C245.726 375.883 245.567 376.578 245.25 377.194C244.932 377.801 244.494 378.277 243.934 378.622C243.383 378.958 242.772 379.126 242.1 379.126C241.512 379.126 240.989 379.009 240.532 378.776C240.074 378.533 239.701 378.235 239.412 377.88V382.668H237.816V371.286H239.412V372.42ZM244.102 375.108C244.102 374.576 243.99 374.119 243.766 373.736C243.551 373.344 243.262 373.05 242.898 372.854C242.543 372.649 242.16 372.546 241.75 372.546C241.348 372.546 240.966 372.649 240.602 372.854C240.247 373.059 239.958 373.358 239.734 373.75C239.519 374.142 239.412 374.604 239.412 375.136C239.412 375.668 239.519 376.135 239.734 376.536C239.958 376.928 240.247 377.227 240.602 377.432C240.966 377.637 241.348 377.74 241.75 377.74C242.16 377.74 242.543 377.637 242.898 377.432C243.262 377.217 243.551 376.909 243.766 376.508C243.99 376.107 244.102 375.64 244.102 375.108ZM246.772 375.108C246.772 374.333 246.931 373.647 247.248 373.05C247.575 372.453 248.013 371.991 248.564 371.664C249.124 371.328 249.74 371.16 250.412 371.16C251.019 371.16 251.546 371.281 251.994 371.524C252.451 371.757 252.815 372.051 253.086 372.406V371.286H254.696V379H253.086V377.852C252.815 378.216 252.447 378.519 251.98 378.762C251.513 379.005 250.981 379.126 250.384 379.126C249.721 379.126 249.115 378.958 248.564 378.622C248.013 378.277 247.575 377.801 247.248 377.194C246.931 376.578 246.772 375.883 246.772 375.108ZM253.086 375.136C253.086 374.604 252.974 374.142 252.75 373.75C252.535 373.358 252.251 373.059 251.896 372.854C251.541 372.649 251.159 372.546 250.748 372.546C250.337 372.546 249.955 372.649 249.6 372.854C249.245 373.05 248.956 373.344 248.732 373.736C248.517 374.119 248.41 374.576 248.41 375.108C248.41 375.64 248.517 376.107 248.732 376.508C248.956 376.909 249.245 377.217 249.6 377.432C249.964 377.637 250.347 377.74 250.748 377.74C251.159 377.74 251.541 377.637 251.896 377.432C252.251 377.227 252.535 376.928 252.75 376.536C252.974 376.135 253.086 375.668 253.086 375.136ZM258.388 372.406C258.622 372.014 258.93 371.711 259.312 371.496C259.704 371.272 260.166 371.16 260.698 371.16V372.812H260.292C259.667 372.812 259.191 372.971 258.864 373.288C258.547 373.605 258.388 374.156 258.388 374.94V379H256.792V371.286H258.388V372.406ZM261.633 375.108C261.633 374.333 261.792 373.647 262.109 373.05C262.436 372.453 262.875 371.991 263.425 371.664C263.985 371.328 264.601 371.16 265.273 371.16C265.88 371.16 266.407 371.281 266.855 371.524C267.313 371.757 267.677 372.051 267.947 372.406V371.286H269.557V379H267.947V377.852C267.677 378.216 267.308 378.519 266.841 378.762C266.375 379.005 265.843 379.126 265.245 379.126C264.583 379.126 263.976 378.958 263.425 378.622C262.875 378.277 262.436 377.801 262.109 377.194C261.792 376.578 261.633 375.883 261.633 375.108ZM267.947 375.136C267.947 374.604 267.835 374.142 267.611 373.75C267.397 373.358 267.112 373.059 266.757 372.854C266.403 372.649 266.02 372.546 265.609 372.546C265.199 372.546 264.816 372.649 264.461 372.854C264.107 373.05 263.817 373.344 263.593 373.736C263.379 374.119 263.271 374.576 263.271 375.108C263.271 375.64 263.379 376.107 263.593 376.508C263.817 376.909 264.107 377.217 264.461 377.432C264.825 377.637 265.208 377.74 265.609 377.74C266.02 377.74 266.403 377.637 266.757 377.432C267.112 377.227 267.397 376.928 267.611 376.536C267.835 376.135 267.947 375.668 267.947 375.136ZM278.09 379.126C277.484 379.126 276.938 379.019 276.452 378.804C275.976 378.58 275.598 378.281 275.318 377.908C275.038 377.525 274.889 377.101 274.87 376.634H276.522C276.55 376.961 276.704 377.236 276.984 377.46C277.274 377.675 277.633 377.782 278.062 377.782C278.51 377.782 278.856 377.698 279.098 377.53C279.35 377.353 279.476 377.129 279.476 376.858C279.476 376.569 279.336 376.354 279.056 376.214C278.786 376.074 278.352 375.92 277.754 375.752C277.176 375.593 276.704 375.439 276.34 375.29C275.976 375.141 275.659 374.912 275.388 374.604C275.127 374.296 274.996 373.89 274.996 373.386C274.996 372.975 275.118 372.602 275.36 372.266C275.603 371.921 275.948 371.65 276.396 371.454C276.854 371.258 277.376 371.16 277.964 371.16C278.842 371.16 279.546 371.384 280.078 371.832C280.62 372.271 280.909 372.873 280.946 373.638H279.35C279.322 373.293 279.182 373.017 278.93 372.812C278.678 372.607 278.338 372.504 277.908 372.504C277.488 372.504 277.166 372.583 276.942 372.742C276.718 372.901 276.606 373.111 276.606 373.372C276.606 373.577 276.681 373.75 276.83 373.89C276.98 374.03 277.162 374.142 277.376 374.226C277.591 374.301 277.908 374.399 278.328 374.52C278.888 374.669 279.346 374.823 279.7 374.982C280.064 375.131 280.377 375.355 280.638 375.654C280.9 375.953 281.035 376.349 281.044 376.844C281.044 377.283 280.923 377.675 280.68 378.02C280.438 378.365 280.092 378.636 279.644 378.832C279.206 379.028 278.688 379.126 278.09 379.126ZM289.755 371.286V379H288.159V378.09C287.907 378.407 287.575 378.659 287.165 378.846C286.763 379.023 286.334 379.112 285.877 379.112C285.27 379.112 284.724 378.986 284.239 378.734C283.763 378.482 283.385 378.109 283.105 377.614C282.834 377.119 282.699 376.522 282.699 375.822V371.286H284.281V375.584C284.281 376.275 284.453 376.807 284.799 377.18C285.144 377.544 285.615 377.726 286.213 377.726C286.81 377.726 287.281 377.544 287.627 377.18C287.981 376.807 288.159 376.275 288.159 375.584V371.286H289.755ZM293.457 372.434C293.727 372.061 294.096 371.757 294.563 371.524C295.039 371.281 295.566 371.16 296.145 371.16C296.826 371.16 297.442 371.323 297.993 371.65C298.543 371.977 298.977 372.443 299.295 373.05C299.612 373.647 299.771 374.333 299.771 375.108C299.771 375.883 299.612 376.578 299.295 377.194C298.977 377.801 298.539 378.277 297.979 378.622C297.428 378.958 296.817 379.126 296.145 379.126C295.547 379.126 295.015 379.009 294.549 378.776C294.091 378.543 293.727 378.244 293.457 377.88V379H291.861V368.64H293.457V372.434ZM298.147 375.108C298.147 374.576 298.035 374.119 297.811 373.736C297.596 373.344 297.307 373.05 296.943 372.854C296.588 372.649 296.205 372.546 295.795 372.546C295.393 372.546 295.011 372.649 294.647 372.854C294.292 373.059 294.003 373.358 293.779 373.75C293.564 374.142 293.457 374.604 293.457 375.136C293.457 375.668 293.564 376.135 293.779 376.536C294.003 376.928 294.292 377.227 294.647 377.432C295.011 377.637 295.393 377.74 295.795 377.74C296.205 377.74 296.588 377.637 296.943 377.432C297.307 377.217 297.596 376.909 297.811 376.508C298.035 376.107 298.147 375.64 298.147 375.108ZM302.161 370.264C301.871 370.264 301.629 370.166 301.433 369.97C301.237 369.774 301.139 369.531 301.139 369.242C301.139 368.953 301.237 368.71 301.433 368.514C301.629 368.318 301.871 368.22 302.161 368.22C302.441 368.22 302.679 368.318 302.875 368.514C303.071 368.71 303.169 368.953 303.169 369.242C303.169 369.531 303.071 369.774 302.875 369.97C302.679 370.166 302.441 370.264 302.161 370.264ZM302.945 371.286V379H301.349V371.286H302.945ZM306.636 372.406C306.87 372.014 307.178 371.711 307.56 371.496C307.952 371.272 308.414 371.16 308.946 371.16V372.812H308.54C307.915 372.812 307.439 372.971 307.112 373.288C306.795 373.605 306.636 374.156 306.636 374.94V379H305.04V371.286H306.636V372.406ZM313.518 375.108C313.518 374.333 313.677 373.647 313.994 373.05C314.321 372.453 314.759 371.991 315.31 371.664C315.87 371.328 316.491 371.16 317.172 371.16C317.676 371.16 318.171 371.272 318.656 371.496C319.151 371.711 319.543 372 319.832 372.364V368.64H321.442V379H319.832V377.838C319.571 378.211 319.207 378.519 318.74 378.762C318.283 379.005 317.755 379.126 317.158 379.126C316.486 379.126 315.87 378.958 315.31 378.622C314.759 378.277 314.321 377.801 313.994 377.194C313.677 376.578 313.518 375.883 313.518 375.108ZM319.832 375.136C319.832 374.604 319.72 374.142 319.496 373.75C319.281 373.358 318.997 373.059 318.642 372.854C318.287 372.649 317.905 372.546 317.494 372.546C317.083 372.546 316.701 372.649 316.346 372.854C315.991 373.05 315.702 373.344 315.478 373.736C315.263 374.119 315.156 374.576 315.156 375.108C315.156 375.64 315.263 376.107 315.478 376.508C315.702 376.909 315.991 377.217 316.346 377.432C316.71 377.637 317.093 377.74 317.494 377.74C317.905 377.74 318.287 377.637 318.642 377.432C318.997 377.227 319.281 376.928 319.496 376.536C319.72 376.135 319.832 375.668 319.832 375.136ZM330.608 374.954C330.608 375.243 330.59 375.505 330.552 375.738H324.658C324.705 376.354 324.934 376.849 325.344 377.222C325.755 377.595 326.259 377.782 326.856 377.782C327.715 377.782 328.322 377.423 328.676 376.704H330.398C330.165 377.413 329.74 377.997 329.124 378.454C328.518 378.902 327.762 379.126 326.856 379.126C326.119 379.126 325.456 378.963 324.868 378.636C324.29 378.3 323.832 377.833 323.496 377.236C323.17 376.629 323.006 375.929 323.006 375.136C323.006 374.343 323.165 373.647 323.482 373.05C323.809 372.443 324.262 371.977 324.84 371.65C325.428 371.323 326.1 371.16 326.856 371.16C327.584 371.16 328.233 371.319 328.802 371.636C329.372 371.953 329.815 372.401 330.132 372.98C330.45 373.549 330.608 374.207 330.608 374.954ZM328.942 374.45C328.933 373.862 328.723 373.391 328.312 373.036C327.902 372.681 327.393 372.504 326.786 372.504C326.236 372.504 325.764 372.681 325.372 373.036C324.98 373.381 324.747 373.853 324.672 374.45H328.942ZM339.708 371.16C340.314 371.16 340.856 371.286 341.332 371.538C341.817 371.79 342.195 372.163 342.466 372.658C342.736 373.153 342.872 373.75 342.872 374.45V379H341.29V374.688C341.29 373.997 341.117 373.47 340.772 373.106C340.426 372.733 339.955 372.546 339.358 372.546C338.76 372.546 338.284 372.733 337.93 373.106C337.584 373.47 337.412 373.997 337.412 374.688V379H335.816V371.286H337.412V372.168C337.673 371.851 338.004 371.603 338.406 371.426C338.816 371.249 339.25 371.16 339.708 371.16ZM345.719 370.264C345.43 370.264 345.187 370.166 344.991 369.97C344.795 369.774 344.697 369.531 344.697 369.242C344.697 368.953 344.795 368.71 344.991 368.514C345.187 368.318 345.43 368.22 345.719 368.22C345.999 368.22 346.237 368.318 346.433 368.514C346.629 368.71 346.727 368.953 346.727 369.242C346.727 369.531 346.629 369.774 346.433 369.97C346.237 370.166 345.999 370.264 345.719 370.264ZM346.503 371.286V379H344.907V371.286H346.503ZM351.581 377.572L353.765 371.286H355.459L352.519 379H350.615L347.689 371.286H349.397L351.581 377.572ZM363.735 374.954C363.735 375.243 363.717 375.505 363.679 375.738H357.785C357.832 376.354 358.061 376.849 358.471 377.222C358.882 377.595 359.386 377.782 359.983 377.782C360.842 377.782 361.449 377.423 361.803 376.704H363.525C363.292 377.413 362.867 377.997 362.251 378.454C361.645 378.902 360.889 379.126 359.983 379.126C359.246 379.126 358.583 378.963 357.995 378.636C357.417 378.3 356.959 377.833 356.623 377.236C356.297 376.629 356.133 375.929 356.133 375.136C356.133 374.343 356.292 373.647 356.609 373.05C356.936 372.443 357.389 371.977 357.967 371.65C358.555 371.323 359.227 371.16 359.983 371.16C360.711 371.16 361.36 371.319 361.929 371.636C362.499 371.953 362.942 372.401 363.259 372.98C363.577 373.549 363.735 374.207 363.735 374.954ZM362.069 374.45C362.06 373.862 361.85 373.391 361.439 373.036C361.029 372.681 360.52 372.504 359.913 372.504C359.363 372.504 358.891 372.681 358.499 373.036C358.107 373.381 357.874 373.853 357.799 374.45H362.069ZM366.902 368.64V379H365.306V368.64H366.902Z" fill="black"/>
</svg>
