<svg width="250" height="250" viewBox="0 0 250 250" fill="none" xmlns="http://www.w3.org/2000/svg">
<path opacity="0.25" d="M60.2207 60.3689C60.2207 60.3689 36.4734 88.839 31.515 119.988C26.5566 151.136 40.74 182.87 68.7447 199.324C96.7495 215.778 130.575 198.497 166.059 201.774C201.543 205.05 232.699 188.848 233.637 151.12C234.574 113.391 208.749 109.884 190.185 74.1828C171.62 38.4819 117.784 -2.93443 60.2207 60.3689Z" fill="#AA8ED6"/>
<g clip-path="url(#clip0_536_616)">
<path d="M48.8508 132.068C48.5969 130.963 49.2888 130.009 49.3474 128.946C49.3976 128.017 49.6905 127.097 49.6905 126.17C49.6766 120.451 50.7005 114.868 51.8472 109.299C52.2127 107.525 52.1122 107.148 50.5666 106.208C46.6746 103.831 44.2585 100.441 43.3462 95.9746C42.6822 92.7242 42.9807 89.5465 44.2139 86.4887C44.8807 84.8342 45.8767 84.4883 47.4642 85.3253C49.9444 86.631 52.0927 88.3747 53.909 90.5285C55.1979 92.0547 56.1382 93.7928 57.123 95.5114C57.6029 96.3484 58.0604 96.4516 58.6324 95.6704C60.8867 92.5847 63.9389 90.4114 66.966 88.1989C67.577 87.7525 67.8114 87.2169 67.5603 86.3938C66.9241 84.3181 67.2868 82.2368 67.9676 80.2587C69.0445 77.1311 70.4339 74.1319 72.2641 71.3615C73.4303 69.5982 74.9481 69.5759 76.3403 71.1774C77.6404 72.6728 78.9433 74.1515 79.8584 75.9343C80.3857 76.961 80.8349 78.0128 81.0497 79.1455C81.2227 80.0606 81.6384 80.3982 82.5786 80.0969C85.815 79.0618 89.0681 78.0714 92.3072 77.0419C95.5798 75.9984 98.8832 75.0833 102.301 74.6592C102.678 74.6118 103.068 74.6592 103.448 74.6258C104.324 74.5532 104.644 75.0554 104.678 75.8143C104.75 77.4492 104.474 79.0674 104.377 80.6939C104.232 83.0793 103.523 85.4006 103.626 87.8167C103.676 88.9885 104.059 89.9733 104.865 90.8187C105.919 91.9263 107.005 93.0088 108.079 94.0941C109.744 95.782 109.968 97.7071 109.465 99.861C108.799 102.726 108.612 105.681 107.867 108.535C107.635 109.422 108.079 110.114 108.827 110.552C109.784 111.116 110.746 111.668 111.787 112.081C114.401 113.116 114.956 114.888 113.533 117.293C112.197 119.553 110.604 121.592 108.698 123.4C106.779 125.219 105.021 127.191 103.308 129.203C102.496 130.157 102.63 130.565 103.835 130.888C104.773 131.139 105.693 131.46 106.642 131.658C108.073 131.957 108.885 132.858 109.242 134.2C109.58 135.464 110.196 136.454 111.36 137.149C112.269 137.693 112.688 138.655 112.827 139.685C113.095 141.671 114.214 142.863 116.108 143.404C119.841 144.464 120.832 146.919 121.593 150.412C121.836 151.517 120.98 152.028 120.092 152.368C117.498 153.361 114.9 154.343 112.295 155.309C111.212 155.708 110.651 156.411 110.735 157.596C110.824 158.877 110.891 160.158 110.953 161.438C111.003 162.501 110.565 163.335 109.669 163.896C107.072 165.528 104.363 166.968 101.486 168.011C99.3742 168.776 97.2901 168.254 95.4236 167.038C92.7285 165.274 90.3096 163.215 88.5408 160.47C87.7512 159.248 86.585 158.724 85.1426 158.883C82.4726 159.178 79.8138 159.12 77.1382 158.894C73.9353 158.623 70.8273 158.012 67.8504 156.79C66.9214 156.408 65.9839 156.048 65.119 155.512C63.0321 154.218 60.7667 153.571 58.2948 153.618C57.7089 153.629 56.9556 153.777 56.6097 152.999C56.5148 152.136 57.19 151.484 57.1955 150.608C57.2011 149.123 57.0281 147.689 56.5427 146.294C55.6025 143.599 54.7655 140.865 53.7499 138.198C52.7818 135.656 51.398 133.388 48.8536 132.079L48.8508 132.068Z" fill="#FDC4C0"/>
<path d="M166.749 82.3428C168.955 81.185 171.182 81.2575 173.556 81.9159C177.839 83.1045 182.138 84.2232 186.22 86.0144C194.311 89.5688 199.888 95.4919 202.918 103.8C203.702 105.951 204.497 108.097 204.912 110.362C205.021 110.954 204.999 111.54 205.016 112.128C205.06 113.735 205.267 114.009 206.838 114.425C210.135 115.295 213.207 114.076 214.803 111.261C215.355 110.29 215.313 110.27 214.236 110.136C212.906 109.972 211.522 109.952 210.414 108.995C208.57 107.397 208.21 105.075 209.51 102.874C210.057 101.948 210.576 100.983 211.681 100.578C213.137 100.045 214.356 100.631 215.436 101.496C216.189 102.099 216.881 102.793 217.442 103.608C217.956 104.353 218.421 104.297 218.801 103.466C219.616 101.683 220.001 99.7801 220.249 97.8522C220.305 97.4225 220.455 97.0543 220.628 96.6748C220.921 96.0276 221.44 95.7988 222.079 95.9829C222.654 96.1475 222.997 96.566 222.997 97.2217C223 99.3616 222.637 101.429 221.859 103.424C221.348 104.727 220.561 105.868 219.797 107.028C219.25 107.863 218.812 108.767 218.536 109.76C217.462 113.627 215.012 116.16 211.081 117.128C209.828 117.435 208.523 117.379 207.253 117.136C205.543 116.807 204.993 117.242 204.787 118.955C204.187 123.975 202.971 128.854 200.956 133.488C197.569 141.286 193.373 148.646 188.535 155.641C186.878 158.04 185.299 160.492 183.689 162.925C182.038 165.422 179.786 167.378 177.585 169.328C176.006 170.726 173.885 170.536 171.902 170.082C169.234 169.468 166.564 168.857 164 167.866C162.522 167.294 162.059 166.471 162.321 164.884C162.513 163.726 162.887 162.593 162.801 161.391C162.739 160.534 162.352 159.856 161.506 159.934C157.413 160.308 153.929 158.517 150.377 156.946C148.438 156.09 146.51 155.208 144.574 154.346C144.169 154.165 143.751 154.017 143.338 153.855C142.289 152.7 142.216 152.064 143.009 151.062C143.095 151.001 143.19 150.954 143.288 150.917C145.235 150.415 147.23 150.131 149.144 149.453C151.108 148.758 152.503 147.673 152.793 145.496C152.815 145.326 152.885 145.162 152.949 145C153.558 144.046 153.931 143.008 154.063 141.883C154.651 140.65 155.675 139.995 156.975 139.746C159.815 139.205 162.296 137.977 164.483 136.08C165.856 134.892 166.442 133.474 166.02 131.72C165.094 127.855 163.914 124.069 162.463 120.37C162.248 119.82 162.039 119.265 161.81 118.718C161.149 117.136 161.551 115.744 162.684 114.595C164.249 113.007 165.627 111.247 167.287 109.754C168.81 108.382 169.243 106.724 168.833 104.746C167.881 100.143 166.969 95.5337 166.107 90.9136C165.75 88.9969 165.529 87.0774 165.875 85.1132C166.045 84.1395 166.698 83.3416 166.74 82.3456L166.749 82.3428Z" fill="#FDC4C0"/>
<path d="M166.749 82.3428C166.891 82.4488 167.416 82.2451 167.173 82.6302C165.284 85.6684 166.015 88.8601 166.612 92.0212C167.438 96.407 168.387 100.768 169.218 105.154C169.531 106.805 169.137 108.306 167.89 109.559C166.171 111.283 164.495 113.046 162.832 114.826C161.833 115.895 161.468 117.122 162.059 118.559C163.627 122.384 164.849 126.324 165.996 130.297C166.95 133.603 166.3 135.148 163.688 137.101C161.758 138.547 159.64 139.529 157.28 139.944C155.957 140.176 154.981 140.851 154.228 141.917C153.737 141.621 153.784 141.085 153.656 140.631C153.229 139.113 152.729 137.665 151.421 136.608C149.853 135.338 148.051 135.344 146.254 135.612C141.511 136.32 137.103 137.944 133.172 140.753C132.854 140.982 132.555 141.367 132.067 141.119C131.813 138.421 133.216 136.39 134.815 134.47C136.528 132.414 137.993 130.246 138.417 127.532C138.688 125.794 138.559 124.078 138.183 122.365C137.142 117.627 137.362 113.052 139.963 108.786C141.31 106.576 143.149 104.852 145.258 103.393C146.432 102.581 147.582 101.744 148.433 100.564C149.142 99.5848 149.541 98.4939 149.758 97.3137C150.994 90.5676 155.065 86.2543 161.345 83.8494C163.097 83.1798 164.863 82.5493 166.746 82.3456L166.749 82.3428Z" fill="#E58B84"/>
<path d="M131.54 160.741C138.297 160.894 144.203 163.227 149.214 167.788C149.733 168.26 150.101 168.851 150.495 169.426C151.753 171.259 151.764 173.111 150.631 175C150.165 175.776 149.73 176.568 149.253 177.335C148.383 178.742 146.968 179.093 145.47 179.132C140.769 179.255 136.316 178.041 131.961 176.437C128.984 175.341 126.138 173.96 123.566 172.074C121.836 170.804 121.272 169.083 121.724 167.015C122.628 162.895 124.925 160.95 129.137 160.746C129.935 160.707 130.739 160.741 131.54 160.741Z" fill="#F6C860"/>
<path d="M115.614 135.037C112.637 135.101 111.747 134.526 110.629 131.893C110.193 130.866 109.859 129.811 109.697 128.701C109.245 125.596 110.601 123.369 113.129 121.762C117.517 118.975 122.313 117.499 127.528 117.51C128.948 117.513 130.362 117.686 131.757 118.015C133.35 118.389 134.444 119.324 134.985 120.833C135.646 122.68 136.029 124.6 135.803 126.564C135.549 128.779 134.159 130.202 132.215 131.086C128.172 132.922 123.948 134.138 119.523 134.627C118.178 134.775 116.85 135.087 115.614 135.037Z" fill="#F6C860"/>
<path d="M132.067 141.116C133.557 140.248 134.924 139.185 136.481 138.413C139.985 136.669 143.648 135.511 147.565 135.229C151.002 134.981 152.994 137.009 153.806 140.103C153.963 140.703 154.091 141.311 154.23 141.917C154.32 143.117 153.831 144.121 153.165 145.064C151.753 147.162 149.552 148.233 147.465 149.455C146.114 150.245 144.611 150.649 143.137 151.129L143.149 151.124C141.899 151.724 140.674 152.407 139.212 152.29C137.602 152.535 136.015 152.848 134.352 152.72C132 152.541 130.934 151.093 130.17 149.098C128.973 145.971 129.843 143.401 132.07 141.119L132.067 141.116Z" fill="#F6C860"/>
<path d="M48.8507 132.068C50.7758 132.392 51.7384 133.885 52.6535 135.344C53.722 137.054 54.4083 138.951 54.9803 140.887C55.675 143.245 56.7463 145.482 57.2485 147.899C57.614 149.662 57.7368 151.406 56.6096 152.987C54.0261 154.943 51.2138 154.279 49.5538 151.224C48.0389 148.434 47.054 145.441 46.3621 142.344C45.9241 140.382 45.3968 138.438 45.5195 136.396C45.6423 134.373 46.9759 132.615 48.848 132.071L48.8507 132.068Z" fill="#E58B84"/>
<path d="M139.212 152.287C140.548 151.98 141.784 151.336 143.149 151.121C142.526 151.88 142.591 152.622 143.185 153.364C143.294 153.501 143.578 153.598 143.344 153.852C141.901 153.504 140.467 153.13 139.215 152.287H139.212Z" fill="#E68D85"/>
<path d="M71.636 84.3627C71.4575 82.7362 71.742 80.6967 72.7213 78.7884C73.0198 78.2081 73.2598 77.5245 74.0968 77.558C74.9617 77.5943 75.09 78.3141 75.2713 78.939C76.2869 82.4265 76.1641 85.9084 75.1207 89.3595C74.8501 90.2607 74.3255 91.279 73.3072 91.2763C72.2414 91.2735 72.2414 90.0933 71.9876 89.2954C71.5272 87.8418 71.6611 86.3408 71.6332 84.3627H71.636Z" fill="#E58C85"/>
<path d="M62.5548 131.097C62.6413 130.737 62.7557 130.196 62.9063 129.663C63.2746 128.349 62.8924 127.604 61.5895 127.189C61.1933 127.063 60.7776 126.999 60.387 126.859C59.9517 126.703 59.6923 126.394 59.8346 125.891C59.9741 125.397 60.281 125.082 60.8194 125.185C61.2212 125.264 61.6034 125.442 61.9968 125.576C63.1435 125.967 63.7042 125.649 63.9581 124.474C64.0474 124.069 64.1116 123.651 64.2567 123.266C64.4659 122.716 64.9179 122.574 65.448 122.764C65.9613 122.948 66.1092 123.347 65.9613 123.857C65.8832 124.122 65.766 124.379 65.6823 124.641C65.1997 126.151 65.5289 126.765 67.0076 127.342C67.6158 127.579 68.1793 127.942 68.7318 128.296C69.2674 128.639 69.3093 129.139 68.9689 129.649C68.6257 130.166 68.1849 130.113 67.7023 129.828C67.1052 129.476 66.5082 129.119 65.886 128.821C65.3364 128.556 64.9374 128.757 64.8007 129.365C64.6305 130.11 64.5161 130.869 64.318 131.605C64.1702 132.155 63.7935 132.54 63.1741 132.437C62.5213 132.328 62.5771 131.773 62.5548 131.095V131.097Z" fill="#2F2A23"/>
<path d="M54.0959 100.57C54.1098 101.722 53.3398 102.085 52.3493 101.546C50.5582 100.57 49.3892 99.0602 48.6973 97.1798C48.3541 96.2452 47.9412 95.3133 48.0137 94.2671C48.0472 93.8068 48.0305 93.3352 48.5215 93.1037C49.0488 92.8554 49.4589 93.1539 49.8356 93.4775C51.1692 94.6298 52.1485 96.0415 52.8794 97.6346C53.3398 98.639 53.8727 99.6127 54.0959 100.567V100.57Z" fill="#E58C85"/>
<path d="M198.964 125.827C198.658 127.002 198.326 128.38 197.938 129.741C196.744 133.926 194.704 137.69 192.185 141.211C191.766 141.797 191.256 142.224 190.53 141.747C189.713 141.208 189.908 140.569 190.41 139.886C193.382 135.838 195.452 131.371 196.546 126.46C196.635 126.056 196.735 125.654 196.822 125.25C196.947 124.655 197.293 124.293 197.913 124.388C198.574 124.491 198.928 124.932 198.967 125.827H198.964Z" fill="#FEFEFE"/>
<path d="M214.173 107.232C211.955 107.221 211.402 106.629 211.701 104.713C211.882 103.549 212.878 103.058 213.846 103.722C214.351 104.068 214.797 104.54 215.166 105.034C215.556 105.561 215.905 106.205 215.57 106.872C215.247 107.519 214.558 107.09 214.173 107.229V107.232Z" fill="#FEFEFE"/>
<path d="M143.137 151.127C144.719 150.284 146.446 149.759 148.014 148.869C149.892 147.806 151.582 146.515 153.164 145.061C152.933 147.857 151.172 149.148 148.667 149.907C146.845 150.457 144.995 150.783 143.137 151.127Z" fill="#E58C85"/>
<path d="M199.151 119.522C199.151 119.938 199.188 120.356 199.143 120.766C199.076 121.386 198.705 121.821 198.08 121.824C197.472 121.824 197.112 121.489 197.028 120.794C196.928 119.965 196.919 119.168 197.028 118.339C197.109 117.7 197.419 117.326 197.974 117.321C198.596 117.315 199.101 117.664 199.149 118.381C199.174 118.76 199.154 119.14 199.154 119.522H199.151Z" fill="#FEFEFE"/>
<path d="M130.173 161.77C135.752 161.82 140.744 163.718 145.403 166.647C146.34 167.236 147.261 167.855 148.173 168.48C148.692 168.834 149.144 169.261 149.457 169.822C150.341 171.41 149.697 172.57 147.886 172.648C145.718 172.743 143.592 172.445 141.536 171.806C137.34 170.503 133.035 169.484 129.124 167.398C127.851 166.72 126.551 166.014 125.734 164.733C125.117 163.765 125.377 162.864 126.403 162.309C127.595 161.664 128.889 161.776 130.173 161.77Z" fill="#EEB137"/>
<path d="M127.583 173.446C127.355 173.421 127.134 173.081 127.299 172.679C127.712 171.661 128.192 170.665 128.688 169.683C128.856 169.353 129.213 169.219 129.587 169.362C129.994 169.515 130.058 169.903 129.947 170.229C129.584 171.273 129.068 172.252 128.482 173.19C128.351 173.399 128.114 173.499 127.586 173.449L127.583 173.446Z" fill="#EEB237"/>
<path d="M145.021 177.012C145.252 176.13 145.634 175.14 146.151 174.202C146.351 173.84 146.725 173.823 147.057 174.01C147.325 174.163 147.565 174.381 147.412 174.769C147.043 175.695 146.689 176.627 146.324 177.556C146.162 177.966 145.866 178.167 145.425 178.033C145.001 177.902 145.015 177.531 145.021 177.012Z" fill="#EEB237"/>
<path d="M135.183 172.383C134.904 173.192 134.594 174.177 134.22 175.137C134.112 175.416 133.813 175.659 133.459 175.511C133.085 175.355 132.806 175.042 132.923 174.612C133.185 173.65 133.478 172.696 133.802 171.753C133.941 171.348 134.338 171.359 134.686 171.421C135.119 171.496 135.2 171.825 135.177 172.383H135.183Z" fill="#EEB237"/>
<path d="M141 174.319C140.83 175.028 140.484 175.968 140.038 176.861C139.87 177.196 139.516 177.327 139.142 177.196C138.726 177.048 138.682 176.663 138.777 176.328C139.028 175.433 139.312 174.548 139.633 173.675C139.764 173.312 140.043 172.969 140.501 173.139C140.88 173.282 141.098 173.605 141.003 174.319H141Z" fill="#EEB237"/>
<path d="M125.354 167.398C125.002 168.226 124.894 169.18 124.363 169.97C124.185 170.235 123.923 170.45 123.571 170.255C123.208 170.054 122.974 169.736 123.114 169.311C123.37 168.525 123.66 167.746 123.956 166.974C124.09 166.625 124.394 166.53 124.726 166.625C125.08 166.725 125.318 166.968 125.354 167.398Z" fill="#EEB238"/>
<path d="M114.194 127.487C113.857 127.44 113.324 127.632 112.83 127.359C111.025 126.363 111.178 125.012 112.858 123.503C115.525 121.101 118.87 119.965 122.369 119.368C124.135 119.067 125.931 118.93 127.714 118.732C128.867 118.604 129.996 118.841 131.124 119.017C132.019 119.156 132.65 119.767 132.851 120.632C133.077 121.609 132.563 122.387 131.829 122.993C131.068 123.62 130.153 123.991 129.232 124.287C124.782 125.718 120.271 126.904 115.617 127.476C115.207 127.526 114.783 127.482 114.191 127.482L114.194 127.487Z" fill="#EEB137"/>
<path d="M129.762 129.864C129.768 130.319 129.768 130.684 129.33 130.804C128.872 130.93 128.582 130.693 128.445 130.286C128.116 129.301 127.801 128.31 127.508 127.311C127.399 126.946 127.486 126.589 127.921 126.494C128.303 126.41 128.724 126.394 128.886 126.865C129.232 127.881 129.609 128.891 129.762 129.861V129.864Z" fill="#EEB237"/>
<path d="M111.379 130.054C111.362 129.619 111.438 129.348 111.739 129.234C112.11 129.091 112.49 129.203 112.64 129.541C113.075 130.514 113.466 131.51 113.829 132.517C113.954 132.863 113.659 133.095 113.385 133.26C113.089 133.438 112.83 133.293 112.66 133.059C111.976 132.119 111.639 131.033 111.382 130.054H111.379Z" fill="#EEB238"/>
<path d="M134.36 127.278C134.36 128.014 134.38 128.478 133.794 128.525C133.303 128.567 133.026 128.266 132.909 127.811C132.703 127.007 132.482 126.204 132.307 125.392C132.215 124.973 132.201 124.527 132.761 124.39C133.261 124.268 133.562 124.502 133.699 124.973C133.95 125.836 134.193 126.7 134.357 127.278H134.36Z" fill="#EEB238"/>
<path d="M117.459 129.382C117.782 129.359 118.011 129.61 118.125 129.959C118.385 130.74 118.63 131.527 118.856 132.319C118.979 132.749 118.764 133.073 118.396 133.257C117.936 133.486 117.629 133.154 117.498 132.81C117.166 131.948 116.859 131.069 116.652 130.171C116.552 129.739 116.822 129.368 117.461 129.382H117.459Z" fill="#EEB238"/>
<path d="M124.325 131.136C124.327 131.694 124.249 131.982 123.867 132.071C123.468 132.163 123.136 131.985 122.994 131.655C122.651 130.863 122.363 130.043 122.081 129.225C121.975 128.913 122.006 128.57 122.36 128.422C122.729 128.268 123.2 128.215 123.382 128.623C123.775 129.502 124.062 130.425 124.322 131.136H124.325Z" fill="#EEB238"/>
<path d="M133.024 146.534C132.098 146.523 131.322 146.3 130.923 145.597C130.538 144.922 130.957 144.283 131.375 143.688C132.664 141.861 134.586 140.826 136.439 139.78C139.781 137.891 143.428 136.767 147.205 136.111C147.914 135.988 148.664 136.044 149.393 136.089C150.015 136.125 150.442 136.596 150.592 137.11C150.799 137.81 150.737 138.544 150.191 139.163C149.301 140.17 148.185 140.89 147.035 141.518C143.216 143.608 139.19 145.192 134.949 146.211C134.279 146.372 133.59 146.439 133.024 146.531V146.534Z" fill="#EEB137"/>
<path d="M143.796 144.869C144.239 144.855 144.457 144.972 144.56 145.212C144.917 146.04 145.269 146.872 145.592 147.712C145.712 148.021 145.668 148.351 145.33 148.523C145.02 148.683 144.699 148.635 144.476 148.364C143.821 147.572 143.508 146.598 143.204 145.65C143.053 145.181 143.553 144.977 143.798 144.869H143.796Z" fill="#EEB237"/>
<path d="M131.654 148.942C131.637 148.504 131.656 148.219 131.952 148.074C132.265 147.921 132.583 147.96 132.803 148.228C133.383 148.931 133.699 149.785 134.061 150.602C134.195 150.903 133.939 151.177 133.654 151.361C133.37 151.545 133.138 151.484 132.92 151.249C132.27 150.546 131.966 149.665 131.651 148.942H131.654Z" fill="#EEB238"/>
<path d="M137.08 148.431C137.072 147.823 137.119 147.483 137.558 147.391C137.903 147.318 138.166 147.447 138.325 147.77C138.646 148.417 138.983 149.056 139.284 149.709C139.441 150.047 139.449 150.415 139.067 150.61C138.749 150.772 138.302 150.828 138.116 150.513C137.683 149.785 137.354 148.992 137.083 148.431H137.08Z" fill="#EEB238"/>
<path d="M152.112 143.608C152.126 144.146 151.939 144.414 151.638 144.528C151.262 144.673 150.929 144.439 150.759 144.143C150.416 143.546 150.106 142.921 149.864 142.28C149.705 141.861 149.841 141.412 150.285 141.217C150.734 141.018 150.994 141.351 151.178 141.708C151.524 142.386 151.85 143.072 152.112 143.608Z" fill="#EEB238"/>
</g>
<defs>
<clipPath id="clip0_536_616">
<rect width="180" height="109.143" fill="white" transform="translate(43 70)"/>
</clipPath>
</defs>
</svg>
