<?xml version="1.0" encoding="UTF-8"?><svg id="Capa_2" xmlns="http://www.w3.org/2000/svg" viewBox="0 0 1674.78 1674.7"><defs><style>.cls-1{fill:#d97700;}.cls-2{fill:#fff;}.cls-3,.cls-4{fill:#b471fc;}.cls-5{fill:#fc5671;}.cls-6{fill:#5f5d6b;}.cls-7{fill:#717ffc;}.cls-8{fill:#1a182c;}.cls-9{fill:#444afc;}.cls-10{fill:#ff786e;}.cls-11{fill:#c41c6a;}.cls-12{fill:#faead3;}.cls-13{fill:#ff6478;}.cls-14{fill:#fcb600;}.cls-15{fill:#fcd56f;}.cls-16{fill:#3e30d9;}.cls-17{fill:#ba2959;}.cls-18{fill:#dfc5fc;}.cls-4{opacity:.6;}.cls-19{fill:#ffa298;}</style></defs><g id="Capa_16"><g><g><path class="cls-14" d="M1348.76,1316.74s9.04,6.24,11.43,19.75l-24.94,14.33s-3.07-23.97,13.51-34.07Z"/><path class="cls-9" d="M1398.32,1351.68s8.24,7.27,9.01,20.96l-26.46,11.27s-.21-24.17,17.45-32.23Z"/><path class="cls-11" d="M1440.99,1370.39s8.24,7.27,9.01,20.96l-26.46,11.27s-.21-24.17,17.45-32.23Z"/><path class="cls-9" d="M1196.14,1542.95s1.71-10.85,12.85-18.85l23.71,16.28s-20.28,13.14-36.56,2.57Z"/><path class="cls-14" d="M1150.52,1513.02s1.71-10.85,12.85-18.85l23.71,16.28s-20.28,13.14-36.56,2.57Z"/><path class="cls-11" d="M1252.99,1574.06s2.94-7.7,14.64-14.85l23.71,13.71s-22.9,12.89-38.35,1.14Z"/></g><circle class="cls-4" cx="772.18" cy="772.18" r="772.18"/><path class="cls-18" d="M1186.98,356.36c-133.99-134.02-351.26-134.04-485.28-.05-134.02,133.99-134.04,351.26-.05,485.28,133.99,134.02,351.26,134.04,485.28,.05l.05-.05c133.79-134.08,133.79-351.16,0-485.24Zm-437.11,437.11c-107.44-107.46-107.43-281.67,.03-389.11,107.46-107.44,281.67-107.43,389.11,.03,107.43,107.45,107.43,281.63,0,389.08-107.53,107.29-281.61,107.29-389.14,0Zm-88.37,168.7l59.46-59.46c-30.72-22.64-57.85-49.77-80.49-80.49l-59.46,59.46-26.94-26.94-232.93,232.93c-37.15,37.15-37.15,97.38,0,134.53,37.15,37.15,97.38,37.15,134.53,0l232.93-232.93-27.1-27.1Zm-302.41,222.08c-6.28,6.55-16.68,6.77-23.23,.49-1.69-1.62-3.01-3.58-3.88-5.74-9.75-22.95-4.62-49.52,12.98-67.18l197.12-197.12,23.98,23.98-197.12,197.12c-7.67,7.74-9.99,19.3-5.91,29.4,2.8,6.25,1.42,13.58-3.45,18.4l-.49,.66ZM1090.4,459.19c-12.9-13.51-27.6-25.18-43.69-34.66-4.36-2.23-9.71-.51-11.94,3.85-1.71,3.33-1.14,7.38,1.42,10.11l1.48,1.48c83.32,83.47,83.2,218.68-.27,302-14.5,14.47-31,26.78-49.01,36.55-4.34,2.27-6.01,7.64-3.74,11.97,1.93,3.67,6.14,5.52,10.14,4.45,108.21-27.6,173.56-137.7,145.96-245.91-8.59-33.67-25.7-64.55-49.7-89.68l-.66-.16Z"/><path class="cls-19" d="M851.68,915.16c16.32-18.27,56.11-51.84,82.82-38.99,32.78,15.74-.36,72.71-14.08,91.41"/><path class="cls-19" d="M939.06,967.51c70.62-77.55,120.37-31.48,79.07,40.51"/><path class="cls-19" d="M1028.52,1014.22c28.02-21.23,60.29-22.6,47.37,28.23"/><path class="cls-10" d="M945.05,920.43h0c-16.61,24.33-67.3-13.43-77.7-20.58-6.28,5.42-11.7,10.76-15.67,15.24l68.74,52.42c6.93-9.39,18.77-28.45,24.62-47.08Z"/><path class="cls-10" d="M1031.48,974.87c-16.68,23.68-60.87-10.9-76.76-22.89-5.13,4.48-10.33,9.68-15.74,15.6l79.07,40.51c6.93-11.99,11.26-23.18,13.43-33.22Z"/><path class="cls-10" d="M1028.52,1014.22l47.37,28.23c2.09-8.38,3.03-15.31,2.89-21.01-5.2,5.49-31.48-9.53-38.13-15.02-3.97,2.09-8.09,4.77-12.13,7.8Z"/><path class="cls-8" d="M638.82,941.29s-236.91-146.08-250.63-154.38c-11.63-7-11.26-16.25-9.1-24.48,3.18-12.28,5.2-16.46,6.5-19.42,2.17-5.05,5.92-8.81,26.72-10.04,0,0,112.14-7.15,120.95-7.22,10.47-.07,22.31-.14,36.83,7.37l.36,.22,551.88,328.33,.43,.22c6.21,3.83,19.13,11.77,19.57,24.48,.29,8.3-4.91,16.17-15.31,23.54l-41.59,20.07h-56.9l-389.7-188.68Z"/><path class="cls-12" d="M690.23,922.16l-269.12-165.79c-10.04-6.72-14.66-15.89,3.32-17.11,63.9-4.26,100.66-6.43,108.82-6.43,10.33-.07,20.65-.07,33.43,6.57l551.81,328.33c8.16,4.98,30.25,17.98,4.33,36.25-25.92,18.27-77.84,8.66-77.84,8.66l-193.15-82.17-161.6-108.31Z"/><path class="cls-6" d="M675.07,919.7l-269.12-165.79c-3.39-2.31-9.17-6.79-9.53-11.63-.14-1.81,.51-3.39,1.88-4.62l1.95,2.09c-.72,.65-1.01,1.37-.94,2.31,.22,2.53,3.32,6.14,8.23,9.39l269.04,165.72-1.52,2.53Z"/><polygon class="cls-6" points="508.27 845.26 505.74 843.81 509.93 836.52 470.21 812.12 471.73 809.66 513.83 835.51 508.27 845.26"/><path class="cls-19" d="M772.98,1259.94c1.01,37.19,58.7,66,87.52,83.33,18.7,11.26,135.24,78.34,258.07,139.29,52.95,26.27,248.54,132.95,325.44,174.99,20.59,11.26,43.67,17.15,67.13,17.15h64.48c54.77,0,99.17-44.4,99.17-99.17v-4.87c0-57.57-35.25-109.27-88.85-130.29-112.09-43.96-257.35-92.97-272.84-140.36-92.28-282.55-320.02-204.71-464.15-285.44-32.71-18.34-92.28-66.21-126.87-81.74-75.75-34.08-101.67-3.75-70.33,49.17,12.64,21.3,32.35,47.37,55.6,74.59l3.54,4.12c0,110.91-11.34,146.87,61.16,198.5l.94,.72Z"/><path class="cls-10" d="M807.49,1284.64c-14.44-8.52-26.43-16.17-36.61-23.47l2.53-3.54c10.11,7.22,22.02,14.8,36.32,23.25l-2.24,3.75Z"/><path class="cls-10" d="M905.62,1241.39c-42.1-22.02-130.12-102.39-196.33-179.15l3.25-2.82c65.85,76.4,153.37,156.33,195.03,178.14l-1.95,3.83Z"/><path class="cls-2" d="M669.36,980.07h-.36c-6.35-.51-22.53-15.45-27.58-25.42l-.22-.43v-.51c0-11.48,5.92-18.77,10.9-22.89,5.99-4.91,16.25-9.17,23.18-7.8,10.25,2.02,18.99,12.42,23.32,20.65,1.37,2.67,4.48,9.24,2.96,12.85-1.16,2.74-4.69,4.62-9.53,7.15-6.35,3.32-14.3,7.51-19.71,15.09-.43,.43-1.3,1.3-2.96,1.3Zm-23.83-27.01c5.2,9.89,19.71,22.02,23.54,22.6,5.99-8.16,14.59-12.64,20.94-15.96,3.47-1.81,7-3.68,7.58-5.05,.29-.65-.07-3.83-2.82-9.1-3.9-7.44-11.63-16.68-20.36-18.41h0c-3.61-.72-12.42,1.01-19.57,6.93-4.19,3.47-9.17,9.53-9.31,18.99Z"/><path class="cls-2" d="M668.35,977.47c-.29-8.3,1.44-14.22,5.27-18.12,5.34-5.42,13.94-6.28,25.99-5.99l-.14,4.33c-10.9-.29-18.56,.36-22.82,4.69-2.96,3.03-4.33,7.87-4.04,14.95l-4.26,.14Z"/><path class="cls-10" d="M710.95,1060.87c0,33.65-1.01,60.37-.43,82.75,18.99-37.48,108.82,35.24,159.29,71.2"/><path class="cls-13" d="M727.63,1095.96c-2.6-18.49,15.24-57.48,31.27-68.38l2.46,3.61c-14.73,10.04-31.84,47.22-29.39,64.19l-4.33,.58Z"/><path class="cls-13" d="M905.62,1241.39c-42.1-22.02-130.12-102.39-196.33-179.15l3.25-2.82c65.85,76.4,153.37,156.33,195.03,178.14l-1.95,3.83Z"/><path class="cls-13" d="M849.88,1176.62c-1.88-13.07,10.76-40.72,22.17-48.45l2.46,3.61c-10.18,6.93-21.95,32.57-20.29,44.26l-4.33,.58Z"/><path class="cls-10" d="M1310.2,708.14h-.94c-4.62-.14-9.24-.29-13.86-.36-.51,0-1.08,0-1.59-.07-3.54-.07-7.15-.14-10.69-.29-8.3-.22-16.61-.36-24.91-.51-2.38-.07-4.77-.07-7.15-.07-3.39-.07-6.86-.07-10.25-.14h-1.08c-4.91-.07-9.82-.07-14.66-.14-2.74-24.55-32.93-57.84-54.73-66.07,80.8,4.12,130.26,37.76,139.87,67.66Z"/><path class="cls-10" d="M1228.82,887.93c27.44,13.5,17.33,48.6-39.5,35.96h0c-3.47-12.28-11.34-27.08-24.77-43.4-10.98-13.36-27.73-49.97-28.31-73.51,26.93,5.92,55.96,11.26,80.22,15.16-42.82,25.06-15.16,52.35,12.35,65.78Z"/><path class="cls-10" d="M1189.33,923.89c7.51,26.5-5.05,41.09-24.77,32.93-99.79-41.37-107.16-129.47-110.98-152.65,7.15-14.73,11.34-17.11,11.34-17.11,15.09,6.43,41.95,13.43,71.41,19.93,.58,23.54,17.33,60.22,28.31,73.51,13.36,16.32,21.16,31.12,24.69,43.4h0Z"/><path class="cls-10" d="M1225,706.62c-65.06-.29-123.33,1.95-147.3,9.46-61.52,19.21-53.79,53.58-12.78,70.98,0,0-4.19,2.38-11.34,17.11-5.42,11.19-12.56,29.6-20.87,59.5-19.21,69.32-69.03,64.55-70.84,32.35-8.59-153.66,72.21-230.7,130.19-252.15h0c24.98-3.18,51.05-4.62,78.27-3.25,21.66,8.16,51.92,41.37,54.66,66Z"/><path class="cls-19" d="M1094.73,695.28c2.38-15.52-5.85-28.23-21.59-30.62-6.35-.94-13-.94-19.5,.07-47.15,34.37-94.01,102.82-92.43,214.38,2.24,.72,4.04,1.16,5.2,1.23,24.33,.94,36.03-21.59,43.69-41.16,9.17-23.68,16.75-46.21,31.92-66.79-17.91-18.05-11.41-41.66,35.67-56.39,2.96-.94,6.5-1.81,10.54-2.6,2.96-5.7,5.49-11.7,6.5-18.12Z"/><path id="a" class="cls-19" d="M1299.08,707.85c-90.98-2.46-188.53-2.09-221.46,8.23-61.52,19.21-53.79,53.58-12.78,70.98,41.01,17.4,169.11,39.71,199.87,41.37,30.76,1.66,87.15,125.42,253.66,139.36,20.61,1.74,64.08,31.95,99.97,59.58,23.02,17.72,56.36,1.27,56.36-27.77v-145.75c0-46.96-20.8-91.49-56.77-121.69-115.94-97.36-288.57-204.01-327.09-204.26-57.48-.43-278.58,.43-437.07,109.54-24.41,16.82-28.59,55.31,42.89,47.08,71.41-8.23,163.48-49.46,273.52-43.97,71.36,3.56,118.2,30.14,134.87,56.87,2.88,4.61-.54,10.57-5.98,10.43h0Z"/><path class="cls-19" d="M1064.84,787.06c-41.01-17.4-48.67-51.77,12.78-70.98,32.93-10.25,130.41-10.69,221.46-8.23l183.62,8.23-62.17,54.23-204.13,36.68"/><path class="cls-2" d="M1075.96,778.83c-7.08,0-12.2-.79-12.64-.87l-.58-.07-.43-.43c-6.14-5.34-10.25-14.66-10.76-24.41-.51-9.6,2.67-18.49,8.95-25.06l.58-.58,.79-.07c16.97-1.44,41.3,2.67,50.98,8.59,4.33,2.6,6.72,7.73,6.57,13.94-.14,7.51-4.26,17.33-13.14,22.31h0c-9.75,5.42-21.52,6.64-30.33,6.64Zm-11.41-5.05c3.83,.51,24.91,2.89,39.5-5.42h0c7.37-4.19,10.76-12.35,10.9-18.56,.07-4.69-1.59-8.38-4.55-10.18-8.74-5.34-31.63-9.17-47.51-8.09-6.43,7.15-7.51,15.45-7.22,21.23,.51,8.3,3.97,16.39,8.88,21.01Z"/><path class="cls-2" d="M1103.11,770.96c-3.47-10.61-2.24-29.39,2.38-36.46l3.61,2.38c-3.54,5.49-5.13,22.67-1.88,32.78l-4.12,1.3Z"/><path class="cls-10" d="M1474.69,718.17c-18.99-1.52-86.87-5.56-164.63-7.87l.14-4.33c77.84,2.31,145.79,6.35,164.85,7.87l-.36,4.33Z"/><path class="cls-19" d="M1222.83,706.84c-1.52-13.65-12.71-32.2-28.45-47.22l2.96-3.1c20,19.06,28.45,38.27,29.75,49.9l-4.26,.43Z"/><path class="cls-10" d="M1052.35,786.41c-14.51-9.53-21.73-22.31-19.93-35.09,2.24-15.81,18.05-29.03,44.62-37.33,4.12-1.3,25.06-6.93,31.27-7.94l.72,4.26c-5.92,1.01-26.79,6.57-30.69,7.8-24.84,7.8-39.64,19.78-41.66,33.79-1.59,11.05,5.05,22.31,18.05,30.9l-2.38,3.61Z"/><path class="cls-19" d="M1055.89,805.33l-3.9-1.95c7.94-15.96,13.14-19.42,13.72-19.71l2.24,3.75-1.08-1.88,1.16,1.81c-.07,0-4.77,3.18-12.13,17.98Z"/><path class="cls-19" d="M1186.08,920.86c-4.12-12.13-12.2-25.63-23.18-38.99-11.19-13.58-28.23-51.05-28.81-74.88l4.33-.07c.51,22.96,16.97,59.07,27.8,72.21,11.55,14.01,19.57,27.58,23.97,40.36l-4.12,1.37Z"/><path class="cls-10" d="M957.83,673.91l-3.83-2.02c12.2-23.47,.58-42.53,.07-43.32l3.68-2.31c.51,.94,13.5,21.95,.07,47.66Z"/><path class="cls-10" d="M1087.59,644.96l-3.9-1.81c13.58-28.96,.22-53.22,.07-53.43l3.75-2.17c.65,1.01,14.66,26.28,.07,57.4Z"/><path class="cls-10" d="M1248.46,661.92l-3.47-2.6c23.47-31.55,25.34-64.84,25.34-65.13l4.33,.22c-.14,1.37-1.95,34.88-26.21,67.51Z"/><path class="cls-2" d="M848.07,645.32l-3.39-2.67c3.83-4.91,37.98-25.85,41.88-28.23l2.24,3.68c-14.44,8.88-38.27,24.04-40.72,27.22Z"/><path class="cls-13" d="M1193.73,785.11c-2.82-11.34-2.82-34.66,0-49.9l4.26,.79c-2.6,14.44-2.67,37.4,0,48.09l-4.26,1.01Z"/><path class="cls-3" d="M789.09,889.92c3.91,3.58,7.61,7.34,11.1,11.1,5.87,6.34,11.31,12.88,16.77,19.41,5.72,6.85,12.48,13.56,17.3,20.71,4.34,6.44,1.94,7.77-4.54,6.13-7.76-1.96-15.54-4.17-23.3-6.23l-50.72-13.39c-13.4-3.54-27.27-9.44-38.86-16.12-11.59-6.68-16.36-11.67-20.63-18.33-12.28-19.11,15.83-16.36,27.39-14.17-3.15-4.97-6.1-9.78-1.37-12.91,15.96-10.54,50.5,8.82,66.88,23.79Z"/><g><path class="cls-15" d="M1348.76,1316.74s-18.28,170.56-198.24,196.27l32.24,20.49c5.27,3.27,11.57,4.4,17.65,3.18,34.8-7,150.94-41.56,180.45-194.09,.57-2.94-.74-5.94-3.29-7.51l-28.8-18.33Z"/><path class="cls-7" d="M1398.32,1351.68s-26.6,159.55-202.18,191.5l32.33,18.79c5.75,3.56,12.71,4.57,19.24,2.8,35.24-9.58,147.67-50.52,181.89-189.1,.75-3.04-.55-6.22-3.21-7.87l-28.07-16.12Z"/><path class="cls-5" d="M1440.99,1370.39s-17.96,170.25-188,204.25l28.88,14.97c5.64,3.18,12.31,3.99,18.54,2.24,33.66-9.43,140.31-50.83,168.08-201.41,.55-2.98-.81-5.98-3.41-7.53l-24.09-12.52Z"/><path class="cls-1" d="M1152.63,1514.65c43.32-1.93,84.78-21.74,117.55-49.44,2.74-2.32-2.3-5.57-4.54-3.68-32.14,27.17-72.47,46.53-114.96,48.42-4.03,.18-1.17,4.84,1.95,4.7h0Z"/><path class="cls-1" d="M1337.45,1451.8c15.86-22.29,28.72-46.69,36.71-72.92,2.91-9.56,5.2-19.31,6.82-29.17,.72-4.36,1.89-9.01-.41-13.1-1.83-3.25-5.21-5.1-8.17-7.18-2.01-1.42-6.45,.7-3.83,2.54,3.22,2.27,7.17,4.26,8,8.46,.78,3.94-.73,8.89-1.44,12.81-1.75,9.58-4.15,19.02-7.16,28.28-7.92,24.4-20.03,47.19-34.89,68.06-1.75,2.46,2.94,4.23,4.37,2.22h0Z"/><path class="cls-1" d="M1275.9,1460.09c8.78-8.94,17.32-18.11,25.61-27.51,2.28-2.59-2.88-3.72-4.64-1.72-8,9.07-16.23,17.93-24.71,26.56-2.56,2.6,1.69,4.76,3.74,2.67h0Z"/><path class="cls-16" d="M1313.22,1490.62c-33.5,26.4-74.29,44.63-116.41,51.52-1.72,.28-3.08,2.22-1.65,3.62,9.37,9.18,23.14,14.49,35.43,18.09,2.81,.82,5.45-3.14,1.95-4.17-11.53-3.37-24.36-8.47-33.13-17.06l-1.65,3.62c43.01-7.03,84.83-25.75,119.04-52.71,2.87-2.26-1.28-4.7-3.56-2.9h0Z"/><path class="cls-16" d="M1427.46,1373.16c-6.7,23.13-15.24,45.66-25.56,67.42-1.38,2.91,2.21,5.39,3.77,2.1,10.32-21.76,18.86-44.28,25.56-67.42,.87-3.01-2.74-5.64-3.77-2.1h0Z"/><path class="cls-16" d="M1397.6,1446.94l-1.11,1.93c-.31,.54-.47,1-.26,1.62,.2,.59,.74,1.16,1.27,1.46,.63,.35,1.38,.59,2.11,.5,.55-.07,1.32-.25,1.62-.77l1.11-1.93c.31-.54,.47-1,.26-1.62-.2-.59-.74-1.16-1.27-1.46-.63-.35-1.38-.59-2.11-.5-.55,.07-1.32,.25-1.62,.77h0Z"/><path class="cls-17" d="M1412.62,1452.78c-18.58,39.35-49.31,72.19-87.36,93.3-3.05,1.69-1.03,5.38,2.03,3.68,39.28-21.78,71.06-55.67,90.24-96.28,1.48-3.14-3.75-3.13-4.9-.69h0Z"/><path class="cls-17" d="M1405.7,1522.55c-28.45,33.35-67.09,57.06-109.64,67.53-2.69,.66-1.05,6.01,1.68,5.34,43.33-10.67,82.48-34.97,111.43-68.9,1.71-2.01-1.36-6.45-3.48-3.97h0Z"/><path class="cls-17" d="M1464.32,1391.51c-7.02,42.9-23.74,84.23-48.86,119.74-1.68,2.37,3.65,4.04,5.19,1.86,25.32-35.78,42.14-77.58,49.21-120.82,.45-2.75-5.09-3.56-5.54-.79h0Z"/></g></g></g></svg>