<?xml version="1.0" encoding="UTF-8"?><svg id="Capa_2" xmlns="http://www.w3.org/2000/svg" xmlns:xlink="http://www.w3.org/1999/xlink" viewBox="0 0 1494.85 1807.93"><defs><style>.cls-1{fill:#741f89;}.cls-2{fill:#bd83fc;}.cls-3{fill:#fff;}.cls-4,.cls-5{fill:#b471fc;}.cls-6{fill:#5f5d6b;}.cls-7{fill:#dd4eda;}.cls-8{fill:#f4d4a5;}.cls-9{fill:#1a182c;}.cls-10{fill:#3c2e52;}.cls-11{fill:#ff786e;}.cls-12{fill:#faead3;}.cls-13{fill:#fcc5f8;}.cls-14{fill:#ff6478;}.cls-15{clip-path:url(#clippath);}.cls-16{fill:#b14dbc;}.cls-17{fill:none;}.cls-18{fill:#f4d19e;}.cls-19{fill:#ffbeb7;}.cls-20{fill:#f4b384;}.cls-21{fill:#dfc5fc;}.cls-5{opacity:.6;}.cls-22{fill:#ffa298;}</style><clipPath id="clippath"><path class="cls-17" d="M859.66,277.05l-48.46,4.25-8.58,.74c-3.27,.33-5.72,3.19-5.39,6.46l.41,5.07c.98,11.52-7.6,21.74-19.12,22.8l-85.81,7.52-85.81,7.52c-11.52,.98-21.74-7.6-22.8-19.12l-.41-5.07c-.33-3.27-3.19-5.72-6.46-5.39l-8.58,.74-33.92,2.94c-22.23,1.96-38.66,21.58-36.7,43.72l68.49,780.33c1.96,22.23,21.58,38.66,43.72,36.7l324.95-28.52c22.23-1.96,38.66-21.58,36.7-43.72l-68.49-780.33c-1.96-22.15-21.58-38.58-43.72-36.61Z"/></clipPath></defs><g id="Capa_15"><g><path class="cls-5" d="M1357.95,664.24c-6.46-23.57-11.22-46.77-13.53-69.47-8.58-84.3,12.19-168.57,16.98-253.17,5.19-91.77-14.96-188.26-89.44-248.95C1141.95-15.87,956.69-29.3,813.43,53.63c-58.62,33.93-114.58,74.98-179.07,97.39-66.15,22.99-135.91,21.03-204.97,19.5-127.18-2.81-235.59,24.65-325.43,119.41C25.89,372.29-25.38,492.49,13.05,605.1c67.93,199.05,330.77,260.8,285.32,509.76-17.81,97.54-79.24,182.57-86.15,282.09-8.17,105.09,65.97,198.24,153.73,248.99,121.73,73.46,275.94,63.13,404.87,13.08,119.9-44.17,212.3-136.13,320.27-201.4,32.9-19.91,67.18-37.23,102.31-52.92,68.29-30.8,144.07-56.91,201.55-104.69,217.17-180.53,21.17-423.31-37.01-635.76Z"/><g><path class="cls-4" d="M775.57,1424.07c8.22-.09,16.06-.97,23.14-2.63,7.07-1.69,13.4-4,18.66-6.88,10.51-5.79,16.74-13.48,16.38-21.71-.36-8.23-7.17-15.44-17.74-20.45-5.29-2.52-11.51-4.59-18.39-5.92-6.87-1.36-14.37-2.16-22.24-2.07-43.72,.11-87.19-2.05-129.95-7.59-21.37-2.83-42.53-6.55-63.4-11.26l-7.83-1.76c-2.6-.63-5.17-1.31-7.76-1.97-5.16-1.35-10.37-2.56-15.46-4.11l-7.68-2.21c-2.56-.74-5.13-1.45-7.65-2.27-5.07-1.56-10.1-3.23-15.12-4.92-20.05-6.89-39.65-14.96-58.64-24.17-18.96-9.26-37.28-19.7-54.74-31.3-17.41-11.66-33.94-24.49-49.3-38.48-15.31-14.03-29.43-29.23-42.08-45.48-25.15-32.51-44.19-69.76-57.05-109.36-6.44-19.8-11.37-40.17-14.84-60.84l-1.19-7.77-.6-3.89c-.2-1.3-.42-2.59-.54-3.9l-1.79-15.65-1.22-15.72c-.29-5.25-.45-10.51-.69-15.77-1.14-42.03,3.41-84.52,12.34-126.22,4.47-20.86,10.04-41.56,16.55-62.02,6.51-20.47,14.04-40.68,22.31-60.63,1.43-3.61,2.79-7.16,3.87-10.69,1.1-3.52,1.95-7.01,2.62-10.42,1.44-6.77,1.96-13.24,1.69-19.06-.43-11.59-4.32-20.71-11.71-24.36-7.39-3.64-16.93-1-26.48,6.43-4.72,3.74-9.36,8.72-13.72,14.63-2.13,2.98-4.16,6.22-6.08,9.66-1.91,3.44-3.75,7.07-5.3,10.95-8.87,21.39-16.97,43.15-24.03,65.34-7.06,22.18-13.15,44.75-18.05,67.65-9.8,45.79-14.93,92.92-13.64,140.4,.26,5.92,.45,11.85,.78,17.77l1.38,17.74,2.03,17.7c.15,1.48,.39,2.94,.61,4.41l.67,4.41,1.35,8.81c3.94,23.46,9.55,46.71,16.95,69.47,7.4,22.75,16.61,45.02,27.72,66.41,5.51,10.72,11.62,21.14,18.07,31.37l5,7.57,2.51,3.78,1.25,1.89,1.32,1.85c1.77,2.45,3.51,4.93,5.3,7.36l5.47,7.23c14.84,19.08,31.3,36.77,48.98,52.97,17.73,16.15,36.66,30.83,56.44,44.06,19.82,13.18,40.47,24.93,61.72,35.31,21.28,10.33,43.14,19.31,65.42,26.97,44.64,15.15,90.46,25.1,136.47,31.21,46.02,5.97,92.14,8.22,137.92,8.1Z"/><path class="cls-4" d="M284.32,535.39c-24.87,14.63-55.82,37.05-93.88,86.09-24.36,31.38,8.06,82.76,43.54,64.89,14.05-7.07,17.86-8.36,35.91-25.5,0,0,5.25,9.36,7,17.19,11.63,52.02,89.47,36.42,80.6-16.15-6.7-39.72-20.73-85.17-49.37-121.94-5.68-7.29-15.84-9.26-23.8-4.58Z"/></g><rect class="cls-8" x="931.26" y="578.05" width="3.27" height="603.14"/><rect class="cls-8" x="928.4" y="510.05" width="3.27" height="35.55"/><path class="cls-22" d="M541.58,596.77s-27.79-16.51-48.38-24.68c-48.79-19.37-45.85,64.97,9.15,94.48,42.5,22.8,57.7,28.28,57.7,28.28"/><path class="cls-11" d="M541.58,596.77s-27.79-16.51-48.38-24.68c-1.72-.65-3.35-1.23-4.9-1.63,2.86,22.39,.74,42.99-1.14,55.82-1.14,7.68-2.86,15.86-8.17,21.41,6.29,7.36,14.14,13.89,23.46,18.88,42.5,22.8,57.7,28.28,57.7,28.28l-18.55-98.07Z"/><path class="cls-22" d="M530.55,804.84c-85.98-12.59-179.64-101.83-42.74-109.92h53.45"/><path class="cls-11" d="M485.36,791.77c14.38,6.21,29.91,10.87,45.19,13.08l10.71-109.92h-53.45c0-.08,14.38,68.32-2.45,96.85Z"/><path class="cls-22" d="M867.18,1721.08c-17.08-42.91-45.69-118.99-49.2-127.49-23.46-56.96-37.35-110.33-83.03-152.01-55.82-50.92-98.97-113.36-142.04-174.9-19.7-28.11-42.66-53.69-62.44-81.73-8.42-11.93-16.84-18.96-28.2-26.56-10.05-6.7-17.49-14.3-21.82-25.91-4.66-12.5-6.37-12.99-4.9-26.32,2.29-21.09,17.9-42.91,36.78-53.04,9.4-5.07,20.1-6.95,30.65-8.42,16.43-2.29,32.94-3.68,49.53-4.09,14.14-.41,24.27,1.96,37.51,4.9,15.53,3.51,34.08,.57,49.94,.33,18.31-.25,36.53-.49,54.84,0,57.62,1.47,119.57,8.74,166.23,45.77,35.31,27.95,56.31,69.71,76.25,110.09,41.35,83.85,82.71,167.62,124.06,251.47,9.73,19.7,84.68,28.07,99.07,44.66,10.43,12,66.12,100.37,104.73,162.23,14.4,23.07-.64,53.13-27.72,55.57-159.23,14.34-335.31,196.8-410.22,5.44Z"/><path class="cls-11" d="M698.74,1101.35l-118.83-60.23c-12.34,.65-24.68,1.88-37.02,3.6-10.54,1.47-21.25,3.43-30.65,8.42-5.15,2.78-10.05,6.37-14.47,10.62,8.83-.82,34.9,10.71,42.25,28.69,7.36,18.14,158.71,8.91,158.71,8.91Z"/><path class="cls-11" d="M880.42,1163.13c19.78-26.97,10.79-66.44-11.77-91.62-41.03-19.78-88.84-24.44-133.95-25.66-56.47-1.47-96.03-8.99-144.08,25.99-17.16,12.5-34,25.66-50.26,39.31-6.13,5.15-12.26,10.46-16.75,17-18.39,26.89-8.42,35.31,6.78,56.8,19.78,28.03,42.82,53.61,62.44,81.73,6.62,9.48,13.32,18.96,19.94,28.52,0-.08,0-.16,.08-.25,8.58-39.64,41.76-73.39,81.56-81.56,55.74-11.52,116.05-12.42,172.69-18.55l13.32-31.71Z"/><path class="cls-22" d="M478.98,900.79c-9.24,5.39-22.07,18.47-25.83,37.19-2.62,13.24,2.21,11.85,9.73,23.13,16.02,24.27,46.83,37.76,75.52,33.1,26.89-4.33,51.9-26.97,52.31-54.19,.33-24.19-18.14-48.46-40.86-56.47-24.52-8.66-49.36,4.74-70.86,17.24Z"/><path class="cls-11" d="M579.5,943.45c.49-11.44,1.06-22.97,1.55-34.41-7.52-11.69-18.8-21.09-31.38-25.5-13.65-4.82-27.38-2.78-40.62,2.12,4.58,12.18,15.53,42.01,17,46.91,4.99,1.63,10.13,3.02,15.28,4,2.21,.41,4.49,.82,6.54,1.96,6.13,3.51,8.58,9.56,15.94,11.28,3.27,.74,7.85,3.11,11.2,2.21,3.76-1.06,4.33-5.23,4.49-8.58Z"/><path class="cls-9" d="M543.46,1131.67c3.02,34.82,33.92,60.72,68.73,57.62l324.95-28.52c34.82-3.02,60.72-33.92,57.62-68.73l-68.49-780.33c-3.02-34.82-33.92-60.72-68.73-57.62l-324.95,28.52c-34.82,3.02-60.72,33.92-57.62,68.73l68.49,780.33Z"/><path class="cls-6" d="M951.85,687.07l-3.84-43.72,3.27-.25,3.84,43.72-3.27,.25Zm-6.62-75.43l-26.23-299.28c-2.7-30.81-29.91-53.61-60.72-50.92l-324.95,28.52c-14.87,1.31-28.36,8.34-38,19.86s-14.22,25.99-12.91,40.86l-3.27,.25c-1.39-15.77,3.43-31.14,13.65-43.32,10.22-12.18,24.52-19.61,40.21-21l324.95-28.52c32.61-2.86,61.46,21.33,64.24,53.94l26.23,299.28-3.19,.33Z"/><path class="cls-9" d="M948.58,568.65l1.8-.16c1.31-.08,2.29-1.31,2.21-2.62l-8.42-95.95c-.08-1.31-1.31-2.29-2.62-2.21l-1.8,.16,8.83,100.77Z"/><path class="cls-12" d="M859.66,277.05l-48.46,4.25-242.57,21.25-33.92,2.94c-22.23,1.96-38.66,21.58-36.7,43.72l68.49,780.33c1.96,22.23,21.58,38.66,43.72,36.7l324.95-28.52c22.23-1.96,38.66-21.58,36.7-43.72l-68.49-780.33c-1.96-22.15-21.58-38.58-43.72-36.61Z"/><path class="cls-20" d="M560.63,333.44l-26.4,2.29c-2.94,.25-5.56-1.88-5.8-4.82l-.41-4.9c-.25-2.94,1.88-5.56,4.82-5.8l26.4-2.29c2.94-.25,5.56,1.88,5.8,4.82l.41,4.9c.25,2.94-1.96,5.56-4.82,5.8Z"/><path class="cls-20" d="M824.2,307.21l-12.83,1.14c-1.88,.16-3.6-1.23-3.76-3.19l-.49-5.48c-.16-1.88,1.23-3.6,3.19-3.76l12.83-1.14c1.88-.16,3.6,1.23,3.76,3.19l.49,5.48c.16,1.88-1.23,3.6-3.19,3.76Z"/><path class="cls-20" d="M852.88,304.67l-12.83,1.14c-1.88,.16-3.6-1.23-3.76-3.19l-.49-5.48c-.16-1.88,1.23-3.6,3.19-3.76l12.83-1.14c1.88-.16,3.6,1.23,3.76,3.19l.49,5.48c.16,1.88-1.23,3.6-3.19,3.76Z"/><path class="cls-20" d="M881.57,302.14l-12.83,1.14c-1.88,.16-3.6-1.23-3.76-3.19l-.49-5.48c-.16-1.88,1.23-3.6,3.19-3.76l12.83-1.14c1.88-.16,3.6,1.23,3.76,3.19l.49,5.48c.16,1.88-1.23,3.6-3.19,3.76Z"/><g class="cls-15"><g><path id="c" class="cls-10" d="M859.51,676.76c5.07-29.83,5.48-60.8,15.77-89.25,5.56-15.2,13.81-29.34,19.45-44.62,3.35-8.99,5.64-16.18,2.37-25.5-.25-.65-.57-1.31-1.14-1.47-.57-.16-1.14,.16-1.72,.49-1.06,.65-2.04,1.39-3.11,2.12,2.12-3.19,4.25-6.37,6.13-9.64,1.06-1.8,4.9-13.24,6.54-13.57-23.78,4.58-48.06-3.43-67.92-16.26-13.4-8.66-26.64-18.55-37.35-30.48-9.73-10.87-14.71-24.85-20.92-37.84-1.88-4-4-8.01-7.36-10.87-.06-.05-.12-.11-.19-.17-3.06-2.6-7.73-1.96-10.06,1.31-9.03,12.66-18.45,25-28.32,37.03-5.8,7.03-11.77,14.06-19.21,19.37-5.8,4.09-12.34,7.03-18.47,10.71-16.59,9.97-29.99,25.58-36.29,43.89-4.09,11.85-4.99,24.76-2.7,37.1,2.53,13.57,4.09,17.98,17.9,20.68,7.6,1.47,15.04,3.84,22.15,7.03,6.87,3.11,13.32,6.87,20.35,9.56,12.01,4.66,24.11,4.58,34.24-4.09,24.19-20.76,34.98-53.86,35.47-85.73,.25-13.73-1.23-27.3-3.51-40.78,.03,0-.01,0,.01,0,1.8,3.85,3.5,7.6,5.3,11.45,10.22,22.07,17.57,46.91,38.9,61.21,1.8,1.23,3.68,2.29,5.64,3.27,12.34,6.29,27.54,8.17,40.21,3.51-19.53,20.6-31.71,47.07-37.59,75.52-2.86,13.89-3.84,27.79-4.58,41.93-.74,14.63-6.29,29.5-8.99,44.13-3.6,19.78-2.29,40.21-6.95,59.58-4.95,20.81-7.99,42.32-11.62,63.49-.23,1.36,1.14,2.43,2.39,1.85,1.42-.66,3-1.24,4.16-2.16,1.63-1.31,2.37-3.43,3.02-5.48,6.13-19.12,11.61-37.59,20.76-55.41,13.16-25.74,22.39-53.45,27.22-81.89Z"/><path class="cls-10" d="M830.09,802.69c-.93,.14-1.81-.53-1.89-1.47-1.64-18.82,4.81-31.49,12.27-46.16,4.17-8.17,8.91-17.41,12.59-28.77,8.58-26.15,11.03-55.33,13.4-83.44,2.62-31.46,5.15-61.13,15.61-85.73l3.02,1.31c-10.3,24.11-12.75,53.53-15.36,84.67-2.37,28.36-4.82,57.62-13.57,84.18-3.76,11.61-8.58,20.92-12.75,29.18-7.55,14.78-13.55,26.54-11.93,44.45,.08,.88-.52,1.67-1.39,1.8h0Z"/><path class="cls-22" d="M590.06,498.19c-9.73,5.64-17.65,7.52-10.87,20.43,10.87,20.6,23.62,40.21,38.25,58.27,14.38,17.82,22.88,29.5,43.48,39.56,7.11,3.51,23.21,6.21,28.11-2.94,2.86-5.23,2.04-11.93,4.66-17.33,2.45-4.99,7.44-8.25,12.18-11.11,1.39-.9,2.94-1.8,4.58-1.96,4.33-.57,7.93,3.84,8.58,8.17,.65,4.33-.49,8.66-.65,13.08-.41,11.44,6.62,22.15,15.77,29.09,9.15,6.95,20.19,10.79,31.06,14.55,15.28,5.23,30.65,10.54,45.93,15.77,16.84,5.8,33.83,11.44,50.75,17.16,7.27,2.45,10.3-2.21,11.44-8.91,3.6-21.17,7.11-42.33,9.4-63.75,2.21-20.51,5.56-39.15,11.28-59.17,1.47-5.15,1.14-8.5,6.21-9.56,2.86-.57,9.64,.08,12.26,1.63-.57-.33-2.21,28.44-2.12,31.06,.25,11.2-1.72,21.58-2.78,32.69-2.45,25.25-3.92,50.67-8.5,75.68-1.72,9.48-1.96,19.37-3.43,29.01-.49,3.11-1.23,6.62-3.84,8.42-2.29,1.63-5.39,1.39-8.17,1.14-19.7-1.88-43.56-8.42-62.93-12.42-24.85-5.15-45.36-11.28-58.84-5.72-9.56,3.92-4.9,1.06-15.36-.08-4.17-.41-8.17-1.88-12.26-2.37-5.23-.57-10.46,.41-15.77,.16s-10.54-1.72-15.61-3.19c-20.27-5.88-40.54-11.69-60.89-17.57-3.11-.9-10.87,3.43-10.95,.16-.41-17.57-17.82-36.7-22.47-44.21-19.45-31.55-39.23-62.28-55.08-95.95-5.48-11.52-18.63-31.46-12.75-44.46,9.73-21.49,139.83-62.77,174.73-75.43,.98,3.51,1.96,6.95,2.94,10.46,.41,1.39-2.04,.57-2.53,1.88-.65,1.63,.33,4.66-1.31,5.23-13.24,4.99-27.95,13.4-40.95,19.04-29.26,12.99-55.82,27.46-83.52,43.48Z"/><path class="cls-11" d="M758.17,689.59s-107.39-19.78-113.03-36.21c-5.56-16.43-28.69-30.32-41.84-46.67-13.16-16.26-44.38-68.49-62.77-97.01h0c2.86,10.13,9.4,20.84,12.91,28.2,15.86,33.67,35.63,64.4,55.08,95.95,4.66,7.52,22.07,26.64,22.47,44.21,.08,3.19,7.85-1.06,10.95-.16,20.27,5.88,40.54,11.69,60.89,17.57,5.15,1.47,10.3,2.94,15.61,3.19,5.23,.25,10.54-.74,15.77-.16,4.17,.49,8.17,1.96,12.26,2.37,10.38,1.06,5.8,3.92,15.36,.08,13.48-5.56,34,.57,58.84,5.72,19.37,4,43.15,10.62,62.93,12.42,2.78,.25,5.88,.49,8.17-1.14,2.62-1.8,3.35-5.31,3.84-8.42-6.21,19.12-103.87-31.79-137.46-19.94Z"/><path class="cls-11" d="M680.37,619.23h0c28.11,.9,38.33-9.32,38.33-9.32h0c-.33-1.88-.49-3.76-.41-5.72,.16-4.33,1.39-8.74,.65-13.08-.65-4.33-4.25-8.74-8.58-8.17-1.63,.25-3.11,1.14-4.58,1.96-4.74,2.94-9.73,6.13-12.18,11.11-2.62,5.39-1.72,12.01-4.66,17.33-1.63,3.43-4.9,5.15-8.58,5.88Z"/><path class="cls-22" d="M687.4,507.83c-20.68,11.93-25.5,29.83-25.17,52.63,.08,5.31,.25,10.71,1.47,15.94,2.62,11.11,10.46,20.92,20.84,25.66,10.38,4.74,23.05,4.17,32.85-1.8,9.24-5.64,15.2-15.28,19.53-25.25,8.17-18.88,10.54-42.58-2.21-58.76-12.1-15.2-31.22-17.73-47.32-8.42Z"/><path class="cls-22" d="M737.74,561.85c1.31-.65,2.29-1.8,3.51-2.62s2.78-1.31,4.09-.74c1.47,.65,2.04,2.53,1.72,4.09-.33,1.55-1.31,2.94-2.21,4.17-1.55,2.12-3.11,4.25-4.66,6.46-1.06,1.47-2.21,2.94-3.68,3.92-1.55,.98-3.6,1.39-5.15,.57"/><path class="cls-22" d="M667.62,542.16c-.65-1.88-1.8-3.6-3.27-4.99-.57-.49-1.23-.98-1.96-1.06-1.14-.16-2.29,.65-2.86,1.72s-.57,2.29-.57,3.43c.08,2.53,.57,5.07,1.55,7.36,1.31,2.86,3.43,5.23,6.13,6.87"/><path class="cls-9" d="M712.32,555.31c1.23,2.62,2.62,4.17,3.92,5.39,1.31,1.14,2.7,1.88,4,2.37,.16,.08,.33,.16,.49,.16,.16,.08,.33,.08,.49,.16,.33,.08,.65,.16,.9,.16,.65,.08,1.31,.16,2.04,0,.82-.08,1.72-.41,2.7-.9,.49-.25,1.06-.49,1.55-.82,.25-.16,.57-.33,.82-.49,.33-.16,.57-.33,.9-.57l.41,.16c-.49,1.14-1.06,2.29-1.8,3.27-.74,.98-1.72,1.88-2.78,2.53-2.21,1.31-5.07,1.47-7.44,.65-2.37-.9-4.41-2.7-5.64-4.9-.65-1.14-1.06-2.29-1.23-3.6-.16-1.23-.16-2.53,.08-3.76l.57,.16Z"/><path class="cls-9" d="M671.7,546c1.31,2.45,2.45,4.09,3.68,5.15s2.37,1.63,3.35,1.96c1.06,.33,1.96,.57,3.51,.33,.74-.08,1.63-.41,2.62-.82,.49-.25,.98-.49,1.55-.74,.25-.16,.57-.25,.82-.49,.33-.16,.57-.33,.9-.49l.41,.16c-.49,1.06-1.06,2.12-1.72,3.02-.74,.9-1.55,1.8-2.62,2.45-.98,.65-2.12,1.14-3.35,1.31-1.23,.16-2.45,.08-3.6-.33-2.29-.74-4.17-2.53-5.23-4.66-.49-1.06-.9-2.21-.98-3.43-.08-1.14-.08-2.37,.16-3.51l.49,.08Z"/><path class="cls-19" d="M727.28,581.3c-.49,3.43-5.8,5.39-11.77,4.49s-10.38-4.41-9.89-7.76c.49-3.43,5.8-5.39,11.77-4.49,5.97,.82,10.38,4.33,9.89,7.76Z"/><path class="cls-19" d="M686.58,572.15c-.49,3.43-5.8,5.39-11.77,4.49s-10.38-4.41-9.89-7.76c.49-3.43,5.8-5.39,11.77-4.49,6.05,.9,10.46,4.33,9.89,7.76Z"/><path class="cls-9" d="M716.25,532.1c2.12-.9,4.41-1.14,6.62-.9,2.21,.25,4.33,.98,6.29,2.12,1.96,1.14,3.68,2.7,4.99,4.49,.65,.9,1.14,1.96,1.55,3.02,.33,1.14,.57,2.29,.33,3.43l-.33,.08c-.74-1.88-1.96-3.43-3.35-4.9-1.39-1.39-3.02-2.62-4.74-3.6-1.72-.98-3.51-1.88-5.48-2.45-1.88-.57-3.92-.98-5.88-1.23v-.08Z"/><path class="cls-9" d="M674.65,525.4c1.47-1.8,3.43-2.94,5.48-3.76,2.12-.74,4.33-1.06,6.62-.98,2.21,.16,4.49,.74,6.46,1.8,.98,.49,1.96,1.23,2.78,2.04,.82,.9,1.55,1.8,1.88,2.94l-.25,.25c-1.47-1.31-3.35-2.21-5.23-2.78s-3.92-.9-5.88-1.06c-1.96-.16-4,0-5.97,.33s-3.92,.9-5.8,1.63l-.08-.41Z"/><path class="cls-22" d="M638.52,738.06c-.33,7.6-1.06,45.6,2.53,57.13l97.58-5.07-.82-32.36"/><path class="cls-11" d="M738.07,768.7l-.25-10.95-99.3-19.7c-.33,7.6-1.06,45.6,2.53,57.13l9.24-.49c-.16-1.23-.33-2.45-.57-3.84-7.68-41.44,50.51-19.12,88.35-22.15Z"/><path class="cls-22" d="M909.12,558.67c.82-9.81,2.86-19.45,6.05-28.77,3.11-9.24,7.36-19.29,3.43-28.2-.74-1.72-1.8-3.27-3.35-4.33-1.72-1.14-3.84-1.47-5.97-1.63-10.71-.82-21.82,1.8-32.04-1.31-1.47-.41-3.27-.9-4.33,.25-.9,.98-.49,2.7,.57,3.6,1.06,.9,2.45,1.14,3.76,1.39,4.66,.82,9.24,1.72,13.89,2.53-6.95,1.8-13.89,3.68-20.76,5.48-1.72,.49-4,1.96-3.02,3.51,.41,.65,1.23,.9,2.04,1.06,4.99,1.06,10.22,1.14,15.2,.25-5.07-.16-10.13,.65-14.87,2.29-1.23,.41-2.62,1.06-2.94,2.29-.49,1.63,.98,3.27,2.45,4.09,7.11,4,16.02,.82,23.54-2.37-4.49,1.96,2.37,16.18,3.19,18.55,.33,1.06,.08,2.12-.08,3.19-.98,4.66-1.96,9.4-2.94,14.06"/><path class="cls-22" d="M714.53,435.67c9.56-5.56,23.86-12.26,26.64-24.6-.65,2.78,8.25,10.13,9.89,11.93,.82,.98,2.04,2.04,3.19,1.47s.98-2.12,.74-3.35c-.9-3.68-2.04-7.27-3.43-10.79,1.88,3.84,4.58,7.76,8.01,10.3,2.53,1.88,6.78,5.64,10.05,5.48,.65-2.86-.98-5.72-2.53-8.25,2.53,1.72,8.74,7.36,12.01,4,1.23-1.31,.98-3.51,0-4.9-.98-1.39-2.62-2.37-4.17-3.35-4.09-2.62-7.68-5.88-10.71-9.64-2.94-3.68-5.48-7.93-9.56-10.13-4.25-2.29-9.64-1.96-13.81,.57-1.23,.74-2.29,1.55-3.35,2.45-9.89,8.25-12.91,19.94-33.59,25.34"/><path class="cls-10" d="M647.43,546.51c-.93,.21-1.86-.4-2.02-1.34-1.98-12.05-.97-24.49,3.08-36.19,6.21-18.06,19.7-34.41,37.02-44.79,2.37-1.39,4.74-2.7,7.11-4,3.76-2.04,7.76-4.17,11.28-6.7,6.85-4.85,12.39-11.14,17.86-17.79,.57-.69,1.58-.8,2.28-.24h0c.7,.57,.81,1.6,.23,2.3-5.62,6.81-11.33,13.27-18.49,18.35-3.68,2.62-7.68,4.82-11.61,6.87-2.29,1.23-4.74,2.53-7.03,3.92-16.67,9.97-29.67,25.66-35.55,42.99-3.83,11.18-4.82,23.18-2.9,34.72,.15,.88-.4,1.72-1.27,1.92h0Z"/><path class="cls-10" d="M823.3,572.81h-.04c-.76-.27-1.23-1.05-1.07-1.84,1.14-5.81,.64-21.83-12.69-41.9-22.07-33.1-30.24-72.9-29.75-80.5l3.27,.25c-.41,5.31,6.29,44.05,29.18,78.46,12.8,19.16,14.93,36.22,13.22,44.34-.2,.95-1.2,1.5-2.12,1.19Z"/><path class="cls-22" d="M714.45,954.06c8.74,23.46,10.79,65.3,13.16,89.57,2.37,24.27,7.93,90.23,8.66,98.48,.74,8.25,4.17,43.72,7.68,55.74,3.51,12.01-50.59,7.68-50.59,7.68-2.21-16.18-15.04-60.97-29.91-98.48-14.87-37.43-28.28-109.35-31.38-149.32-2.94-39.88,73.64-27.13,82.38-3.68Z"/><path class="cls-11" d="M717.96,965.83c-1.06-4.25-2.21-8.25-3.51-11.77-8.74-23.46-85.32-36.21-82.3,3.68,2.78,36.04,13.98,97.99,27.05,137.3h0c-7.03-44.05-11.61-99.05-7.68-109.27,5.48-14.22,45.77-4.33,66.44-19.94Z"/><path class="cls-22" d="M810.89,915.49c8.42,18.96,35.8,77.72,56.31,173.67,4.58,17.82,13.24,41.27,18.8,50.75,5.48,9.48,25.74,50.43,25.74,50.43l-63.83,.82c-2.45-16.26-5.48-36.12-18.8-53.37-13.32-17.16-79.11-121.69-99.87-188.95l81.65-33.34Z"/><path class="cls-11" d="M817.26,929.95c-2.7-6.13-4.82-10.95-6.37-14.47l-81.73,33.43c9.15,29.75,27.22,66.85,45.6,100.44h0c-11.93-21.33-21-71.59-22.31-82.38-1.31-10.79,41.44-17.57,64.81-37.02Z"/><path class="cls-1" d="M639.75,789.95c-6.05,14.79-20.02,44.62-21.58,136.89-4.49,.57-5.64,5.07-5.39,11.44,.25,6.37,.74,17.16,1.14,21.25,.41,4.17,1.8,6.05,18.39,5.97,16.59-.08,76.33-3.02,87.04-7.93,4-1.88-.33-17.57-.33-17.57,0,0,8.25,13.57,9.56,15.69,1.31,2.12,.57,2.78,17.08-1.39,16.51-4.09,58.6-21.49,72.08-33.34,5.23-4.58,4.9-6.46,3.35-10.38-1.55-3.92-5.39-12.59-7.36-16.1-2.04-3.51-4.82-3.6-7.27-1.47-2.45-6.54-14.63-37.27-46.5-77.48-6.7-8.5-17.49-33.43-20.51-34.73s-28.69,8.99-51.81,10.46c-23.13,1.47-47.89-1.31-47.89-1.31Z"/><path class="cls-16" d="M660.1,935.02c-37.43,0-42.66-5.88-43.4-7.36l2.94-1.47s0-.08-.08-.16c.33,.41,8.34,9.64,85.16,3.68l.25,3.27c-18.55,1.47-33.26,2.04-44.87,2.04Z"/><path class="cls-16" d="M736.02,928.23l-.98-3.11c49.28-15.61,70.12-33.1,70.29-33.26l2.12,2.45c-.82,.74-21.41,18.06-71.43,33.92Z"/><path class="cls-16" d="M775.01,843.16c-1.06-.08-27.05-2.37-42.58-31.38l2.86-1.55c7.6,14.3,18.06,21.58,25.5,25.17,8.09,3.92,14.38,4.49,14.47,4.49l-.25,3.27Z"/><path class="cls-16" d="M663.53,806.95c-17.41,0-29.01-2.04-29.26-2.04l.57-3.19c.49,.08,50.51,8.74,97.91-10.38l1.23,3.02c-25.34,10.13-51.32,12.59-70.45,12.59Z"/><rect class="cls-16" x="679.9" y="804.64" width="3.27" height="36.29" transform="translate(-101.03 95.42) rotate(-7.46)"/><rect class="cls-16" x="711.03" y="902.84" width="3.27" height="38.33" transform="translate(-264.11 286.47) rotate(-19.25)"/><g><path class="cls-13" d="M667.78,614.57c1.47,.57,2.86,1.06,4.09,2.04,2.04,1.63,2.94,4.25,3.92,6.62,5.56,14.63,13.73,29.01,26.89,37.59,13.08,8.58,31.87,9.89,43.72-.33,4.66-4,8.01-9.48,9.97-15.36,.41-1.23,.82-2.53,1.96-3.19,1.23-.74,2.86-.25,4.25,.25,3.92,1.47,7.85,2.86,11.77,4.33,2.12,.74,4.41,1.72,5.31,3.76,.98,2.12,.08,4.58-.9,6.7-3.68,8.09-12.42,35.22-8.99,44.3,.49,1.23,1.14,2.45,1.31,3.76,.16,1.39-.33,2.78-.82,4.09-7.93,22.31-13.08,31.55-9.07,55.49-45.11,1.47-89.25-12.18-131.74-27.46-1.31-.49-2.62-.98-3.51-2.04-.9-1.14-1.06-2.7-1.23-4.17-1.06-15.12,1.8-30.16,4.66-45.03,4.82-25.25,9.07-49.61,18.88-73.47,.65-1.47,1.96-3.6,3.84-3.35,2.78,.33,5.97,2.04,8.66,2.94,2.37,.9,4.74,1.72,7.03,2.53Z"/><path class="cls-7" d="M771.33,679.95c.57-2.37,1.23-4.82,1.88-7.11-11.11-2.45-22.23-5.23-33.26-8.09-5.23,2.45-11.2,3.35-17.08,2.94,16.02,4.49,32.2,8.58,48.46,12.26Z"/><path class="cls-7" d="M636.81,649.55c-.57,2.45-1.14,4.9-1.63,7.27,39.96,17.57,81.89,29.99,125.12,37.1l3.6,.57c1.72,.25,3.43,.57,5.15,.82,0-2.21,.25-4.66,.74-7.36-1.55-.25-3.11-.49-4.66-.74l-3.51-.57c-43.15-7.11-85-19.53-124.8-37.1Z"/><path class="cls-7" d="M643.84,624.7c13.48,6.29,27.22,12.01,41.11,17.24-1.96-3.19-3.76-6.54-5.39-9.97-11.2-4.41-22.31-9.15-33.18-14.3-.98,2.45-1.8,4.74-2.53,7.03Z"/><path class="cls-7" d="M759.97,745.66c-5.72-1.06-11.44-2.12-17.08-3.11-6.05-1.06-12.34-2.12-18.47-3.35-33.75-6.54-66.93-16.35-98.89-29.26-.33,2.53-.49,5.07-.65,7.68,11.28,4.49,22.64,8.58,34.16,12.34,21,6.78,42.42,12.34,64.07,16.51,6.21,1.23,12.5,2.29,18.63,3.35,6.05,1.06,12.18,2.12,18.31,3.27-.25-2.62-.25-5.07-.08-7.44Z"/><path class="cls-7" d="M705.46,662.54c-.98-.57-1.96-1.06-2.86-1.72-4.49-2.94-8.34-6.54-11.77-10.62-16.67-5.48-33.18-11.36-49.53-17.82-.74,2.37-1.39,4.74-2.04,7.11,21.82,8.58,43.89,16.26,66.2,23.05Z"/><path class="cls-7" d="M631.5,675.21c-.49,2.45-.9,4.82-1.39,7.27,44.7,15.12,90.64,26.89,137.14,35.14,.82-2.21,1.63-4.49,2.53-7.03-46.91-8.17-93.17-20.02-138.28-35.39Z"/><path class="cls-7" d="M751.39,655.02c-1.47,2.04-3.11,3.92-4.99,5.56-.25,.25-.49,.41-.74,.57,9.64,2.45,19.37,4.66,29.09,6.7,.82-2.62,1.72-4.99,2.45-7.03-8.66-1.72-17.24-3.68-25.83-5.8Z"/><path class="cls-7" d="M761.28,736.5c.49-2.37,1.14-4.74,1.88-7.11-.25,0-.49-.08-.74-.08-46.01-7.36-90.96-19.29-134.36-35.8-.41,2.45-.9,4.9-1.31,7.36,43.48,16.35,88.51,28.28,134.52,35.63Z"/></g></g></g><path class="cls-18" d="M971.88,1094.07l-30.4-346.93c-2.12,6.62-3.35,13.65-4.33,20.35-7.03,49.44-5.48,98.24-15.45,147.27-16.92,82.95-30.32,157.98-71.27,230.47l84.75-7.44c22.23-1.96,38.66-21.49,36.7-43.72Z"/><path class="cls-22" d="M982.22,1619.97l297.4-.33c-53.69-84.67-47.94-70.76-100.66-156.24-44.21-71.59-97.66-151.44-97.01-239.21,.25-29.5,7.52-58.43,12.34-87.53,13.65-82.14,3.51-164.52-21.33-243.46-15.53-49.2-27.3-103.63-56.8-146.78-10.22-15.04-34.24-46.18-57.21-35.63-29.75,13.65-14.71,82.05-14.38,107.23,1.06,83.85-12.26,179.15-43.15,264.39-24.85,68.49-94.56,133.46-72.33,211.26,5.8,20.27,16.75,38.66,28.2,56.31l124.93,270.01Z"/><path class="cls-3" d="M1026.55,789.4c-4.74,0-9.89-1.88-13.89-5.23-21-17.41-33.83-47.65-34.41-48.87l-.9-2.21,23.78-10.46,1.96,4.49-19.29,8.5c3.35,7.27,15.12,30.81,32.04,44.87,3.76,3.11,8.74,4.66,12.83,3.92,1.63-.33,3.92-1.06,5.15-3.27l4.25,2.45c-1.72,2.94-4.74,4.9-8.58,5.64-.9,.08-1.96,.16-2.94,.16Z"/><path class="cls-3" d="M1016.01,784.08l-3.51-3.43,.57-.57c4.49-4.58,10.05-10.38,15.94-12.67l1.8,4.58c-4.9,1.88-10.05,7.19-14.22,11.52l-.57,.57Z"/><path class="cls-14" d="M1057.77,898.66c-11.61,0-21.58-2.29-22.39-2.53l1.14-4.74c.33,.08,34.41,8.01,47.73-5.56l3.51,3.43c-7.36,7.44-19.37,9.4-29.99,9.4Z"/><path class="cls-22" d="M564.3,1205.96c30.81,2.37,53.45-15.69,40.62-48.46-4.9-12.5-14.3-22.64-24.03-31.79-13.89-13.16-28.85-25.09-44.7-35.71-4.99-3.35-10.13-6.62-15.94-8.17-7.52-2.04-15.45-1.06-22.97,.74-38.74,9.4-20.92,57.62-6.87,82.22,15.77,27.54,43.23,38.9,73.88,41.19Z"/><path class="cls-11" d="M606.15,1160.76c-7.68,23.78-33.1,36.53-57.13,34.73-18.39-1.39-35.22-10.13-51-19.86,16.18,19.7,40.13,28.28,66.28,30.32,29.75,2.29,51.9-14.47,41.84-45.19Z"/><path class="cls-22" d="M570.35,1042.83c4.66-3.6,8.5-8.09,10.62-13.65,7.76-19.78-6.46-46.26-18.39-61.54-13.57-17.33-26.72-30.81-45.85-41.52-8.91-4.99-23.37-9.64-33.51-10.3-10.13-.65-21.25,3.35-26.32,12.1-4.33,7.44-6.54,22.07-6.54,30.65-.08,42.66,53.29,109.43,104.53,92.27,5.31-1.72,10.79-4.41,15.45-8.01Z"/><path class="cls-3" d="M560.3,1194.84c-1.06,0-2.94-.74-8.99-3.68-3.02-1.47-7.6-3.84-8.5-4.41-6.78-4.66-11.69-9.89-14.63-15.53-4-7.76-3.76-16.92,.65-23.13,3.68-5.23,9.64-7.68,16.75-6.78,25.01,3.02,33.18,15.2,33.59,15.69l.98,1.47-1.06,1.39c-9.4,12.1-15.04,25.58-16.26,32.94l-.25,1.31-1.31,.57c-.33,0-.57,.16-.98,.16Zm-17.49-48.95c-4.25,0-7.68,1.63-9.97,4.9-3.27,4.74-3.43,12.01-.33,18.14,2.53,4.9,6.87,9.56,12.99,13.73,.98,.65,8.99,4.74,12.99,6.46,1.96-8.01,7.19-19.78,15.45-30.81-2.78-2.94-11.11-10.05-28.93-12.26-.74-.08-1.47-.16-2.21-.16Z"/><path class="cls-3" d="M536.27,1175.31h-4.9c0-19.29,9.32-30.4,12.18-33.43l3.51,3.43c-5.23,5.39-10.79,16.1-10.79,29.99Z"/><path class="cls-3" d="M501.46,999.68l-4.82-.98c2.29-11.36,16.1-26.89,26.81-30.16l1.47,4.66c-8.99,2.78-21.49,16.92-23.46,26.48Z"/><path class="cls-3" d="M523.03,1033.27l-2.37-2.12c-14.63-13.16-22.64-24.44-25.17-35.47-2.04-8.58,1.23-18.88,7.68-24.44,5.8-4.99,13.65-5.97,21.98-2.62,16.43,6.54,29.99,24.27,30.57,25.01l1.47,1.96-1.96,1.47c-.25,.16-22.56,16.92-30.73,33.34l-1.47,2.86Zm-7.44-61.7c-3.51,0-6.62,1.14-9.24,3.43-5.07,4.33-7.68,12.83-6.13,19.61,1.39,6.05,5.15,15.69,21.41,30.81,7.93-13.65,23.13-26.32,28.6-30.65-3.92-4.66-14.79-16.67-26.97-21.58-2.7-1.14-5.31-1.63-7.68-1.63Z"/><path class="cls-11" d="M468.93,1009.81h0c20.02,29.09,53.45,52.06,85.98,41.11,5.39-1.8,10.87-4.49,15.53-8.09,4.66-3.6,8.5-8.09,10.62-13.65,3.6-9.15,2.45-19.78-.98-29.99h0c-25.83,57.78-76.01,37.51-111.15,10.62Z"/><path class="cls-14" d="M569.7,1208.66c-1.8,0-3.68-.08-5.56-.25-35.8-2.78-61.3-17-75.76-42.5l4.25-2.45c13.65,23.95,37.84,37.43,71.92,39.96,16.18,1.23,29.91-3.51,36.7-12.67,6.05-8.17,6.54-19.37,1.47-32.45l4.58-1.8c7.27,18.55,2.86,30.4-2.12,37.1-7.11,9.73-19.86,15.04-35.47,15.04Z"/><path class="cls-14" d="M837.68,1321.77c-13.98-31.22-16.92-61.87-8.91-93.5,7.11-28.11,22.07-54.59,36.45-80.17,10.46-18.47,21.17-37.59,29.09-57.29l4.58,1.8c-8.01,20.02-18.88,39.31-29.34,57.94-29.59,52.47-57.54,102-27.38,169.26l-4.49,1.96Z"/><path class="cls-14" d="M798.37,1367.45c-10.05-16.43-15.36-41.93-14.96-71.59,.41-27.71,5.72-57.13,14.79-80.75l4.58,1.72c-16.75,43.89-21.58,113.03-.16,148.09l-4.25,2.53Z"/><rect class="cls-14" x="940.76" y="1399.13" width="4.9" height="211.02" transform="translate(-617.87 658.11) rotate(-29.45)"/><g><path class="cls-21" d="M917.28,185.76l268.72,31.46c8.5,7.93,16.18,13.73,20.92,19.86,4.9,6.37,7.27,14.63,6.05,23.21l-25.01,170.48c-2.45,16.84-18.06,28.44-34.9,25.99l-76.82-11.28c-3.11-.49-6.29,.57-8.5,2.78l-50.26,49.53c-3.92,3.84-9.89,3.76-13.73,.41-.82-.74-17.73-15.86-18.31-16.92l-17.82-47.65c-1.55-2.78-4.25-4.66-7.36-5.15l-76.82-11.28c-5.48-.82-10.46-3.02-14.55-6.21-1.88-1.47-24.44-19.21-26.56-27.62l40.13-171.54c2.45-16.84,18.06-28.52,34.82-26.07Z"/><g><path class="cls-4" d="M877.09,254.52c-56.36-14.16-47.29-60.4-38.27-84.38,2.03-5.39,9.32-6.35,12.53-1.57,8.88,13.21,24.85,22.84,36.86,28.66,14.48,7.01,25.39,19.97,29.18,35.6,3.96,16.32-.92,31.59-40.31,21.69Z"/><path class="cls-4" d="M1157.37,293.07c57.04,11.08,68.45-34.63,70.45-60.18,.45-5.75-5.74-9.71-10.68-6.74-13.64,8.2-32.19,10.14-45.54,10.31-16.09,.2-31.46,7.31-41.53,19.86-10.51,13.1-12.57,29,27.3,36.75Z"/></g><path class="cls-4" d="M899.71,169.58l269.7,39.56c16.84,2.45,28.44,18.06,25.99,34.9l-25.01,170.56c-2.45,16.84-18.06,28.44-34.9,25.99l-76.82-11.28c-3.11-.49-6.29,.57-8.5,2.78l-50.26,49.53c-4.74,4.66-12.67,3.51-15.94-2.37l-33.92-61.87c-1.55-2.78-4.25-4.66-7.36-5.15l-76.82-11.28c-16.84-2.45-28.44-18.06-25.99-34.9l25.01-170.56c2.37-16.75,17.98-28.36,34.82-25.91Z"/><path class="cls-2" d="M1103.29,199.49c30.4,28.69,58.35,59.91,85.24,91.78l-1.55,10.71c-30.57-36.53-62.6-72.25-97.83-104.53l14.14,2.04Z"/><path class="cls-2" d="M987.81,343.25c-40.37-38.41-110.68-102.1-155.39-133.9l-.38-9.09c46.01,32.61,119.56,97.47,161.32,137.11,10.3,9.81,20.51,20.02,30.48,29.91,23.62,23.62,47.81,47.65,74.45,67.75l-16.1-2.37c-22.64-18.39-43.56-39.23-64.07-59.66-9.89-9.81-20.1-20.02-30.32-29.75Z"/><path class="cls-2" d="M865.71,356.65c-7.36-5.07-14.79-10.13-22.31-15.04l1.31-8.83c8.74,5.56,17.24,11.36,25.58,17.16,33.1,22.72,66.12,45.52,99.13,68.32,16.67,11.52,33.92,23.46,49.94,36.86,1.31,1.06,2.53,2.21,3.84,3.27l-5.8,5.72c-1.06-.9-2.12-1.88-3.19-2.78-15.77-13.24-32.85-25.01-49.36-36.45-33.02-22.72-66.04-45.52-99.13-68.24Z"/><path class="cls-2" d="M840.62,360.49c1.72,1.06,3.43,2.21,5.15,3.27,12.59,7.93,25.58,16.1,37.51,25.42,6.37,4.99,12.67,10.79,18.55,17.16l-13.24-1.96c-3.35-3.19-6.78-6.13-10.3-8.83-11.61-9.07-24.44-17.16-36.78-24.93-.65-.41-1.31-.82-1.96-1.23,.08-1.06,.16-2.12,.33-3.27l.74-5.64Z"/><path class="cls-2" d="M851.33,287.67l1.39-9.32c16.02,12.99,32.28,25.66,48.14,38.08,45.03,35.14,91.7,71.43,131.83,113.52,3.35,3.51,6.29,6.95,9.07,10.3l-5.8,5.64c-2.7-3.35-5.72-6.87-9.15-10.38-39.8-41.68-86.14-77.8-131.01-112.7-14.63-11.44-29.59-23.13-44.46-35.14Z"/><path class="cls-2" d="M1142.85,205.29c19.45,15.69,54.92,54.35,69.06,73.06-2.02,2.51-4.29,4.67-7.23,6.92-17.24-24.27-52.19-63.23-78.18-82.35l16.35,2.37Z"/><path class="cls-2" d="M935.67,196.39c-8.25-8.66-16.75-17.33-25.83-25.34l14.22,2.12c6.05,5.72,11.85,11.69,17.49,17.65,22.72,23.78,45.03,48.87,66.61,73.06,49.44,55.49,100.52,112.78,159.78,158.96-1.14,2.53-2.62,4.82-4.33,6.87-60.15-46.75-111.64-104.53-161.49-160.51-21.58-24.11-43.81-49.12-66.44-72.82Z"/><path class="cls-2" d="M1151.59,346.35c9.4,10.54,17.9,20.43,24.11,31.55l-2.12,14.38c-.33-.9-.65-1.8-1.06-2.7-5.88-13.65-15.69-25.17-26.97-37.84-31.55-35.22-64.56-69.96-98.24-103.14-25.5-25.17-53.12-51.16-85.73-68-1.72-.9-3.43-1.72-5.15-2.62l22.64,3.35c27.62,17,51.57,39.56,73.88,61.54,33.92,33.26,67.1,68.08,98.64,103.47Z"/><path class="cls-2" d="M1127.89,439.44c-8.25-11.85-18.31-22.56-27.62-32.45-70.61-75.03-230.35-219.83-232.07-221.63,1.16-1.97,2.59-4.16,5.08-6.73,1.39,1.47,162.17,147.78,232.87,222.88,11.11,11.85,23.21,24.68,32.36,39.39-.98-.08-1.96-.16-3.02-.25l-7.6-1.23Z"/><path class="cls-2" d="M1063.74,195.98l.74,.65c42.99,39.64,82.87,82.95,118.91,129.05l-1.63,11.11c-37.02-48.06-78.29-93.09-122.84-134.2l-.74-.65c-3.68-3.43-7.44-6.87-10.87-10.71l13.4,1.96c.98,.98,2.04,1.88,3.02,2.78Z"/><path class="cls-2" d="M1076.98,233.57c12.26,13.57,24.35,27.71,36.04,41.35,21.25,24.85,43.07,50.34,67.02,73.31l-1.47,9.81c-25.91-24.19-49.12-51.41-71.76-77.8-11.69-13.65-23.7-27.71-35.88-41.19-15.2-16.67-33.02-35.14-53.45-52.14l14.96,2.21c16.84,14.79,31.63,30.24,44.54,44.46Z"/><path class="cls-3" d="M1005.96,266.59c8.83,1.31,12.59,5.72,16.59,12.26,5.72-5.07,10.54-8.25,19.37-7.03,1.14,.16,2.29,.41,3.51,.74,7.52,1.88,15.36,10.22,14.47,23.78l-.65,4.49c-2.73,12.16-13.85,25.87-42.01,40.8-2.53,1.34-5.64,.89-7.69-1.13-22.73-22.39-29.38-38.72-28.6-51.11l.65-4.49c3.02-13.32,12.91-19.04,20.76-18.63,1.31,0,2.45,.16,3.6,.33"/><path class="cls-3" d="M904.04,255.8c8.83,1.31,12.59,5.72,16.59,12.26,5.72-5.07,10.54-8.25,19.37-7.03,1.14,.16,2.29,.41,3.51,.74,7.52,1.88,15.36,10.22,14.47,23.78l-.65,4.49c-2.73,12.16-13.85,25.87-42.01,40.8-2.53,1.34-5.64,.89-7.69-1.13-22.73-22.39-29.38-38.72-28.6-51.11l.65-4.49c3.02-13.32,12.91-19.04,20.76-18.63,1.31,.08,2.45,.16,3.6,.33"/><path class="cls-3" d="M1100.84,280.81c8.83,1.31,12.59,5.72,16.59,12.26,5.72-5.07,10.54-8.25,19.37-7.03,1.14,.16,2.29,.41,3.51,.74,7.52,1.88,15.36,10.22,14.47,23.78l-.65,4.49c-2.73,12.16-13.85,25.87-42.01,40.8-2.53,1.34-5.64,.89-7.69-1.13-22.73-22.39-29.38-38.72-28.6-51.11l.65-4.49c3.02-13.32,12.91-19.04,20.76-18.63,1.31,.08,2.53,.16,3.6,.33"/></g></g><path class="cls-4" d="M1180.51,1352.72c-1.49-14.67-5.04-29.56-11.05-43.7-11.03-26.14-29.14-50.14-57.31-58.33-9.54-2.77-19.43-4.03-29.37-4.71,1.58,9.99,2.25,20.12,4.31,30.05,2,9.65,5.09,19.02,8.48,28.26,1.87,1.68,3.77,3.33,5.52,5.14,12.32,12.75,18.29,32.06,20.07,49.37,1.94,18.84-1.11,39.43-7.56,59.36-6.46,19.96-16.28,39.42-28.43,56.9-6.08,8.73-12.76,16.98-19.92,24.39-1.79,1.86-3.61,3.65-5.45,5.38-.91,.89-1.86,1.7-2.78,2.55-.43,.41-1.02,.89-1.54,1.34l-1.59,1.37c-4.2,3.69-8.56,7.25-12.95,10.76-8.8,7.02-17.98,13.66-27.4,19.97-9.42,6.3-19.1,12.27-28.98,17.89-52.32,29.33-107.25,53.12-167.5,55.92-9.12,.42-19.66-6.46-21.4-16.23-.94-5.31-.76-10.95,.95-16.09,1.98-5.95,5.34-8.95,9.67-12.87,2.05-1.85-1.2-8.51-2.43-11.74-1.75-4.59-3.47-9.2-5.33-13.75-3.79-9.26-7.54-19.25-11.69-27.71-.92,.33-1.82,.77-2.69,1.18-14.96,7.14-24.48,22.03-32.45,36.56-21.99,40.06-7.79,100.75,41.11,111.91,24.35,5.56,52.04,3.24,76.36-1.3,12.89-2.4,25.59-5.42,38.09-8.95l9.34-2.75,9.25-2.98c1.55-.49,3.07-1.01,4.6-1.55l4.57-1.61,4.57-1.62,4.53-1.72c48.27-18.35,93.29-43.74,133.93-75.83,5.06-4.05,10.08-8.16,14.98-12.45l1.85-1.6c.63-.55,1.2-1.02,1.88-1.65,1.3-1.19,2.64-2.37,3.91-3.58,2.56-2.41,5.06-4.87,7.47-7.37,9.67-10.01,18.25-20.65,26.01-31.78,15.46-22.29,27.74-46.5,36.23-72.62,4.22-13.06,7.45-26.6,9.31-40.61,1.86-14,2.34-28.49,.84-43.19Z"/><path class="cls-4" d="M1238.41,1473c-1.53-14.67-5.19-29.56-11.36-43.7-11.34-26.14-29.96-50.14-58.93-58.33-9.81-2.77-19.98-4.03-30.19-4.71,1.62,9.99,2.31,20.12,4.43,30.05,2.06,9.65,5.24,19.02,8.72,28.26,1.92,1.68,3.88,3.33,5.67,5.14,12.67,12.75,18.8,32.06,20.64,49.37,2,18.84-1.14,39.43-7.78,59.36-6.64,19.96-16.74,39.42-29.24,56.9-6.25,8.73-13.12,16.98-20.49,24.39-1.84,1.86-3.71,3.65-5.61,5.38-.94,.89-1.91,1.7-2.86,2.55-.44,.41-1.05,.89-1.58,1.34l-1.63,1.37c-4.32,3.69-8.8,7.25-13.31,10.76-9.04,7.02-18.48,13.66-28.17,19.97-9.69,6.3-19.64,12.27-29.79,17.89-53.8,29.33-110.28,53.12-172.22,55.92-9.37,.42-20.22-6.46-22-16.23-.97-5.31-.79-10.95,.97-16.09,2.04-5.95,5.49-8.95,9.95-12.87,2.11-1.85-1.24-8.51-2.5-11.74-1.8-4.59-3.57-9.2-5.48-13.75-3.9-9.26-7.75-19.25-12.02-27.71-.95,.33-1.87,.77-2.76,1.18-15.38,7.14-25.17,22.03-33.37,36.56-22.61,40.06-8.01,100.75,42.27,111.91,25.03,5.56,53.51,3.24,78.51-1.3,13.25-2.4,26.31-5.42,39.17-8.95l9.6-2.75,9.51-2.98c1.59-.49,3.16-1.01,4.73-1.55l4.7-1.61,4.7-1.62,4.65-1.72c49.63-18.35,95.92-43.74,137.71-75.83,5.2-4.05,10.36-8.16,15.4-12.45l1.9-1.6c.64-.55,1.24-1.02,1.93-1.65,1.34-1.19,2.72-2.37,4.02-3.58,2.63-2.41,5.2-4.87,7.68-7.37,9.94-10.01,18.77-20.65,26.74-31.78,15.89-22.29,28.53-46.5,37.25-72.62,4.34-13.06,7.66-26.6,9.57-40.61,1.91-14,2.41-28.49,.86-43.19Z"/></g></svg>