<svg width="150" height="150" viewBox="0 0 200 200" fill="none" xmlns="http://www.w3.org/2000/svg">
<g clip-path="url(#clip0_241_6926)">
<path d="M199.994 35.3827C199.901 41.1869 199.777 46.9912 199.684 52.8266C199.59 56.831 199.497 61.0527 197.634 64.6224C196.859 66.1118 195.834 67.3538 194.655 68.5017C194.314 92.5261 194.003 116.52 193.662 140.544C193.6 145.138 193.445 150.042 190.806 153.829C188.82 156.747 185.623 158.578 182.519 160.286C180.036 161.683 177.553 163.079 175.07 164.445C165.511 169.815 155.951 175.184 146.391 180.523C140.96 183.565 135.528 186.607 130.096 189.648C125.317 192.318 120.413 195.019 114.981 195.763C110.015 196.415 104.987 195.36 100.082 194.305C92.6643 192.721 85.2774 191.108 77.8596 189.493C68.4235 187.476 58.9884 185.428 49.5523 183.378C40.8003 181.485 32.0162 179.591 23.2322 177.698C18.6699 176.737 13.766 175.557 10.6931 172.018C7.37179 168.139 7.15444 162.582 7.09235 157.461C7.0002 148.646 6.9381 139.8 6.84495 130.985C6.72075 119.313 6.6276 107.642 6.5034 95.9716C5.07512 95.2264 3.80308 94.2649 2.90264 92.8987C1.19591 90.3536 1.16486 87.0944 1.16486 84.0215C1.22696 75.6721 1.41326 67.2917 1.28906 58.9414C1.22696 54.969 0.0470723 49.7857 2.03325 46.0918C4.57832 41.3111 11.9661 39.8839 16.5284 38.114C20.3155 36.6246 24.1016 35.1343 27.8886 33.6759C31.7057 32.1545 35.5238 30.6651 39.3409 29.1747C40.3966 28.7711 41.4213 28.3684 42.476 27.9337C49.6144 25.1713 56.7849 22.5321 64.2959 20.9806C74.1967 18.9323 84.377 18.8702 94.4962 18.8702C105.483 18.9013 116.501 18.9944 127.489 19.3981C138.446 19.8318 149.371 20.5149 160.234 21.6948C171.47 22.9047 182.643 24.6124 193.693 27.0333C195.493 27.4059 197.387 27.9027 198.597 29.2679C199.994 30.8825 200.025 33.2412 199.994 35.3827Z" fill="#2A2C39"/>
<path d="M193.48 69.4201C193.713 69.7777 193.61 70.2605 193.249 70.4938C171.962 84.3009 151.36 96.0036 130.371 107.765C124.871 110.848 118.035 114.672 110.645 115.667L112.744 191.899C112.756 192.326 112.417 192.684 111.99 192.696C111.984 192.696 111.975 192.696 111.968 192.696C111.55 192.696 111.205 192.363 111.193 191.941L109.097 115.827C108.161 115.904 107.226 115.956 106.294 115.956C101.499 115.956 96.7618 115.025 92.1454 114.119L9.15565 97.8556C8.73397 97.7745 8.46154 97.3678 8.54267 96.9472C8.6248 96.5255 9.03746 96.256 9.45212 96.3342L92.4429 112.597C98.2712 113.74 104.297 114.928 110.262 114.161C117.422 113.245 124.181 109.456 129.612 106.413C150.578 94.6615 171.156 82.9728 192.407 69.1897C192.767 68.9564 193.246 69.0595 193.48 69.4201ZM11.256 45.2014C43.8091 51.6457 76.9261 57.5531 109.696 62.7645C109.735 62.7705 109.778 62.7735 109.817 62.7735C110.192 62.7735 110.523 62.5 110.583 62.1184C110.65 61.6968 110.363 61.2971 109.938 61.23C77.1905 56.0257 44.0916 50.1212 11.5595 43.6799C11.1108 43.5918 10.7282 43.8702 10.647 44.2889C10.5619 44.7106 10.8373 45.1192 11.256 45.2014ZM134.332 61.6907C134.441 61.6907 134.55 61.6697 134.655 61.6216L193.152 34.6986C193.541 34.5163 193.713 34.0555 193.535 33.6679C193.349 33.2763 192.892 33.104 192.504 33.2853L134.007 60.2084C133.62 60.3907 133.447 60.8514 133.626 61.239C133.759 61.5245 134.037 61.6907 134.332 61.6907Z" fill="#80BF00"/>
<path d="M172.09 45.005C168.676 41.4353 163.369 40.5969 158.465 39.977C148.921 38.7921 139.137 37.5972 129.22 36.4283C141.372 30.5178 153.172 24.9249 160.234 21.6947C154.072 21.0256 147.888 20.5288 141.691 20.1342C141.826 18.0979 141.595 16.0527 140.866 14.1286C138.764 8.5687 133.063 4.81369 127.152 4.17968C120.862 3.5046 115.339 5.36458 110.265 8.93829C110.007 9.11958 109.75 9.30588 109.494 9.49619C106.069 12.0483 103.05 15.0982 100.046 18.135C99.6695 18.5156 99.2929 18.8962 98.9163 19.2768C97.0052 18.8131 95.0621 18.4926 93.121 18.3494C91.877 18.2572 90.5369 18.2933 89.5453 18.778C86.5755 16.91 83.5647 15.1032 80.3586 13.6869C80.0661 13.5587 79.7746 13.4335 79.4822 13.3143C73.74 10.9595 67.9417 10.3756 61.9591 12.4329C56.3381 14.366 51.6156 19.2949 50.8023 25.1833C50.646 26.3131 50.6801 27.4429 50.8043 28.5627C48.0258 28.3504 45.2344 28.125 42.476 27.9337C41.4213 28.3674 40.3966 28.771 39.341 29.1747C35.5238 30.6651 31.7057 32.1544 27.8886 33.6759C36.1438 34.7877 46.3832 35.9495 54.378 36.9671C55.4698 38.3333 56.7378 39.5613 58.1731 40.5449C61.9922 43.1611 66.6486 44.2909 71.3031 44.2778C59.0555 46.5515 48.8462 47.8205 47.2797 50.7452C44.6815 55.599 50.3596 136.323 49.5523 183.378C58.9884 185.427 68.4235 187.476 77.8596 189.493C78.5106 145.169 78.1 58.7851 79.0936 57.5431C80.019 56.3702 94.2979 53.9103 104.489 48.7089C105.122 50.6831 105.701 52.6743 106.161 54.6965C106.987 58.3233 107.529 62.0152 107.773 65.7272C107.829 66.5725 107.926 67.529 108.599 68.0429C109.207 68.5066 110.11 68.4125 110.749 67.9928C111.388 67.5731 111.808 66.893 112.134 66.2009C112.707 64.985 113.274 63.4705 114.594 63.2131C115.061 63.122 115.543 63.2191 116.009 63.3153C118.702 63.8722 121.396 64.4281 124.09 64.985C124.19 61.5785 122.925 58.2873 121.489 55.1963C120.221 52.4689 118.768 49.8317 117.207 47.2606C131.168 49.9569 142.659 52.9938 144.343 56.241C146.329 60.0901 146.484 132.35 146.391 180.523C155.951 175.184 165.511 169.815 175.07 164.445C176.529 115.837 175.629 48.73 172.09 45.005ZM121.199 17.2175C122.731 17.1885 124.421 17.3558 125.492 18.4535C125.889 18.8612 126.151 19.37 126.313 19.9149C120.644 22.4119 113.84 25.4066 106.688 28.5617C105.397 28.4245 104.113 28.2492 102.851 27.9788C102.878 26.9311 102.875 25.8814 102.831 24.8257C107.757 20.1713 114.413 17.3447 121.199 17.2175ZM66.5445 29.5112C66.1438 28.3604 66.1188 27.0192 66.7538 25.9786C67.5531 24.6715 69.1637 24.1326 70.6641 23.8191C76.6857 22.5631 83.105 23.4776 88.6028 26.2209C89.0094 27.6793 89.5853 29.1146 90.3556 30.4808C89.2458 30.9715 88.101 31.3882 86.9431 31.7738C80.1943 31.0957 73.4565 30.4687 66.7368 29.8748C66.6817 29.7436 66.5926 29.6504 66.5445 29.5112Z" fill="#80BF00"/>
</g>
<defs>
<clipPath id="clip0_241_6926">
<rect width="200" height="200" fill="white"/>
</clipPath>
</defs>
</svg>