<svg width="330" height="330" viewBox="0 0 330 330" fill="none" xmlns="http://www.w3.org/2000/svg">
<g opacity="0.25">
<path d="M213.129 0.101439C213.129 0.101439 120.129 -4.43517 44.4243 47.1687C-31.2802 98.7725 7.18641 279.291 32.9883 290.727C58.7902 302.163 158.312 321.917 235.056 288.365C311.8 254.813 337.035 133.27 325.977 98.3945C314.919 63.5193 293.465 10.0253 213.129 0.101439Z" fill="#AA8ED6"/>
<path opacity="0.7" d="M213.129 0.101439C213.129 0.101439 120.129 -4.43517 44.4243 47.1687C-31.2802 98.7725 7.18641 279.291 32.9883 290.727C58.7902 302.163 158.312 321.917 235.056 288.365C311.8 254.813 337.035 133.27 325.977 98.3945C314.919 63.5193 293.465 10.0253 213.129 0.101439Z" fill="#AA8ED6"/>
</g>
<path d="M251.571 76.7595C221.516 63.2441 190.705 46.1373 172.653 17.4055C168.683 11.0732 165.564 4.92989 163.674 2C161.689 4.92989 158.665 11.1677 154.695 17.4055C136.644 46.1373 105.833 63.1496 75.7775 76.7595C74.4544 77.4211 53 84.8876 53 85.0766C53 85.2657 57.5366 196.223 91.7501 244.897C120.955 286.388 154.506 301.132 163.769 304.535C172.936 301.132 206.488 286.388 235.787 244.897C270.001 196.318 274.537 85.1712 274.537 85.0766C274.348 84.9821 252.799 77.3266 251.571 76.7595Z" fill="#8E53FE"/>
<path d="M242.116 84.8204C215.275 72.7228 187.866 57.5062 171.705 31.7988C168.208 26.1281 165.372 20.6464 163.671 18C161.97 20.6464 159.134 26.2226 155.638 31.7988C139.57 57.4117 112.067 72.7228 85.3202 84.8204C84.0915 85.3874 65 92.0033 65 92.2868C65 92.4759 69.064 191.43 99.5916 234.906C125.583 271.955 155.448 285.092 163.766 288.117C171.988 285.092 201.949 271.861 228.034 234.906C258.562 191.525 262.626 92.2868 262.626 92.2868C262.437 92.1923 243.251 85.2929 242.116 84.8204Z" fill="white"/>
<path d="M164.089 222.177C202.246 222.177 233.177 191.246 233.177 153.089C233.177 114.931 202.246 84 164.089 84C125.931 84 95 114.931 95 153.089C95 191.246 125.931 222.177 164.089 222.177Z" fill="#263238" stroke="#263238" stroke-width="1.43201" stroke-linecap="round" stroke-linejoin="round"/>
<path d="M251.571 76.7595C221.516 63.2441 190.705 46.1373 172.653 17.4055C168.683 11.0732 165.564 4.92989 163.674 2C161.689 4.92989 158.665 11.1677 154.695 17.4055C136.644 46.1373 105.833 63.1496 75.7775 76.7595C74.4544 77.4211 53 84.8876 53 85.0766C53 85.2657 57.5366 196.223 91.7501 244.897C120.955 286.388 154.506 301.132 163.769 304.535C172.936 301.132 206.488 286.388 235.787 244.897C270.001 196.318 274.537 85.1712 274.537 85.0766C274.348 84.9821 252.799 77.3266 251.571 76.7595Z" stroke="#263238" stroke-width="1.43201" stroke-miterlimit="10"/>
<path d="M150.244 188.952H149.582C147.219 188.763 145.14 187.534 143.911 185.55L123.307 152.754C120.945 149.351 121.89 144.72 125.292 142.357C128.695 139.995 133.326 140.94 135.689 144.342C135.783 144.531 135.878 144.626 135.972 144.815L151.378 169.199L193.908 121.754C196.555 118.54 201.186 118.068 204.399 120.714C207.613 123.36 208.085 127.992 205.439 131.205C205.25 131.394 205.155 131.583 204.966 131.678L155.82 186.495C154.402 188.102 152.417 188.952 150.244 188.952Z" fill="#AA8ED6" stroke="#263238" stroke-width="1.43201" stroke-miterlimit="10"/>
</svg>
