<svg width="200" height="198" viewBox="0 0 200 198" fill="none" xmlns="http://www.w3.org/2000/svg">
<g opacity="0.25">
<path d="M129.778 10.8986C129.778 10.8986 73.1484 8.13615 27.0507 39.5585C-19.047 70.9809 4.37592 180.902 20.0871 187.865C35.7983 194.829 96.3986 206.857 143.129 186.427C189.86 165.996 205.226 91.9867 198.493 70.7507C191.759 49.5147 178.695 16.9413 129.778 10.8986Z" fill="#AA8ED6"/>
<path opacity="0.7" d="M129.778 10.8986C129.778 10.8986 73.1484 8.13615 27.0507 39.5585C-19.047 70.9809 4.37592 180.902 20.0871 187.865C35.7983 194.829 96.3986 206.857 143.129 186.427C189.86 165.996 205.226 91.9867 198.493 70.7507C191.759 49.5147 178.695 16.9413 129.778 10.8986Z" fill="#AA8ED6"/>
</g>
<path d="M146.813 46.5222C128.512 38.2925 109.75 27.8759 98.7582 10.3807C96.3411 6.52482 94.4419 2.78406 93.2909 1C92.0823 2.78406 90.2407 6.58237 87.8236 10.3807C76.8316 27.8759 58.0702 38.235 39.7692 46.5222C38.9635 46.925 25.8997 51.4715 25.8997 51.5866C25.8997 51.7017 28.6621 119.266 49.4952 148.904C67.2782 174.168 87.7085 183.146 93.3484 185.218C98.9308 183.146 119.361 174.168 137.202 148.904C158.035 119.323 160.797 51.6441 160.797 51.5866C160.682 51.529 147.561 46.8675 146.813 46.5222Z" fill="#553986"/>
<path d="M141.058 51.529C124.713 44.1626 108.024 34.897 98.1826 19.2434C96.0533 15.7904 94.3268 12.4525 93.2909 10.8411C92.255 12.4525 90.5285 15.8479 88.3991 19.2434C78.6156 34.8395 61.8685 44.1626 45.5818 51.529C44.8336 51.8743 33.2085 55.9028 33.2085 56.0755C33.2085 56.1906 35.6831 116.446 54.2719 142.919C70.0981 165.478 88.284 173.478 93.3484 175.319C98.3553 173.478 116.599 165.421 132.483 142.919C151.071 116.503 153.546 56.0755 153.546 56.0755C153.431 56.0179 141.748 51.8168 141.058 51.529Z" fill="white"/>
<path d="M93.7513 140.559C116.985 140.559 135.82 121.724 135.82 98.4901C135.82 75.2559 116.985 56.4209 93.7513 56.4209C70.5171 56.4209 51.6821 75.2559 51.6821 98.4901C51.6821 121.724 70.5171 140.559 93.7513 140.559Z" fill="#553986" stroke="#263238" stroke-linecap="round" stroke-linejoin="round"/>
<path d="M146.813 46.5222C128.512 38.2925 109.75 27.8759 98.7582 10.3807C96.3411 6.52482 94.4419 2.78406 93.2909 1C92.0823 2.78406 90.2407 6.58237 87.8236 10.3807C76.8316 27.8759 58.0702 38.235 39.7692 46.5222C38.9635 46.925 25.8997 51.4715 25.8997 51.5866C25.8997 51.7017 28.6621 119.266 49.4952 148.904C67.2782 174.168 87.7085 183.146 93.3485 185.218C98.9308 183.146 119.361 174.168 137.202 148.904C158.035 119.323 160.797 51.6441 160.797 51.5866C160.682 51.529 147.561 46.8675 146.813 46.5222Z" stroke="#263238" stroke-miterlimit="10"/>
<path d="M119.472 72.3929C119.888 72.8088 120.294 73.2353 120.689 73.6711C121.085 74.1083 121.469 74.5534 121.843 75.009C122.216 75.4634 122.578 75.927 122.929 76.3999C123.279 76.8728 123.618 77.3537 123.945 77.8438C124.272 78.3326 124.588 78.8307 124.89 79.3353C125.193 79.84 125.483 80.3514 125.76 80.8706C126.038 81.3899 126.302 81.9158 126.553 82.4483C126.805 82.9808 127.043 83.5186 127.269 84.0617C127.495 84.6061 127.706 85.1545 127.904 85.7096C128.103 86.2633 128.287 86.8223 128.458 87.3852C128.629 87.9482 128.787 88.5165 128.93 89.0874C129.073 89.6583 129.201 90.2319 129.317 90.8095C129.43 91.387 129.531 91.9659 129.619 92.5487C129.705 93.1316 129.776 93.7157 129.834 94.3012C129.891 94.8867 129.935 95.4735 129.964 96.0617C129.993 96.6498 130.008 97.238 130.008 97.8261C130.008 98.4156 129.993 99.0037 129.964 99.5919C129.935 100.179 129.891 100.766 129.834 101.352C129.776 101.938 129.705 102.522 129.619 103.104C129.532 103.686 129.432 104.267 129.317 104.844C129.201 105.42 129.073 105.995 128.93 106.566C128.787 107.137 128.629 107.704 128.46 108.267C128.289 108.831 128.103 109.389 127.904 109.944C127.707 110.498 127.495 111.047 127.27 111.591C127.045 112.135 126.806 112.673 126.555 113.205C126.303 113.736 126.038 114.262 125.761 114.782C125.483 115.301 125.193 115.814 124.891 116.318C124.588 116.823 124.274 117.32 123.946 117.81C123.619 118.299 123.28 118.779 122.929 119.252C122.579 119.725 122.216 120.19 121.843 120.645C121.471 121.1 121.085 121.545 120.69 121.981C120.296 122.418 119.889 122.843 119.473 123.261C119.057 123.677 118.631 124.082 118.195 124.478C117.758 124.873 117.313 125.257 116.858 125.63C116.403 126.004 115.939 126.366 115.466 126.717C114.993 127.068 114.512 127.407 114.022 127.733C113.533 128.06 113.037 128.375 112.531 128.677C112.026 128.981 111.515 129.271 110.995 129.547C110.476 129.826 109.95 130.091 109.418 130.342C108.886 130.594 108.349 130.832 107.804 131.058C107.26 131.283 106.711 131.495 106.158 131.692C105.603 131.891 105.044 132.075 104.481 132.246C103.918 132.417 103.351 132.574 102.78 132.717C102.209 132.86 101.634 132.989 101.056 133.104C100.479 133.219 99.9001 133.32 99.3172 133.406C98.7357 133.492 98.1515 133.564 97.5647 133.622C96.9792 133.68 96.3924 133.723 95.8043 133.752C95.2161 133.781 94.628 133.796 94.0398 133.796C93.4517 133.796 92.8622 133.781 92.2754 133.752C91.6873 133.723 91.1004 133.68 90.5149 133.622C89.9281 133.565 89.3439 133.492 88.7624 133.406C88.1796 133.32 87.5994 133.219 87.0232 133.104C86.4456 132.989 85.8707 132.86 85.2998 132.717C84.7289 132.574 84.1619 132.418 83.5989 132.247C83.036 132.076 82.477 131.891 81.9219 131.693C81.3682 131.495 80.8185 131.283 80.2754 131.058C79.731 130.832 79.1932 130.594 78.6607 130.342C78.1295 130.091 77.6036 129.826 77.0843 129.549C76.5651 129.271 76.0537 128.981 75.5477 128.679C75.043 128.375 74.5463 128.061 74.0562 127.734C73.5674 127.407 73.0865 127.068 72.6136 126.718C72.1407 126.367 71.6771 126.004 71.2214 125.632C70.7671 125.258 70.3207 124.874 69.8849 124.478C69.449 124.083 69.0225 123.677 68.6066 123.261C68.1893 122.845 67.784 122.418 67.3892 121.982C66.9931 121.547 66.609 121.1 66.2354 120.646C65.8619 120.19 65.5003 119.727 65.1492 119.254C64.7982 118.781 64.4604 118.3 64.1332 117.81C63.806 117.321 63.4908 116.824 63.1888 116.32C62.8854 115.814 62.5953 115.302 62.3185 114.783C62.0403 114.264 61.7767 113.738 61.525 113.207C61.2733 112.674 61.0349 112.136 60.8084 111.592C60.5832 111.049 60.3712 110.499 60.1739 109.945C59.9752 109.39 59.791 108.831 59.6202 108.268C59.4493 107.705 59.2916 107.138 59.1486 106.567C59.0055 105.997 58.877 105.422 58.7618 104.844C58.6465 104.268 58.5472 103.688 58.4598 103.105C58.3737 102.523 58.3021 101.939 58.2438 101.354C58.1869 100.767 58.1432 100.18 58.114 99.5919C58.0849 99.0051 58.0703 98.4156 58.0703 97.8274C58.0703 97.2393 58.0849 96.6512 58.114 96.063C58.1432 95.4749 58.1869 94.888 58.2438 94.3026C58.3021 93.7157 58.3737 93.1316 58.4598 92.55C58.5459 91.9672 58.6465 91.3883 58.7618 90.8108C58.877 90.2332 59.0055 89.6583 59.1486 89.0874C59.2916 88.5165 59.4479 87.9495 59.6188 87.3866C59.7897 86.8236 59.9752 86.2646 60.1725 85.7096C60.3712 85.1559 60.5832 84.6074 60.8084 84.063C61.0336 83.5186 61.272 82.9808 61.5237 82.4496C61.7754 81.9171 62.0403 81.3912 62.3171 80.8719C62.5953 80.3527 62.8854 79.8414 63.1874 79.3367C63.4908 78.8307 63.8047 78.3339 64.1319 77.8451C64.4591 77.355 64.7982 76.8741 65.1492 76.4012C65.4989 75.9283 65.8619 75.4647 66.2354 75.009C66.6077 74.5547 66.9931 74.1083 67.3879 73.6725C67.7826 73.2367 68.1893 72.8101 68.6052 72.3942C69.0212 71.9782 69.4477 71.5716 69.8835 71.1768C70.3193 70.7808 70.7657 70.3966 71.2201 70.0231C71.6758 69.6495 72.1394 69.2879 72.6123 68.9369C73.0852 68.5871 73.5661 68.248 74.0562 67.9208C74.545 67.5937 75.0417 67.2784 75.5477 66.9764C76.0524 66.673 76.5637 66.3829 77.083 66.1061C77.6023 65.8279 78.1281 65.5643 78.6607 65.3126C79.1918 65.0609 79.7296 64.8225 80.2741 64.5973C80.8172 64.3721 81.3669 64.1602 81.9206 63.9615C82.4756 63.7628 83.0346 63.5786 83.5976 63.4078C84.1606 63.2369 84.7275 63.0793 85.2985 62.9362C85.8694 62.7931 86.4443 62.6646 87.0218 62.5494C87.5981 62.4355 88.1783 62.3348 88.7611 62.2487C89.3426 62.1613 89.9268 62.0897 90.5123 62.0315C91.0991 61.9745 91.6859 61.9308 92.2741 61.9016C92.8609 61.8725 93.4504 61.8593 94.0385 61.8593C94.6266 61.8593 95.2148 61.8725 95.8029 61.9016C96.3911 61.9308 96.9779 61.9745 97.5634 62.0315C98.1502 62.0897 98.7344 62.1613 99.3159 62.2474C99.8988 62.3348 100.478 62.4355 101.055 62.5494C101.633 62.6646 102.208 62.7931 102.779 62.9362C103.349 63.0793 103.916 63.2369 104.479 63.4078C105.042 63.5786 105.601 63.7628 106.156 63.9615C106.71 64.1588 107.258 64.3708 107.803 64.596C108.347 64.8212 108.885 65.0596 109.416 65.3113C109.949 65.563 110.475 65.8279 110.994 66.1061C111.513 66.3829 112.025 66.673 112.531 66.975C113.035 67.2784 113.532 67.5937 114.021 67.9195C114.511 68.2467 114.992 68.5858 115.465 68.9369C115.938 69.2879 116.401 69.6495 116.857 70.0231C117.311 70.3966 117.758 70.7808 118.193 71.1755C118.629 71.5716 119.056 71.9769 119.472 72.3929Z" fill="#AA8ED6"/>
<path d="M91.3957 134.616C109.016 135.693 127.347 124.148 129.813 102.582L105.25 78.4995L71.9141 114.325" fill="#231F20" fill-opacity="0.65"/>
<path d="M102.291 114.782C102.291 118.324 99.9014 121.306 96.6467 122.208C95.991 122.389 95.3009 122.486 94.5882 122.486C90.3334 122.486 86.884 119.036 86.884 114.782L94.6001 110.816L102.291 114.782Z" fill="#E58E13"/>
<path d="M101.917 117.158C101.125 119.606 99.1396 121.518 96.6466 122.208C95.0796 121.773 93.7139 120.858 92.7177 119.63C91.915 118.639 92.6396 117.158 93.9139 117.158H101.917Z" fill="#F7D360"/>
<path d="M114.478 107.079L97.9262 110.658L74.6958 107.079C76.5185 107.079 77.5504 106.125 78.1346 104.543C80.9654 96.9108 73.4268 74.6647 94.5881 74.6647C115.748 74.6647 108.208 96.9108 111.039 104.543C111.626 106.125 112.656 107.079 114.478 107.079Z" fill="#F7D360"/>
<path d="M118.329 110.931C118.329 113.057 116.605 114.782 114.478 114.782H74.696C73.6336 114.782 72.6693 114.351 71.9725 113.653C71.2757 112.958 70.8452 111.993 70.8452 110.931C70.8452 108.803 72.5699 107.079 74.696 107.079H114.478C115.542 107.079 116.505 107.509 117.201 108.206C117.898 108.904 118.329 109.867 118.329 110.931Z" fill="#E58E13"/>
<path d="M111.039 104.543H90.3626C88.1332 104.543 86.3515 102.7 86.4204 100.47C86.7118 91.044 85.2084 74.8435 94.4332 74.666C69.1112 74.7972 85.2984 107.079 74.6973 107.079H114.478C112.656 107.079 111.626 106.125 111.039 104.543Z" fill="#E58E13"/>
<path d="M118.329 110.931C118.329 113.057 116.605 114.782 114.478 114.782H85.8269C84.7632 114.782 83.8002 114.351 83.1021 113.653C82.4067 112.958 81.9749 111.993 81.9749 110.931C81.9749 108.803 83.6995 107.079 85.8269 107.079H114.478C115.541 107.079 116.504 107.509 117.201 108.206C117.898 108.904 118.329 109.867 118.329 110.931Z" fill="#F7D360"/>
<path d="M98.5025 74.9601C98.5104 74.862 98.5144 74.764 98.5144 74.6647C98.5144 72.4962 96.7566 70.7384 94.5881 70.7384C92.4183 70.7384 90.6619 72.4962 90.6619 74.6647C90.6619 74.764 90.6645 74.862 90.6725 74.9601" fill="#E58E13"/>
<path d="M113.709 87.6899C113.272 87.6899 112.919 87.3349 112.919 86.8978C112.919 83.2325 111.975 80.1037 110.117 77.5988C108.73 75.7297 107.319 74.9256 107.306 74.9163C106.924 74.7031 106.788 74.2209 107 73.8407C107.212 73.4592 107.691 73.3215 108.074 73.5321C108.14 73.5692 109.745 74.4699 111.333 76.5801C112.779 78.5008 114.501 81.8509 114.501 86.8978C114.501 87.3349 114.148 87.6899 113.709 87.6899Z" fill="#E6E6E6"/>
<path d="M117.195 83.1491C116.757 83.1491 116.402 82.7941 116.402 82.357C116.402 77.3008 113.409 75.2913 113.282 75.2078C112.916 74.9694 112.81 74.4806 113.046 74.115C113.282 73.7481 113.768 73.6394 114.135 73.8739C114.292 73.9733 117.987 76.3934 117.987 82.357C117.987 82.7941 117.633 83.1491 117.195 83.1491Z" fill="#E6E6E6"/>
<path d="M75.464 87.6899C75.0269 87.6899 74.6719 87.3349 74.6719 86.8977C74.6719 81.8508 76.3952 78.5008 77.8404 76.58C79.43 74.4699 81.0328 73.5691 81.1004 73.532C81.4832 73.3201 81.9654 73.4592 82.1773 73.842C82.388 74.2248 82.2502 74.7057 81.8687 74.9176C81.8369 74.9348 80.4367 75.7415 79.0565 77.5987C77.198 80.1036 76.2562 83.2324 76.2562 86.8977C76.2562 87.3349 75.9011 87.6899 75.464 87.6899Z" fill="#E6E6E6"/>
<path d="M71.9792 83.149C71.542 83.149 71.187 82.794 71.187 82.3569C71.187 76.3933 74.8815 73.9732 75.0391 73.8739C75.4087 73.6394 75.8975 73.748 76.1333 74.1163C76.3664 74.4845 76.2591 74.9733 75.8922 75.2078C75.761 75.2939 72.7713 77.3047 72.7713 82.3569C72.7713 82.794 72.4163 83.149 71.9792 83.149Z" fill="#E6E6E6"/>
</svg>
